<svg width="161" height="52" viewBox="0 0 161 52" fill="none" xmlns="http://www.w3.org/2000/svg">
<path d="M89.7127 7.22659C90.3096 7.22659 90.9146 7.23068 91.5278 7.23885C92.1492 7.24703 92.7338 7.27156 93.2816 7.31244L93.2203 8.24453H90.0684C89.5369 8.24453 89.2712 8.50208 89.2712 9.01718V10.8936H92.7543V11.8502H89.2712V15.7012H88.0448V8.78416C88.0448 8.29359 88.196 7.91339 88.4985 7.64358C88.8011 7.36559 89.2058 7.22659 89.7127 7.22659Z" fill="white"/>
<path d="M95.567 9.71625V13.8616C95.567 14.2213 95.6365 14.4748 95.7755 14.622C95.9145 14.7691 96.1475 14.8427 96.4746 14.8427C96.7689 14.8427 97.0673 14.7773 97.3699 14.6465C97.6724 14.5075 98.0321 14.3072 98.4491 14.0455V9.71625H99.6388V15.7012H98.6821L98.5963 14.8305C98.1548 15.1739 97.7255 15.4314 97.3085 15.6031C96.8916 15.7748 96.4664 15.8607 96.0331 15.8607C94.9374 15.8607 94.3896 15.3129 94.3896 14.2172V9.71625H95.567Z" fill="white"/>
<path d="M102.45 9.71625L102.548 10.6483C102.99 10.3049 103.431 10.0392 103.873 9.85115C104.322 9.6631 104.768 9.56907 105.209 9.56907C106.297 9.56907 106.841 10.1169 106.841 11.2125V15.7012H105.651V11.5559C105.651 11.1798 105.586 10.9222 105.455 10.7832C105.332 10.6361 105.128 10.5625 104.842 10.5625C104.506 10.5625 104.171 10.6402 103.836 10.7955C103.501 10.9427 103.104 11.1512 102.646 11.421V15.7012H101.469V9.71625H102.45Z" fill="white"/>
<path d="M110.642 9.56907C111.01 9.56907 111.37 9.61404 111.721 9.70398C112.081 9.79392 112.42 9.93292 112.739 10.121C112.723 9.92474 112.711 9.72851 112.702 9.53228C112.694 9.33605 112.69 9.13165 112.69 8.91907V7.11621H113.88V15.7012H112.948L112.837 14.8305C112.535 15.1166 112.183 15.3578 111.783 15.5541C111.39 15.7503 110.957 15.8484 110.483 15.8484C109.73 15.8484 109.191 15.5827 108.864 15.0512C108.537 14.5116 108.373 13.7226 108.373 12.6842C108.373 11.8993 108.455 11.282 108.618 10.8323C108.79 10.3744 109.04 10.0515 109.367 9.86342C109.702 9.66719 110.127 9.56907 110.642 9.56907ZM109.587 12.6719C109.587 13.2361 109.632 13.6776 109.722 13.9965C109.812 14.3072 109.955 14.5239 110.151 14.6465C110.348 14.7691 110.597 14.8305 110.9 14.8305C111.218 14.8305 111.501 14.7732 111.746 14.6588C111.999 14.5361 112.314 14.3399 112.69 14.0701V10.8568C112.363 10.7669 112.069 10.6933 111.807 10.6361C111.546 10.5707 111.263 10.538 110.961 10.538C110.634 10.538 110.368 10.5993 110.164 10.7219C109.968 10.8364 109.82 11.049 109.722 11.3597C109.632 11.6622 109.587 12.0996 109.587 12.6719Z" fill="white"/>
<path d="M118.248 9.56907C119.172 9.56907 119.838 9.73669 120.247 10.0719C120.664 10.399 120.872 10.8854 120.872 11.5314C120.872 12.071 120.754 12.488 120.517 12.7823C120.28 13.0767 119.891 13.2238 119.352 13.2238H116.69C116.731 13.6654 116.817 14.0047 116.948 14.2418C117.087 14.4789 117.283 14.6424 117.536 14.7324C117.79 14.8223 118.109 14.8673 118.493 14.8673C118.804 14.8673 119.151 14.855 119.536 14.8305C119.92 14.7978 120.275 14.761 120.603 14.7201L120.725 15.4927C120.529 15.5827 120.292 15.6522 120.014 15.7012C119.736 15.7503 119.45 15.7871 119.155 15.8116C118.861 15.8361 118.591 15.8484 118.346 15.8484C117.643 15.8484 117.079 15.7462 116.653 15.5418C116.228 15.3292 115.918 14.994 115.721 14.5361C115.525 14.0701 115.427 13.4569 115.427 12.6965C115.427 11.9116 115.525 11.2902 115.721 10.8323C115.918 10.3744 116.22 10.0515 116.629 9.86342C117.046 9.66719 117.585 9.56907 118.248 9.56907ZM118.297 10.5134C117.904 10.5134 117.59 10.5707 117.352 10.6851C117.124 10.7914 116.956 10.9795 116.85 11.2493C116.743 11.5109 116.686 11.887 116.678 12.3776H119.045C119.315 12.3776 119.491 12.2918 119.572 12.1201C119.654 11.9484 119.695 11.7521 119.695 11.5314C119.687 11.1716 119.576 10.9141 119.364 10.7587C119.159 10.5952 118.804 10.5134 118.297 10.5134Z" fill="white"/>
<path d="M124.368 9.56907C124.735 9.56907 125.095 9.61404 125.447 9.70398C125.807 9.79392 126.146 9.93292 126.465 10.121C126.448 9.92474 126.436 9.72851 126.428 9.53228C126.42 9.33605 126.416 9.13165 126.416 8.91907V7.11621H127.605V15.7012H126.673L126.563 14.8305C126.26 15.1166 125.909 15.3578 125.508 15.5541C125.116 15.7503 124.682 15.8484 124.208 15.8484C123.456 15.8484 122.916 15.5827 122.589 15.0512C122.262 14.5116 122.099 13.7226 122.099 12.6842C122.099 11.8993 122.18 11.282 122.344 10.8323C122.516 10.3744 122.765 10.0515 123.092 9.86342C123.427 9.66719 123.852 9.56907 124.368 9.56907ZM123.313 12.6719C123.313 13.2361 123.358 13.6776 123.448 13.9965C123.538 14.3072 123.681 14.5239 123.877 14.6465C124.073 14.7691 124.323 14.8305 124.625 14.8305C124.944 14.8305 125.226 14.7732 125.471 14.6588C125.725 14.5361 126.04 14.3399 126.416 14.0701V10.8568C126.089 10.7669 125.794 10.6933 125.533 10.6361C125.271 10.5707 124.989 10.538 124.686 10.538C124.359 10.538 124.094 10.5993 123.889 10.7219C123.693 10.8364 123.546 11.049 123.448 11.3597C123.358 11.6622 123.313 12.0996 123.313 12.6719Z" fill="white"/>
<path d="M135.489 9.56907C136.233 9.56907 136.781 9.81027 137.133 10.2927C137.484 10.7669 137.66 11.5641 137.66 12.6842C137.66 13.3547 137.582 13.927 137.427 14.4012C137.272 14.8673 136.994 15.227 136.593 15.4805C136.201 15.7258 135.653 15.8484 134.95 15.8484C134.672 15.8484 134.365 15.8321 134.03 15.7993C133.695 15.7666 133.359 15.7176 133.024 15.6522C132.697 15.5868 132.403 15.505 132.141 15.4069V7.11621H133.331V9.29926C133.331 9.5609 133.322 9.8021 133.306 10.0229C133.29 10.2354 133.257 10.4439 133.208 10.6483C133.551 10.2968 133.915 10.031 134.3 9.85115C134.684 9.6631 135.08 9.56907 135.489 9.56907ZM135.048 10.5625C134.753 10.5625 134.471 10.6361 134.201 10.7832C133.94 10.9304 133.645 11.1307 133.318 11.3842V14.7078C133.596 14.7732 133.87 14.8223 134.14 14.855C134.418 14.8795 134.68 14.8918 134.925 14.8918C135.285 14.8836 135.575 14.81 135.796 14.671C136.017 14.532 136.176 14.3031 136.274 13.9842C136.38 13.6654 136.434 13.232 136.434 12.6842C136.434 12.1528 136.393 11.7358 136.311 11.4332C136.237 11.1226 136.098 10.9018 135.894 10.771C135.698 10.632 135.416 10.5625 135.048 10.5625Z" fill="white"/>
<path d="M139.7 9.71625L141.208 14.0701C141.249 14.1927 141.286 14.3195 141.319 14.4503C141.359 14.5729 141.392 14.6996 141.417 14.8305H141.588C141.637 14.6996 141.682 14.5688 141.723 14.438C141.764 14.299 141.805 14.1764 141.846 14.0701L143.33 9.71625H144.605L142.251 15.9833C142.12 16.3431 141.94 16.6906 141.711 17.0258C141.482 17.3692 141.188 17.6513 140.828 17.872C140.468 18.0928 140.027 18.2072 139.503 18.2154L139.393 17.4673C139.884 17.3201 140.26 17.1157 140.521 16.8541C140.791 16.6006 141.004 16.2899 141.159 15.922L141.245 15.7012H140.987C140.767 15.7012 140.628 15.599 140.57 15.3946L138.436 9.71625H139.7Z" fill="white"/>
<path d="M91.4788 24.6423V25.5254H89.6146V28.9226C89.6146 29.2006 89.6718 29.4009 89.7863 29.5235C89.9089 29.638 90.1134 29.6952 90.3995 29.6952H91.2825L91.4175 30.566C91.2131 30.6314 90.9637 30.6764 90.6693 30.7009C90.3832 30.7254 90.1583 30.7377 89.9948 30.7377C89.4879 30.7377 89.0995 30.5987 88.8297 30.3207C88.5599 30.0427 88.425 29.6421 88.425 29.1188V25.5254H87.3457V24.7037L88.425 24.6423V22.8885H89.6146V24.6423H91.4788Z" fill="white"/>
<path d="M96.4424 24.4952C97.5298 24.4952 98.0735 25.043 98.0735 26.1386V30.6273H96.8716V26.482C96.8716 26.1059 96.8103 25.8483 96.6877 25.7093C96.565 25.5622 96.3606 25.4886 96.0744 25.4886C95.7392 25.4886 95.404 25.5622 95.0688 25.7093C94.7335 25.8565 94.337 26.0691 93.8791 26.3471V30.6273H92.7018V22.0423H93.8791L93.8914 24.3603C93.8914 24.8263 93.8628 25.2229 93.8055 25.5499C94.2552 25.2229 94.6968 24.9653 95.1301 24.7773C95.5716 24.5892 96.009 24.4952 96.4424 24.4952Z" fill="white"/>
<path d="M102.39 24.4952C103.314 24.4952 103.981 24.6628 104.389 24.998C104.806 25.3251 105.015 25.8115 105.015 26.4575C105.015 26.9971 104.896 27.4141 104.659 27.7084C104.422 28.0028 104.034 28.1499 103.494 28.1499H100.833C100.874 28.5915 100.96 28.9308 101.09 29.1679C101.229 29.405 101.426 29.5685 101.679 29.6584C101.933 29.7484 102.251 29.7934 102.636 29.7934C102.946 29.7934 103.294 29.7811 103.678 29.7566C104.062 29.7239 104.418 29.6871 104.745 29.6462L104.868 30.4188C104.672 30.5088 104.434 30.5783 104.156 30.6273C103.878 30.6764 103.592 30.7132 103.298 30.7377C103.004 30.7622 102.734 30.7745 102.488 30.7745C101.785 30.7745 101.221 30.6723 100.796 30.4679C100.371 30.2553 100.06 29.9201 99.8639 29.4622C99.6677 28.9962 99.5696 28.383 99.5696 27.6226C99.5696 26.8377 99.6677 26.2163 99.8639 25.7584C100.06 25.3005 100.363 24.9776 100.771 24.7895C101.188 24.5933 101.728 24.4952 102.39 24.4952ZM102.439 25.4395C102.047 25.4395 101.732 25.4968 101.495 25.6112C101.266 25.7175 101.099 25.9056 100.992 26.1754C100.886 26.437 100.829 26.8131 100.821 27.3037H103.188C103.457 27.3037 103.633 27.2179 103.715 27.0462C103.797 26.8745 103.838 26.6782 103.838 26.4575C103.829 26.0977 103.719 25.8402 103.506 25.6848C103.302 25.5213 102.946 25.4395 102.439 25.4395Z" fill="white"/>
<path d="M110.935 22.1527C111.548 22.1527 112.173 22.1568 112.811 22.165C113.457 22.165 114.062 22.1854 114.626 22.2263L114.577 23.1706H111.204C110.73 23.1706 110.493 23.4282 110.493 23.9433V25.6971H114.099V26.6414H110.493V28.849C110.493 29.3723 110.73 29.6339 111.204 29.6339H114.577L114.626 30.566C114.062 30.6069 113.457 30.6273 112.811 30.6273C112.173 30.6355 111.548 30.6396 110.935 30.6396C110.428 30.6396 110.023 30.5047 109.72 30.2349C109.418 29.9651 109.267 29.5971 109.267 29.1311V23.6612C109.267 23.1952 109.418 22.8272 109.72 22.5574C110.023 22.2876 110.428 22.1527 110.935 22.1527Z" fill="white"/>
<path d="M117.293 24.6423V28.7877C117.293 29.1474 117.363 29.4009 117.502 29.5481C117.641 29.6952 117.874 29.7688 118.201 29.7688C118.495 29.7688 118.793 29.7034 119.096 29.5726C119.398 29.4336 119.758 29.2333 120.175 28.9716V24.6423H121.365V30.6273H120.408L120.322 29.7566C119.881 30.1 119.452 30.3575 119.035 30.5292C118.618 30.7009 118.192 30.7868 117.759 30.7868C116.663 30.7868 116.116 30.239 116.116 29.1433V24.6423H117.293Z" fill="white"/>
<path d="M124.115 24.6423L124.237 25.5744C124.663 25.231 125.088 24.9653 125.513 24.7773C125.946 24.5892 126.367 24.4952 126.776 24.4952H127.046L126.923 25.599H126.543C126.224 25.599 125.897 25.6603 125.562 25.7829C125.235 25.9056 124.838 26.0773 124.372 26.298V30.6273H123.195V24.6423H124.115Z" fill="white"/>
<path d="M130.609 24.4952C131.312 24.4952 131.873 24.5974 132.29 24.8018C132.707 25.0062 133.009 25.3414 133.197 25.8075C133.385 26.2653 133.479 26.8745 133.479 27.6348C133.479 28.4034 133.385 29.0207 133.197 29.4867C133.009 29.9446 132.707 30.2758 132.29 30.4802C131.873 30.6846 131.312 30.7868 130.609 30.7868C129.914 30.7868 129.354 30.6846 128.929 30.4802C128.512 30.2758 128.21 29.9446 128.022 29.4867C127.833 29.0207 127.739 28.4034 127.739 27.6348C127.739 26.8745 127.833 26.2653 128.022 25.8075C128.21 25.3414 128.512 25.0062 128.929 24.8018C129.354 24.5974 129.914 24.4952 130.609 24.4952ZM130.609 25.4518C130.201 25.4518 129.878 25.5172 129.64 25.648C129.403 25.7788 129.236 26.0037 129.138 26.3226C129.039 26.6333 128.99 27.0707 128.99 27.6348C128.99 28.199 129.039 28.6405 129.138 28.9594C129.236 29.2783 129.403 29.5031 129.64 29.6339C129.878 29.7566 130.201 29.8179 130.609 29.8179C131.018 29.8179 131.341 29.7566 131.578 29.6339C131.823 29.5031 131.995 29.2783 132.093 28.9594C132.191 28.6405 132.24 28.199 132.24 27.6348C132.24 27.0707 132.191 26.6333 132.093 26.3226C131.995 26.0037 131.823 25.7788 131.578 25.648C131.341 25.5172 131.018 25.4518 130.609 25.4518Z" fill="white"/>
<path d="M136.009 24.6423L136.107 25.5867C136.418 25.2515 136.794 24.9857 137.235 24.7895C137.685 24.5933 138.127 24.4952 138.56 24.4952C139.296 24.4952 139.823 24.765 140.142 25.3046C140.461 25.8442 140.62 26.6333 140.62 27.6716C140.62 28.4484 140.539 29.0616 140.375 29.5113C140.211 29.961 139.962 30.2839 139.627 30.4802C139.292 30.6764 138.871 30.7745 138.364 30.7745C137.979 30.7745 137.603 30.7254 137.235 30.6273C136.867 30.5292 136.516 30.3739 136.181 30.1613C136.205 30.3657 136.217 30.566 136.217 30.7622C136.226 30.9666 136.226 31.1751 136.217 31.3877V33.0679H135.04V24.6423H136.009ZM138.143 25.4886C137.824 25.4886 137.517 25.5622 137.223 25.7093C136.929 25.8483 136.593 26.0568 136.217 26.3348V29.45C136.569 29.5481 136.88 29.6298 137.149 29.6952C137.427 29.7607 137.722 29.7934 138.032 29.7934C138.36 29.7934 138.625 29.7361 138.83 29.6217C139.034 29.5072 139.181 29.2987 139.271 28.9962C139.361 28.6855 139.406 28.244 139.406 27.6716C139.406 26.8458 139.308 26.2776 139.112 25.9669C138.916 25.648 138.593 25.4886 138.143 25.4886Z" fill="white"/>
<path d="M144.729 24.4952C145.653 24.4952 146.319 24.6628 146.728 24.998C147.145 25.3251 147.353 25.8115 147.353 26.4575C147.353 26.9971 147.235 27.4141 146.998 27.7084C146.76 28.0028 146.372 28.1499 145.832 28.1499H143.171C143.212 28.5915 143.298 28.9308 143.429 29.1679C143.568 29.405 143.764 29.5685 144.017 29.6584C144.271 29.7484 144.59 29.7934 144.974 29.7934C145.285 29.7934 145.632 29.7811 146.016 29.7566C146.401 29.7239 146.756 29.6871 147.083 29.6462L147.206 30.4188C147.01 30.5088 146.773 30.5783 146.495 30.6273C146.217 30.6764 145.931 30.7132 145.636 30.7377C145.342 30.7622 145.072 30.7745 144.827 30.7745C144.124 30.7745 143.559 30.6723 143.134 30.4679C142.709 30.2553 142.398 29.9201 142.202 29.4622C142.006 28.9962 141.908 28.383 141.908 27.6226C141.908 26.8377 142.006 26.2163 142.202 25.7584C142.398 25.3005 142.701 24.9776 143.11 24.7895C143.527 24.5933 144.066 24.4952 144.729 24.4952ZM144.778 25.4395C144.385 25.4395 144.07 25.4968 143.833 25.6112C143.604 25.7175 143.437 25.9056 143.33 26.1754C143.224 26.437 143.167 26.8131 143.159 27.3037H145.526C145.796 27.3037 145.971 27.2179 146.053 27.0462C146.135 26.8745 146.176 26.6782 146.176 26.4575C146.168 26.0977 146.057 25.8402 145.845 25.6848C145.64 25.5213 145.285 25.4395 144.778 25.4395Z" fill="white"/>
<path d="M151.731 24.4952C152.418 24.4952 152.942 24.6383 153.301 24.9244C153.661 25.2024 153.841 25.7134 153.841 26.4575V30.6273H152.909L152.774 29.6339C152.619 29.7974 152.418 29.9651 152.173 30.1368C151.936 30.3085 151.662 30.4515 151.351 30.566C151.049 30.6805 150.714 30.7377 150.346 30.7377C149.806 30.7377 149.364 30.5946 149.021 30.3085C148.686 30.0223 148.518 29.6094 148.518 29.0698V28.4198C148.518 27.9537 148.665 27.5899 148.96 27.3282C149.262 27.0666 149.679 26.9358 150.211 26.9358H152.651V26.4575C152.651 26.1059 152.57 25.8524 152.406 25.6971C152.242 25.5417 151.932 25.4641 151.474 25.4641C151.163 25.4641 150.771 25.4804 150.297 25.5131C149.83 25.5376 149.369 25.5703 148.911 25.6112L148.8 24.765C149.078 24.7159 149.385 24.671 149.72 24.6301C150.063 24.5892 150.411 24.5565 150.763 24.532C151.114 24.5074 151.437 24.4952 151.731 24.4952ZM150.615 29.7688C150.902 29.777 151.229 29.7116 151.597 29.5726C151.964 29.4254 152.316 29.2128 152.651 28.9349V27.7697L150.468 27.782C150.19 27.7902 149.994 27.8638 149.88 28.0028C149.773 28.1336 149.72 28.3176 149.72 28.5547V28.9226C149.72 29.2169 149.79 29.4336 149.929 29.5726C150.076 29.7034 150.305 29.7688 150.615 29.7688Z" fill="white"/>
<path d="M156.609 24.6423L156.708 25.5744C157.149 25.231 157.591 24.9653 158.032 24.7773C158.482 24.5892 158.927 24.4952 159.369 24.4952C160.456 24.4952 161 25.043 161 26.1386V30.6273H159.81V26.482C159.81 26.1059 159.745 25.8483 159.614 25.7093C159.492 25.5622 159.287 25.4886 159.001 25.4886C158.666 25.4886 158.33 25.5663 157.995 25.7216C157.66 25.8688 157.263 26.0773 156.806 26.3471V30.6273H155.628V24.6423H156.609Z" fill="white"/>
<path d="M94.2873 37.0911V42.2911C94.2873 43.1169 94.1851 43.7833 93.9807 44.2902C93.7845 44.789 93.4615 45.1528 93.0118 45.3817C92.5621 45.6025 91.9612 45.7129 91.209 45.7129C90.424 45.7129 89.7945 45.6025 89.3203 45.3817C88.8542 45.1528 88.519 44.789 88.3146 44.2902C88.1102 43.7833 88.008 43.1169 88.008 42.2911V37.0911H89.2344V42.2911C89.2344 42.8798 89.2916 43.3459 89.4061 43.6893C89.5288 44.0327 89.7291 44.2779 90.0071 44.4251C90.2932 44.5723 90.6734 44.6459 91.1476 44.6459C91.6137 44.6459 91.9857 44.5723 92.2637 44.4251C92.5499 44.2779 92.7543 44.0327 92.8769 43.6893C92.9996 43.3459 93.0609 42.8798 93.0609 42.2911V37.0911H94.2873Z" fill="white"/>
<path d="M97.1562 39.5684L97.2543 40.5005C97.6958 40.1571 98.1373 39.8914 98.5789 39.7034C99.0285 39.5153 99.4742 39.4213 99.9157 39.4213C101.003 39.4213 101.547 39.9691 101.547 41.0647V45.5534H100.357V41.4081C100.357 41.032 100.292 40.7744 100.161 40.6354C100.038 40.4883 99.8339 40.4147 99.5477 40.4147C99.2125 40.4147 98.8773 40.4924 98.5421 40.6477C98.2068 40.7949 97.8103 41.0034 97.3524 41.2732V45.5534H96.1751V39.5684H97.1562Z" fill="white"/>
<path d="M104.257 37.0052C104.494 37.0052 104.612 37.1238 104.612 37.3609V38.0599C104.612 38.297 104.494 38.4156 104.257 38.4156H103.705C103.468 38.4156 103.349 38.297 103.349 38.0599V37.3609C103.349 37.1238 103.468 37.0052 103.705 37.0052H104.257ZM104.563 39.5684V45.5534H103.398V39.5684H104.563Z" fill="white"/>
<path d="M109.051 39.4213C109.754 39.4213 110.314 39.5235 110.731 39.7279C111.148 39.9323 111.451 40.2675 111.639 40.7336C111.827 41.1914 111.921 41.8005 111.921 42.5609C111.921 43.3295 111.827 43.9468 111.639 44.4128C111.451 44.8707 111.148 45.2019 110.731 45.4063C110.314 45.6107 109.754 45.7129 109.051 45.7129C108.356 45.7129 107.796 45.6107 107.371 45.4063C106.954 45.2019 106.651 44.8707 106.463 44.4128C106.275 43.9468 106.181 43.3295 106.181 42.5609C106.181 41.8005 106.275 41.1914 106.463 40.7336C106.651 40.2675 106.954 39.9323 107.371 39.7279C107.796 39.5235 108.356 39.4213 109.051 39.4213ZM109.051 40.3779C108.642 40.3779 108.319 40.4433 108.082 40.5741C107.845 40.7049 107.677 40.9298 107.579 41.2487C107.481 41.5593 107.432 41.9968 107.432 42.5609C107.432 43.1251 107.481 43.5666 107.579 43.8855C107.677 44.2044 107.845 44.4292 108.082 44.56C108.319 44.6827 108.642 44.744 109.051 44.744C109.46 44.744 109.783 44.6827 110.02 44.56C110.265 44.4292 110.437 44.2044 110.535 43.8855C110.633 43.5666 110.682 43.1251 110.682 42.5609C110.682 41.9968 110.633 41.5593 110.535 41.2487C110.437 40.9298 110.265 40.7049 110.02 40.5741C109.783 40.4433 109.46 40.3779 109.051 40.3779Z" fill="white"/>
<path d="M114.463 39.5684L114.561 40.5005C115.002 40.1571 115.444 39.8914 115.885 39.7034C116.335 39.5153 116.781 39.4213 117.222 39.4213C118.31 39.4213 118.853 39.9691 118.853 41.0647V45.5534H117.664V41.4081C117.664 41.032 117.598 40.7744 117.468 40.6354C117.345 40.4883 117.14 40.4147 116.854 40.4147C116.519 40.4147 116.184 40.4924 115.849 40.6477C115.513 40.7949 115.117 41.0034 114.659 41.2732V45.5534H113.482V39.5684H114.463Z" fill="white"/>
<path d="M77.2792 0.820312H0.947266V51.7172H77.2792V0.820312Z" fill="#164194"/>
<path d="M37.474 11.9115L39.0889 10.7273L40.7038 11.9115L40.0847 10.0005L41.7266 8.84318H39.7079L39.0889 6.90527L38.4698 8.84318H36.4512L38.093 10.0005L37.474 11.9115Z" fill="#FFED00"/>
<path d="M29.1546 14.1439L30.7426 12.9597L32.3575 14.1439L31.7654 12.233L33.3803 11.0756H31.3617L30.7426 9.1377L30.1236 11.0756H28.1318L29.7468 12.233L29.1546 14.1439Z" fill="#FFED00"/>
<path d="M24.6602 15.2471L24.0411 17.185H22.0225L23.6643 18.3693L23.0452 20.2533L24.6602 19.096L26.2751 20.2533L25.656 18.3693L27.2979 17.185H25.2792L24.6602 15.2471Z" fill="#FFED00"/>
<path d="M22.4277 27.4138L24.0427 28.5711L23.4236 26.6871L25.0654 25.5028H23.0468L22.4277 23.5918L21.8087 25.5028H19.79L21.4319 26.6871L20.8128 28.5711L22.4277 27.4138Z" fill="#FFED00"/>
<path d="M25.2792 33.8456L24.6602 31.9346L24.0411 33.8725L22.0225 33.8456L23.6643 35.0298L23.0452 36.9408L24.6602 35.7566L26.2751 36.9408L25.656 35.0298L27.2979 33.8456H25.2792Z" fill="#FFED00"/>
<path d="M31.3886 39.9559L30.7695 38.0449L30.1505 39.9828L28.1318 39.9559L29.7737 41.1402L29.1546 43.0512L30.7695 41.8669L32.3845 43.0512L31.7654 41.1402L33.4072 39.9559H31.3886Z" fill="#FFED00"/>
<path d="M39.7079 42.1928L39.0889 40.2549L38.4698 42.1928H36.4512L38.093 43.3501L37.474 45.2611L39.0889 44.0769L40.7038 45.2611L40.0847 43.3501L41.7266 42.1928H39.7079Z" fill="#FFED00"/>
<path d="M48.0248 39.9559L47.4326 38.0449L46.8136 39.9828L44.7949 39.9559L46.4098 41.1402L45.8177 43.0512L47.4326 41.8669L49.0206 43.0512L48.4285 41.1402L50.0434 39.9559H48.0248Z" fill="#FFED00"/>
<path d="M54.1601 33.8456L53.541 31.9346L52.922 33.8725L50.9033 33.8456L52.5452 35.0298L51.9261 36.9408L53.541 35.7566L55.129 36.9408L54.5369 35.0298L56.1518 33.8456H54.1601Z" fill="#FFED00"/>
<path d="M58.3867 25.4774H56.3681L55.749 23.5664L55.13 25.4774H53.1113L54.7532 26.6617L54.1341 28.5727L55.749 27.3884L57.364 28.5727L56.7449 26.6617L58.3867 25.4774Z" fill="#FFED00"/>
<path d="M51.9261 20.226L53.541 19.0686L55.129 20.226L54.5369 18.3419L56.1518 17.1576H54.1601L53.541 15.2197L52.922 17.1576H50.9033L52.5452 18.3419L51.9261 20.226Z" fill="#FFED00"/>
<path d="M47.4301 9.1377L46.8111 11.0756H44.8193L46.4343 12.2599L45.8421 14.1439L47.4301 12.9597L49.045 14.1439L48.426 12.2599L50.0678 11.0756H48.0492L47.4301 9.1377Z" fill="#FFED00"/>
</svg>
