<svg width="250" height="51" viewBox="0 0 250 51" fill="none" xmlns="http://www.w3.org/2000/svg">
<path d="M76.3622 0.365234H0.900391V50.674H76.3622V0.365234Z" fill="#034EA2"/>
<path d="M37.0238 11.3277L38.615 10.1649L40.2089 11.3277L39.6022 9.44909L41.22 8.2863H39.227L38.615 6.38379L38.0057 8.28896L36.0127 8.2863L37.6305 9.44909L37.0238 11.3277Z" fill="#FFF200"/>
<path d="M28.7836 13.5413L30.3748 12.3785L31.9686 13.5413L31.362 11.6627L32.9797 10.4999H30.9841L30.3748 8.59473L29.7654 10.5026L27.7725 10.4999L29.3876 11.6627L28.7836 13.5413Z" fill="#FFF200"/>
<path d="M24.3455 14.6387L23.7361 16.5465L21.7432 16.5438L23.361 17.7066L22.7543 19.5852L24.3455 18.4224L25.9393 19.5852L25.3327 17.7066L26.9505 16.5438H24.9575L24.3455 14.6387Z" fill="#FFF200"/>
<path d="M22.1345 26.6519L23.7257 27.8147L23.1217 25.9361L24.7369 24.7733H22.7465L22.1345 22.8682L21.5252 24.776L19.5322 24.7733L21.15 25.9361L20.5433 27.8147L22.1345 26.6519Z" fill="#FFF200"/>
<path d="M24.9575 33.027L24.3455 31.1245L23.7361 33.0297L21.7432 33.027L23.361 34.1898L22.7543 36.0684L24.3455 34.9056L25.9393 36.0684L25.3327 34.1898L26.9505 33.027H24.9575Z" fill="#FFF200"/>
<path d="M30.9968 39.0673L30.3875 37.1675L29.7781 39.07L27.7852 39.0673L29.4003 40.2301L28.7963 42.1113L30.3875 40.9485L31.9787 42.1113L31.3746 40.2301L32.9898 39.0673H30.9968Z" fill="#FFF200"/>
<path d="M39.2273 41.2575L38.6179 39.355L38.0086 41.2601L36.0156 41.2575L37.6308 42.4203L37.0267 44.2988L38.6179 43.1387L40.2091 44.2988L39.6051 42.4203L41.2203 41.2575H39.2273Z" fill="#FFF200"/>
<path d="M47.4577 39.0673L46.8484 37.1675L46.2391 39.07L44.2461 39.0673L45.8612 40.2301L45.2572 42.1113L46.8484 40.9485L48.4423 42.1113L47.8356 40.2301L49.4507 39.0673H47.4577Z" fill="#FFF200"/>
<path d="M53.5004 33.027L52.8911 31.1245L52.2791 33.0297L50.2861 33.027L51.9039 34.1898L51.2973 36.0684L52.8911 34.9056L54.4823 36.0684L53.8756 34.1898L55.4934 33.027H53.5004Z" fill="#FFF200"/>
<path d="M57.6799 24.7497H55.687L55.075 22.8472L54.4683 24.7523L52.4727 24.7497L54.0905 25.9125L53.4864 27.791L55.075 26.6282L56.6688 27.791L56.0648 25.9125L57.6799 24.7497Z" fill="#FFF200"/>
<path d="M51.2973 19.5601L52.8884 18.3973L54.4823 19.5601L53.8756 17.6789L55.4934 16.5187H53.5004L52.8884 14.6162L52.2791 16.5214L50.2861 16.5187L51.9039 17.6789L51.2973 19.5601Z" fill="#FFF200"/>
<path d="M46.8718 8.59814L46.2625 10.5033L44.2695 10.5007L45.8847 11.6634L45.278 13.5447L46.8745 12.3792L48.463 13.5447L47.859 11.6634L49.4768 10.5007H47.4812L46.8718 8.59814Z" fill="#FFF200"/>
<path d="M87.3232 19.2892V6.9082H95.8087V9.00229H89.8324V11.9292H94.9998V14.0233H89.8324V19.2838L87.3232 19.2892Z" fill="white"/>
<path d="M103.756 19.2891V17.9453C103.429 18.4253 102.986 18.8152 102.468 19.0789C101.949 19.3504 101.371 19.4919 100.784 19.4913C100.218 19.5001 99.6592 19.3636 99.161 19.0948C98.6999 18.85 98.3344 18.4574 98.1233 17.9799C97.8823 17.347 97.7728 16.6716 97.8013 15.9949V10.3193H100.175V14.441C100.175 15.7022 100.22 16.4765 100.305 16.7586C100.384 17.0314 100.553 17.2695 100.784 17.4345C101.042 17.6104 101.35 17.6981 101.662 17.6846C102.051 17.69 102.431 17.5737 102.75 17.352C103.053 17.1521 103.284 16.8614 103.41 16.5218C103.527 16.1936 103.586 15.3874 103.586 14.1031V10.3193H105.959V19.2891H103.756Z" fill="white"/>
<path d="M116.577 19.2894H114.204V14.7127C114.204 13.7441 114.153 13.1162 114.052 12.8341C113.962 12.5653 113.789 12.3323 113.557 12.1689C113.314 12.0082 113.027 11.9264 112.735 11.9348C112.34 11.9294 111.953 12.0475 111.628 12.2727C111.309 12.4852 111.072 12.8008 110.957 13.1667C110.803 13.8418 110.742 14.5346 110.774 15.2262V19.2894H108.4V10.3196H110.606V11.6367C110.94 11.1643 111.384 10.7794 111.898 10.5149C112.413 10.2504 112.984 10.114 113.562 10.1174C114.055 10.112 114.543 10.2089 114.997 10.4021C115.382 10.5534 115.721 10.8019 115.981 11.1232C116.205 11.4218 116.362 11.7648 116.441 12.129C116.541 12.6551 116.585 13.1902 116.572 13.7255L116.577 19.2894Z" fill="white"/>
<path d="M127.207 19.2892H125.004V17.9587C124.672 18.4407 124.227 18.8337 123.708 19.1029C123.242 19.3453 122.725 19.4738 122.199 19.4781C121.693 19.4791 121.194 19.368 120.736 19.1527C120.278 18.9373 119.874 18.6232 119.552 18.2328C118.817 17.4026 118.45 16.2442 118.45 14.7577C118.45 13.2393 118.805 12.0862 119.515 11.2986C119.853 10.915 120.27 10.61 120.739 10.4049C121.207 10.1999 121.715 10.0999 122.226 10.1119C122.725 10.1139 123.218 10.2271 123.668 10.4435C124.118 10.6598 124.515 10.9737 124.828 11.3625V6.9082H127.199L127.207 19.2892ZM120.874 14.6114C120.874 15.5666 121.007 16.2611 121.271 16.6868C121.427 16.9722 121.659 17.2096 121.94 17.3736C122.221 17.5376 122.542 17.6222 122.867 17.6181C123.138 17.6175 123.404 17.5542 123.646 17.4333C123.888 17.3123 124.099 17.137 124.262 16.921C124.645 16.4562 124.836 15.7617 124.836 14.8375C124.836 13.8069 124.65 13.0654 124.277 12.6131C124.109 12.3968 123.892 12.2228 123.645 12.105C123.397 11.9872 123.125 11.9288 122.851 11.9345C122.58 11.9314 122.311 11.9901 122.066 12.1063C121.821 12.2225 121.605 12.3931 121.436 12.6051C121.066 13.0521 120.874 13.7253 120.874 14.6114Z" fill="white"/>
<path d="M134.743 16.4339L137.106 16.8304C136.853 17.6294 136.348 18.3249 135.666 18.8127C134.935 19.2868 134.076 19.5237 133.205 19.4912C131.646 19.4912 130.493 18.9821 129.746 17.9639C129.127 17.0549 128.815 15.9712 128.857 14.872C128.857 13.3855 129.246 12.2218 130.023 11.3809C130.394 10.97 130.85 10.6443 131.358 10.4261C131.867 10.208 132.417 10.1025 132.971 10.117C134.307 10.117 135.36 10.5605 136.129 11.4475C136.899 12.3344 137.268 13.6844 137.236 15.4973H131.287C131.273 16.0959 131.483 16.6781 131.875 17.131C132.047 17.319 132.257 17.4684 132.49 17.5693C132.724 17.6702 132.977 17.7204 133.232 17.7164C133.57 17.7276 133.902 17.6192 134.168 17.4104C134.455 17.1515 134.656 16.8106 134.743 16.4339ZM134.876 14.0391C134.901 13.4685 134.711 12.9092 134.344 12.4719C134.182 12.3005 133.985 12.1646 133.768 12.0726C133.551 11.9806 133.316 11.9345 133.08 11.9372C132.844 11.94 132.611 11.9915 132.396 12.0885C132.181 12.1856 131.988 12.3261 131.829 12.5012C131.473 12.9315 131.294 13.4815 131.329 14.0391H134.876Z" fill="white"/>
<path d="M147.392 19.2891H145.178V17.9587C144.846 18.4408 144.4 18.8337 143.88 19.1029C143.414 19.345 142.898 19.4735 142.374 19.4781C141.866 19.4815 141.363 19.3715 140.903 19.156C140.442 18.9406 140.036 18.6252 139.713 18.2328C138.979 17.4026 138.611 16.2442 138.611 14.7577C138.611 13.2393 138.966 12.0862 139.676 11.2986C140.013 10.9147 140.431 10.6095 140.9 10.4044C141.368 10.1994 141.876 10.0995 142.387 10.1119C142.886 10.1143 143.378 10.2277 143.828 10.444C144.278 10.6604 144.673 10.9741 144.987 11.3625V6.9082H147.36L147.392 19.2891ZM141.059 14.6114C141.059 15.5666 141.19 16.2611 141.456 16.6868C141.613 16.9722 141.844 17.2096 142.125 17.3736C142.406 17.5376 142.727 17.6222 143.052 17.6181C143.323 17.6173 143.589 17.554 143.831 17.433C144.073 17.3121 144.284 17.1368 144.447 16.921C144.828 16.4562 145.019 15.7617 145.019 14.8375C145.019 13.8078 144.835 13.0654 144.463 12.6131C144.291 12.4022 144.074 12.2322 143.828 12.1155C143.582 11.9988 143.314 11.9383 143.042 11.9383C142.77 11.9383 142.501 11.9988 142.255 12.1155C142.009 12.2322 141.793 12.4022 141.621 12.6131C141.246 13.0548 141.059 13.7209 141.059 14.6114Z" fill="white"/>
<path d="M154.435 19.2892V6.9082H156.808V11.3678C157.121 10.9794 157.517 10.6657 157.967 10.4494C158.417 10.233 158.909 10.1196 159.408 10.1172C159.919 10.1047 160.427 10.2045 160.895 10.4095C161.364 10.6146 161.781 10.9199 162.119 11.3039C162.829 12.0951 163.183 13.2313 163.183 14.7125C163.183 16.2434 162.819 17.423 162.09 18.2514C161.767 18.6433 161.36 18.958 160.9 19.1725C160.439 19.3871 159.937 19.496 159.429 19.4914C158.9 19.4869 158.38 19.3555 157.912 19.1082C157.399 18.8366 156.958 18.4472 156.624 17.972V19.3025L154.435 19.2892ZM156.792 14.6114C156.792 15.54 156.936 16.2265 157.231 16.6709C157.395 16.9605 157.632 17.201 157.92 17.3676C158.208 17.5342 158.535 17.6207 158.868 17.6181C159.126 17.616 159.381 17.5541 159.612 17.4373C159.842 17.3205 160.043 17.152 160.198 16.9449C160.569 16.4979 160.753 15.7884 160.751 14.8163C160.751 13.7927 160.566 13.0539 160.195 12.5998C160.026 12.3836 159.809 12.2097 159.561 12.092C159.313 11.9742 159.041 11.9157 158.766 11.9212C158.495 11.9171 158.227 11.9746 157.981 12.0894C157.735 12.2041 157.519 12.3732 157.348 12.5838C156.978 13.0388 156.792 13.7093 156.792 14.6114Z" fill="white"/>
<path d="M163.978 10.3193H166.503L168.65 16.6868L170.744 10.3193H173.2L170.034 18.9511L169.467 20.5131C169.311 20.9324 169.112 21.3346 168.873 21.7131C168.699 21.9746 168.478 22.2019 168.222 22.3836C167.947 22.5696 167.642 22.7056 167.32 22.7854C166.923 22.8857 166.515 22.934 166.106 22.9291C165.659 22.9288 165.213 22.8806 164.776 22.7854L164.563 20.9228C164.894 20.9907 165.231 21.0273 165.569 21.0319C165.796 21.0504 166.025 21.0161 166.238 20.9316C166.45 20.8472 166.64 20.7149 166.793 20.545C167.08 20.1797 167.288 19.7582 167.402 19.3077L163.978 10.3193Z" fill="white"/>
<path d="M91.4025 31.0741V32.966H89.7794V36.5821C89.7641 37.0093 89.7801 37.4371 89.8273 37.862C89.8583 37.9838 89.9332 38.0899 90.0375 38.16C90.1549 38.2425 90.2959 38.2845 90.4393 38.2797C90.767 38.2548 91.0886 38.1775 91.3919 38.0509L91.5941 39.8922C91.0037 40.1353 90.37 40.2558 89.7315 40.2461C89.3352 40.2522 88.9416 40.1789 88.5741 40.0306C88.2749 39.9199 88.013 39.7271 87.8184 39.4744C87.6394 39.1947 87.5257 38.8782 87.4858 38.5485C87.4193 37.9941 87.3935 37.4356 87.4086 36.8775V32.966H86.3203V31.0741H87.4086V29.294L89.7901 27.9077V31.0741H91.4025Z" fill="white"/>
<path d="M95.4194 27.6626V32.2153C95.9091 31.5993 96.5892 31.163 97.3533 30.9747C98.1174 30.7865 98.9223 30.8569 99.6422 31.1749C100.035 31.3431 100.377 31.6109 100.635 31.9519C100.856 32.2667 101.011 32.6234 101.09 33.0003C101.188 33.5892 101.229 34.1862 101.212 34.783V40.0435H98.8386V35.3046C98.8695 34.7053 98.8248 34.1046 98.7055 33.5165C98.6188 33.2667 98.45 33.0538 98.2266 32.9125C97.9695 32.7543 97.6714 32.6757 97.3698 32.6863C96.9947 32.6799 96.6255 32.7805 96.3054 32.9763C95.9869 33.1784 95.7474 33.4836 95.6269 33.8411C95.4632 34.3932 95.393 34.9688 95.4194 35.544V40.0382H93.0459V27.6626H95.4194Z" fill="white"/>
<path d="M108.807 37.1888L111.17 37.5853C110.917 38.3843 110.412 39.0798 109.73 39.5676C108.999 40.0417 108.14 40.2786 107.269 40.2461C105.71 40.2461 104.557 39.737 103.81 38.7188C103.191 37.8094 102.881 36.7257 102.924 35.6269C102.924 34.1403 103.312 32.9767 104.089 32.1358C104.46 31.725 104.915 31.3992 105.424 31.1811C105.932 30.9629 106.482 30.8574 107.035 30.8719C108.371 30.8719 109.423 31.3154 110.193 32.2023C110.963 33.0893 111.332 34.4392 111.3 36.2522H105.353C105.331 36.8518 105.536 37.4376 105.925 37.8939C106.098 38.0841 106.31 38.235 106.547 38.3364C106.783 38.4378 107.038 38.4875 107.296 38.482C107.634 38.4931 107.966 38.3848 108.232 38.176C108.522 37.9147 108.723 37.5696 108.807 37.1888ZM108.943 34.794C108.967 34.2236 108.777 33.6647 108.411 33.2268C108.248 33.0546 108.052 32.918 107.834 32.8255C107.617 32.733 107.382 32.6867 107.146 32.6894C106.909 32.6922 106.676 32.7439 106.46 32.8415C106.245 32.939 106.052 33.0802 105.893 33.256C105.537 33.6861 105.359 34.2366 105.396 34.794H108.943Z" fill="white"/>
<path d="M118.053 40.0435V27.6626H127.233V29.7567H120.551V32.5027H126.767V34.5888H120.551V37.9574H127.469V40.0435H118.053Z" fill="white"/>
<path d="M135.477 40.0435V38.6997C135.15 39.1797 134.707 39.5696 134.19 39.8333C133.67 40.1048 133.092 40.2463 132.505 40.2457C131.939 40.2545 131.38 40.118 130.882 39.8492C130.421 39.6038 130.056 39.2113 129.844 38.7343C129.602 38.1017 129.493 37.4261 129.522 36.7493V31.0737H131.896V35.1954C131.896 36.4566 131.938 37.2309 132.026 37.513C132.105 37.7858 132.274 38.0239 132.505 38.1888C132.763 38.3648 133.071 38.4525 133.383 38.439C133.772 38.4433 134.152 38.3271 134.472 38.1064C134.774 37.9065 135.005 37.6158 135.131 37.2762C135.249 36.948 135.307 36.1418 135.307 34.8575V31.0737H137.681V40.0435H135.477Z" fill="white"/>
<path d="M142.409 40.0438H140.038V31.074H142.252V32.3512C142.505 31.8882 142.851 31.4824 143.268 31.1592C143.576 30.9662 143.933 30.8663 144.295 30.8718C144.847 30.8749 145.387 31.0296 145.857 31.3188L145.123 33.389C144.796 33.1549 144.409 33.0201 144.008 33.0005C143.705 32.9884 143.406 33.0825 143.165 33.2666C142.89 33.5352 142.704 33.8816 142.632 34.2591C142.499 34.738 142.433 35.7403 142.433 37.2658L142.409 40.0438Z" fill="white"/>
<path d="M146.319 35.4323C146.322 34.6331 146.522 33.8471 146.902 33.144C147.27 32.4279 147.844 31.8392 148.552 31.4543C149.287 31.0595 150.111 30.8589 150.946 30.8716C151.564 30.8512 152.18 30.9588 152.754 31.1878C153.328 31.4168 153.849 31.7621 154.283 32.202C154.712 32.6435 155.048 33.1671 155.269 33.7413C155.491 34.3156 155.595 34.9288 155.574 35.544C155.593 36.1658 155.487 36.7851 155.262 37.3649C155.036 37.9446 154.696 38.4729 154.262 38.918C153.832 39.3562 153.317 39.7007 152.747 39.9297C152.178 40.1586 151.568 40.2672 150.954 40.2484C150.138 40.2491 149.332 40.0587 148.602 39.6923C147.877 39.3393 147.282 38.7667 146.902 38.0559C146.491 37.2439 146.291 36.3418 146.319 35.4323ZM148.751 35.56C148.751 36.447 148.962 37.1281 149.384 37.6035C149.579 37.8257 149.819 38.0037 150.088 38.1257C150.357 38.2477 150.649 38.3108 150.945 38.3108C151.24 38.3108 151.533 38.2477 151.802 38.1257C152.071 38.0037 152.311 37.8257 152.506 37.6035C152.924 37.1299 153.134 36.4425 153.134 35.5414C153.134 34.6402 152.924 33.9653 152.506 33.5165C152.311 33.2935 152.071 33.1148 151.802 32.9923C151.533 32.8699 151.241 32.8065 150.945 32.8065C150.649 32.8065 150.357 32.8699 150.088 32.9923C149.819 33.1148 149.579 33.2935 149.384 33.5165C148.962 33.9812 148.751 34.6624 148.751 35.56Z" fill="white"/>
<path d="M157.365 31.0742H159.579V32.3913C159.871 31.9335 160.272 31.5543 160.745 31.2871C161.24 31.003 161.802 30.8569 162.373 30.864C162.879 30.8588 163.381 30.9658 163.841 31.1775C164.301 31.3891 164.708 31.7001 165.034 32.088C165.761 32.904 166.124 34.042 166.122 35.5019C166.122 36.9973 165.757 38.161 165.026 38.9929C164.702 39.3849 164.296 39.7 163.836 39.9154C163.376 40.1308 162.873 40.241 162.365 40.2382C161.899 40.2449 161.439 40.1438 161.019 39.9428C160.537 39.6842 160.106 39.3408 159.747 38.9291V43.4525H157.365V31.0742ZM159.715 35.4087C159.715 36.4146 159.914 37.1587 160.313 37.6412C160.485 37.866 160.706 38.0481 160.959 38.1732C161.213 38.2983 161.492 38.363 161.774 38.3623C162.039 38.3657 162.301 38.3077 162.54 38.1927C162.779 38.0778 162.987 37.909 163.15 37.6997C163.517 37.258 163.701 36.5334 163.701 35.5258C163.701 34.5865 163.512 33.8867 163.134 33.4317C162.969 33.2173 162.756 33.0439 162.513 32.9253C162.27 32.8066 162.002 32.7459 161.732 32.7479C161.456 32.743 161.182 32.8008 160.932 32.917C160.682 33.0331 160.461 33.2046 160.287 33.4184C159.907 33.8655 159.717 34.5289 159.715 35.4087Z" fill="white"/>
<path d="M173.192 37.1888L175.557 37.5853C175.302 38.3832 174.798 39.0781 174.118 39.5676C173.386 40.0417 172.525 40.2786 171.654 40.2461C170.095 40.2461 168.941 39.737 168.195 38.7188C167.576 37.8094 167.266 36.7257 167.309 35.6269C167.309 34.1403 167.697 32.9767 168.474 32.1358C168.845 31.725 169.3 31.3992 169.808 31.1811C170.317 30.9629 170.867 30.8574 171.42 30.8719C172.755 30.8719 173.809 31.3154 174.581 32.2023C175.352 33.0893 175.72 34.4392 175.685 36.2522H169.738C169.717 36.8521 169.922 37.438 170.313 37.8939C170.486 38.0821 170.698 38.2309 170.934 38.3305C171.17 38.4301 171.424 38.4781 171.68 38.4713C172.019 38.4829 172.351 38.3745 172.617 38.1653C172.905 37.9068 173.105 37.5658 173.192 37.1888ZM173.327 34.794C173.351 34.2236 173.162 33.6647 172.795 33.2268C172.633 33.0546 172.437 32.918 172.219 32.8255C172.001 32.733 171.767 32.6867 171.53 32.6894C171.294 32.6922 171.06 32.7439 170.845 32.8415C170.629 32.939 170.436 33.0802 170.278 33.256C169.923 33.6868 169.745 34.2367 169.781 34.794H173.327Z" fill="white"/>
<path d="M179.392 33.8118L177.237 33.4233C177.415 32.6543 177.857 31.9724 178.487 31.4969C179.078 31.08 179.956 30.8716 181.122 30.8716C182.186 30.8716 182.975 30.9966 183.487 31.2468C183.943 31.4425 184.326 31.7767 184.581 32.202C184.79 32.5887 184.896 33.2983 184.897 34.3307L184.871 37.1006C184.857 37.6847 184.895 38.2689 184.985 38.8462C185.077 39.2634 185.221 39.6675 185.414 40.0489H183.064C183.003 39.8919 182.926 39.6577 182.838 39.3464C182.798 39.208 182.769 39.1149 182.753 39.0803C182.378 39.454 181.937 39.7545 181.452 39.9664C180.985 40.1643 180.482 40.2649 179.975 40.2617C179.051 40.2617 178.323 40.0116 177.79 39.5114C177.53 39.2695 177.324 38.9749 177.187 38.6474C177.049 38.3198 176.983 37.9667 176.992 37.6115C176.984 37.134 177.11 36.6638 177.357 36.2545C177.6 35.858 177.953 35.5409 178.373 35.3418C178.978 35.0813 179.612 34.8954 180.262 34.7884C181.046 34.665 181.818 34.4709 182.567 34.2083V33.9475C182.585 33.77 182.564 33.5906 182.505 33.4219C182.447 33.2533 182.353 33.0994 182.229 32.971C182.002 32.7767 181.579 32.6783 180.954 32.6783C180.606 32.659 180.261 32.7463 179.964 32.9284C179.687 33.1573 179.488 33.4657 179.392 33.8118ZM182.567 35.7356C182.091 35.8814 181.609 36.003 181.122 36.1002C180.673 36.1707 180.238 36.3098 179.831 36.5126C179.689 36.601 179.572 36.724 179.49 36.8702C179.409 37.0163 179.366 37.1808 179.366 37.3481C179.365 37.5098 179.397 37.6698 179.461 37.8182C179.525 37.9666 179.62 38.1001 179.738 38.2102C179.863 38.3314 180.011 38.4261 180.173 38.4888C180.336 38.5514 180.509 38.5807 180.683 38.5748C181.126 38.5698 181.555 38.4213 181.907 38.1517C182.178 37.9605 182.377 37.6843 182.473 37.3667C182.552 36.9862 182.583 36.5974 182.567 36.2093V35.7356Z" fill="white"/>
<path d="M195.394 40.0438H193.02V35.4671C193.02 34.4986 192.97 33.8706 192.869 33.5885C192.779 33.3198 192.605 33.0867 192.374 32.9233C192.131 32.761 191.844 32.6782 191.552 32.6865C191.157 32.6827 190.77 32.8007 190.445 33.0244C190.127 33.2395 189.891 33.5554 189.774 33.9212C189.621 34.5964 189.561 35.2891 189.593 35.9807V40.0438H187.22V31.074H189.423V32.3912C189.757 31.9188 190.2 31.5341 190.715 31.2696C191.23 31.0051 191.801 30.8687 192.379 30.8718C192.873 30.8661 193.362 30.9631 193.816 31.1565C194.2 31.3082 194.538 31.5566 194.798 31.8776C195.022 32.1726 195.18 32.5118 195.263 32.8728C195.365 33.3987 195.408 33.934 195.394 34.4693V40.0438Z" fill="white"/>
<path d="M202.607 27.6626H205.106V34.3679C205.086 35.0593 205.117 35.7513 205.199 36.4381C205.294 36.9249 205.566 37.3592 205.963 37.6568C206.447 37.9884 207.028 38.1503 207.615 38.1171C208.325 38.1171 208.857 37.9725 209.211 37.6834C209.554 37.4225 209.785 37.0427 209.861 36.619C209.951 35.9222 209.987 35.2194 209.97 34.517V27.6626H212.471V34.1657C212.502 35.2199 212.434 36.2746 212.269 37.3162C212.152 37.8881 211.895 38.4221 211.521 38.8701C211.122 39.3175 210.622 39.6632 210.063 39.8786C209.296 40.1564 208.483 40.2838 207.668 40.2538C206.487 40.2538 205.59 40.1172 204.978 39.844C204.417 39.6098 203.921 39.2449 203.531 38.7796C203.196 38.3824 202.956 37.9136 202.831 37.4093C202.638 36.3734 202.556 35.32 202.586 34.2668L202.607 27.6626Z" fill="white"/>
<path d="M223.253 40.0435H220.882V35.4668C220.882 34.4983 220.832 33.8703 220.731 33.5882C220.641 33.3194 220.467 33.0864 220.236 32.923C219.992 32.761 219.704 32.6783 219.411 32.6862C219.017 32.6821 218.631 32.8001 218.307 33.0241C217.988 33.2389 217.751 33.5548 217.634 33.9208C217.482 34.5963 217.421 35.2889 217.453 35.9804V40.0435H215.079V31.0737H217.288V32.3909C217.773 31.7199 218.471 31.2327 219.268 31.0086C220.065 30.7844 220.914 30.8365 221.678 31.1562C222.063 31.3075 222.402 31.556 222.663 31.8773C222.886 32.1725 223.043 32.5117 223.126 32.8725C223.227 33.3984 223.27 33.9337 223.256 34.469L223.253 40.0435Z" fill="white"/>
<path d="M225.661 29.8578V27.6626H228.035V29.8578H225.661ZM225.661 40.0435V31.0738H228.035V40.0435H225.661Z" fill="white"/>
<path d="M229.918 35.4323C229.92 34.6332 230.121 33.8471 230.5 33.144C230.867 32.4273 231.442 31.8383 232.15 31.4543C232.886 31.0595 233.71 30.8589 234.545 30.8716C235.162 30.8511 235.777 30.9587 236.351 31.1877C236.925 31.4167 237.445 31.762 237.879 32.202C238.309 32.6429 238.645 33.1663 238.868 33.7407C239.09 34.3151 239.193 34.9285 239.172 35.5441C239.192 36.1658 239.086 36.7851 238.861 37.3649C238.635 37.9447 238.295 38.4729 237.86 38.918C237.431 39.356 236.915 39.7003 236.346 39.9292C235.777 40.1582 235.166 40.2669 234.553 40.2485C233.736 40.2491 232.931 40.0587 232.201 39.6923C231.476 39.3393 230.881 38.7667 230.5 38.0559C230.09 37.2439 229.889 36.3418 229.918 35.4323ZM232.35 35.56C232.35 36.447 232.561 37.1282 232.983 37.6036C233.177 37.8261 233.417 38.0044 233.686 38.1266C233.955 38.2488 234.247 38.312 234.542 38.312C234.838 38.312 235.13 38.2488 235.399 38.1266C235.668 38.0044 235.907 37.8261 236.102 37.6036C236.522 37.1299 236.732 36.4425 236.732 35.5414C236.732 34.6403 236.522 33.9653 236.102 33.5165C235.907 33.2936 235.668 33.1149 235.399 32.9925C235.13 32.87 234.838 32.8067 234.542 32.8067C234.247 32.8067 233.955 32.87 233.686 32.9925C233.417 33.1149 233.177 33.2936 232.983 33.5165C232.561 33.9813 232.35 34.6624 232.35 35.56Z" fill="white"/>
<path d="M249.189 40.0438H246.823V35.4671C246.823 34.4986 246.773 33.8706 246.671 33.5885C246.582 33.3201 246.41 33.0871 246.179 32.9233C245.935 32.7613 245.647 32.6786 245.354 32.6865C244.959 32.6827 244.573 32.8007 244.247 33.0244C243.93 33.2403 243.694 33.5559 243.577 33.9212C243.426 34.5966 243.365 35.2892 243.396 35.9807V40.0438H241.022V31.074H243.226V32.3912C243.56 31.9188 244.003 31.5341 244.518 31.2696C245.032 31.0051 245.603 30.8687 246.182 30.8718C246.675 30.8661 247.165 30.9631 247.619 31.1565C248.003 31.3071 248.342 31.5557 248.601 31.8776C248.823 32.1765 248.979 32.5194 249.058 32.8834C249.159 33.4093 249.203 33.9446 249.189 34.4799V40.0438Z" fill="white"/>
</svg>
