<svg width="166" height="54" viewBox="0 0 166 54" fill="none" xmlns="http://www.w3.org/2000/svg">
<path d="M92.2134 7.59216C92.8279 7.59216 93.4508 7.59637 94.0822 7.60479C94.7219 7.6132 95.3238 7.63846 95.8878 7.68055L95.8247 8.6402H92.5796C92.0324 8.6402 91.7588 8.90537 91.7588 9.4357V11.3676H95.3449V12.3525H91.7588V16.3174H90.4961V9.19579C90.4961 8.69071 90.6518 8.29927 90.9633 8.02148C91.2748 7.73526 91.6915 7.59216 92.2134 7.59216Z" fill="#DEDEDE"/>
<path d="M98.2408 10.1554V14.4234C98.2408 14.7938 98.3124 15.0547 98.4555 15.2062C98.5986 15.3578 98.8385 15.4335 99.1752 15.4335C99.4782 15.4335 99.7855 15.3662 100.097 15.2315C100.408 15.0884 100.779 14.8822 101.208 14.6128V10.1554H102.433V16.3174H101.448L101.36 15.4209C100.905 15.7745 100.463 16.0396 100.034 16.2164C99.6045 16.3932 99.1668 16.4816 98.7206 16.4816C97.5926 16.4816 97.0286 15.9176 97.0286 14.7896V10.1554H98.2408Z" fill="#DEDEDE"/>
<path d="M105.327 10.1554L105.428 11.1151C105.883 10.7615 106.337 10.488 106.792 10.2943C107.255 10.1007 107.714 10.0039 108.168 10.0039C109.288 10.0039 109.848 10.5679 109.848 11.6959V16.3174H108.623V12.0495C108.623 11.6623 108.556 11.3971 108.421 11.254C108.295 11.1025 108.084 11.0267 107.79 11.0267C107.444 11.0267 107.099 11.1067 106.754 11.2666C106.409 11.4181 106.001 11.6328 105.529 11.9106V16.3174H104.317V10.1554H105.327Z" fill="#DEDEDE"/>
<path d="M113.762 10.0039C114.14 10.0039 114.511 10.0502 114.873 10.1428C115.243 10.2354 115.593 10.3785 115.921 10.5721C115.904 10.3701 115.891 10.1681 115.883 9.96604C115.875 9.764 115.87 9.55355 115.87 9.33469V7.47852H117.095V16.3174H116.136L116.022 15.4209C115.71 15.7155 115.348 15.9639 114.936 16.1659C114.532 16.3679 114.086 16.4689 113.598 16.4689C112.823 16.4689 112.267 16.1954 111.931 15.6482C111.594 15.0926 111.426 14.2803 111.426 13.2112C111.426 12.403 111.51 11.7675 111.678 11.3045C111.855 10.8331 112.112 10.5006 112.448 10.307C112.794 10.1049 113.231 10.0039 113.762 10.0039ZM112.676 13.1985C112.676 13.7794 112.722 14.234 112.815 14.5623C112.907 14.8821 113.055 15.1052 113.257 15.2315C113.459 15.3578 113.715 15.4209 114.027 15.4209C114.355 15.4209 114.646 15.362 114.898 15.2441C115.159 15.1179 115.483 14.9158 115.87 14.638V11.3298C115.534 11.2372 115.231 11.1614 114.961 11.1025C114.692 11.0351 114.401 11.0015 114.09 11.0015C113.753 11.0015 113.48 11.0646 113.269 11.1909C113.067 11.3087 112.916 11.5276 112.815 11.8475C112.722 12.1589 112.676 12.6093 112.676 13.1985Z" fill="#DEDEDE"/>
<path d="M121.592 10.0039C122.544 10.0039 123.23 10.1765 123.65 10.5216C124.08 10.8583 124.294 11.3592 124.294 12.0242C124.294 12.5798 124.172 13.0091 123.928 13.3122C123.684 13.6152 123.284 13.7668 122.729 13.7668H119.989C120.031 14.2213 120.119 14.5707 120.254 14.8148C120.397 15.0589 120.599 15.2273 120.86 15.3199C121.121 15.4125 121.449 15.4588 121.845 15.4588C122.165 15.4588 122.522 15.4462 122.918 15.4209C123.314 15.3872 123.68 15.3493 124.017 15.3073L124.143 16.1028C123.941 16.1954 123.697 16.2669 123.411 16.3174C123.124 16.3679 122.83 16.4058 122.527 16.4311C122.224 16.4563 121.946 16.4689 121.693 16.4689C120.969 16.4689 120.389 16.3637 119.951 16.1533C119.513 15.9344 119.193 15.5893 118.991 15.1179C118.789 14.638 118.688 14.0067 118.688 13.2238C118.688 12.4157 118.789 11.7759 118.991 11.3045C119.193 10.8331 119.505 10.5006 119.926 10.307C120.355 10.1049 120.91 10.0039 121.592 10.0039ZM121.643 10.9762C121.239 10.9762 120.915 11.0351 120.671 11.153C120.435 11.2624 120.262 11.456 120.153 11.7338C120.043 12.0032 119.984 12.3904 119.976 12.8955H122.413C122.691 12.8955 122.872 12.8071 122.956 12.6303C123.04 12.4536 123.082 12.2515 123.082 12.0242C123.074 11.6538 122.96 11.3887 122.741 11.2287C122.531 11.0604 122.165 10.9762 121.643 10.9762Z" fill="#DEDEDE"/>
<path d="M127.893 10.0039C128.272 10.0039 128.642 10.0502 129.004 10.1428C129.375 10.2354 129.724 10.3785 130.052 10.5721C130.035 10.3701 130.023 10.1681 130.014 9.96604C130.006 9.764 130.002 9.55355 130.002 9.33469V7.47852H131.227V16.3174H130.267L130.153 15.4209C129.842 15.7155 129.48 15.9639 129.067 16.1659C128.663 16.3679 128.217 16.4689 127.729 16.4689C126.954 16.4689 126.399 16.1954 126.062 15.6482C125.725 15.0926 125.557 14.2803 125.557 13.2112C125.557 12.403 125.641 11.7675 125.81 11.3045C125.986 10.8331 126.243 10.5006 126.58 10.307C126.925 10.1049 127.363 10.0039 127.893 10.0039ZM126.807 13.1985C126.807 13.7794 126.853 14.234 126.946 14.5623C127.039 14.8821 127.186 15.1052 127.388 15.2315C127.59 15.3578 127.847 15.4209 128.158 15.4209C128.487 15.4209 128.777 15.362 129.029 15.2441C129.29 15.1179 129.615 14.9158 130.002 14.638V11.3298C129.665 11.2372 129.362 11.1614 129.093 11.1025C128.823 11.0351 128.533 11.0015 128.221 11.0015C127.885 11.0015 127.611 11.0646 127.401 11.1909C127.199 11.3087 127.047 11.5276 126.946 11.8475C126.853 12.1589 126.807 12.6093 126.807 13.1985Z" fill="#DEDEDE"/>
<path d="M139.344 10.0039C140.11 10.0039 140.674 10.2522 141.036 10.7489C141.398 11.2372 141.579 12.0579 141.579 13.2112C141.579 13.9015 141.499 14.4907 141.339 14.979C141.179 15.4588 140.892 15.8292 140.48 16.0901C140.076 16.3427 139.512 16.4689 138.788 16.4689C138.502 16.4689 138.186 16.4521 137.841 16.4184C137.496 16.3848 137.151 16.3343 136.806 16.2669C136.469 16.1996 136.166 16.1154 135.896 16.0144V7.47852H137.121V9.72612C137.121 9.9955 137.113 10.2438 137.096 10.4711C137.079 10.69 137.045 10.9046 136.995 11.1151C137.349 10.7531 137.723 10.4795 138.119 10.2943C138.514 10.1007 138.923 10.0039 139.344 10.0039ZM138.889 11.0267C138.586 11.0267 138.296 11.1025 138.018 11.254C137.748 11.4055 137.445 11.6118 137.109 11.8727V15.2946C137.395 15.362 137.677 15.4125 137.955 15.4462C138.241 15.4714 138.51 15.484 138.763 15.484C139.133 15.4756 139.432 15.3999 139.659 15.2568C139.887 15.1136 140.051 14.8779 140.152 14.5496C140.261 14.2213 140.316 13.7752 140.316 13.2112C140.316 12.664 140.274 12.2347 140.19 11.9232C140.114 11.6033 139.971 11.3761 139.76 11.2414C139.558 11.0983 139.268 11.0267 138.889 11.0267Z" fill="#DEDEDE"/>
<path d="M143.679 10.1554L145.232 14.638C145.274 14.7643 145.312 14.8948 145.345 15.0295C145.387 15.1557 145.421 15.2862 145.446 15.4209H145.623C145.674 15.2862 145.72 15.1515 145.762 15.0168C145.804 14.8737 145.846 14.7475 145.888 14.638L147.416 10.1554H148.729L146.305 16.6078C146.17 16.9782 145.985 17.336 145.749 17.6811C145.514 18.0347 145.211 18.3251 144.84 18.5524C144.47 18.7797 144.015 18.8975 143.477 18.906L143.363 18.1357C143.868 17.9842 144.255 17.7737 144.525 17.5044C144.802 17.2434 145.021 16.9235 145.181 16.5447L145.27 16.3174H145.004C144.777 16.3174 144.634 16.2122 144.575 16.0017L142.378 10.1554H143.679Z" fill="#DEDEDE"/>
<path d="M94.0317 25.5229V26.4321H92.1124V29.9298C92.1124 30.216 92.1713 30.4222 92.2891 30.5485C92.4154 30.6663 92.6259 30.7253 92.9205 30.7253H93.8296L93.9685 31.6218C93.7581 31.6891 93.5013 31.7354 93.1983 31.7607C92.9037 31.7859 92.6722 31.7986 92.5038 31.7986C91.9819 31.7986 91.582 31.6555 91.3042 31.3692C91.0264 31.083 90.8875 30.6706 90.8875 30.1318V26.4321H89.7764V25.5861L90.8875 25.5229V23.7173H92.1124V25.5229H94.0317Z" fill="#DEDEDE"/>
<path d="M99.1421 25.3714C100.262 25.3714 100.821 25.9354 100.821 27.0634V31.6849H99.584V27.417C99.584 27.0298 99.5209 26.7646 99.3946 26.6215C99.2683 26.47 99.0579 26.3942 98.7632 26.3942C98.4181 26.3942 98.073 26.47 97.7278 26.6215C97.3827 26.773 96.9744 26.9919 96.503 27.2781V31.6849H95.2908V22.846H96.503L96.5156 25.2325C96.5156 25.7124 96.4862 26.1206 96.4272 26.4573C96.8902 26.1206 97.3448 25.8555 97.791 25.6618C98.2455 25.4682 98.6959 25.3714 99.1421 25.3714Z" fill="#DEDEDE"/>
<path d="M105.266 25.3714C106.217 25.3714 106.903 25.544 107.324 25.8891C107.753 26.2258 107.968 26.7267 107.968 27.3917C107.968 27.9473 107.846 28.3766 107.602 28.6797C107.358 28.9827 106.958 29.1343 106.402 29.1343H103.662C103.704 29.5888 103.793 29.9382 103.927 30.1823C104.071 30.4264 104.273 30.5948 104.534 30.6874C104.795 30.78 105.123 30.8263 105.518 30.8263C105.838 30.8263 106.196 30.8137 106.592 30.7884C106.987 30.7547 107.354 30.7169 107.69 30.6748L107.817 31.4703C107.615 31.5629 107.37 31.6344 107.084 31.6849C106.798 31.7354 106.503 31.7733 106.2 31.7986C105.897 31.8238 105.62 31.8364 105.367 31.8364C104.643 31.8364 104.062 31.7312 103.624 31.5208C103.187 31.3019 102.867 30.9568 102.665 30.4854C102.463 30.0055 102.362 29.3742 102.362 28.5913C102.362 27.7832 102.463 27.1434 102.665 26.672C102.867 26.2006 103.178 25.8681 103.599 25.6745C104.029 25.4724 104.584 25.3714 105.266 25.3714ZM105.316 26.3437C104.912 26.3437 104.588 26.4026 104.344 26.5205C104.108 26.6299 103.936 26.8235 103.826 27.1013C103.717 27.3707 103.658 27.7579 103.65 28.263H106.087C106.365 28.263 106.545 28.1746 106.63 27.9978C106.714 27.8211 106.756 27.619 106.756 27.3917C106.748 27.0214 106.634 26.7562 106.415 26.5962C106.205 26.4279 105.838 26.3437 105.316 26.3437Z" fill="#DEDEDE"/>
<path d="M114.063 22.9597C114.694 22.9597 115.338 22.9639 115.995 22.9723C116.66 22.9723 117.283 22.9933 117.864 23.0354L117.813 24.0077H114.341C113.852 24.0077 113.608 24.2729 113.608 24.8032V26.6089H117.321V27.5811H113.608V29.854C113.608 30.3928 113.852 30.6621 114.341 30.6621H117.813L117.864 31.6218C117.283 31.6639 116.66 31.6849 115.995 31.6849C115.338 31.6933 114.694 31.6975 114.063 31.6975C113.541 31.6975 113.124 31.5587 112.813 31.2809C112.501 31.0031 112.346 30.6243 112.346 30.1444V24.5128C112.346 24.033 112.501 23.6541 112.813 23.3764C113.124 23.0986 113.541 22.9597 114.063 22.9597Z" fill="#DEDEDE"/>
<path d="M120.609 25.5229V29.7909C120.609 30.1613 120.681 30.4222 120.824 30.5737C120.967 30.7253 121.207 30.801 121.544 30.801C121.847 30.801 122.154 30.7337 122.466 30.599C122.777 30.4559 123.147 30.2497 123.577 29.9803V25.5229H124.802V31.6849H123.817L123.728 30.7884C123.274 31.142 122.832 31.4071 122.402 31.5839C121.973 31.7607 121.535 31.8491 121.089 31.8491C119.961 31.8491 119.397 31.2851 119.397 30.1571V25.5229H120.609Z" fill="#DEDEDE"/>
<path d="M127.633 25.5229L127.759 26.4826C128.197 26.129 128.634 25.8555 129.072 25.6618C129.518 25.4682 129.952 25.3714 130.373 25.3714H130.651L130.524 26.5079H130.133C129.805 26.5079 129.468 26.571 129.123 26.6973C128.786 26.8235 128.378 27.0003 127.898 27.2276V31.6849H126.686V25.5229H127.633Z" fill="#DEDEDE"/>
<path d="M134.319 25.3714C135.043 25.3714 135.62 25.4766 136.049 25.6871C136.479 25.8975 136.79 26.2427 136.984 26.7225C137.177 27.1939 137.274 27.8211 137.274 28.6039C137.274 29.3952 137.177 30.0308 136.984 30.5106C136.79 30.982 136.479 31.323 136.049 31.5334C135.62 31.7439 135.043 31.8491 134.319 31.8491C133.604 31.8491 133.027 31.7439 132.59 31.5334C132.16 31.323 131.849 30.982 131.655 30.5106C131.461 30.0308 131.365 29.3952 131.365 28.6039C131.365 27.8211 131.461 27.1939 131.655 26.7225C131.849 26.2427 132.16 25.8975 132.59 25.6871C133.027 25.4766 133.604 25.3714 134.319 25.3714ZM134.319 26.3563C133.899 26.3563 133.566 26.4237 133.322 26.5584C133.078 26.693 132.905 26.9245 132.804 27.2528C132.703 27.5727 132.653 28.0231 132.653 28.6039C132.653 29.1848 132.703 29.6393 132.804 29.9677C132.905 30.296 133.078 30.5274 133.322 30.6621C133.566 30.7884 133.899 30.8515 134.319 30.8515C134.74 30.8515 135.073 30.7884 135.317 30.6621C135.569 30.5274 135.746 30.296 135.847 29.9677C135.948 29.6393 135.999 29.1848 135.999 28.6039C135.999 28.0231 135.948 27.5727 135.847 27.2528C135.746 26.9245 135.569 26.693 135.317 26.5584C135.073 26.4237 134.74 26.3563 134.319 26.3563Z" fill="#DEDEDE"/>
<path d="M139.879 25.5229L139.98 26.4952C140.3 26.1501 140.687 25.8765 141.141 25.6745C141.604 25.4724 142.059 25.3714 142.505 25.3714C143.263 25.3714 143.806 25.6492 144.134 26.2048C144.462 26.7604 144.626 27.5727 144.626 28.6418C144.626 29.4415 144.542 30.0729 144.374 30.5359C144.205 30.9989 143.949 31.3314 143.604 31.5334C143.258 31.7354 142.825 31.8364 142.303 31.8364C141.907 31.8364 141.52 31.7859 141.141 31.6849C140.763 31.5839 140.401 31.424 140.055 31.2051C140.081 31.4155 140.093 31.6218 140.093 31.8238C140.102 32.0343 140.102 32.2489 140.093 32.4678V34.1977H138.881V25.5229H139.879ZM142.076 26.3942C141.747 26.3942 141.432 26.47 141.129 26.6215C140.826 26.7646 140.481 26.9793 140.093 27.2655V30.4727C140.455 30.5737 140.775 30.6579 141.053 30.7253C141.339 30.7926 141.642 30.8263 141.962 30.8263C142.299 30.8263 142.572 30.7674 142.783 30.6495C142.993 30.5317 143.145 30.317 143.237 30.0055C143.33 29.6856 143.376 29.2311 143.376 28.6418C143.376 27.7916 143.275 27.2065 143.073 26.8867C142.871 26.5584 142.539 26.3942 142.076 26.3942Z" fill="#DEDEDE"/>
<path d="M148.856 25.3714C149.807 25.3714 150.494 25.544 150.914 25.8891C151.344 26.2258 151.558 26.7267 151.558 27.3917C151.558 27.9473 151.436 28.3766 151.192 28.6797C150.948 28.9827 150.548 29.1343 149.993 29.1343H147.253C147.295 29.5888 147.383 29.9382 147.518 30.1823C147.661 30.4264 147.863 30.5948 148.124 30.6874C148.385 30.78 148.713 30.8263 149.109 30.8263C149.429 30.8263 149.786 30.8137 150.182 30.7884C150.578 30.7547 150.944 30.7169 151.281 30.6748L151.407 31.4703C151.205 31.5629 150.961 31.6344 150.675 31.6849C150.388 31.7354 150.094 31.7733 149.791 31.7986C149.488 31.8238 149.21 31.8364 148.957 31.8364C148.233 31.8364 147.652 31.7312 147.215 31.5208C146.777 31.3019 146.457 30.9568 146.255 30.4854C146.053 30.0055 145.952 29.3742 145.952 28.5913C145.952 27.7832 146.053 27.1434 146.255 26.672C146.457 26.2006 146.769 25.8681 147.189 25.6745C147.619 25.4724 148.174 25.3714 148.856 25.3714ZM148.907 26.3437C148.503 26.3437 148.179 26.4026 147.934 26.5205C147.699 26.6299 147.526 26.8235 147.417 27.1013C147.307 27.3707 147.248 27.7579 147.24 28.263H149.677C149.955 28.263 150.136 28.1746 150.22 27.9978C150.304 27.8211 150.346 27.619 150.346 27.3917C150.338 27.0214 150.224 26.7562 150.005 26.5962C149.795 26.4279 149.429 26.3437 148.907 26.3437Z" fill="#DEDEDE"/>
<path d="M156.066 25.3714C156.773 25.3714 157.312 25.5187 157.682 25.8134C158.053 26.0996 158.238 26.6257 158.238 27.3917V31.6849H157.278L157.139 30.6621C156.98 30.8305 156.773 31.0031 156.521 31.1798C156.277 31.3566 155.995 31.5039 155.675 31.6218C155.363 31.7396 155.018 31.7986 154.639 31.7986C154.084 31.7986 153.629 31.6513 153.276 31.3566C152.93 31.062 152.758 30.6369 152.758 30.0813V29.4121C152.758 28.9322 152.909 28.5576 153.212 28.2883C153.524 28.0189 153.953 27.8842 154.5 27.8842H157.013V27.3917C157.013 27.0298 156.929 26.7688 156.761 26.6089C156.592 26.4489 156.272 26.369 155.801 26.369C155.481 26.369 155.077 26.3858 154.589 26.4195C154.109 26.4447 153.633 26.4784 153.162 26.5205L153.048 25.6492C153.335 25.5987 153.65 25.5524 153.995 25.5103C154.349 25.4682 154.707 25.4346 155.069 25.4093C155.431 25.384 155.763 25.3714 156.066 25.3714ZM154.917 30.801C155.212 30.8095 155.548 30.7421 155.927 30.599C156.306 30.4475 156.668 30.2286 157.013 29.9424V28.7428L154.766 28.7555C154.479 28.7639 154.277 28.8396 154.159 28.9827C154.05 29.1174 153.995 29.3068 153.995 29.551V29.9298C153.995 30.2328 154.067 30.4559 154.21 30.599C154.362 30.7337 154.597 30.801 154.917 30.801Z" fill="#DEDEDE"/>
<path d="M161.088 25.5229L161.189 26.4826C161.644 26.129 162.099 25.8555 162.553 25.6618C163.016 25.4682 163.475 25.3714 163.929 25.3714C165.049 25.3714 165.609 25.9354 165.609 27.0634V31.6849H164.384V27.417C164.384 27.0298 164.317 26.7646 164.182 26.6215C164.056 26.47 163.845 26.3942 163.551 26.3942C163.205 26.3942 162.86 26.4742 162.515 26.6341C162.17 26.7856 161.762 27.0003 161.29 27.2781V31.6849H160.078V25.5229H161.088Z" fill="#DEDEDE"/>
<path d="M96.9233 38.3398V43.6936C96.9233 44.5439 96.818 45.2299 96.6076 45.7518C96.4055 46.2653 96.073 46.6399 95.61 46.8756C95.1471 47.1029 94.5283 47.2166 93.7539 47.2166C92.9457 47.2166 92.2976 47.1029 91.8093 46.8756C91.3295 46.6399 90.9844 46.2653 90.7739 45.7518C90.5635 45.2299 90.4582 44.5439 90.4582 43.6936V38.3398H91.7209V43.6936C91.7209 44.2997 91.7799 44.7796 91.8977 45.1331C92.024 45.4867 92.2302 45.7392 92.5164 45.8907C92.8111 46.0423 93.2025 46.118 93.6907 46.118C94.1706 46.118 94.5536 46.0423 94.8398 45.8907C95.1344 45.7392 95.3449 45.4867 95.4711 45.1331C95.5974 44.7796 95.6606 44.2997 95.6606 43.6936V38.3398H96.9233Z" fill="#DEDEDE"/>
<path d="M99.877 40.8904L99.978 41.8501C100.433 41.4965 100.887 41.223 101.342 41.0293C101.805 40.8357 102.263 40.7389 102.718 40.7389C103.838 40.7389 104.397 41.3029 104.397 42.4309V47.0524H103.173V42.7845C103.173 42.3973 103.105 42.1321 102.971 41.989C102.844 41.8375 102.634 41.7617 102.339 41.7617C101.994 41.7617 101.649 41.8417 101.304 42.0016C100.959 42.1531 100.55 42.3678 100.079 42.6456V47.0524H98.8668V40.8904H99.877Z" fill="#DEDEDE"/>
<path d="M107.188 38.2514C107.432 38.2514 107.554 38.3735 107.554 38.6176V39.3373C107.554 39.5814 107.432 39.7035 107.188 39.7035H106.619C106.375 39.7035 106.253 39.5814 106.253 39.3373V38.6176C106.253 38.3735 106.375 38.2514 106.619 38.2514H107.188ZM107.503 40.8904V47.0524H106.304V40.8904H107.503Z" fill="#DEDEDE"/>
<path d="M112.124 40.7389C112.847 40.7389 113.424 40.8442 113.853 41.0546C114.283 41.265 114.594 41.6102 114.788 42.09C114.981 42.5614 115.078 43.1886 115.078 43.9714C115.078 44.7627 114.981 45.3983 114.788 45.8781C114.594 46.3495 114.283 46.6905 113.853 46.9009C113.424 47.1114 112.847 47.2166 112.124 47.2166C111.408 47.2166 110.831 47.1114 110.394 46.9009C109.964 46.6905 109.653 46.3495 109.459 45.8781C109.266 45.3983 109.169 44.7627 109.169 43.9714C109.169 43.1886 109.266 42.5614 109.459 42.09C109.653 41.6102 109.964 41.265 110.394 41.0546C110.831 40.8442 111.408 40.7389 112.124 40.7389ZM112.124 41.7238C111.703 41.7238 111.37 41.7912 111.126 41.9259C110.882 42.0606 110.709 42.292 110.608 42.6203C110.507 42.9402 110.457 43.3906 110.457 43.9714C110.457 44.5523 110.507 45.0069 110.608 45.3352C110.709 45.6635 110.882 45.895 111.126 46.0296C111.37 46.1559 111.703 46.219 112.124 46.219C112.544 46.219 112.877 46.1559 113.121 46.0296C113.374 45.895 113.55 45.6635 113.651 45.3352C113.752 45.0069 113.803 44.5523 113.803 43.9714C113.803 43.3906 113.752 42.9402 113.651 42.6203C113.55 42.292 113.374 42.0606 113.121 41.9259C112.877 41.7912 112.544 41.7238 112.124 41.7238Z" fill="#DEDEDE"/>
<path d="M117.695 40.8904L117.796 41.8501C118.251 41.4965 118.706 41.223 119.16 41.0293C119.623 40.8357 120.082 40.7389 120.536 40.7389C121.656 40.7389 122.216 41.3029 122.216 42.4309V47.0524H120.991V42.7845C120.991 42.3973 120.924 42.1321 120.789 41.989C120.663 41.8375 120.452 41.7617 120.158 41.7617C119.812 41.7617 119.467 41.8417 119.122 42.0016C118.777 42.1531 118.369 42.3678 117.897 42.6456V47.0524H116.685V40.8904H117.695Z" fill="#DEDEDE"/>
<path d="M79.4125 0.996094H0.823242V53.3982H79.4125V0.996094Z" fill="#164194"/>
<path d="M38.43 12.415L40.0927 11.1957L41.7553 12.415L41.118 10.4475L42.8084 9.25596H40.73L40.0927 7.26074L39.4553 9.25596H37.377L39.0673 10.4475L38.43 12.415Z" fill="#FFED00"/>
<path d="M29.8646 14.7134L31.4995 13.4941L33.1622 14.7134L32.5526 12.7459L34.2152 11.5543H32.1369L31.4995 9.55908L30.8622 11.5543H28.8115L30.4742 12.7459L29.8646 14.7134Z" fill="#FFED00"/>
<path d="M25.2372 15.8491L24.5998 17.8443H22.5215L24.2119 19.0636L23.5745 21.0034L25.2372 19.8118L26.8999 21.0034L26.2625 19.0636L27.9529 17.8443H25.8746L25.2372 15.8491Z" fill="#FFED00"/>
<path d="M22.9384 28.3754L24.601 29.567L23.9637 27.6272L25.6541 26.4079H23.5757L22.9384 24.4404L22.301 26.4079H20.2227L21.913 27.6272L21.2757 29.567L22.9384 28.3754Z" fill="#FFED00"/>
<path d="M25.8746 34.9978L25.2372 33.0303L24.5998 35.0255L22.5215 34.9978L24.2119 36.2171L23.5745 38.1846L25.2372 36.9653L26.8999 38.1846L26.2625 36.2171L27.9529 34.9978H25.8746Z" fill="#FFED00"/>
<path d="M32.1646 41.2888L31.5272 39.3213L30.8899 41.3165L28.8115 41.2888L30.5019 42.5081L29.8646 44.4756L31.5272 43.2563L33.1899 44.4756L32.5526 42.5081L34.2429 41.2888H32.1646Z" fill="#FFED00"/>
<path d="M40.73 43.5924L40.0927 41.5972L39.4553 43.5924H37.377L39.0673 44.784L38.43 46.7515L40.0927 45.5322L41.7553 46.7515L41.118 44.784L42.8084 43.5924H40.73Z" fill="#FFED00"/>
<path d="M49.2922 41.2888L48.6825 39.3213L48.0451 41.3165L45.9668 41.2888L47.6295 42.5081L47.0198 44.4756L48.6825 43.2563L50.3175 44.4756L49.7078 42.5081L51.3705 41.2888H49.2922Z" fill="#FFED00"/>
<path d="M55.6089 34.9978L54.9716 33.0303L54.3342 35.0255L52.2559 34.9978L53.9462 36.2171L53.3089 38.1846L54.9716 36.9653L56.6065 38.1846L55.9969 36.2171L57.6596 34.9978H55.6089Z" fill="#FFED00"/>
<path d="M59.9607 26.3821H57.8824L57.245 24.4146L56.6076 26.3821H54.5293L56.2197 27.6014L55.5823 29.5689L57.245 28.3496L58.9077 29.5689L58.2703 27.6014L59.9607 26.3821Z" fill="#FFED00"/>
<path d="M53.3089 20.9761L54.9716 19.7845L56.6065 20.9761L55.9969 19.0363L57.6596 17.817H55.6089L54.9716 15.8218L54.3342 17.817H52.2559L53.9462 19.0363L53.3089 20.9761Z" fill="#FFED00"/>
<path d="M48.6802 9.55908L48.0428 11.5543H45.9922L47.6549 12.7736L47.0452 14.7134L48.6802 13.4941L50.3429 14.7134L49.7055 12.7736L51.3959 11.5543H49.3175L48.6802 9.55908Z" fill="#FFED00"/>
</svg>
