<svg width="141" height="59" viewBox="0 0 141 59" fill="none" xmlns="http://www.w3.org/2000/svg">
<path d="M6.21268 46.8909L0.161133 40.8023L20.9703 20.123L26.8919 26.1932L6.21268 46.8909Z" fill="white"/>
<path d="M28.5059 29.2752L34.3903 23.2236L55.1438 43.9029L49.148 49.9173C42.2425 43.0118 35.3556 36.1064 28.5059 29.2752Z" fill="white"/>
<path d="M26.002 31.9668L31.8493 37.8142L14.8641 54.7808L8.62695 48.952L26.002 31.9668Z" fill="white"/>
<path d="M28.3213 46.538L34.4657 40.1895L46.6987 52.0327L40.4244 58.4926L28.3213 46.538Z" fill="white"/>
<path d="M42.3351 3.17383L48.4238 9.28107L37.1746 20.4189L31.1787 14.4045C34.8728 10.6919 38.5854 6.94212 42.3351 3.17383Z" fill="white"/>
<path d="M29.5087 11.7326L23.5129 17.7284L12.2822 6.60919L18.3338 0.501953L29.5087 11.7326Z" fill="white"/>
<path d="M45.1385 28.4948L39.0312 22.6846L47.5146 13.9971L53.529 20.0115C50.7631 22.8145 47.9601 25.6361 45.1385 28.4948Z" fill="white"/>
<path d="M9.85132 9.11523L18.2975 17.747L12.2274 23.5387L3.87402 15.0925L9.85132 9.11523Z" fill="white"/>
<path d="M66.7842 18.898V19.1764H62.459V18.898H62.8302C63.2386 18.898 63.5542 18.7866 63.7398 18.5267C63.8512 18.3596 63.9255 17.9884 63.9255 17.3758V10.8787C63.944 10.5446 63.9069 10.1919 63.8326 9.87633C63.777 9.74639 63.6656 9.63501 63.5356 9.56076C63.3314 9.44938 63.0901 9.37513 62.8488 9.37513H62.4775V9.09668H66.8027V9.37513H66.4315C66.0231 9.37513 65.7261 9.4865 65.5404 9.74639C65.4105 9.89489 65.3548 10.2847 65.3548 10.8973V17.3944C65.3363 17.7285 65.3734 18.0812 65.4476 18.3968C65.5033 18.5453 65.6333 18.6566 65.7632 18.7309C65.9674 18.8423 66.2087 18.9165 66.4315 18.9165L66.7842 18.898Z" fill="white"/>
<path d="M69.7355 13.6081C70.5337 12.6428 71.2947 12.1602 72.0187 12.1602C72.3528 12.1602 72.687 12.253 72.984 12.4386C73.281 12.6799 73.5037 12.9955 73.6337 13.3668C73.7636 13.8123 73.8193 14.2763 73.8008 14.7404V17.6363C73.7822 17.9333 73.8193 18.2303 73.9121 18.5087C73.9678 18.6201 74.0606 18.7315 74.172 18.7872C74.3762 18.88 74.6175 18.9171 74.8403 18.8985V19.1584H71.4433V18.8985H71.5918C71.8145 18.9171 72.0558 18.8614 72.26 18.75C72.39 18.6387 72.4828 18.4901 72.5199 18.3231C72.557 18.0818 72.557 17.859 72.557 17.6177V14.8332C72.557 14.2207 72.4828 13.7566 72.3157 13.4781C72.1487 13.1997 71.8331 13.0326 71.4989 13.0512C70.9049 13.0512 70.3295 13.3668 69.7355 14.0165V17.5991C69.7355 18.0632 69.754 18.3416 69.8097 18.453C69.8654 18.583 69.9768 18.6943 70.0882 18.7686C70.3295 18.8614 70.5708 18.88 70.8307 18.8614V19.1213H67.4522V18.8614H67.6007C67.9534 18.8614 68.1762 18.7686 68.3061 18.6015C68.436 18.4345 68.4917 18.0818 68.4917 17.5991V15.1117C68.5103 14.6105 68.4917 14.1093 68.436 13.6081C68.4175 13.4781 68.3618 13.3296 68.269 13.2368C68.1762 13.1626 68.0648 13.1254 67.9534 13.144C67.7863 13.144 67.6193 13.1811 67.4522 13.2554L67.3408 12.9955L69.3828 12.1602H69.6983L69.7355 13.6081Z" fill="white"/>
<path d="M77.4571 10.1358V12.3819H79.0535V12.9016H77.4571V17.3196C77.4571 17.7652 77.5128 18.0622 77.6427 18.2107C77.7541 18.3592 77.9397 18.452 78.1254 18.4334C78.2924 18.4334 78.4595 18.3777 78.608 18.2849C78.7751 18.1735 78.8865 18.025 78.9607 17.8394H79.2577C79.1278 18.2664 78.8679 18.6562 78.5152 18.9346C78.2367 19.1574 77.884 19.3059 77.5313 19.3059C77.29 19.3059 77.0673 19.2316 76.8631 19.1203C76.6403 18.9903 76.4733 18.8047 76.3804 18.5819C76.2505 18.2292 76.1948 17.858 76.2134 17.4867V12.8831H75.1367V12.6418C75.4523 12.5118 75.7307 12.3262 75.9721 12.0849C76.2691 11.8064 76.5289 11.4909 76.7331 11.1567C76.9188 10.8226 77.0673 10.4699 77.2158 10.1172L77.4571 10.1358Z" fill="white"/>
<path d="M80.9848 14.925C80.9848 15.9274 81.2262 16.7256 81.7274 17.301C82.1543 17.8394 82.7855 18.1549 83.4723 18.1549C83.8992 18.1549 84.3076 18.025 84.6418 17.7837C84.9759 17.5424 85.2543 17.1154 85.4771 16.5214L85.6999 16.6699C85.5885 17.3567 85.2729 18.0064 84.7903 18.5262C84.3262 19.0645 83.6208 19.3801 82.9154 19.3615C82.1172 19.3615 81.3375 19.0274 80.8178 18.4148C80.2423 17.7837 79.9453 16.9298 79.9453 15.8531C79.9453 14.6837 80.2423 13.7741 80.8363 13.1244C81.4118 12.4932 82.2286 12.1405 83.0639 12.1405C83.7693 12.122 84.4561 12.4004 84.9388 12.9016C85.44 13.4028 85.6813 14.0711 85.6813 14.925H80.9848ZM80.9848 14.498H84.1406C84.1406 14.1825 84.0849 13.8669 83.9921 13.5699C83.8807 13.31 83.6765 13.0687 83.4352 12.9202C83.2124 12.7717 82.934 12.6788 82.6741 12.6788C82.2657 12.6788 81.8573 12.8459 81.5789 13.1615C81.2076 13.5142 81.0034 13.9968 80.9848 14.498Z" fill="white"/>
<path d="M88.7081 12.1602V13.6823C89.2835 12.6614 89.859 12.1602 90.4716 12.1602C90.7129 12.1602 90.9542 12.2344 91.1399 12.4015C91.3069 12.55 91.3997 12.7542 91.4183 12.9769C91.4183 13.1626 91.344 13.3296 91.2327 13.4596C91.1213 13.5895 90.9542 13.6638 90.7686 13.6638C90.5458 13.6452 90.3416 13.5524 90.1931 13.4039C90.0632 13.2739 89.8961 13.1811 89.7105 13.144C89.5991 13.1626 89.4877 13.1997 89.4135 13.2925C89.135 13.5895 88.8937 13.9236 88.7267 14.2949V17.5806C88.7081 17.8776 88.7638 18.156 88.8752 18.4345C88.9494 18.583 89.0794 18.6943 89.2093 18.7686C89.4321 18.8614 89.6734 18.9171 89.9147 18.8985V19.1584H86.4248V18.8985C86.6847 18.9171 86.9632 18.8614 87.2045 18.7315C87.3344 18.6387 87.4272 18.5087 87.4644 18.3602C87.5015 18.1189 87.5201 17.8776 87.5015 17.6363V15.0003C87.5201 14.5362 87.5015 14.0536 87.4458 13.5895C87.4272 13.4596 87.353 13.3482 87.2602 13.2554C87.1674 13.1811 87.056 13.144 86.9446 13.144C86.759 13.144 86.5919 13.1811 86.4248 13.2554L86.3506 12.9955L88.4111 12.1602H88.7081Z" fill="white"/>
<path d="M93.8868 13.6081C94.685 12.6428 95.4461 12.1602 96.1701 12.1602C96.5042 12.1602 96.8383 12.253 97.1353 12.4386C97.4324 12.6799 97.6551 12.9955 97.7665 13.3668C97.8964 13.8123 97.9521 14.2763 97.9336 14.7404V17.6363C97.915 17.9333 97.9521 18.2303 98.0449 18.5087C98.1006 18.6387 98.1934 18.7315 98.3048 18.8057C98.509 18.8985 98.7503 18.9357 98.9731 18.9171V19.177H95.6132V18.9171H95.7617C95.9844 18.9357 96.2257 18.88 96.4299 18.7686C96.5599 18.6572 96.6527 18.5087 96.6898 18.3416C96.727 18.1003 96.727 17.8776 96.727 17.6363V14.8518C96.727 14.2392 96.6527 13.7751 96.4856 13.4967C96.3186 13.2182 96.003 13.0512 95.6689 13.0697C95.0748 13.0697 94.4994 13.3853 93.9054 14.035V17.6177C93.8868 17.9147 93.9054 18.1931 93.9796 18.4716C94.0353 18.6015 94.1467 18.7129 94.2581 18.7872C94.4994 18.88 94.7407 18.8985 95.0006 18.88V19.1399H91.6221V18.88H91.7706C92.1233 18.88 92.3461 18.7872 92.476 18.6201C92.606 18.453 92.6616 18.1003 92.6616 17.6177V15.1117C92.6802 14.6105 92.6616 14.1093 92.606 13.6081C92.5874 13.4781 92.5317 13.3296 92.4389 13.2368C92.3461 13.1626 92.2347 13.1254 92.1233 13.144C91.9563 13.144 91.7892 13.1811 91.6221 13.2554L91.5107 12.9955L93.5527 12.1602H93.8682L93.8868 13.6081Z" fill="white"/>
<path d="M103.483 18.1922C103.074 18.5263 102.629 18.8419 102.165 19.1204C101.905 19.2503 101.608 19.306 101.311 19.306C100.865 19.3246 100.457 19.1389 100.141 18.8234C99.8257 18.4707 99.6586 18.0251 99.6772 17.5425C99.6772 17.2455 99.7514 16.9485 99.8999 16.6886C100.178 16.2802 100.531 15.9646 100.958 15.7419C101.756 15.3149 102.61 14.9437 103.464 14.6652V14.4053C103.464 13.7371 103.353 13.2544 103.148 13.0131C102.907 12.7532 102.554 12.6233 102.202 12.6419C101.923 12.6233 101.663 12.7161 101.459 12.9017C101.292 13.0502 101.181 13.2544 101.181 13.4772L101.199 13.9041C101.218 14.0898 101.144 14.294 101.032 14.4239C100.921 14.5539 100.754 14.6095 100.568 14.6095C100.401 14.6095 100.234 14.5353 100.123 14.4053C99.9928 14.2568 99.9371 14.0712 99.9556 13.8856C99.9556 13.4586 100.178 13.0688 100.605 12.7161C101.032 12.3634 101.645 12.1778 102.443 12.1778C102.963 12.1592 103.464 12.2706 103.928 12.4748C104.225 12.6233 104.448 12.8832 104.578 13.1988C104.671 13.4029 104.708 13.8485 104.708 14.5167V16.8185C104.689 17.2084 104.708 17.6168 104.745 18.0066C104.745 18.118 104.801 18.2108 104.875 18.3036C104.931 18.3593 105.005 18.3778 105.079 18.3778C105.153 18.3778 105.228 18.3593 105.283 18.3222C105.506 18.1551 105.692 17.9695 105.877 17.7838V18.1922C105.32 18.9347 104.801 19.306 104.281 19.306C104.058 19.3246 103.854 19.2317 103.705 19.0461C103.575 18.879 103.501 18.6006 103.483 18.1922ZM103.483 17.7096V15.1107C102.981 15.2964 102.499 15.5006 102.035 15.7419C101.701 15.909 101.422 16.1317 101.199 16.4287C101.032 16.6515 100.939 16.9299 100.939 17.2084C100.921 17.5425 101.051 17.8581 101.255 18.0994C101.441 18.3222 101.701 18.4521 101.998 18.4521C102.387 18.4521 102.87 18.2108 103.483 17.7096Z" fill="white"/>
<path d="M108.495 10.1358V12.3819H110.092V12.9016H108.495V17.3196C108.495 17.7652 108.551 18.0622 108.681 18.2107C108.792 18.3592 108.978 18.452 109.163 18.4334C109.331 18.4334 109.498 18.3777 109.646 18.2849C109.813 18.1735 109.925 18.025 109.999 17.8394H110.296C110.166 18.2664 109.906 18.6562 109.553 18.9346C109.275 19.1574 108.922 19.3059 108.569 19.3059C108.328 19.3059 108.105 19.2316 107.901 19.1203C107.678 18.9903 107.511 18.8047 107.419 18.5819C107.289 18.2292 107.233 17.858 107.27 17.4867V12.8831H106.193V12.6418C106.509 12.5118 106.787 12.3262 107.029 12.0849C107.326 11.8064 107.586 11.4909 107.79 11.1567C107.975 10.8226 108.124 10.4699 108.272 10.1172L108.495 10.1358Z" fill="white"/>
<path d="M113.21 12.1598V17.6359C113.191 17.9143 113.229 18.2114 113.303 18.4898C113.359 18.6197 113.451 18.7311 113.581 18.8054C113.786 18.8982 114.027 18.9353 114.25 18.9168V19.1766H110.945V18.9168C111.168 18.9353 111.409 18.8982 111.614 18.8239C111.744 18.7497 111.836 18.6383 111.892 18.5084C111.985 18.2299 112.022 17.9329 111.985 17.6545V15.0185C112.003 14.5359 111.985 14.0532 111.911 13.5892C111.892 13.4592 111.836 13.3478 111.744 13.255C111.651 13.1808 111.539 13.1622 111.447 13.1622C111.279 13.1622 111.094 13.1993 110.945 13.2736L110.834 13.0137L112.876 12.1784L113.21 12.1598ZM112.597 8.5957C113.006 8.5957 113.34 8.92984 113.34 9.33822C113.34 9.54242 113.266 9.72805 113.117 9.87655C112.987 10.0251 112.783 10.0993 112.579 10.0993C112.152 10.0993 111.818 9.76517 111.818 9.33822C111.818 9.13403 111.892 8.9484 112.041 8.7999C112.189 8.66996 112.393 8.5957 112.597 8.5957Z" fill="white"/>
<path d="M118.538 12.1594C119.503 12.1223 120.431 12.5678 121.025 13.3474C121.545 13.9971 121.823 14.8139 121.823 15.6492C121.823 16.2989 121.675 16.9301 121.378 17.5055C120.876 18.675 119.726 19.4175 118.463 19.399C117.498 19.4361 116.57 18.972 116.013 18.1738C115.512 17.5055 115.233 16.6888 115.252 15.8534C115.252 15.2037 115.419 14.5726 115.716 13.9971C116.217 12.8833 117.331 12.1779 118.538 12.1594ZM118.315 12.642C118.036 12.642 117.758 12.7348 117.517 12.8833C117.22 13.0875 116.997 13.366 116.867 13.7001C116.681 14.1827 116.607 14.7025 116.626 15.2037C116.607 16.0947 116.811 16.9858 117.22 17.7654C117.609 18.4894 118.129 18.8421 118.779 18.8421C119.243 18.8421 119.688 18.6193 119.967 18.2481C120.282 17.8582 120.431 17.1714 120.431 16.2061C120.431 14.9995 120.171 14.0528 119.651 13.3474C119.354 12.9205 118.853 12.642 118.315 12.642Z" fill="white"/>
<path d="M124.924 13.6081C125.722 12.6428 126.483 12.1602 127.207 12.1602C127.541 12.1602 127.875 12.253 128.172 12.4386C128.469 12.6799 128.692 12.9955 128.804 13.3668C128.934 13.8123 128.989 14.2763 128.971 14.7404V17.6363C128.952 17.9333 128.989 18.2303 129.082 18.5087C129.138 18.6387 129.231 18.7315 129.342 18.8057C129.565 18.8985 129.787 18.9357 130.029 18.9171V19.177H126.65V18.9171H126.799C127.022 18.9357 127.263 18.88 127.467 18.7686C127.597 18.6572 127.69 18.5087 127.727 18.3416C127.764 18.1003 127.764 17.8776 127.764 17.6363V14.8518C127.764 14.2392 127.69 13.7751 127.523 13.4967C127.356 13.2182 127.04 13.0512 126.706 13.0697C126.112 13.0697 125.536 13.3853 124.942 14.035V17.6177C124.924 17.9147 124.942 18.1931 125.017 18.4716C125.072 18.6015 125.184 18.7129 125.295 18.7872C125.536 18.88 125.778 18.8985 126.038 18.88V19.1399H122.678V18.88H122.826C123.179 18.88 123.402 18.7872 123.532 18.6201C123.662 18.453 123.717 18.1003 123.717 17.6177V15.1117C123.736 14.6105 123.717 14.1093 123.662 13.6081C123.643 13.4781 123.587 13.3296 123.495 13.2368C123.402 13.1626 123.29 13.1254 123.179 13.144C123.012 13.144 122.845 13.1811 122.678 13.2554L122.566 12.9955L124.608 12.1602H124.924V13.6081Z" fill="white"/>
<path d="M134.538 18.1922C134.13 18.5263 133.684 18.8419 133.22 19.1204C132.96 19.2503 132.663 19.306 132.366 19.306C131.921 19.3246 131.512 19.1389 131.197 18.8233C130.881 18.4707 130.714 18.0251 130.733 17.5425C130.733 17.2455 130.807 16.9485 130.956 16.6886C131.234 16.2802 131.587 15.9646 132.014 15.7419C132.812 15.3149 133.666 14.9437 134.52 14.6652V14.4053C134.52 13.7371 134.408 13.2544 134.204 13.0131C133.963 12.7532 133.61 12.6233 133.257 12.6419C132.979 12.6233 132.719 12.7161 132.515 12.9017C132.348 13.0502 132.236 13.2544 132.236 13.4772L132.255 13.9041C132.274 14.0898 132.199 14.294 132.088 14.4239C131.977 14.5539 131.809 14.6095 131.624 14.6095C131.457 14.6095 131.29 14.5353 131.178 14.4053C131.048 14.2568 130.993 14.0712 131.011 13.8856C131.011 13.4586 131.234 13.0688 131.661 12.7161C132.088 12.3634 132.701 12.1778 133.499 12.1778C134.018 12.1592 134.52 12.2706 134.984 12.4748C135.281 12.6233 135.504 12.8832 135.633 13.1988C135.726 13.4029 135.763 13.8485 135.763 14.5167V16.8185C135.745 17.2084 135.763 17.6168 135.801 18.0066C135.801 18.118 135.856 18.2108 135.93 18.3036C135.986 18.3593 136.06 18.3778 136.135 18.3778C136.209 18.3778 136.283 18.3593 136.339 18.3221C136.562 18.1551 136.747 17.9695 136.933 17.7838V18.1922C136.376 18.9347 135.856 19.306 135.336 19.306C135.114 19.306 134.91 19.2132 134.761 19.0461C134.613 18.879 134.538 18.6006 134.538 18.1922ZM134.538 17.7096V15.1107C134.037 15.2964 133.554 15.5006 133.09 15.7419C132.756 15.909 132.478 16.1317 132.255 16.4287C132.088 16.6515 131.995 16.9299 131.995 17.2084C131.977 17.5425 132.107 17.8581 132.311 18.0994C132.496 18.3221 132.756 18.4521 133.053 18.4521C133.424 18.4521 133.926 18.2108 134.538 17.7096Z" fill="white"/>
<path d="M139.904 8.61426V17.6545C139.886 17.9329 139.923 18.2299 139.997 18.5084C140.053 18.6383 140.164 18.7497 140.276 18.8239C140.498 18.9167 140.758 18.9539 141 18.9353V19.1952H137.658V18.9353C137.881 18.9539 138.085 18.9167 138.289 18.8425C138.419 18.7682 138.512 18.6569 138.568 18.5269C138.642 18.2485 138.679 17.9515 138.661 17.673V11.4544C138.679 10.9903 138.661 10.5077 138.605 10.0436C138.586 9.91367 138.531 9.78373 138.438 9.69091C138.345 9.61666 138.252 9.5981 138.141 9.5981C137.974 9.5981 137.807 9.65379 137.658 9.70948L137.528 9.44959L139.552 8.61426H139.904Z" fill="white"/>
<path d="M70.8856 24.6895L70.997 27.047H70.7185C70.6999 26.7314 70.6071 26.4344 70.4957 26.1559C70.3658 25.896 70.1431 25.6733 69.8832 25.5248C69.5676 25.3763 69.2149 25.302 68.8808 25.3206H67.47V33.0243C67.47 33.6368 67.5442 34.0267 67.6742 34.1752C67.8969 34.3979 68.2311 34.5093 68.5466 34.4907H68.8993V34.7692H64.6298V34.4907H64.9825C65.4095 34.4907 65.7065 34.3608 65.8921 34.1009C66.0035 33.9338 66.0592 33.5811 66.0592 33.0057V25.302H64.8526C64.5185 25.2835 64.1843 25.3206 63.8502 25.4134C63.5717 25.5248 63.349 25.7104 63.1819 25.9517C62.9777 26.2859 62.8663 26.6571 62.8478 27.047H62.5693L62.6807 24.6895H70.8856Z" fill="white"/>
<path d="M73.4298 27.752V29.2741C74.0052 28.2532 74.5807 27.752 75.1747 27.752C75.416 27.752 75.6759 27.8262 75.843 27.9933C76.0101 28.1418 76.1029 28.346 76.1029 28.5687C76.1029 28.7544 76.0472 28.9214 75.9172 29.0514C75.8059 29.1813 75.6388 29.2556 75.4532 29.2556C75.2304 29.237 75.0262 29.1442 74.8777 28.9957C74.7478 28.8657 74.5807 28.7729 74.3951 28.7358C74.2837 28.7544 74.1723 28.7915 74.0981 28.8843C73.8196 29.1813 73.5783 29.5155 73.4112 29.8867V33.1724C73.3927 33.4694 73.4484 33.7478 73.5597 34.0263C73.634 34.1748 73.7454 34.2862 73.8939 34.3604C74.1166 34.4532 74.3579 34.5089 74.5993 34.4903V34.7502H71.1094V34.4903C71.3693 34.5089 71.6477 34.4532 71.8891 34.3233C72.019 34.2305 72.1118 34.1005 72.1489 33.952C72.1861 33.7107 72.2046 33.4694 72.1861 33.2281V30.5735C72.2046 30.1095 72.1861 29.6268 72.1304 29.1628C72.1118 29.0328 72.0376 28.9214 71.9447 28.8286C71.8519 28.7544 71.7406 28.7172 71.6292 28.7172C71.4435 28.7172 71.2765 28.7544 71.1094 28.8286L71.0352 28.5687L73.0957 27.7334H73.4298V27.752Z" fill="white"/>
<path d="M80.4806 33.786C80.0723 34.1201 79.6267 34.4357 79.1627 34.7141C78.9028 34.8441 78.6058 34.8997 78.3088 34.8997C77.8633 34.9183 77.4549 34.7327 77.1393 34.4171C76.8237 34.0644 76.6567 33.6189 76.6752 33.1363C76.6752 32.8393 76.7495 32.5422 76.898 32.2824C77.1579 31.874 77.5291 31.5584 77.9561 31.3356C78.7543 30.9087 79.6082 30.5374 80.4621 30.259V29.9805C80.4621 29.3123 80.3507 28.8296 80.1465 28.5883C79.9052 28.3284 79.5525 28.1985 79.1998 28.2171C78.9213 28.1985 78.6615 28.2913 78.4573 28.4769C78.2902 28.6254 78.1788 28.8296 78.1788 29.0524L78.1974 29.4793C78.216 29.665 78.1417 29.8692 78.0118 29.9991C77.9004 30.129 77.7333 30.1847 77.5477 30.1847C77.3806 30.1847 77.2136 30.129 77.1022 29.9991C76.9722 29.8506 76.9165 29.665 76.9351 29.4608C76.9351 29.0338 77.1579 28.644 77.5848 28.2913C78.0118 27.9386 78.6243 27.753 79.4226 27.753C79.9423 27.7344 80.4435 27.8458 80.9076 28.05C81.2046 28.1985 81.4274 28.4584 81.5573 28.7739C81.6501 28.9781 81.6872 29.4237 81.6872 30.0734V32.3937C81.6687 32.7836 81.6872 33.1919 81.7244 33.5818C81.7244 33.6932 81.7801 33.786 81.8543 33.8788C81.91 33.9345 81.9843 33.953 82.0585 33.953C82.1328 33.953 82.207 33.9345 82.2627 33.8973C82.4855 33.7303 82.6711 33.5446 82.8567 33.359V33.7674C82.2998 34.5099 81.7615 34.8812 81.2603 34.8812C81.0375 34.8997 80.8333 34.8069 80.6848 34.6213C80.5735 34.4728 80.4992 34.1944 80.4806 33.786ZM80.4806 33.3033V30.7045C79.9794 30.8901 79.4968 31.0943 79.0327 31.3356C78.6986 31.5027 78.4201 31.7255 78.1974 32.0225C78.0303 32.2452 77.9375 32.5237 77.9375 32.8021C77.9189 33.1363 78.0489 33.4518 78.2531 33.6932C78.4387 33.9159 78.7172 34.0458 78.9956 34.0458C79.3854 34.0458 79.8681 33.8045 80.4806 33.3033Z" fill="white"/>
<path d="M88.3176 34.0083C88.0391 34.3053 87.705 34.5652 87.3523 34.7508C87.0367 34.8993 86.684 34.9736 86.3313 34.9736C85.5702 34.9736 84.8649 34.6209 84.3822 34.0454C83.8253 33.4329 83.5469 32.6346 83.5469 31.6508C83.5469 30.6855 83.881 29.7388 84.475 28.9777C85.0134 28.1981 85.9044 27.7526 86.8511 27.7711C87.408 27.7526 87.9463 27.9568 88.3361 28.3466V27.0843C88.3547 26.6017 88.3361 26.119 88.2804 25.6549C88.2619 25.5064 88.2062 25.3765 88.1134 25.2837C88.0206 25.2094 87.9278 25.1909 87.8164 25.1909C87.6493 25.2094 87.4637 25.2466 87.2966 25.3023L87.2038 25.0424L89.2272 24.207H89.5613V32.0592C89.5427 32.5418 89.5613 33.043 89.617 33.5257C89.6355 33.6742 89.7098 33.8041 89.8026 33.8969C89.8769 33.9712 89.9882 34.0083 90.0811 34.0083C90.2667 33.9897 90.4523 33.9526 90.6194 33.8784L90.6936 34.1383L88.6703 34.9736H88.3361L88.3176 34.0083ZM88.3176 33.4885V29.9801C88.299 29.6646 88.2062 29.349 88.0577 29.052C87.9278 28.7921 87.7236 28.5693 87.4637 28.4208C87.2409 28.2909 86.9996 28.2166 86.7397 28.2166C86.2756 28.2352 85.8487 28.4394 85.5702 28.8107C85.1247 29.3304 84.902 30.0729 84.902 31.0754C84.902 32.0778 85.1247 32.8388 85.5517 33.3772C85.9972 33.9155 86.4798 34.1754 87.0182 34.1754C87.4637 34.1568 87.8906 33.9341 88.3176 33.4885Z" fill="white"/>
<path d="M92.3813 30.5178C92.3813 31.5202 92.6226 32.3184 93.1238 32.8938C93.5508 33.4321 94.1819 33.7477 94.8688 33.7477C95.2957 33.7477 95.7041 33.6178 96.0382 33.3765C96.3724 33.1351 96.6508 32.7082 96.8736 32.1142L97.0963 32.2627C96.985 32.9495 96.6694 33.5992 96.1867 34.119C95.7227 34.6573 95.0173 34.9729 94.3119 34.9543C93.5137 34.9543 92.734 34.6016 92.2143 34.0076C91.6388 33.3765 91.3418 32.5226 91.3418 31.4459C91.3418 30.2764 91.6388 29.3668 92.2328 28.7171C92.8083 28.086 93.625 27.7147 94.4789 27.7333C95.1843 27.7147 95.8712 27.9932 96.3538 28.4944C96.855 28.9956 97.0963 29.6639 97.0963 30.5178H92.3813ZM92.3813 30.0908H95.537C95.537 29.7752 95.4814 29.4597 95.3885 29.1626C95.2772 28.9028 95.073 28.6614 94.8316 28.5129C94.6089 28.3644 94.3304 28.2716 94.0706 28.2716C93.6436 28.2716 93.2538 28.4387 92.9568 28.7543C92.6041 29.107 92.4184 29.5896 92.3813 30.0908Z" fill="white"/>
<path d="M71.2369 40.0586L71.4597 43.4928H71.2369C70.9213 42.4718 70.4944 41.7293 69.9189 41.2838C69.3435 40.8382 68.6195 40.5969 67.877 40.6155C67.2273 40.6155 66.6147 40.7826 66.0578 41.1167C65.4824 41.5065 65.0183 42.082 64.777 42.7502C64.4428 43.6413 64.2943 44.5694 64.3129 45.5161C64.2943 46.3329 64.4428 47.1497 64.7398 47.8922C64.9997 48.5233 65.4638 49.0617 66.0578 49.4329C66.6704 49.8042 67.3572 49.9898 68.0626 49.9713C68.6752 49.9898 69.2692 49.8413 69.789 49.5443C70.2902 49.2659 70.8285 48.709 71.4411 47.8736L71.6638 48.0221C71.1626 48.9132 70.5686 49.5814 69.9004 49.9898C69.1764 50.4168 68.3411 50.6395 67.5057 50.621C65.835 50.621 64.5356 50.0084 63.626 48.7647C62.9392 47.8179 62.568 46.667 62.6051 45.4976C62.6051 44.5323 62.8278 43.5856 63.2733 42.7317C63.7003 41.9149 64.3314 41.2466 65.1297 40.7826C65.9093 40.3185 66.8003 40.0772 67.7285 40.0957C68.471 40.0957 69.2135 40.2813 69.8818 40.634C70.0117 40.7269 70.1602 40.7826 70.3273 40.8011C70.4572 40.8011 70.5872 40.7454 70.68 40.6526C70.8285 40.5041 70.9213 40.2999 70.9584 40.0957L71.2369 40.0586Z" fill="white"/>
<path d="M73.9673 46.1115C73.9673 47.1139 74.2086 47.9121 74.7098 48.4876C75.1367 49.0259 75.7679 49.3415 76.4547 49.3415C76.8817 49.3415 77.29 49.2115 77.6242 48.9702C77.9583 48.7289 78.2368 48.3019 78.4595 47.7079L78.6823 47.8564C78.5709 48.5433 78.2553 49.193 77.7727 49.7127C77.3086 50.2511 76.6032 50.5666 75.8978 50.5481C75.0996 50.5481 74.32 50.2139 73.8002 49.6014C73.2247 48.9702 72.9277 48.1163 72.9277 47.0397C72.9277 45.8702 73.2247 44.9606 73.8188 44.3109C74.3942 43.6797 75.211 43.3085 76.0649 43.327C76.7703 43.3085 77.4571 43.5869 77.9398 44.0881C78.441 44.5893 78.6823 45.2576 78.6823 46.1115H73.9673ZM73.9673 45.6845H77.123C77.123 45.369 77.0673 45.0534 76.9745 44.7564C76.8631 44.4965 76.6589 44.2552 76.4176 44.1067C76.1948 43.9582 75.9164 43.8654 75.6565 43.8654C75.2296 43.8654 74.8397 44.0324 74.5427 44.348C74.2086 44.7007 74.0044 45.1833 73.9673 45.6845Z" fill="white"/>
<path d="M81.6915 44.7936C82.4897 43.8284 83.2508 43.3457 83.9748 43.3457C84.3089 43.3457 84.643 43.4385 84.94 43.6242C85.237 43.8655 85.4598 44.181 85.5712 44.5523C85.7011 44.9978 85.7568 45.4619 85.7382 45.926V48.8218C85.7197 49.1188 85.7568 49.4158 85.8496 49.6943C85.9053 49.8242 85.9981 49.917 86.1095 49.9913C86.3137 50.0841 86.555 50.1212 86.7778 50.1027V50.3625H83.4179V50.1027H83.5664C83.7891 50.1212 84.0304 50.0655 84.2346 49.9542C84.3646 49.8428 84.4574 49.6943 84.4945 49.5272C84.5316 49.2859 84.5316 49.0631 84.5316 48.8218V46.0374C84.5316 45.4248 84.4574 44.9607 84.2903 44.6823C84.1233 44.4038 83.8077 44.2367 83.4735 44.2553C82.8795 44.2553 82.3041 44.5709 81.7101 45.2206V48.8032C81.6915 49.1003 81.7101 49.3787 81.7843 49.6571C81.84 49.7871 81.9514 49.8985 82.0628 49.9727C82.3041 50.0655 82.5454 50.0841 82.8053 50.0655V50.3254H79.4268V50.047H79.5753C79.928 50.047 80.1508 49.9542 80.2807 49.7871C80.4107 49.62 80.4663 49.2673 80.4663 48.7847V46.2601C80.4849 45.7589 80.4663 45.2577 80.4106 44.7751C80.3921 44.6451 80.3364 44.4966 80.2436 44.4038C80.1508 44.3296 80.0394 44.2924 79.928 44.311C79.7609 44.311 79.5939 44.3481 79.4268 44.4224L79.3154 44.1625L81.3574 43.3271H81.6729L81.6915 44.7936Z" fill="white"/>
<path d="M89.4122 41.3223V43.5498H91.0086V44.0696H89.4122V48.4876C89.4122 48.9331 89.4679 49.2301 89.5978 49.3786C89.7092 49.5271 89.8948 49.6199 90.0804 49.6014C90.2475 49.6014 90.4146 49.5457 90.5631 49.4529C90.7301 49.3415 90.8415 49.193 90.9158 49.0074H91.2128C91.0828 49.4343 90.823 49.8241 90.4703 50.1026C90.1918 50.3253 89.8391 50.4739 89.4864 50.4739C89.2451 50.4739 89.0223 50.3996 88.8182 50.2882C88.5954 50.1583 88.4283 49.9726 88.3355 49.7499C88.2056 49.3972 88.1684 49.0259 88.187 48.6547V44.0696H87.1104V43.8283C87.4259 43.6983 87.7044 43.5127 87.9457 43.2714C88.2427 42.9929 88.5026 42.6774 88.7068 42.3432C88.8924 42.0091 89.0409 41.6564 89.1894 41.3037L89.4122 41.3223Z" fill="white"/>
<path d="M93.794 43.3457V44.8679C94.3695 43.8469 94.9449 43.3457 95.5575 43.3457C95.7988 43.3457 96.0402 43.42 96.2258 43.587C96.3929 43.7355 96.4857 43.9397 96.4857 44.1625C96.4857 44.3481 96.43 44.5152 96.3 44.6451C96.1887 44.7751 96.0216 44.8493 95.836 44.8493C95.6132 44.8308 95.409 44.7379 95.2605 44.5894C95.1306 44.4595 94.9635 44.3667 94.7779 44.3296C94.6665 44.3481 94.5551 44.3852 94.4809 44.4781C94.2024 44.7751 93.9611 45.1092 93.794 45.4805V48.7661C93.7755 49.0631 93.8312 49.3416 93.9425 49.62C94.0168 49.7685 94.1467 49.8799 94.2767 49.9542C94.4994 50.047 94.7407 50.1027 94.9821 50.0841V50.344H91.4922V50.0841C91.7521 50.1027 92.0305 50.047 92.2719 49.917C92.4018 49.8242 92.4946 49.6943 92.5318 49.5458C92.5689 49.3044 92.5874 49.0631 92.5689 48.8218V46.1673C92.5874 45.7032 92.5689 45.2206 92.5132 44.7565C92.4946 44.6266 92.4204 44.5152 92.3276 44.4224C92.2347 44.3481 92.1234 44.311 92.012 44.311C91.8264 44.311 91.6593 44.3481 91.4922 44.4224L91.418 44.1625L93.4785 43.3271H93.794V43.3457Z" fill="white"/>
<path d="M98.1362 46.1115C98.1362 47.1139 98.3775 47.9121 98.8787 48.4876C99.3057 49.0259 99.9368 49.3415 100.624 49.3415C101.051 49.3415 101.459 49.2115 101.793 48.9702C102.127 48.7289 102.406 48.3019 102.628 47.7079L102.851 47.8564C102.74 48.5433 102.424 49.193 101.942 49.7127C101.478 50.2511 100.772 50.5666 100.067 50.5481C99.2686 50.5481 98.4889 50.2139 97.9691 49.6014C97.3937 48.9702 97.0967 48.1163 97.0967 47.0397C97.0967 45.8702 97.3937 44.9606 97.9877 44.3109C98.5632 43.6797 99.3799 43.3085 100.234 43.327C100.939 43.3085 101.626 43.5869 102.109 44.0881C102.61 44.5893 102.851 45.2576 102.851 46.1115H98.1362ZM98.1362 45.6845H101.292C101.292 45.369 101.236 45.0534 101.143 44.7564C101.032 44.4965 100.828 44.2552 100.587 44.1067C100.364 43.9582 100.085 43.8654 99.8254 43.8654C99.3985 43.8654 99.0087 44.0324 98.7117 44.348C98.3404 44.7007 98.1548 45.1833 98.1362 45.6845Z" fill="white"/>
</svg>
