<svg width="486" height="201" viewBox="0 0 486 201" fill="none" xmlns="http://www.w3.org/2000/svg">
<path d="M20.8707 160.389L0 139.391L71.7671 68.0717L92.1896 89.0064L20.8707 160.389Z" fill="#132E50"/>
<path d="M97.7582 99.6336L118.053 78.7629L189.628 150.082L168.949 170.824C145.133 147.009 121.382 123.193 97.7582 99.6336Z" fill="#98B1CB"/>
<path d="M89.1167 108.917L109.283 129.083L50.7043 187.598L29.1934 167.496L89.1167 108.917Z" fill="#DD0957"/>
<path d="M97.119 159.173L118.31 137.278L160.499 178.123L138.86 200.402L97.119 159.173Z" fill="#3E9AD5"/>
<path d="M145.456 9.6205L166.454 30.6833L127.658 69.0956L106.979 48.3529C119.719 35.5488 132.523 22.6167 145.456 9.6205Z" fill="#DD0957"/>
<path d="M101.219 39.1347L80.5402 59.8134L41.8077 21.465L62.6784 0.402271L101.219 39.1347Z" fill="#3E9AD5"/>
<path d="M155.122 96.9447L134.06 76.9062L163.317 46.9446L184.06 67.6873C174.521 77.3544 164.854 87.0855 155.122 96.9447Z" fill="#132E50"/>
<path d="M33.4188 30.107L62.5482 59.8766L41.6134 79.851L12.8042 50.7217L33.4188 30.107Z" fill="#98B1CB"/>
<path d="M229.77 63.8469V64.8072H214.853V63.8469H216.134C217.542 63.8469 218.63 63.4628 219.271 62.5665C219.655 61.9903 219.911 60.7099 219.911 58.5972V36.19C219.975 35.0377 219.847 33.8213 219.591 32.7329C219.399 32.2848 219.015 31.9006 218.566 31.6446C217.862 31.2604 217.03 31.0044 216.198 31.0044H214.917V30.0441H229.834V31.0044H228.554C227.145 31.0044 226.121 31.3885 225.481 32.2848C225.033 32.7969 224.84 34.1414 224.84 36.254V58.6612C224.776 59.8136 224.905 61.03 225.161 62.1184C225.353 62.6305 225.801 63.0146 226.249 63.2707C226.953 63.6549 227.785 63.9109 228.554 63.9109L229.77 63.8469Z" fill="#6D6E71"/>
<path d="M239.95 45.601C242.703 42.2719 245.328 40.6074 247.825 40.6074C248.977 40.6074 250.13 40.9275 251.154 41.5677C252.178 42.3999 252.947 43.4883 253.395 44.7687C253.843 46.3052 254.035 47.9057 253.971 49.5062V59.4934C253.907 60.5178 254.035 61.5421 254.355 62.5024C254.547 62.8865 254.867 63.2706 255.251 63.4627C255.956 63.7828 256.788 63.9109 257.556 63.8468V64.7431H245.84V63.8468H246.353C247.121 63.9109 247.953 63.7188 248.657 63.3347C249.105 62.9505 249.426 62.4384 249.554 61.8622C249.682 61.0299 249.682 60.2617 249.682 59.4294V49.8263C249.682 47.7136 249.426 46.1131 248.849 45.1528C248.273 44.1925 247.185 43.6163 246.032 43.6804C243.984 43.6804 241.999 44.7687 239.95 47.0094V59.3654C239.95 60.9659 240.015 61.9262 240.207 62.3103C240.399 62.7585 240.783 63.1426 241.167 63.3987C241.999 63.7188 242.831 63.7828 243.728 63.7188V64.6151H232.076V63.7188H232.588C233.804 63.7188 234.573 63.3987 235.021 62.8225C235.469 62.2463 235.661 61.0299 235.661 59.3654V50.7866C235.725 49.0581 235.661 47.3295 235.469 45.601C235.405 45.1528 235.213 44.6407 234.893 44.3206C234.573 44.0645 234.189 43.9364 233.805 44.0005C233.228 44.0005 232.652 44.1285 232.076 44.3846L231.692 43.4883L238.734 40.6074H239.822L239.95 45.601Z" fill="#6D6E71"/>
<path d="M266.581 33.6287V41.3752H272.087V43.1678H266.581V58.4047C266.581 59.9412 266.773 60.9655 267.221 61.4777C267.605 61.9898 268.246 62.3099 268.886 62.2459C269.462 62.2459 270.038 62.0538 270.55 61.7337C271.127 61.3496 271.511 60.8375 271.767 60.1973H272.791C272.343 61.6697 271.447 63.0142 270.23 63.9745C269.27 64.7427 268.054 65.2549 266.837 65.2549C266.005 65.2549 265.237 64.9988 264.532 64.6147C263.764 64.1665 263.188 63.5263 262.868 62.7581C262.42 61.5417 262.228 60.2613 262.292 58.9809V43.1038H258.579V42.2715C259.667 41.8233 260.627 41.1831 261.459 40.3509C262.484 39.3906 263.38 38.3022 264.084 37.1498C264.725 35.9975 265.237 34.7811 265.749 33.5647L266.581 33.6287Z" fill="#6D6E71"/>
<path d="M278.747 50.1458C278.747 53.6029 279.579 56.3558 281.307 58.3404C282.78 60.197 284.957 61.2854 287.325 61.2854C288.798 61.2854 290.206 60.8372 291.359 60.0049C292.511 59.1727 293.471 57.7002 294.24 55.6516L295.008 56.1637C294.624 58.5325 293.535 60.7732 291.871 62.5658C290.27 64.4224 287.837 65.5107 285.405 65.4467C282.652 65.4467 279.963 64.2943 278.17 62.1817C276.186 60.005 275.161 57.06 275.161 53.3468C275.161 49.3135 276.186 46.1765 278.234 43.9358C280.219 41.7591 283.036 40.5427 285.917 40.5427C288.35 40.4787 290.718 41.439 292.383 43.1675C294.111 44.8961 294.944 47.2008 294.944 50.1458H278.747ZM278.747 48.6733H289.63C289.63 47.585 289.438 46.4966 289.118 45.4723C288.734 44.576 288.03 43.7437 287.197 43.2316C286.429 42.7194 285.469 42.3993 284.572 42.3993C283.164 42.3993 281.756 42.9755 280.795 44.0638C279.515 45.2802 278.811 46.9448 278.747 48.6733Z" fill="#6D6E71"/>
<path d="M305.381 40.6074V45.8571C307.366 42.3359 309.35 40.6074 311.463 40.6074C312.295 40.6074 313.128 40.8635 313.768 41.4396C314.344 41.9518 314.664 42.656 314.728 43.4243C314.728 44.0645 314.472 44.6407 314.088 45.0888C313.704 45.537 313.128 45.793 312.487 45.793C311.719 45.729 311.015 45.4089 310.503 44.8967C310.055 44.4486 309.478 44.1285 308.838 44.0005C308.454 44.0645 308.07 44.1925 307.814 44.5126C306.854 45.537 306.021 46.6893 305.445 47.9697V59.3014C305.381 60.3257 305.573 61.286 305.957 62.2463C306.213 62.7585 306.662 63.1426 307.11 63.3987C307.878 63.7188 308.71 63.9109 309.543 63.8468V64.7431H297.507V63.8468C298.403 63.9109 299.363 63.7188 300.195 63.2706C300.644 62.9505 300.964 62.5024 301.092 61.9902C301.22 61.158 301.284 60.3257 301.22 59.4934V50.4025C301.284 48.802 301.22 47.1375 301.028 45.537C300.964 45.0888 300.708 44.7047 300.388 44.3846C300.067 44.1285 299.683 44.0005 299.299 44.0005C298.659 44.0005 298.083 44.1285 297.507 44.3846L297.251 43.4883L304.357 40.6074H305.381Z" fill="#6D6E71"/>
<path d="M323.241 45.601C325.994 42.2719 328.618 40.6074 331.115 40.6074C332.268 40.6074 333.42 40.9275 334.444 41.5677C335.469 42.3999 336.237 43.4883 336.621 44.7687C337.069 46.3052 337.261 47.9057 337.197 49.5062V59.4934C337.133 60.5178 337.261 61.5421 337.581 62.5024C337.773 62.9505 338.093 63.2706 338.478 63.5267C339.182 63.8468 340.014 63.9749 340.782 63.9109V64.8071H329.195V63.9109H329.707C330.475 63.9749 331.307 63.7828 332.011 63.3987C332.46 63.0146 332.78 62.5024 332.908 61.9262C333.036 61.0939 333.036 60.3257 333.036 59.4934V49.8904C333.036 47.7777 332.78 46.1772 332.204 45.2168C331.627 44.2565 330.539 43.6804 329.387 43.7444C327.338 43.7444 325.353 44.8327 323.305 47.0734V59.4294C323.241 60.4537 323.305 61.4141 323.561 62.3744C323.753 62.8225 324.137 63.2066 324.521 63.4627C325.353 63.7828 326.186 63.8468 327.082 63.7828V64.6791H315.43V63.7828H315.942C317.159 63.7828 317.927 63.4627 318.375 62.8865C318.823 62.3103 319.015 61.0939 319.015 59.4294V50.7866C319.079 49.0581 319.015 47.3295 318.823 45.601C318.759 45.1528 318.567 44.6407 318.247 44.3206C317.927 44.0645 317.543 43.9364 317.159 44.0005C316.582 44.0005 316.006 44.1285 315.43 44.3846L315.046 43.4883L322.088 40.6074H323.177L323.241 45.601Z" fill="#6D6E71"/>
<path d="M356.336 61.4133C354.928 62.5657 353.391 63.6541 351.791 64.6144C350.895 65.0625 349.87 65.2546 348.846 65.2546C347.309 65.3186 345.901 64.6784 344.813 63.59C343.724 62.3737 343.148 60.8372 343.212 59.1726C343.212 58.1483 343.468 57.124 343.98 56.2277C344.941 54.8192 346.157 53.7309 347.63 52.9626C350.382 51.4902 353.327 50.2097 356.272 49.2494V48.3531C356.272 46.0484 355.888 44.3839 355.184 43.5516C354.352 42.6553 353.135 42.2072 351.919 42.2712C350.959 42.2072 350.062 42.5273 349.358 43.1675C348.782 43.6796 348.398 44.3839 348.398 45.1521L348.462 46.6246C348.526 47.2648 348.27 47.969 347.886 48.4172C347.502 48.8653 346.925 49.0574 346.285 49.0574C345.709 49.0574 345.133 48.8013 344.749 48.3531C344.3 47.841 344.108 47.2008 344.172 46.5606C344.172 45.0881 344.941 43.7437 346.413 42.5273C347.886 41.3109 349.998 40.6707 352.751 40.6707C354.544 40.6067 356.272 40.9908 357.873 41.695C358.897 42.2072 359.665 43.1035 360.114 44.1918C360.434 44.896 360.562 46.4325 360.562 48.7373V56.6758C360.498 58.0203 360.562 59.4287 360.69 60.7731C360.69 61.1573 360.882 61.4774 361.138 61.7975C361.33 61.9895 361.586 62.0536 361.842 62.0536C362.098 62.0536 362.354 61.9895 362.546 61.8615C363.315 61.2853 363.955 60.6451 364.595 60.0049V61.4133C362.674 63.9742 360.882 65.2546 359.089 65.2546C358.321 65.3186 357.617 64.9985 357.105 64.3583C356.656 63.7821 356.4 62.8218 356.336 61.4133ZM356.336 59.7488V50.7859C354.608 51.4261 352.943 52.1304 351.343 52.9626C350.19 53.5388 349.23 54.3071 348.462 55.3314C347.886 56.0996 347.566 57.0599 347.566 58.0203C347.502 59.1726 347.95 60.261 348.654 61.0932C349.294 61.8615 350.19 62.3096 351.215 62.3096C352.559 62.3096 354.224 61.4774 356.336 59.7488Z" fill="#6D6E71"/>
<path d="M373.622 33.6287V41.3752H379.128V43.1678H373.622V58.4047C373.622 59.9412 373.814 60.9655 374.262 61.4777C374.647 61.9898 375.287 62.3099 375.927 62.2459C376.503 62.2459 377.079 62.0538 377.592 61.7337C378.168 61.3496 378.552 60.8375 378.808 60.1973H379.832C379.384 61.6697 378.488 63.0142 377.271 63.9745C376.311 64.7427 375.095 65.2549 373.878 65.2549C373.046 65.2549 372.278 64.9988 371.574 64.6147C370.805 64.1665 370.229 63.5263 369.909 62.7581C369.461 61.5417 369.269 60.2613 369.397 58.9809V43.1038H365.684V42.2715C366.772 41.8233 367.732 41.1831 368.565 40.3509C369.589 39.3906 370.485 38.3022 371.189 37.1498C371.83 35.9975 372.342 34.7811 372.854 33.5647L373.622 33.6287Z" fill="#6D6E71"/>
<path d="M389.886 40.6079V59.4939C389.822 60.4543 389.95 61.4786 390.206 62.4389C390.398 62.887 390.718 63.2712 391.166 63.5272C391.871 63.8473 392.703 63.9754 393.471 63.9114V64.8077H382.075V63.9114C382.844 63.9754 383.676 63.8473 384.38 63.5913C384.828 63.3352 385.148 62.9511 385.34 62.5029C385.661 61.5426 385.789 60.5183 385.661 59.558V50.467C385.725 48.8025 385.661 47.138 385.405 45.5375C385.34 45.0893 385.148 44.7052 384.828 44.3851C384.508 44.129 384.124 44.065 383.804 44.065C383.228 44.065 382.588 44.193 382.075 44.4491L381.691 43.5528L388.734 40.6719L389.886 40.6079ZM387.773 28.3159C389.182 28.3159 390.334 29.4683 390.334 30.8768C390.334 31.581 390.078 32.2212 389.566 32.7333C389.118 33.2455 388.413 33.5016 387.709 33.5016C386.237 33.5016 385.084 32.3492 385.084 30.8768C385.084 30.1725 385.34 29.5323 385.853 29.0202C386.365 28.572 387.069 28.3159 387.773 28.3159Z" fill="#6D6E71"/>
<path d="M408.261 40.6059C411.59 40.4778 414.791 42.0143 416.84 44.7032C418.632 46.9439 419.593 49.7608 419.593 52.6417C419.593 54.8824 419.08 57.0591 418.056 59.0438C416.328 63.0771 412.358 65.6379 408.005 65.5739C404.676 65.7019 401.475 64.1014 399.554 61.3485C397.826 59.0438 396.865 56.2269 396.929 53.346C396.929 51.1052 397.505 48.9285 398.53 46.9439C400.258 43.1027 404.1 40.6699 408.261 40.6059ZM407.493 42.2704C406.532 42.2704 405.572 42.5905 404.74 43.1027C403.715 43.8069 402.947 44.7672 402.499 45.9196C401.859 47.5841 401.603 49.3767 401.667 51.1052C401.603 54.1782 402.307 57.2512 403.715 59.9401C405.06 62.4369 406.852 63.6533 409.093 63.6533C410.694 63.6533 412.23 62.885 413.191 61.6046C414.279 60.2602 414.791 57.8914 414.791 54.5623C414.791 50.401 413.895 47.136 412.102 44.7032C411.078 43.2307 409.349 42.2704 407.493 42.2704Z" fill="#6D6E71"/>
<path d="M430.282 45.601C433.035 42.2719 435.659 40.6074 438.156 40.6074C439.309 40.6074 440.461 40.9275 441.485 41.5677C442.51 42.3999 443.278 43.4883 443.662 44.7687C444.11 46.3052 444.302 47.9057 444.238 49.5062V59.4934C444.174 60.5178 444.302 61.5421 444.622 62.5024C444.814 62.9505 445.135 63.2706 445.519 63.5267C446.287 63.8468 447.055 63.9749 447.887 63.9109V64.8071H436.236V63.9109H436.748C437.516 63.9749 438.348 63.7828 439.053 63.3987C439.501 63.0146 439.821 62.5024 439.949 61.9262C440.077 61.0939 440.077 60.3257 440.077 59.4934V49.8904C440.077 47.7777 439.821 46.1772 439.245 45.2168C438.668 44.2565 437.58 43.6804 436.428 43.7444C434.379 43.7444 432.394 44.8327 430.346 47.0734V59.4294C430.282 60.4537 430.346 61.4141 430.602 62.3744C430.794 62.8225 431.178 63.2066 431.562 63.4627C432.394 63.7828 433.227 63.8468 434.123 63.7828V64.6791H422.535V63.7828H423.047C424.264 63.7828 425.032 63.4627 425.48 62.8865C425.928 62.3103 426.12 61.0939 426.12 59.4294V50.7866C426.184 49.0581 426.12 47.3295 425.928 45.601C425.864 45.1528 425.672 44.6407 425.352 44.3206C425.032 44.0645 424.648 43.9364 424.264 44.0005C423.688 44.0005 423.111 44.1285 422.535 44.3846L422.151 43.4883L429.193 40.6074H430.282V45.601Z" fill="#6D6E71"/>
<path d="M463.447 61.4133C462.039 62.5657 460.502 63.6541 458.902 64.6144C458.005 65.0625 456.981 65.2546 455.957 65.2546C454.42 65.3186 453.012 64.6784 451.923 63.59C450.835 62.3736 450.259 60.8372 450.323 59.1726C450.323 58.1483 450.579 57.124 451.091 56.2277C452.051 54.8192 453.268 53.7309 454.74 52.9626C457.493 51.4902 460.438 50.2097 463.383 49.2494V48.3531C463.383 46.0484 462.999 44.3839 462.295 43.5516C461.462 42.6553 460.246 42.2072 459.03 42.2712C458.069 42.2072 457.173 42.5273 456.469 43.1675C455.893 43.6796 455.509 44.3839 455.509 45.1521L455.573 46.6246C455.637 47.2648 455.381 47.969 454.996 48.4172C454.612 48.8653 454.036 49.0574 453.396 49.0574C452.82 49.0574 452.244 48.8013 451.859 48.3531C451.411 47.841 451.219 47.2008 451.283 46.5606C451.283 45.0881 452.051 43.7437 453.524 42.5273C454.996 41.3109 457.109 40.6707 459.862 40.6707C461.655 40.6067 463.383 40.9908 464.984 41.695C466.008 42.2072 466.776 43.1035 467.224 44.1918C467.544 44.896 467.672 46.4325 467.672 48.7373V56.6758C467.608 58.0203 467.673 59.4287 467.801 60.7731C467.801 61.1573 467.993 61.4774 468.249 61.7975C468.441 61.9895 468.697 62.0535 468.953 62.0535C469.209 62.0535 469.465 61.9895 469.657 61.8615C470.425 61.2853 471.066 60.6451 471.706 60.0049V61.4133C469.785 63.9742 467.993 65.2546 466.2 65.2546C465.432 65.2546 464.728 64.9345 464.215 64.3583C463.703 63.7821 463.447 62.8218 463.447 61.4133ZM463.447 59.7488V50.7859C461.719 51.4261 460.054 52.1304 458.454 52.9626C457.301 53.5388 456.341 54.3071 455.573 55.3314C454.996 56.0996 454.676 57.0599 454.676 58.0203C454.612 59.1726 455.06 60.261 455.765 61.0932C456.405 61.8615 457.301 62.3096 458.326 62.3096C459.606 62.3096 461.334 61.4774 463.447 59.7488Z" fill="#6D6E71"/>
<path d="M481.948 28.3798V59.5579C481.884 60.5182 482.012 61.5425 482.268 62.5028C482.46 62.951 482.844 63.3351 483.228 63.5912C483.997 63.9113 484.893 64.0393 485.725 63.9753V64.8716H474.201V63.9753C474.97 64.0393 475.674 63.9113 476.378 63.6552C476.826 63.3991 477.146 63.015 477.338 62.5668C477.595 61.6065 477.723 60.5822 477.659 59.6219V38.175C477.723 36.5745 477.659 34.9099 477.466 33.3094C477.402 32.8613 477.21 32.4131 476.89 32.093C476.57 31.837 476.25 31.7729 475.866 31.7729C475.29 31.7729 474.714 31.965 474.201 32.1571L473.753 31.2608L480.732 28.3798H481.948Z" fill="#6D6E71"/>
<path d="M243.918 83.8208L244.302 91.9514H243.342C243.278 90.8631 242.958 89.8388 242.574 88.8784C242.125 87.9822 241.357 87.2139 240.461 86.7018C239.373 86.1896 238.156 85.9335 237.004 85.9975H232.138V112.566C232.138 114.679 232.394 116.023 232.842 116.535C233.611 117.304 234.763 117.688 235.851 117.624H237.068V118.584H222.343V117.624H223.559C225.032 117.624 226.056 117.176 226.696 116.279C227.081 115.703 227.273 114.487 227.273 112.502V85.9335H223.111C221.959 85.8695 220.807 85.9975 219.654 86.3176C218.694 86.7017 217.926 87.342 217.349 88.1742C216.645 89.3266 216.261 90.607 216.197 91.9514H215.237L215.621 83.8208H243.918Z" fill="#6D6E71"/>
<path d="M252.689 94.3838V99.6335C254.674 96.1123 256.658 94.3838 258.707 94.3838C259.539 94.3838 260.435 94.6399 261.012 95.216C261.588 95.7282 261.908 96.4324 261.908 97.2007C261.908 97.8409 261.716 98.4171 261.268 98.8652C260.884 99.3134 260.307 99.5694 259.667 99.5694C258.899 99.5054 258.195 99.1853 257.682 98.6732C257.234 98.225 256.658 97.9049 256.018 97.7769C255.634 97.8409 255.25 97.9689 254.994 98.289C254.033 99.3134 253.201 100.466 252.625 101.746V113.078C252.561 114.102 252.753 115.062 253.137 116.023C253.393 116.535 253.777 116.919 254.289 117.175C255.058 117.495 255.89 117.687 256.722 117.623V118.52H244.686V117.623C245.583 117.687 246.543 117.495 247.375 117.047C247.823 116.727 248.143 116.279 248.271 115.767C248.399 114.934 248.464 114.102 248.4 113.27V104.115C248.464 102.514 248.4 100.85 248.207 99.2493C248.143 98.8012 247.887 98.4171 247.567 98.097C247.247 97.8409 246.863 97.7128 246.479 97.7128C245.839 97.7128 245.263 97.8409 244.686 98.097L244.43 97.2007L251.537 94.3198H252.689V94.3838Z" fill="#6D6E71"/>
<path d="M277.013 115.191C275.604 116.343 274.068 117.431 272.467 118.392C271.571 118.84 270.547 119.032 269.522 119.032C267.986 119.096 266.577 118.456 265.489 117.367C264.401 116.151 263.825 114.615 263.889 112.95C263.889 111.926 264.145 110.901 264.657 110.005C265.553 108.597 266.833 107.508 268.306 106.74C271.059 105.267 274.004 103.987 276.949 103.027V102.066C276.949 99.7617 276.565 98.0972 275.86 97.2649C275.028 96.3686 273.812 95.9205 272.595 95.9845C271.635 95.9205 270.739 96.2406 270.035 96.8808C269.458 97.393 269.074 98.0972 269.074 98.8654L269.138 100.338C269.202 100.978 268.946 101.682 268.498 102.13C268.114 102.579 267.538 102.771 266.898 102.771C266.321 102.771 265.745 102.579 265.361 102.13C264.913 101.618 264.721 100.978 264.785 100.274C264.785 98.8014 265.553 97.457 267.026 96.2406C268.498 95.0242 270.611 94.384 273.364 94.384C275.156 94.32 276.885 94.7041 278.485 95.4083C279.51 95.9205 280.278 96.8168 280.726 97.9051C281.046 98.6094 281.174 100.146 281.174 102.387V110.389C281.11 111.734 281.174 113.142 281.302 114.486C281.302 114.871 281.494 115.191 281.75 115.511C281.942 115.703 282.198 115.767 282.455 115.767C282.711 115.767 282.967 115.703 283.159 115.575C283.927 114.999 284.567 114.358 285.207 113.718V115.127C283.287 117.687 281.43 118.968 279.702 118.968C278.933 119.032 278.229 118.712 277.717 118.072C277.333 117.559 277.077 116.599 277.013 115.191ZM277.013 113.526V104.563C275.284 105.203 273.62 105.908 272.019 106.74C270.867 107.316 269.906 108.084 269.138 109.109C268.562 109.877 268.242 110.837 268.242 111.798C268.178 112.95 268.626 114.038 269.33 114.871C269.97 115.639 270.931 116.087 271.891 116.087C273.236 116.087 274.9 115.255 277.013 113.526Z" fill="#6D6E71"/>
<path d="M304.034 115.958C303.073 116.982 301.921 117.879 300.704 118.519C299.616 119.031 298.4 119.287 297.183 119.287C294.558 119.287 292.126 118.071 290.461 116.086C288.541 113.973 287.58 111.221 287.58 107.827C287.58 104.498 288.733 101.233 290.781 98.6085C292.638 95.9196 295.711 94.3831 298.976 94.4472C300.897 94.3831 302.753 95.0874 304.098 96.4318V92.0784C304.162 90.4139 304.098 88.7493 303.905 87.1488C303.841 86.6366 303.649 86.1885 303.329 85.8684C303.009 85.6123 302.689 85.5483 302.305 85.5483C301.729 85.6123 301.089 85.7404 300.512 85.9324L300.192 85.0361L307.171 82.1552H308.323V109.236C308.259 110.9 308.323 112.629 308.515 114.294C308.579 114.806 308.835 115.254 309.155 115.574C309.411 115.83 309.795 115.958 310.115 115.958C310.756 115.894 311.396 115.766 311.972 115.51L312.228 116.406L305.25 119.287H304.098L304.034 115.958ZM304.034 114.165V102.066C303.969 100.977 303.649 99.8889 303.137 98.8646C302.689 97.9683 301.985 97.2 301.089 96.6879C300.32 96.2397 299.488 95.9837 298.592 95.9837C296.991 96.0477 295.519 96.7519 294.558 98.0323C293.022 99.8249 292.254 102.386 292.254 105.843C292.254 109.3 293.022 111.925 294.494 113.781C296.031 115.638 297.695 116.534 299.552 116.534C301.089 116.47 302.561 115.702 304.034 114.165Z" fill="#6D6E71"/>
<path d="M318.054 103.923C318.054 107.38 318.886 110.133 320.615 112.118C322.087 113.974 324.264 115.063 326.633 115.063C328.105 115.063 329.514 114.614 330.666 113.782C331.818 112.95 332.779 111.477 333.547 109.429L334.315 109.941C333.931 112.31 332.843 114.55 331.178 116.343C329.578 118.2 327.145 119.288 324.712 119.224C321.959 119.224 319.27 118.008 317.478 115.959C315.493 113.782 314.469 110.837 314.469 107.124C314.469 103.091 315.493 99.9538 317.542 97.713C319.526 95.5363 322.343 94.2559 325.288 94.3199C327.721 94.2559 330.09 95.2162 331.754 96.9448C333.483 98.6733 334.315 100.978 334.315 103.923H318.054ZM318.054 102.451H328.937C328.937 101.362 328.745 100.274 328.425 99.2495C328.041 98.3532 327.337 97.521 326.505 97.0088C325.736 96.4966 324.776 96.1765 323.88 96.1765C322.407 96.1765 321.063 96.7527 320.039 97.8411C318.822 99.0575 318.182 100.722 318.054 102.451Z" fill="#6D6E71"/>
<path d="M245.13 136.83L245.898 148.674H245.13C244.041 145.153 242.569 142.592 240.584 141.055C238.6 139.519 236.103 138.687 233.542 138.751C231.301 138.751 229.189 139.327 227.268 140.479C225.283 141.824 223.683 143.808 222.851 146.113C221.698 149.186 221.186 152.387 221.25 155.652C221.186 158.469 221.698 161.286 222.723 163.847C223.619 166.023 225.219 167.88 227.268 169.16C229.381 170.441 231.749 171.081 234.182 171.017C236.295 171.081 238.344 170.569 240.136 169.545C241.865 168.584 243.721 166.664 245.834 163.783L246.602 164.295C244.874 167.368 242.825 169.673 240.52 171.081C238.024 172.554 235.143 173.322 232.262 173.258C226.5 173.258 222.018 171.145 218.881 166.856C216.513 163.591 215.232 159.621 215.36 155.588C215.36 152.259 216.128 148.994 217.665 146.049C219.137 143.232 221.314 140.927 224.067 139.327C226.756 137.726 229.829 136.894 233.03 136.958C235.591 136.958 238.152 137.598 240.456 138.815C240.904 139.135 241.417 139.327 241.993 139.391C242.441 139.391 242.889 139.199 243.209 138.879C243.721 138.367 244.041 137.662 244.169 136.958L245.13 136.83Z" fill="#6D6E71"/>
<path d="M254.546 157.7C254.546 161.157 255.379 163.91 257.107 165.895C258.58 167.752 260.756 168.84 263.125 168.84C264.597 168.84 266.006 168.392 267.158 167.559C268.311 166.727 269.271 165.255 270.039 163.206L270.807 163.718C270.423 166.087 269.335 168.328 267.67 170.12C266.07 171.977 263.637 173.065 261.204 173.001C258.451 173.001 255.763 171.849 253.97 169.736C251.985 167.559 250.961 164.614 250.961 160.901C250.961 156.868 251.985 153.731 254.034 151.49C256.019 149.314 258.836 148.033 261.781 148.097C264.213 148.033 266.582 148.993 268.247 150.722C269.975 152.451 270.807 154.755 270.807 157.7H254.546ZM254.546 156.228H265.43C265.43 155.139 265.238 154.051 264.918 153.027C264.533 152.13 263.829 151.298 262.997 150.786C262.229 150.274 261.268 149.954 260.372 149.954C258.9 149.954 257.555 150.53 256.531 151.618C255.379 152.835 254.674 154.499 254.546 156.228Z" fill="#6D6E71"/>
<path d="M281.177 153.155C283.93 149.826 286.555 148.161 289.052 148.161C290.204 148.161 291.356 148.482 292.381 149.122C293.405 149.954 294.173 151.042 294.557 152.323C295.006 153.859 295.198 155.46 295.134 157.06V167.048C295.07 168.072 295.198 169.096 295.518 170.057C295.71 170.505 296.03 170.825 296.414 171.081C297.118 171.401 297.951 171.529 298.719 171.465V172.361H287.131V171.465H287.643C288.411 171.529 289.244 171.337 289.948 170.953C290.396 170.569 290.716 170.057 290.844 169.48C290.972 168.648 290.972 167.88 290.972 167.048V157.444C290.972 155.332 290.716 153.731 290.14 152.771C289.564 151.811 288.476 151.234 287.323 151.298C285.274 151.298 283.29 152.387 281.241 154.628V166.984C281.177 168.008 281.241 168.968 281.497 169.928C281.689 170.377 282.073 170.761 282.458 171.017C283.29 171.337 284.122 171.401 285.018 171.337V172.233H273.367V171.273H273.879C275.095 171.273 275.863 170.953 276.312 170.377C276.76 169.8 276.952 168.584 276.952 166.92V158.213C277.016 156.484 276.952 154.756 276.76 153.091C276.696 152.643 276.504 152.131 276.184 151.811C275.863 151.555 275.479 151.427 275.095 151.491C274.519 151.491 273.943 151.619 273.367 151.875L272.983 150.978L280.025 148.097H281.113L281.177 153.155Z" fill="#6D6E71"/>
<path d="M307.813 141.183V148.866H313.319V150.658H307.813V165.895C307.813 167.432 308.006 168.456 308.454 168.968C308.838 169.48 309.478 169.8 310.118 169.736C310.694 169.736 311.271 169.544 311.783 169.224C312.359 168.84 312.743 168.328 312.999 167.688H314.023C313.575 169.16 312.679 170.505 311.463 171.465C310.502 172.233 309.286 172.745 308.07 172.745C307.237 172.745 306.469 172.489 305.765 172.105C304.997 171.657 304.42 171.017 304.1 170.249C303.652 169.032 303.524 167.752 303.588 166.471V150.658H299.875V149.826C300.963 149.378 301.924 148.738 302.756 147.905C303.78 146.945 304.676 145.857 305.381 144.704C306.021 143.552 306.533 142.336 307.045 141.119L307.813 141.183Z" fill="#6D6E71"/>
<path d="M322.921 148.161V153.411C324.906 149.89 326.89 148.161 329.003 148.161C329.835 148.161 330.667 148.418 331.308 148.994C331.884 149.506 332.204 150.21 332.204 150.978C332.204 151.619 332.012 152.195 331.564 152.643C331.18 153.091 330.603 153.347 329.963 153.347C329.195 153.283 328.491 152.963 327.979 152.451C327.53 152.003 326.954 151.683 326.314 151.555C325.93 151.619 325.546 151.747 325.29 152.067C324.329 153.091 323.497 154.243 322.921 155.524V166.855C322.857 167.88 323.049 168.84 323.433 169.8C323.689 170.313 324.137 170.697 324.586 170.953C325.354 171.273 326.186 171.465 327.018 171.401V172.297H314.982V171.401C315.879 171.465 316.839 171.273 317.671 170.825C318.119 170.505 318.44 170.057 318.568 169.544C318.696 168.712 318.76 167.88 318.696 167.048V157.893C318.76 156.292 318.696 154.628 318.504 153.027C318.44 152.579 318.183 152.195 317.863 151.875C317.543 151.619 317.159 151.491 316.775 151.491C316.135 151.491 315.559 151.619 314.982 151.875L314.726 150.978L321.833 148.097H322.921V148.161Z" fill="#6D6E71"/>
<path d="M337.899 157.7C337.899 161.157 338.731 163.91 340.459 165.895C341.932 167.752 344.109 168.84 346.477 168.84C347.95 168.84 349.358 168.392 350.511 167.559C351.663 166.727 352.623 165.255 353.392 163.206L354.16 163.718C353.776 166.087 352.687 168.328 351.023 170.12C349.422 171.977 346.989 173.065 344.557 173.001C341.804 173.001 339.115 171.849 337.322 169.736C335.338 167.559 334.313 164.614 334.313 160.901C334.313 156.868 335.338 153.731 337.386 151.49C339.371 149.314 342.188 148.033 345.133 148.097C347.566 148.033 349.934 148.993 351.599 150.722C353.327 152.451 354.16 154.755 354.16 157.7H337.899ZM337.899 156.228H348.782C348.782 155.139 348.59 154.051 348.27 153.027C347.886 152.13 347.182 151.298 346.349 150.786C345.581 150.274 344.621 149.954 343.724 149.954C342.252 149.954 340.908 150.53 339.883 151.618C338.603 152.835 337.963 154.499 337.899 156.228Z" fill="#6D6E71"/>
</svg>
