<svg width="142" height="59" viewBox="0 0 142 59" fill="none" xmlns="http://www.w3.org/2000/svg">
<path d="M7.03788 46.64L0.986328 40.5513L21.7955 19.8721L27.7171 25.9422L7.03788 46.64Z" fill="#132E50"/>
<path d="M29.3311 29.0242L35.2155 22.9727L55.969 43.6519L49.9731 49.6663C43.0677 42.7609 36.1808 35.8554 29.3311 29.0242Z" fill="#98B1CB"/>
<path d="M26.8271 31.7158L32.6745 37.5632L15.6893 54.5298L9.45215 48.701L26.8271 31.7158Z" fill="#DD0957"/>
<path d="M29.1465 46.287L35.2909 39.9385L47.5239 51.7817L41.2496 58.2416L29.1465 46.287Z" fill="#3E9AD5"/>
<path d="M43.1603 2.92285L49.249 9.03009L37.9998 20.1679L32.0039 14.1535C35.698 10.4409 39.4106 6.69115 43.1603 2.92285Z" fill="#DD0957"/>
<path d="M30.3339 11.4816L24.3381 17.4775L13.1074 6.35821L19.159 0.250977L30.3339 11.4816Z" fill="#3E9AD5"/>
<path d="M45.9637 28.2438L39.8564 22.4336L48.3398 13.7461L54.3542 19.7605C51.5883 22.5635 48.7853 25.3851 45.9637 28.2438Z" fill="#132E50"/>
<path d="M10.6765 8.86426L19.1227 17.4961L13.0526 23.2877L4.69922 14.8416L10.6765 8.86426Z" fill="#98B1CB"/>
<path d="M67.6094 18.647V18.9254H63.2842V18.647H63.6554C64.0638 18.647 64.3794 18.5356 64.565 18.2757C64.6764 18.1087 64.7507 17.7374 64.7507 17.1248V10.6278C64.7692 10.2936 64.7321 9.94092 64.6578 9.62535C64.6022 9.49541 64.4908 9.38403 64.3608 9.30978C64.1566 9.1984 63.9153 9.12415 63.674 9.12415H63.3027V8.8457H67.6279V9.12415H67.2567C66.8483 9.12415 66.5513 9.23553 66.3656 9.49541C66.2357 9.64391 66.18 10.0337 66.18 10.6463V17.1434C66.1615 17.4775 66.1986 17.8302 66.2728 18.1458C66.3285 18.2943 66.4585 18.4057 66.5884 18.4799C66.7926 18.5913 67.0339 18.6655 67.2567 18.6655L67.6094 18.647Z" fill="#6D6E71"/>
<path d="M70.5606 13.3571C71.3589 12.3918 72.1199 11.9092 72.8439 11.9092C73.178 11.9092 73.5122 12.002 73.8092 12.1876C74.1062 12.4289 74.3289 12.7445 74.4589 13.1158C74.5888 13.5613 74.6445 14.0254 74.626 14.4894V17.3853C74.6074 17.6823 74.6445 17.9793 74.7373 18.2577C74.793 18.3691 74.8858 18.4805 74.9972 18.5362C75.2014 18.629 75.4427 18.6661 75.6655 18.6476V18.9074H72.2684V18.6476H72.417C72.6397 18.6661 72.881 18.6104 73.0852 18.4991C73.2152 18.3877 73.308 18.2392 73.3451 18.0721C73.3822 17.8308 73.3822 17.608 73.3822 17.3667V14.5823C73.3822 13.9697 73.308 13.5056 73.1409 13.2272C72.9738 12.9487 72.6583 12.7816 72.3241 12.8002C71.7301 12.8002 71.1547 13.1158 70.5606 13.7655V17.3481C70.5606 17.8122 70.5792 18.0907 70.6349 18.202C70.6906 18.332 70.802 18.4434 70.9133 18.5176C71.1547 18.6104 71.396 18.629 71.6559 18.6104V18.8703H68.2774V18.6104H68.4259C68.7786 18.6104 69.0014 18.5176 69.1313 18.3506C69.2612 18.1835 69.3169 17.8308 69.3169 17.3481V14.8607C69.3355 14.3595 69.3169 13.8583 69.2612 13.3571C69.2427 13.2272 69.187 13.0787 69.0942 12.9858C69.0014 12.9116 68.89 12.8745 68.7786 12.893C68.6115 12.893 68.4445 12.9301 68.2774 13.0044L68.166 12.7445L70.2079 11.9092H70.5235L70.5606 13.3571Z" fill="#6D6E71"/>
<path d="M78.2823 9.88477V12.1309H79.8787V12.6507H78.2823V17.0687C78.2823 17.5142 78.338 17.8112 78.4679 17.9597C78.5793 18.1082 78.7649 18.201 78.9506 18.1825C79.1176 18.1825 79.2847 18.1268 79.4332 18.0339C79.6003 17.9226 79.7116 17.7741 79.7859 17.5884H80.0829C79.953 18.0154 79.6931 18.4052 79.3404 18.6837C79.0619 18.9064 78.7092 19.0549 78.3565 19.0549C78.1152 19.0549 77.8925 18.9807 77.6883 18.8693C77.4655 18.7393 77.2985 18.5537 77.2056 18.331C77.0757 17.9783 77.02 17.607 77.0386 17.2357V12.6321H75.9619V12.3908C76.2775 12.2608 76.5559 12.0752 76.7973 11.8339C77.0943 11.5554 77.3541 11.2399 77.5583 10.9057C77.744 10.5716 77.8925 10.2189 78.041 9.86621L78.2823 9.88477Z" fill="#6D6E71"/>
<path d="M81.81 14.674C81.81 15.6764 82.0514 16.4746 82.5526 17.0501C82.9795 17.5884 83.6107 17.904 84.2975 17.904C84.7244 17.904 85.1328 17.774 85.467 17.5327C85.8011 17.2914 86.0795 16.8644 86.3023 16.2704L86.525 16.4189C86.4137 17.1058 86.0981 17.7555 85.6155 18.2752C85.1514 18.8136 84.446 19.1291 83.7406 19.1106C82.9424 19.1106 82.1627 18.7764 81.643 18.1638C81.0675 17.5327 80.7705 16.6788 80.7705 15.6022C80.7705 14.4327 81.0675 13.5231 81.6615 12.8734C82.237 12.2422 83.0538 11.8895 83.8891 11.8895C84.5945 11.871 85.2813 12.1494 85.764 12.6506C86.2652 13.1518 86.5065 13.8201 86.5065 14.674H81.81ZM81.81 14.247H84.9658C84.9658 13.9315 84.9101 13.6159 84.8173 13.3189C84.7059 13.059 84.5017 12.8177 84.2604 12.6692C84.0376 12.5207 83.7592 12.4279 83.4993 12.4279C83.0909 12.4279 82.6825 12.5949 82.4041 12.9105C82.0328 13.2632 81.8286 13.7458 81.81 14.247Z" fill="#6D6E71"/>
<path d="M89.5333 11.9092V13.4313C90.1087 12.4104 90.6842 11.9092 91.2968 11.9092C91.5381 11.9092 91.7794 11.9834 91.965 12.1505C92.1321 12.299 92.2249 12.5032 92.2435 12.726C92.2435 12.9116 92.1692 13.0787 92.0579 13.2086C91.9465 13.3385 91.7794 13.4128 91.5938 13.4128C91.371 13.3942 91.1668 13.3014 91.0183 13.1529C90.8884 13.023 90.7213 12.9301 90.5357 12.893C90.4243 12.9116 90.3129 12.9487 90.2387 13.0415C89.9602 13.3385 89.7189 13.6727 89.5519 14.0439V17.3296C89.5333 17.6266 89.589 17.905 89.7004 18.1835C89.7746 18.332 89.9046 18.4434 90.0345 18.5176C90.2572 18.6104 90.4986 18.6661 90.7399 18.6476V18.9074H87.25V18.6476C87.5099 18.6661 87.7884 18.6104 88.0297 18.4805C88.1596 18.3877 88.2524 18.2577 88.2896 18.1092C88.3267 17.8679 88.3453 17.6266 88.3267 17.3853V14.7493C88.3453 14.2852 88.3267 13.8026 88.271 13.3385C88.2524 13.2086 88.1782 13.0972 88.0854 13.0044C87.9926 12.9301 87.8812 12.893 87.7698 12.893C87.5842 12.893 87.4171 12.9301 87.25 13.0044L87.1758 12.7445L89.2363 11.9092H89.5333Z" fill="#6D6E71"/>
<path d="M94.712 13.3571C95.5102 12.3918 96.2713 11.9092 96.9953 11.9092C97.3294 11.9092 97.6635 12.002 97.9605 12.1876C98.2576 12.4289 98.4803 12.7445 98.5917 13.1158C98.7216 13.5613 98.7773 14.0254 98.7588 14.4894V17.3853C98.7402 17.6823 98.7773 17.9793 98.8701 18.2577C98.9258 18.3877 99.0186 18.4805 99.13 18.5547C99.3342 18.6476 99.5755 18.6847 99.7983 18.6661V18.926H96.4384V18.6661H96.5869C96.8096 18.6847 97.0509 18.629 97.2551 18.5176C97.3851 18.4062 97.4779 18.2577 97.515 18.0907C97.5522 17.8494 97.5522 17.6266 97.5522 17.3853V14.6008C97.5522 13.9882 97.4779 13.5242 97.3108 13.2457C97.1438 12.9673 96.8282 12.8002 96.4941 12.8188C95.9 12.8188 95.3246 13.1343 94.7306 13.784V17.3667C94.712 17.6637 94.7306 17.9422 94.8048 18.2206C94.8605 18.3506 94.9719 18.4619 95.0833 18.5362C95.3246 18.629 95.5659 18.6476 95.8258 18.629V18.8889H92.4473V18.629H92.5958C92.9485 18.629 93.1713 18.5362 93.3012 18.3691C93.4312 18.202 93.4868 17.8494 93.4868 17.3667V14.8607C93.5054 14.3595 93.4868 13.8583 93.4312 13.3571C93.4126 13.2272 93.3569 13.0787 93.2641 12.9858C93.1713 12.9116 93.0599 12.8745 92.9485 12.893C92.7814 12.893 92.6144 12.9301 92.4473 13.0044L92.3359 12.7445L94.3779 11.9092H94.6934L94.712 13.3571Z" fill="#6D6E71"/>
<path d="M104.308 17.9412C103.899 18.2754 103.454 18.5909 102.99 18.8694C102.73 18.9993 102.433 19.055 102.136 19.055C101.69 19.0736 101.282 18.8879 100.966 18.5724C100.651 18.2197 100.484 17.7742 100.502 17.2915C100.502 16.9945 100.577 16.6975 100.725 16.4376C101.004 16.0292 101.356 15.7137 101.783 15.4909C102.581 15.064 103.435 14.6927 104.289 14.4143V14.1544C104.289 13.4861 104.178 13.0035 103.974 12.7621C103.732 12.5023 103.38 12.3723 103.027 12.3909C102.749 12.3723 102.489 12.4651 102.284 12.6508C102.117 12.7993 102.006 13.0035 102.006 13.2262L102.025 13.6532C102.043 13.8388 101.969 14.043 101.857 14.1729C101.746 14.3029 101.579 14.3586 101.393 14.3586C101.226 14.3586 101.059 14.2843 100.948 14.1544C100.818 14.0059 100.762 13.8202 100.781 13.6346C100.781 13.2077 101.004 12.8178 101.431 12.4651C101.857 12.1124 102.47 11.9268 103.268 11.9268C103.788 11.9082 104.289 12.0196 104.753 12.2238C105.05 12.3723 105.273 12.6322 105.403 12.9478C105.496 13.152 105.533 13.5975 105.533 14.2658V16.5676C105.514 16.9574 105.533 17.3658 105.57 17.7556C105.57 17.867 105.626 17.9598 105.7 18.0526C105.756 18.1083 105.83 18.1269 105.904 18.1269C105.978 18.1269 106.053 18.1083 106.108 18.0712C106.331 17.9041 106.517 17.7185 106.702 17.5328V17.9412C106.146 18.6838 105.626 19.055 105.106 19.055C104.883 19.0736 104.679 18.9808 104.531 18.7951C104.401 18.6281 104.326 18.3496 104.308 17.9412ZM104.308 17.4586V14.8598C103.807 15.0454 103.324 15.2496 102.86 15.4909C102.526 15.658 102.247 15.8807 102.025 16.1777C101.857 16.4005 101.765 16.6789 101.765 16.9574C101.746 17.2915 101.876 17.6071 102.08 17.8484C102.266 18.0712 102.526 18.2011 102.823 18.2011C103.213 18.2011 103.695 17.9598 104.308 17.4586Z" fill="#6D6E71"/>
<path d="M109.32 9.88477V12.1309H110.917V12.6507H109.32V17.0687C109.32 17.5142 109.376 17.8112 109.506 17.9597C109.617 18.1082 109.803 18.201 109.989 18.1825C110.156 18.1825 110.323 18.1268 110.471 18.0339C110.638 17.9226 110.75 17.7741 110.824 17.5884H111.121C110.991 18.0154 110.731 18.4052 110.378 18.6837C110.1 18.9064 109.747 19.0549 109.395 19.0549C109.153 19.0549 108.931 18.9807 108.726 18.8693C108.504 18.7393 108.337 18.5537 108.244 18.331C108.114 17.9783 108.058 17.607 108.095 17.2357V12.6321H107.019V12.3908C107.334 12.2608 107.613 12.0752 107.854 11.8339C108.151 11.5554 108.411 11.2399 108.615 10.9057C108.801 10.5716 108.949 10.2189 109.098 9.86621L109.32 9.88477Z" fill="#6D6E71"/>
<path d="M114.035 11.9088V17.3849C114.017 17.6634 114.054 17.9604 114.128 18.2388C114.184 18.3688 114.277 18.4801 114.407 18.5544C114.611 18.6472 114.852 18.6843 115.075 18.6658V18.9257H111.771V18.6658C111.993 18.6843 112.235 18.6472 112.439 18.573C112.569 18.4987 112.662 18.3873 112.717 18.2574C112.81 17.9789 112.847 17.6819 112.81 17.4035V14.7675C112.829 14.2849 112.81 13.8023 112.736 13.3382C112.717 13.2082 112.662 13.0969 112.569 13.004C112.476 12.9298 112.365 12.9112 112.272 12.9112C112.105 12.9112 111.919 12.9484 111.771 13.0226L111.659 12.7627L113.701 11.9274L114.035 11.9088ZM113.423 8.34473C113.831 8.34473 114.165 8.67886 114.165 9.08725C114.165 9.29144 114.091 9.47707 113.942 9.62558C113.812 9.77408 113.608 9.84833 113.404 9.84833C112.977 9.84833 112.643 9.5142 112.643 9.08725C112.643 8.88305 112.717 8.69742 112.866 8.54892C113.014 8.41898 113.218 8.34473 113.423 8.34473Z" fill="#6D6E71"/>
<path d="M119.363 11.9084C120.328 11.8713 121.256 12.3168 121.85 13.0964C122.37 13.7461 122.648 14.5629 122.648 15.3983C122.648 16.048 122.5 16.6791 122.203 17.2546C121.702 18.424 120.551 19.1665 119.288 19.148C118.323 19.1851 117.395 18.721 116.838 17.9228C116.337 17.2546 116.058 16.4378 116.077 15.6024C116.077 14.9527 116.244 14.3216 116.541 13.7461C117.042 12.6324 118.156 11.927 119.363 11.9084ZM119.14 12.391C118.861 12.391 118.583 12.4839 118.342 12.6324C118.045 12.8366 117.822 13.115 117.692 13.4491C117.506 13.9318 117.432 14.4515 117.451 14.9527C117.432 15.8438 117.636 16.7348 118.045 17.5144C118.435 18.2384 118.954 18.5911 119.604 18.5911C120.068 18.5911 120.514 18.3683 120.792 17.9971C121.108 17.6073 121.256 16.9204 121.256 15.9551C121.256 14.7485 120.996 13.8018 120.476 13.0964C120.179 12.6695 119.678 12.391 119.14 12.391Z" fill="#6D6E71"/>
<path d="M125.749 13.3571C126.547 12.3918 127.308 11.9092 128.032 11.9092C128.366 11.9092 128.701 12.002 128.998 12.1876C129.295 12.4289 129.517 12.7445 129.629 13.1158C129.759 13.5613 129.814 14.0254 129.796 14.4894V17.3853C129.777 17.6823 129.814 17.9793 129.907 18.2577C129.963 18.3877 130.056 18.4805 130.167 18.5547C130.39 18.6476 130.613 18.6847 130.854 18.6661V18.926H127.475V18.6661H127.624C127.847 18.6847 128.088 18.629 128.292 18.5176C128.422 18.4062 128.515 18.2577 128.552 18.0907C128.589 17.8494 128.589 17.6266 128.589 17.3853V14.6008C128.589 13.9882 128.515 13.5242 128.348 13.2457C128.181 12.9673 127.865 12.8002 127.531 12.8188C126.937 12.8188 126.362 13.1343 125.768 13.784V17.3667C125.749 17.6637 125.768 17.9422 125.842 18.2206C125.898 18.3506 126.009 18.4619 126.12 18.5362C126.362 18.629 126.603 18.6476 126.863 18.629V18.8889H123.503V18.629H123.651C124.004 18.629 124.227 18.5362 124.357 18.3691C124.487 18.202 124.543 17.8494 124.543 17.3667V14.8607C124.561 14.3595 124.543 13.8583 124.487 13.3571C124.468 13.2272 124.413 13.0787 124.32 12.9858C124.227 12.9116 124.116 12.8745 124.004 12.893C123.837 12.893 123.67 12.9301 123.503 13.0044L123.392 12.7445L125.434 11.9092H125.749V13.3571Z" fill="#6D6E71"/>
<path d="M135.363 17.9412C134.955 18.2754 134.51 18.5909 134.045 18.8694C133.786 18.9993 133.489 19.055 133.192 19.055C132.746 19.0736 132.338 18.8879 132.022 18.5724C131.707 18.2197 131.539 17.7742 131.558 17.2915C131.558 16.9945 131.632 16.6975 131.781 16.4376C132.059 16.0292 132.412 15.7137 132.839 15.4909C133.637 15.064 134.491 14.6927 135.345 14.4143V14.1544C135.345 13.4861 135.234 13.0035 135.029 12.7621C134.788 12.5023 134.435 12.3723 134.083 12.3909C133.804 12.3723 133.544 12.4651 133.34 12.6508C133.173 12.7993 133.062 13.0035 133.062 13.2262L133.08 13.6532C133.099 13.8388 133.025 14.043 132.913 14.1729C132.802 14.3029 132.635 14.3586 132.449 14.3586C132.282 14.3586 132.115 14.2843 132.004 14.1544C131.874 14.0059 131.818 13.8202 131.836 13.6346C131.836 13.2077 132.059 12.8178 132.486 12.4651C132.913 12.1124 133.526 11.9268 134.324 11.9268C134.844 11.9082 135.345 12.0196 135.809 12.2238C136.106 12.3723 136.329 12.6322 136.459 12.9478C136.551 13.152 136.589 13.5975 136.589 14.2657V16.5676C136.57 16.9574 136.589 17.3658 136.626 17.7556C136.626 17.867 136.681 17.9598 136.756 18.0526C136.811 18.1083 136.886 18.1269 136.96 18.1269C137.034 18.1269 137.108 18.1083 137.164 18.0712C137.387 17.9041 137.572 17.7185 137.758 17.5328V17.9412C137.201 18.6838 136.681 19.055 136.162 19.055C135.939 19.055 135.735 18.9622 135.586 18.7951C135.438 18.6281 135.363 18.3496 135.363 17.9412ZM135.363 17.4586V14.8598C134.862 15.0454 134.38 15.2496 133.916 15.4909C133.581 15.658 133.303 15.8807 133.08 16.1777C132.913 16.4005 132.82 16.6789 132.82 16.9574C132.802 17.2915 132.932 17.6071 133.136 17.8484C133.322 18.0712 133.581 18.2011 133.878 18.2011C134.25 18.2011 134.751 17.9598 135.363 17.4586Z" fill="#6D6E71"/>
<path d="M140.73 8.36328V17.4035C140.711 17.6819 140.748 17.9789 140.822 18.2574C140.878 18.3873 140.989 18.4987 141.101 18.5729C141.324 18.6658 141.583 18.7029 141.825 18.6843V18.9442H138.483V18.6843C138.706 18.7029 138.91 18.6658 139.115 18.5915C139.245 18.5173 139.337 18.4059 139.393 18.2759C139.467 17.9975 139.504 17.7005 139.486 17.422V11.2034C139.504 10.7393 139.486 10.2567 139.43 9.79263C139.412 9.66269 139.356 9.53275 139.263 9.43994C139.17 9.36568 139.077 9.34712 138.966 9.34712C138.799 9.34712 138.632 9.40281 138.483 9.4585L138.354 9.19862L140.377 8.36328H140.73Z" fill="#6D6E71"/>
<path d="M71.7108 24.4385L71.8221 26.796H71.5437C71.5251 26.4804 71.4323 26.1834 71.3209 25.905C71.191 25.6451 70.9682 25.4223 70.7084 25.2738C70.3928 25.1253 70.0401 25.0511 69.706 25.0696H68.2952V32.7733C68.2952 33.3859 68.3694 33.7757 68.4994 33.9242C68.7221 34.1469 69.0563 34.2583 69.3718 34.2398H69.7245V34.5182H65.455V34.2398H65.8077C66.2347 34.2398 66.5317 34.1098 66.7173 33.8499C66.8287 33.6829 66.8844 33.3302 66.8844 32.7547V25.0511H65.6778C65.3436 25.0325 65.0095 25.0696 64.6754 25.1624C64.3969 25.2738 64.1742 25.4594 64.0071 25.7008C63.8029 26.0349 63.6915 26.4062 63.673 26.796H63.3945L63.5059 24.4385H71.7108Z" fill="#6D6E71"/>
<path d="M74.255 27.501V29.0232C74.8304 28.0022 75.4059 27.501 75.9999 27.501C76.2412 27.501 76.5011 27.5752 76.6682 27.7423C76.8352 27.8908 76.9281 28.095 76.9281 28.3178C76.9281 28.5034 76.8724 28.6705 76.7424 28.8004C76.6311 28.9303 76.464 29.0046 76.2784 29.0046C76.0556 28.986 75.8514 28.8932 75.7029 28.7447C75.573 28.6148 75.4059 28.522 75.2203 28.4848C75.1089 28.5034 74.9975 28.5405 74.9233 28.6333C74.6448 28.9303 74.4035 29.2645 74.2364 29.6357V32.9214C74.2179 33.2184 74.2735 33.4968 74.3849 33.7753C74.4592 33.9238 74.5706 34.0352 74.7191 34.1094C74.9418 34.2022 75.1831 34.2579 75.4245 34.2394V34.4993H71.9346V34.2394C72.1945 34.2579 72.4729 34.2022 72.7143 34.0723C72.8442 33.9795 72.937 33.8495 72.9741 33.701C73.0113 33.4597 73.0298 33.2184 73.0113 32.9771V30.3226C73.0298 29.8585 73.0113 29.3759 72.9556 28.9118C72.937 28.7818 72.8628 28.6705 72.7699 28.5776C72.6771 28.5034 72.5657 28.4663 72.4544 28.4663C72.2687 28.4663 72.1017 28.5034 71.9346 28.5776L71.8604 28.3178L73.9208 27.4824H74.255V27.501Z" fill="#6D6E71"/>
<path d="M81.3058 33.535C80.8975 33.8691 80.4519 34.1847 79.9879 34.4631C79.728 34.5931 79.431 34.6488 79.134 34.6488C78.6885 34.6673 78.2801 34.4817 77.9645 34.1661C77.6489 33.8134 77.4819 33.3679 77.5004 32.8853C77.5004 32.5883 77.5747 32.2913 77.7232 32.0314C77.9831 31.623 78.3543 31.3074 78.7813 31.0847C79.5795 30.6577 80.4334 30.2865 81.2873 30.008V29.7296C81.2873 29.0613 81.1759 28.5787 80.9717 28.3373C80.7304 28.0775 80.3777 27.9475 80.025 27.9661C79.7465 27.9475 79.4867 28.0403 79.2825 28.226C79.1154 28.3745 79.004 28.5787 79.004 28.8014L79.0226 29.2284C79.0411 29.414 78.9669 29.6182 78.837 29.7481C78.7256 29.8781 78.5585 29.9338 78.3729 29.9338C78.2058 29.9338 78.0387 29.8781 77.9274 29.7481C77.7974 29.5996 77.7417 29.414 77.7603 29.2098C77.7603 28.7829 77.9831 28.393 78.41 28.0403C78.837 27.6876 79.4495 27.502 80.2477 27.502C80.7675 27.4834 81.2687 27.5948 81.7328 27.799C82.0298 27.9475 82.2526 28.2074 82.3825 28.523C82.4753 28.7272 82.5124 29.1727 82.5124 29.8224V32.1428C82.4939 32.5326 82.5124 32.941 82.5496 33.3308C82.5496 33.4422 82.6053 33.535 82.6795 33.6278C82.7352 33.6835 82.8094 33.7021 82.8837 33.7021C82.958 33.7021 83.0322 33.6835 83.0879 33.6464C83.3106 33.4793 83.4963 33.2937 83.6819 33.108V33.5164C83.125 34.2589 82.5867 34.6302 82.0855 34.6302C81.8627 34.6488 81.6585 34.556 81.51 34.3703C81.3987 34.2218 81.3244 33.9434 81.3058 33.535ZM81.3058 33.0524V30.4535C80.8046 30.6392 80.322 30.8434 79.8579 31.0847C79.5238 31.2517 79.2453 31.4745 79.0226 31.7715C78.8555 31.9943 78.7627 32.2727 78.7627 32.5511C78.7441 32.8853 78.8741 33.2009 79.0783 33.4422C79.2639 33.6649 79.5424 33.7949 79.8208 33.7949C80.2106 33.7949 80.6933 33.5536 81.3058 33.0524Z" fill="#6D6E71"/>
<path d="M89.1428 33.7573C88.8643 34.0543 88.5302 34.3142 88.1775 34.4999C87.8619 34.6484 87.5092 34.7226 87.1565 34.7226C86.3954 34.7226 85.69 34.3699 85.2074 33.7945C84.6505 33.1819 84.3721 32.3837 84.3721 31.3998C84.3721 30.4346 84.7062 29.4878 85.3002 28.7268C85.8386 27.9471 86.7296 27.5016 87.6763 27.5202C88.2332 27.5016 88.7715 27.7058 89.1613 28.0956V26.8333C89.1799 26.3507 89.1613 25.868 89.1056 25.404C89.0871 25.2555 89.0314 25.1255 88.9386 25.0327C88.8458 24.9585 88.7529 24.9399 88.6416 24.9399C88.4745 24.9585 88.2889 24.9956 88.1218 25.0513L88.029 24.7914L90.0524 23.9561H90.3865V31.8082C90.3679 32.2909 90.3865 32.7921 90.4422 33.2747C90.4607 33.4232 90.535 33.5531 90.6278 33.646C90.7021 33.7202 90.8134 33.7573 90.9063 33.7573C91.0919 33.7388 91.2775 33.7016 91.4446 33.6274L91.5188 33.8873L89.4955 34.7226H89.1613L89.1428 33.7573ZM89.1428 33.2376V29.7292C89.1242 29.4136 89.0314 29.098 88.8829 28.801C88.7529 28.5411 88.5487 28.3184 88.2889 28.1699C88.0661 28.0399 87.8248 27.9657 87.5649 27.9657C87.1008 27.9842 86.6739 28.1884 86.3954 28.5597C85.9499 29.0795 85.7272 29.822 85.7272 30.8244C85.7272 31.8268 85.9499 32.5879 86.3769 33.1262C86.8224 33.6645 87.305 33.9244 87.8434 33.9244C88.2889 33.9058 88.7158 33.6831 89.1428 33.2376Z" fill="#6D6E71"/>
<path d="M93.2065 30.2668C93.2065 31.2692 93.4478 32.0674 93.949 32.6428C94.376 33.1812 95.0071 33.4967 95.694 33.4967C96.1209 33.4967 96.5293 33.3668 96.8634 33.1255C97.1976 32.8842 97.476 32.4572 97.6988 31.8632L97.9215 32.0117C97.8102 32.6985 97.4946 33.3482 97.0119 33.868C96.5479 34.4063 95.8425 34.7219 95.1371 34.7033C94.3389 34.7033 93.5592 34.3506 93.0395 33.7566C92.464 33.1255 92.167 32.2716 92.167 31.1949C92.167 30.0255 92.464 29.1159 93.058 28.4662C93.6335 27.835 94.4502 27.4638 95.3041 27.4823C96.0095 27.4638 96.6964 27.7422 97.179 28.2434C97.6802 28.7446 97.9215 29.4129 97.9215 30.2668H93.2065ZM93.2065 29.8398H96.3622C96.3622 29.5243 96.3065 29.2087 96.2137 28.9117C96.1024 28.6518 95.8982 28.4105 95.6568 28.262C95.4341 28.1135 95.1556 28.0206 94.8958 28.0206C94.4688 28.0206 94.079 28.1877 93.782 28.5033C93.4293 28.856 93.2436 29.3386 93.2065 29.8398Z" fill="#6D6E71"/>
<path d="M72.0621 39.8076L72.2848 43.2418H72.0621C71.7465 42.2208 71.3196 41.4783 70.7441 41.0328C70.1687 40.5873 69.4447 40.3459 68.7022 40.3645C68.0525 40.3645 67.4399 40.5316 66.883 40.8657C66.3075 41.2555 65.8435 41.831 65.6022 42.4993C65.268 43.3903 65.1195 44.3184 65.1381 45.2651C65.1195 46.0819 65.268 46.8987 65.565 47.6412C65.8249 48.2724 66.289 48.8107 66.883 49.182C67.4956 49.5532 68.1824 49.7388 68.8878 49.7203C69.5004 49.7388 70.0944 49.5903 70.6142 49.2933C71.1154 49.0149 71.6537 48.458 72.2663 47.6227L72.489 47.7712C71.9878 48.6622 71.3938 49.3305 70.7256 49.7388C70.0016 50.1658 69.1663 50.3885 68.3309 50.37C66.6602 50.37 65.3608 49.7574 64.4512 48.5137C63.7644 47.567 63.3931 46.4161 63.4303 45.2466C63.4303 44.2813 63.653 43.3346 64.0985 42.4807C64.5255 41.6639 65.1566 40.9957 65.9548 40.5316C66.7345 40.0675 67.6255 39.8262 68.5537 39.8447C69.2962 39.8447 70.0387 40.0304 70.707 40.3831C70.8369 40.4759 70.9854 40.5316 71.1525 40.5501C71.2824 40.5501 71.4124 40.4944 71.5052 40.4016C71.6537 40.2531 71.7465 40.0489 71.7836 39.8447L72.0621 39.8076Z" fill="#6D6E71"/>
<path d="M74.7925 45.8605C74.7925 46.8629 75.0338 47.6611 75.535 48.2366C75.9619 48.7749 76.5931 49.0905 77.2799 49.0905C77.7069 49.0905 78.1152 48.9606 78.4494 48.7192C78.7835 48.4779 79.062 48.051 79.2847 47.4569L79.5075 47.6055C79.3961 48.2923 79.0805 48.942 78.5979 49.4618C78.1338 50.0001 77.4284 50.3157 76.723 50.2971C75.9248 50.2971 75.1452 49.963 74.6254 49.3504C74.0499 48.7192 73.7529 47.8653 73.7529 46.7887C73.7529 45.6192 74.0499 44.7096 74.644 44.0599C75.2194 43.4288 76.0362 43.0575 76.8901 43.0761C77.5955 43.0575 78.2823 43.336 78.7649 43.8372C79.2662 44.3384 79.5075 45.0066 79.5075 45.8605H74.7925ZM74.7925 45.4336H77.9482C77.9482 45.118 77.8925 44.8024 77.7997 44.5054C77.6883 44.2455 77.4841 44.0042 77.2428 43.8557C77.02 43.7072 76.7416 43.6144 76.4817 43.6144C76.0547 43.6144 75.6649 43.7815 75.3679 44.097C75.0338 44.4497 74.8296 44.9324 74.7925 45.4336Z" fill="#6D6E71"/>
<path d="M82.5167 44.5427C83.3149 43.5774 84.076 43.0947 84.7999 43.0947C85.1341 43.0947 85.4682 43.1876 85.7652 43.3732C86.0622 43.6145 86.285 43.9301 86.3964 44.3013C86.5263 44.7468 86.582 45.2109 86.5634 45.675V48.5708C86.5449 48.8678 86.582 49.1648 86.6748 49.4433C86.7305 49.5732 86.8233 49.6661 86.9347 49.7403C87.1389 49.8331 87.3802 49.8702 87.603 49.8517V50.1116H84.2431V49.8517H84.3916C84.6143 49.8702 84.8556 49.8146 85.0598 49.7032C85.1898 49.5918 85.2826 49.4433 85.3197 49.2762C85.3568 49.0349 85.3568 48.8121 85.3568 48.5708V45.7864C85.3568 45.1738 85.2826 44.7097 85.1155 44.4313C84.9485 44.1528 84.6329 43.9858 84.2987 44.0043C83.7047 44.0043 83.1293 44.3199 82.5353 44.9696V48.5523C82.5167 48.8493 82.5353 49.1277 82.6095 49.4062C82.6652 49.5361 82.7766 49.6475 82.888 49.7217C83.1293 49.8146 83.3706 49.8331 83.6305 49.8146V50.0744H80.252V49.796H80.4005C80.7532 49.796 80.976 49.7032 81.1059 49.5361C81.2358 49.369 81.2915 49.0163 81.2915 48.5337V46.0091C81.3101 45.5079 81.2915 45.0067 81.2358 44.5241C81.2173 44.3941 81.1616 44.2456 81.0688 44.1528C80.976 44.0786 80.8646 44.0415 80.7532 44.06C80.5861 44.06 80.4191 44.0971 80.252 44.1714L80.1406 43.9115L82.1826 43.0762H82.4981L82.5167 44.5427Z" fill="#6D6E71"/>
<path d="M90.2374 41.0713V43.2989H91.8338V43.8186H90.2374V48.2366C90.2374 48.6821 90.2931 48.9791 90.423 49.1277C90.5344 49.2762 90.72 49.369 90.9056 49.3504C91.0727 49.3504 91.2398 49.2947 91.3883 49.2019C91.5553 49.0905 91.6667 48.942 91.741 48.7564H92.038C91.908 49.1833 91.6482 49.5732 91.2955 49.8516C91.017 50.0744 90.6643 50.2229 90.3116 50.2229C90.0703 50.2229 89.8475 50.1486 89.6433 50.0372C89.4206 49.9073 89.2535 49.7217 89.1607 49.4989C89.0308 49.1462 88.9936 48.775 89.0122 48.4037V43.8186H87.9355V43.5773C88.2511 43.4474 88.5296 43.2617 88.7709 43.0204C89.0679 42.742 89.3278 42.4264 89.532 42.0923C89.7176 41.7581 89.8661 41.4054 90.0146 41.0527L90.2374 41.0713Z" fill="#6D6E71"/>
<path d="M94.6192 43.0947V44.6169C95.1947 43.5959 95.7701 43.0947 96.3827 43.0947C96.624 43.0947 96.8654 43.169 97.051 43.3361C97.2181 43.4846 97.3109 43.6888 97.3109 43.9115C97.3109 44.0971 97.2552 44.2642 97.1252 44.3941C97.0139 44.5241 96.8468 44.5983 96.6612 44.5983C96.4384 44.5798 96.2342 44.487 96.0857 44.3385C95.9558 44.2085 95.7887 44.1157 95.6031 44.0786C95.4917 44.0971 95.3803 44.1343 95.3061 44.2271C95.0276 44.5241 94.7863 44.8582 94.6192 45.2295V48.5151C94.6007 48.8122 94.6564 49.0906 94.7677 49.369C94.842 49.5175 94.9719 49.6289 95.1019 49.7032C95.3246 49.796 95.5659 49.8517 95.8073 49.8331V50.093H92.3174V49.8331C92.5773 49.8517 92.8557 49.796 93.0971 49.6661C93.227 49.5732 93.3198 49.4433 93.3569 49.2948C93.3941 49.0535 93.4126 48.8121 93.3941 48.5708V45.9163C93.4126 45.4522 93.3941 44.9696 93.3384 44.5055C93.3198 44.3756 93.2456 44.2642 93.1528 44.1714C93.0599 44.0971 92.9486 44.06 92.8372 44.06C92.6515 44.06 92.4845 44.0971 92.3174 44.1714L92.2432 43.9115L94.3037 43.0762H94.6192V43.0947Z" fill="#6D6E71"/>
<path d="M98.9614 45.8605C98.9614 46.8629 99.2027 47.6611 99.7039 48.2366C100.131 48.7749 100.762 49.0905 101.449 49.0905C101.876 49.0905 102.284 48.9606 102.618 48.7192C102.952 48.4779 103.231 48.051 103.454 47.4569L103.676 47.6055C103.565 48.2923 103.249 48.942 102.767 49.4618C102.303 50.0001 101.597 50.3157 100.892 50.2971C100.094 50.2971 99.3141 49.963 98.7943 49.3504C98.2189 48.7192 97.9219 47.8653 97.9219 46.7887C97.9219 45.6192 98.2189 44.7096 98.8129 44.0599C99.3884 43.4288 100.205 43.0575 101.059 43.0761C101.764 43.0575 102.451 43.336 102.934 43.8372C103.435 44.3384 103.676 45.0066 103.676 45.8605H98.9614ZM98.9614 45.4336H102.117C102.117 45.118 102.061 44.8024 101.969 44.5054C101.857 44.2455 101.653 44.0042 101.412 43.8557C101.189 43.7072 100.911 43.6144 100.651 43.6144C100.224 43.6144 99.8339 43.7815 99.5369 44.097C99.1656 44.4497 98.98 44.9324 98.9614 45.4336Z" fill="#6D6E71"/>
</svg>
