<svg width="161" height="52" viewBox="0 0 161 52" fill="none" xmlns="http://www.w3.org/2000/svg">
<path d="M89.1629 6.97561C89.7598 6.97561 90.3648 6.9797 90.978 6.98788C91.5994 6.99605 92.184 7.02058 92.7318 7.06146L92.6705 7.99355H89.5186C88.9871 7.99355 88.7214 8.2511 88.7214 8.7662V10.6426H92.2045V11.5993H88.7214V15.4503H87.495V8.53318C87.495 8.04261 87.6462 7.66242 87.9487 7.3926C88.2513 7.11461 88.656 6.97561 89.1629 6.97561Z" fill="#6D6E71"/>
<path d="M95.0172 9.46527V13.6106C95.0172 13.9704 95.0867 14.2238 95.2257 14.371C95.3647 14.5182 95.5977 14.5918 95.9248 14.5918C96.2191 14.5918 96.5175 14.5263 96.8201 14.3955C97.1226 14.2565 97.4823 14.0562 97.8993 13.7946V9.46527H99.089V15.4503H98.1323L98.0465 14.5795C97.605 14.9229 97.1757 15.1804 96.7587 15.3521C96.3418 15.5238 95.9166 15.6097 95.4833 15.6097C94.3876 15.6097 93.8398 15.0619 93.8398 13.9663V9.46527H95.0172Z" fill="#6D6E71"/>
<path d="M101.9 9.46527L101.998 10.3974C102.44 10.054 102.881 9.78823 103.323 9.60018C103.773 9.41212 104.218 9.3181 104.66 9.3181C105.747 9.3181 106.291 9.8659 106.291 10.9615V15.4503H105.101V11.3049C105.101 10.9288 105.036 10.6713 104.905 10.5323C104.782 10.3851 104.578 10.3115 104.292 10.3115C103.956 10.3115 103.621 10.3892 103.286 10.5445C102.951 10.6917 102.554 10.9002 102.096 11.17V15.4503H100.919V9.46527H101.9Z" fill="#6D6E71"/>
<path d="M110.092 9.3181C110.46 9.3181 110.82 9.36307 111.172 9.45301C111.531 9.54294 111.871 9.68194 112.189 9.86999C112.173 9.67376 112.161 9.47753 112.153 9.2813C112.144 9.08508 112.14 8.88067 112.14 8.66809V6.86523H113.33V15.4503H112.398L112.288 14.5795C111.985 14.8657 111.633 15.1069 111.233 15.3031C110.84 15.4993 110.407 15.5974 109.933 15.5974C109.181 15.5974 108.641 15.3317 108.314 14.8002C107.987 14.2606 107.823 13.4716 107.823 12.4332C107.823 11.6483 107.905 11.031 108.069 10.5813C108.24 10.1235 108.49 9.80049 108.817 9.61244C109.152 9.41621 109.577 9.3181 110.092 9.3181ZM109.038 12.421C109.038 12.9851 109.082 13.4266 109.172 13.7455C109.262 14.0562 109.405 14.2729 109.602 14.3955C109.798 14.5182 110.047 14.5795 110.35 14.5795C110.669 14.5795 110.951 14.5223 111.196 14.4078C111.45 14.2851 111.764 14.0889 112.14 13.8191V10.6059C111.813 10.5159 111.519 10.4423 111.257 10.3851C110.996 10.3197 110.714 10.287 110.411 10.287C110.084 10.287 109.818 10.3483 109.614 10.4709C109.418 10.5854 109.271 10.798 109.172 11.1087C109.082 11.4112 109.038 11.8486 109.038 12.421Z" fill="#6D6E71"/>
<path d="M117.698 9.3181C118.622 9.3181 119.288 9.48571 119.697 9.82094C120.114 10.148 120.323 10.6345 120.323 11.2804C120.323 11.82 120.204 12.237 119.967 12.5313C119.73 12.8257 119.341 12.9729 118.802 12.9729H116.14C116.181 13.4144 116.267 13.7537 116.398 13.9908C116.537 14.2279 116.733 14.3914 116.987 14.4814C117.24 14.5713 117.559 14.6163 117.943 14.6163C118.254 14.6163 118.601 14.604 118.986 14.5795C119.37 14.5468 119.726 14.51 120.053 14.4691L120.175 15.2418C119.979 15.3317 119.742 15.4012 119.464 15.4503C119.186 15.4993 118.9 15.5361 118.606 15.5606C118.311 15.5852 118.041 15.5974 117.796 15.5974C117.093 15.5974 116.529 15.4952 116.104 15.2908C115.678 15.0782 115.368 14.743 115.172 14.2851C114.975 13.8191 114.877 13.2059 114.877 12.4455C114.877 11.6606 114.975 11.0392 115.172 10.5813C115.368 10.1235 115.67 9.80049 116.079 9.61244C116.496 9.41621 117.036 9.3181 117.698 9.3181ZM117.747 10.2624C117.355 10.2624 117.04 10.3197 116.803 10.4342C116.574 10.5404 116.406 10.7285 116.3 10.9983C116.194 11.2599 116.136 11.6361 116.128 12.1266H118.495C118.765 12.1266 118.941 12.0408 119.022 11.8691C119.104 11.6974 119.145 11.5011 119.145 11.2804C119.137 10.9206 119.027 10.6631 118.814 10.5077C118.61 10.3442 118.254 10.2624 117.747 10.2624Z" fill="#6D6E71"/>
<path d="M123.818 9.3181C124.186 9.3181 124.545 9.36307 124.897 9.45301C125.257 9.54294 125.596 9.68194 125.915 9.86999C125.899 9.67376 125.886 9.47753 125.878 9.2813C125.87 9.08508 125.866 8.88067 125.866 8.66809V6.86523H127.056V15.4503H126.123L126.013 14.5795C125.711 14.8657 125.359 15.1069 124.958 15.3031C124.566 15.4993 124.133 15.5974 123.658 15.5974C122.906 15.5974 122.366 15.3317 122.039 14.8002C121.712 14.2606 121.549 13.4716 121.549 12.4332C121.549 11.6483 121.631 11.031 121.794 10.5813C121.966 10.1235 122.215 9.80049 122.542 9.61244C122.877 9.41621 123.303 9.3181 123.818 9.3181ZM122.763 12.421C122.763 12.9851 122.808 13.4266 122.898 13.7455C122.988 14.0562 123.131 14.2729 123.327 14.3955C123.523 14.5182 123.773 14.5795 124.075 14.5795C124.394 14.5795 124.676 14.5223 124.922 14.4078C125.175 14.2851 125.49 14.0889 125.866 13.8191V10.6059C125.539 10.5159 125.244 10.4423 124.983 10.3851C124.721 10.3197 124.439 10.287 124.137 10.287C123.81 10.287 123.544 10.3483 123.339 10.4709C123.143 10.5854 122.996 10.798 122.898 11.1087C122.808 11.4112 122.763 11.8486 122.763 12.421Z" fill="#6D6E71"/>
<path d="M134.939 9.3181C135.683 9.3181 136.231 9.5593 136.583 10.0417C136.934 10.5159 137.11 11.3131 137.11 12.4332C137.11 13.1037 137.032 13.676 136.877 14.1502C136.722 14.6163 136.444 14.976 136.043 15.2295C135.651 15.4748 135.103 15.5974 134.4 15.5974C134.122 15.5974 133.815 15.5811 133.48 15.5484C133.145 15.5157 132.809 15.4666 132.474 15.4012C132.147 15.3358 131.853 15.254 131.591 15.1559V6.86523H132.781V9.04828C132.781 9.30992 132.773 9.55112 132.756 9.77188C132.74 9.98446 132.707 10.193 132.658 10.3974C133.002 10.0458 133.365 9.78005 133.75 9.60018C134.134 9.41212 134.531 9.3181 134.939 9.3181ZM134.498 10.3115C134.204 10.3115 133.921 10.3851 133.652 10.5323C133.39 10.6794 133.096 10.8798 132.769 11.1332V14.4568C133.047 14.5223 133.32 14.5713 133.59 14.604C133.868 14.6285 134.13 14.6408 134.375 14.6408C134.735 14.6326 135.025 14.559 135.246 14.4201C135.467 14.2811 135.626 14.0521 135.724 13.7333C135.831 13.4144 135.884 12.981 135.884 12.4332C135.884 11.9018 135.843 11.4848 135.761 11.1823C135.688 10.8716 135.549 10.6508 135.344 10.52C135.148 10.381 134.866 10.3115 134.498 10.3115Z" fill="#6D6E71"/>
<path d="M139.15 9.46527L140.658 13.8191C140.699 13.9417 140.736 14.0685 140.769 14.1993C140.81 14.3219 140.842 14.4487 140.867 14.5795H141.039C141.088 14.4487 141.133 14.3179 141.173 14.187C141.214 14.048 141.255 13.9254 141.296 13.8191L142.78 9.46527H144.056L141.701 15.7323C141.57 16.0921 141.39 16.4396 141.161 16.7748C140.932 17.1182 140.638 17.4003 140.278 17.621C139.918 17.8418 139.477 17.9563 138.954 17.9644L138.843 17.2163C139.334 17.0691 139.71 16.8647 139.972 16.6031C140.241 16.3496 140.454 16.0389 140.609 15.671L140.695 15.4503H140.438C140.217 15.4503 140.078 15.3481 140.021 15.1436L137.887 9.46527H139.15Z" fill="#6D6E71"/>
<path d="M90.929 24.3914V25.2744H89.0648V28.6716C89.0648 28.9496 89.122 29.1499 89.2365 29.2726C89.3591 29.387 89.5635 29.4443 89.8497 29.4443H90.7327L90.8677 30.315C90.6632 30.3804 90.4139 30.4254 90.1195 30.4499C89.8334 30.4745 89.6085 30.4867 89.445 30.4867C88.9381 30.4867 88.5497 30.3477 88.2799 30.0697C88.0101 29.7918 87.8752 29.3911 87.8752 28.8678V25.2744H86.7959V24.4527L87.8752 24.3914V22.6376H89.0648V24.3914H90.929Z" fill="#6D6E71"/>
<path d="M95.8926 24.2442C96.98 24.2442 97.5237 24.792 97.5237 25.8876V30.3764H96.3218V26.231C96.3218 25.8549 96.2605 25.5974 96.1379 25.4584C96.0152 25.3112 95.8108 25.2376 95.5246 25.2376C95.1894 25.2376 94.8542 25.3112 94.519 25.4584C94.1837 25.6055 93.7872 25.8181 93.3293 26.0961V30.3764H92.152V21.7913H93.3293L93.3416 24.1093C93.3416 24.5753 93.313 24.9719 93.2557 25.2989C93.7054 24.9719 94.147 24.7143 94.5803 24.5263C95.0218 24.3382 95.4592 24.2442 95.8926 24.2442Z" fill="#6D6E71"/>
<path d="M101.841 24.2442C102.764 24.2442 103.431 24.4118 103.84 24.747C104.257 25.0741 104.465 25.5606 104.465 26.2065C104.465 26.7461 104.347 27.1631 104.109 27.4574C103.872 27.7518 103.484 27.899 102.944 27.899H100.283C100.324 28.3405 100.41 28.6798 100.541 28.9169C100.68 29.154 100.876 29.3175 101.129 29.4075C101.383 29.4974 101.702 29.5424 102.086 29.5424C102.397 29.5424 102.744 29.5301 103.128 29.5056C103.513 29.4729 103.868 29.4361 104.195 29.3952L104.318 30.1679C104.122 30.2578 103.885 30.3273 103.607 30.3764C103.329 30.4254 103.042 30.4622 102.748 30.4867C102.454 30.5113 102.184 30.5235 101.939 30.5235C101.236 30.5235 100.671 30.4213 100.246 30.2169C99.821 30.0043 99.5104 29.6691 99.3141 29.2112C99.1179 28.7452 99.0198 28.132 99.0198 27.3716C99.0198 26.5867 99.1179 25.9653 99.3141 25.5074C99.5104 25.0496 99.8129 24.7266 100.222 24.5385C100.639 24.3423 101.178 24.2442 101.841 24.2442ZM101.89 25.1885C101.497 25.1885 101.182 25.2458 100.945 25.3603C100.716 25.4665 100.549 25.6546 100.442 25.9244C100.336 26.186 100.279 26.5622 100.271 27.0527H102.638C102.908 27.0527 103.083 26.9669 103.165 26.7952C103.247 26.6235 103.288 26.4272 103.288 26.2065C103.28 25.8467 103.169 25.5892 102.957 25.4338C102.752 25.2703 102.397 25.1885 101.89 25.1885Z" fill="#6D6E71"/>
<path d="M110.385 21.9017C110.998 21.9017 111.623 21.9058 112.261 21.914C112.907 21.914 113.512 21.9344 114.076 21.9753L114.027 22.9197H110.655C110.18 22.9197 109.943 23.1772 109.943 23.6923V25.4461H113.549V26.3905H109.943V28.598C109.943 29.1213 110.18 29.3829 110.655 29.3829H114.027L114.076 30.315C113.512 30.3559 112.907 30.3764 112.261 30.3764C111.623 30.3845 110.998 30.3886 110.385 30.3886C109.878 30.3886 109.473 30.2537 109.171 29.9839C108.868 29.7141 108.717 29.3462 108.717 28.8801V23.4102C108.717 22.9442 108.868 22.5763 109.171 22.3064C109.473 22.0366 109.878 21.9017 110.385 21.9017Z" fill="#6D6E71"/>
<path d="M116.743 24.3914V28.5367C116.743 28.8965 116.813 29.1499 116.952 29.2971C117.091 29.4443 117.324 29.5179 117.651 29.5179C117.945 29.5179 118.244 29.4524 118.546 29.3216C118.849 29.1826 119.208 28.9823 119.625 28.7207V24.3914H120.815V30.3764H119.858L119.773 29.5056C119.331 29.849 118.902 30.1065 118.485 30.2782C118.068 30.4499 117.643 30.5358 117.209 30.5358C116.114 30.5358 115.566 29.988 115.566 28.8924V24.3914H116.743Z" fill="#6D6E71"/>
<path d="M123.565 24.3914L123.688 25.3235C124.113 24.9801 124.538 24.7143 124.963 24.5263C125.396 24.3382 125.817 24.2442 126.226 24.2442H126.496L126.373 25.348H125.993C125.674 25.348 125.347 25.4093 125.012 25.5319C124.685 25.6546 124.288 25.8263 123.822 26.0471V30.3764H122.645V24.3914H123.565Z" fill="#6D6E71"/>
<path d="M130.06 24.2442C130.763 24.2442 131.323 24.3464 131.74 24.5508C132.157 24.7552 132.459 25.0904 132.647 25.5565C132.835 26.0143 132.929 26.6235 132.929 27.3839C132.929 28.1524 132.835 28.7697 132.647 29.2358C132.459 29.6936 132.157 30.0248 131.74 30.2292C131.323 30.4336 130.763 30.5358 130.06 30.5358C129.365 30.5358 128.804 30.4336 128.379 30.2292C127.962 30.0248 127.66 29.6936 127.472 29.2358C127.284 28.7697 127.19 28.1524 127.19 27.3839C127.19 26.6235 127.284 26.0143 127.472 25.5565C127.66 25.0904 127.962 24.7552 128.379 24.5508C128.804 24.3464 129.365 24.2442 130.06 24.2442ZM130.06 25.2008C129.651 25.2008 129.328 25.2662 129.091 25.397C128.854 25.5279 128.686 25.7527 128.588 26.0716C128.49 26.3823 128.441 26.8197 128.441 27.3839C128.441 27.948 128.49 28.3895 128.588 28.7084C128.686 29.0273 128.854 29.2521 129.091 29.3829C129.328 29.5056 129.651 29.5669 130.06 29.5669C130.468 29.5669 130.791 29.5056 131.028 29.3829C131.274 29.2521 131.445 29.0273 131.544 28.7084C131.642 28.3895 131.691 27.948 131.691 27.3839C131.691 26.8197 131.642 26.3823 131.544 26.0716C131.445 25.7527 131.274 25.5279 131.028 25.397C130.791 25.2662 130.468 25.2008 130.06 25.2008Z" fill="#6D6E71"/>
<path d="M135.459 24.3914L135.557 25.3357C135.868 25.0005 136.244 24.7348 136.686 24.5385C137.135 24.3423 137.577 24.2442 138.01 24.2442C138.746 24.2442 139.273 24.514 139.592 25.0536C139.911 25.5933 140.07 26.3823 140.07 27.4207C140.07 28.1974 139.989 28.8106 139.825 29.2603C139.662 29.71 139.412 30.033 139.077 30.2292C138.742 30.4254 138.321 30.5235 137.814 30.5235C137.43 30.5235 137.053 30.4745 136.686 30.3764C136.318 30.2782 135.966 30.1229 135.631 29.9103C135.655 30.1147 135.668 30.315 135.668 30.5113C135.676 30.7157 135.676 30.9242 135.668 31.1367V32.817H134.49V24.3914H135.459ZM137.593 25.2376C137.274 25.2376 136.968 25.3112 136.673 25.4584C136.379 25.5974 136.044 25.8059 135.668 26.0838V29.199C136.019 29.2971 136.33 29.3789 136.6 29.4443C136.878 29.5097 137.172 29.5424 137.483 29.5424C137.81 29.5424 138.075 29.4851 138.28 29.3707C138.484 29.2562 138.631 29.0477 138.721 28.7452C138.811 28.4345 138.856 27.993 138.856 27.4207C138.856 26.5949 138.758 26.0266 138.562 25.7159C138.366 25.397 138.043 25.2376 137.593 25.2376Z" fill="#6D6E71"/>
<path d="M144.179 24.2442C145.103 24.2442 145.769 24.4118 146.178 24.747C146.595 25.0741 146.803 25.5606 146.803 26.2065C146.803 26.7461 146.685 27.1631 146.448 27.4574C146.211 27.7518 145.822 27.899 145.283 27.899H142.621C142.662 28.3405 142.748 28.6798 142.879 28.9169C143.018 29.154 143.214 29.3175 143.467 29.4075C143.721 29.4974 144.04 29.5424 144.424 29.5424C144.735 29.5424 145.082 29.5301 145.467 29.5056C145.851 29.4729 146.207 29.4361 146.534 29.3952L146.656 30.1679C146.46 30.2578 146.223 30.3273 145.945 30.3764C145.667 30.4254 145.381 30.4622 145.086 30.4867C144.792 30.5113 144.522 30.5235 144.277 30.5235C143.574 30.5235 143.01 30.4213 142.584 30.2169C142.159 30.0043 141.849 29.6691 141.652 29.2112C141.456 28.7452 141.358 28.132 141.358 27.3716C141.358 26.5867 141.456 25.9653 141.652 25.5074C141.849 25.0496 142.151 24.7266 142.56 24.5385C142.977 24.3423 143.517 24.2442 144.179 24.2442ZM144.228 25.1885C143.835 25.1885 143.521 25.2458 143.284 25.3603C143.055 25.4665 142.887 25.6546 142.781 25.9244C142.674 26.186 142.617 26.5622 142.609 27.0527H144.976C145.246 27.0527 145.422 26.9669 145.503 26.7952C145.585 26.6235 145.626 26.4272 145.626 26.2065C145.618 25.8467 145.507 25.5892 145.295 25.4338C145.09 25.2703 144.735 25.1885 144.228 25.1885Z" fill="#6D6E71"/>
<path d="M151.182 24.2442C151.868 24.2442 152.392 24.3873 152.751 24.6734C153.111 24.9514 153.291 25.4625 153.291 26.2065V30.3764H152.359L152.224 29.3829C152.069 29.5465 151.868 29.7141 151.623 29.8858C151.386 30.0575 151.112 30.2006 150.801 30.315C150.499 30.4295 150.164 30.4867 149.796 30.4867C149.256 30.4867 148.815 30.3436 148.471 30.0575C148.136 29.7713 147.968 29.3584 147.968 28.8188V28.1688C147.968 27.7027 148.116 27.3389 148.41 27.0773C148.712 26.8156 149.129 26.6848 149.661 26.6848H152.101V26.2065C152.101 25.8549 152.02 25.6014 151.856 25.4461C151.693 25.2908 151.382 25.2131 150.924 25.2131C150.613 25.2131 150.221 25.2294 149.747 25.2621C149.281 25.2867 148.819 25.3194 148.361 25.3603L148.25 24.514C148.528 24.465 148.835 24.42 149.17 24.3791C149.514 24.3382 149.861 24.3055 150.213 24.281C150.564 24.2565 150.887 24.2442 151.182 24.2442ZM150.066 29.5179C150.352 29.526 150.679 29.4606 151.047 29.3216C151.415 29.1745 151.766 28.9619 152.101 28.6839V27.5188L149.918 27.531C149.64 27.5392 149.444 27.6128 149.33 27.7518C149.223 27.8826 149.17 28.0666 149.17 28.3037V28.6716C149.17 28.966 149.24 29.1826 149.379 29.3216C149.526 29.4524 149.755 29.5179 150.066 29.5179Z" fill="#6D6E71"/>
<path d="M156.06 24.3914L156.158 25.3235C156.599 24.9801 157.041 24.7143 157.482 24.5263C157.932 24.3382 158.378 24.2442 158.819 24.2442C159.906 24.2442 160.45 24.792 160.45 25.8876V30.3764H159.261V26.231C159.261 25.8549 159.195 25.5974 159.064 25.4584C158.942 25.3112 158.737 25.2376 158.451 25.2376C158.116 25.2376 157.781 25.3153 157.445 25.4706C157.11 25.6178 156.714 25.8263 156.256 26.0961V30.3764H155.078V24.3914H156.06Z" fill="#6D6E71"/>
<path d="M93.7375 36.8401V42.0401C93.7375 42.8659 93.6353 43.5323 93.4309 44.0392C93.2347 44.538 92.9117 44.9018 92.462 45.1308C92.0123 45.3515 91.4114 45.4619 90.6592 45.4619C89.8742 45.4619 89.2447 45.3515 88.7705 45.1308C88.3044 44.9018 87.9692 44.538 87.7648 44.0392C87.5604 43.5323 87.4582 42.8659 87.4582 42.0401V36.8401H88.6846V42.0401C88.6846 42.6288 88.7418 43.0949 88.8563 43.4383C88.9789 43.7817 89.1793 44.027 89.4573 44.1741C89.7434 44.3213 90.1236 44.3949 90.5978 44.3949C91.0639 44.3949 91.4359 44.3213 91.7139 44.1741C92.0001 44.027 92.2045 43.7817 92.3271 43.4383C92.4497 43.0949 92.5111 42.6288 92.5111 42.0401V36.8401H93.7375Z" fill="#6D6E71"/>
<path d="M96.6064 39.3175L96.7045 40.2496C97.146 39.9062 97.5875 39.6404 98.0291 39.4524C98.4787 39.2643 98.9243 39.1703 99.3659 39.1703C100.453 39.1703 100.997 39.7181 100.997 40.8137V45.3025H99.8074V41.1571C99.8074 40.781 99.742 40.5235 99.6112 40.3845C99.4885 40.2373 99.2841 40.1637 98.9979 40.1637C98.6627 40.1637 98.3275 40.2414 97.9923 40.3967C97.657 40.5439 97.2605 40.7524 96.8026 41.0222V45.3025H95.6252V39.3175H96.6064Z" fill="#6D6E71"/>
<path d="M103.707 36.7542C103.944 36.7542 104.063 36.8728 104.063 37.1099V37.809C104.063 38.0461 103.944 38.1646 103.707 38.1646H103.155C102.918 38.1646 102.799 38.0461 102.799 37.809V37.1099C102.799 36.8728 102.918 36.7542 103.155 36.7542H103.707ZM104.014 39.3175V45.3025H102.848V39.3175H104.014Z" fill="#6D6E71"/>
<path d="M108.501 39.1703C109.204 39.1703 109.764 39.2725 110.181 39.4769C110.598 39.6813 110.901 40.0165 111.089 40.4826C111.277 40.9404 111.371 41.5496 111.371 42.31C111.371 43.0785 111.277 43.6958 111.089 44.1619C110.901 44.6197 110.598 44.9509 110.181 45.1553C109.764 45.3597 109.204 45.4619 108.501 45.4619C107.806 45.4619 107.246 45.3597 106.821 45.1553C106.404 44.9509 106.101 44.6197 105.913 44.1619C105.725 43.6958 105.631 43.0785 105.631 42.31C105.631 41.5496 105.725 40.9404 105.913 40.4826C106.101 40.0165 106.404 39.6813 106.821 39.4769C107.246 39.2725 107.806 39.1703 108.501 39.1703ZM108.501 40.1269C108.092 40.1269 107.769 40.1923 107.532 40.3231C107.295 40.454 107.128 40.6788 107.029 40.9977C106.931 41.3084 106.882 41.7458 106.882 42.31C106.882 42.8741 106.931 43.3156 107.029 43.6345C107.128 43.9534 107.295 44.1782 107.532 44.309C107.769 44.4317 108.092 44.493 108.501 44.493C108.91 44.493 109.233 44.4317 109.47 44.309C109.715 44.1782 109.887 43.9534 109.985 43.6345C110.083 43.3156 110.132 42.8741 110.132 42.31C110.132 41.7458 110.083 41.3084 109.985 40.9977C109.887 40.6788 109.715 40.454 109.47 40.3231C109.233 40.1923 108.91 40.1269 108.501 40.1269Z" fill="#6D6E71"/>
<path d="M113.913 39.3175L114.011 40.2496C114.453 39.9062 114.894 39.6404 115.336 39.4524C115.785 39.2643 116.231 39.1703 116.672 39.1703C117.76 39.1703 118.304 39.7181 118.304 40.8137V45.3025H117.114V41.1571C117.114 40.781 117.049 40.5235 116.918 40.3845C116.795 40.2373 116.591 40.1637 116.305 40.1637C115.969 40.1637 115.634 40.2414 115.299 40.3967C114.964 40.5439 114.567 40.7524 114.109 41.0222V45.3025H112.932V39.3175H113.913Z" fill="#6D6E71"/>
<path d="M76.7294 0.569336H0.397461V51.4663H76.7294V0.569336Z" fill="#164194"/>
<path d="M36.9241 11.6606L38.5391 10.4763L40.154 11.6606L39.5349 9.74956L41.1768 8.5922H39.1581L38.5391 6.6543L37.92 8.5922H35.9014L37.5432 9.74956L36.9241 11.6606Z" fill="#FFED00"/>
<path d="M28.6048 13.893L30.1928 12.7087L31.8077 13.893L31.2156 11.982L32.8305 10.8246H30.8119L30.1928 8.88672L29.5738 10.8246H27.582L29.197 11.982L28.6048 13.893Z" fill="#FFED00"/>
<path d="M24.1104 14.9961L23.4913 16.934H21.4727L23.1145 18.1183L22.4954 20.0023L24.1104 18.845L25.7253 20.0023L25.1062 18.1183L26.7481 16.934H24.7294L24.1104 14.9961Z" fill="#FFED00"/>
<path d="M21.8779 27.1628L23.4929 28.3202L22.8738 26.4361L24.5156 25.2518H22.497L21.8779 23.3408L21.2589 25.2518H19.2402L20.8821 26.4361L20.263 28.3202L21.8779 27.1628Z" fill="#FFED00"/>
<path d="M24.7294 33.5946L24.1104 31.6836L23.4913 33.6215L21.4727 33.5946L23.1145 34.7789L22.4954 36.6898L24.1104 35.5056L25.7253 36.6898L25.1062 34.7789L26.7481 33.5946H24.7294Z" fill="#FFED00"/>
<path d="M30.8388 39.7049L30.2197 37.7939L29.6007 39.7318L27.582 39.7049L29.2239 40.8892L28.6048 42.8002L30.2197 41.6159L31.8347 42.8002L31.2156 40.8892L32.8574 39.7049H30.8388Z" fill="#FFED00"/>
<path d="M39.1581 41.9418L38.5391 40.0039L37.92 41.9418H35.9014L37.5432 43.0992L36.9241 45.0102L38.5391 43.8259L40.154 45.0102L39.5349 43.0992L41.1768 41.9418H39.1581Z" fill="#FFED00"/>
<path d="M47.475 39.7049L46.8828 37.7939L46.2638 39.7318L44.2451 39.7049L45.86 40.8892L45.2679 42.8002L46.8828 41.6159L48.4708 42.8002L47.8787 40.8892L49.4936 39.7049H47.475Z" fill="#FFED00"/>
<path d="M53.6103 33.5946L52.9912 31.6836L52.3722 33.6215L50.3535 33.5946L51.9953 34.7789L51.3763 36.6898L52.9912 35.5056L54.5792 36.6898L53.9871 34.7789L55.602 33.5946H53.6103Z" fill="#FFED00"/>
<path d="M57.8369 25.2264H55.8183L55.1992 23.3154L54.5802 25.2264H52.5615L54.2034 26.4107L53.5843 28.3217L55.1992 27.1374L56.8141 28.3217L56.1951 26.4107L57.8369 25.2264Z" fill="#FFED00"/>
<path d="M51.3763 19.975L52.9912 18.8176L54.5792 19.975L53.9871 18.0909L55.602 16.9067H53.6103L52.9912 14.9688L52.3722 16.9067H50.3535L51.9953 18.0909L51.3763 19.975Z" fill="#FFED00"/>
<path d="M46.8803 8.88672L46.2613 10.8246H44.2695L45.8845 12.0089L45.2923 13.893L46.8803 12.7087L48.4952 13.893L47.8762 12.0089L49.518 10.8246H47.4994L46.8803 8.88672Z" fill="#FFED00"/>
</svg>
