<svg width="146" height="61" viewBox="0 0 146 61" fill="none" xmlns="http://www.w3.org/2000/svg">
<path d="M7.21684 48.3403L0.986328 42.0715L22.4109 20.7808L28.5076 27.0304L7.21684 48.3403Z" fill="#132E50"/>
<path d="M30.1689 30.2032L36.2274 23.9727L57.5947 45.2634L51.4215 51.4557C44.3118 44.3461 37.2213 37.2364 30.1689 30.2032Z" fill="#98B1CB"/>
<path d="M27.591 32.9751L33.6112 38.9954L16.1238 56.4637L9.70215 50.4626L27.591 32.9751Z" fill="#DD0957"/>
<path d="M29.9795 47.9772L36.3056 41.4409L48.9004 53.6344L42.4405 60.2853L29.9795 47.9772Z" fill="#3E9AD5"/>
<path d="M44.4072 3.33105L50.6759 9.6189L39.0941 21.0861L32.9209 14.8938C36.7242 11.0714 40.5466 7.21079 44.4072 3.33105Z" fill="#DD0957"/>
<path d="M31.2017 12.1423L25.0286 18.3155L13.4658 6.86743L19.6963 0.57959L31.2017 12.1423Z" fill="#3E9AD5"/>
<path d="M47.2937 29.3996L41.0059 23.4176L49.74 14.4731L55.9323 20.6654C53.0846 23.5513 50.1987 26.4564 47.2937 29.3996Z" fill="#132E50"/>
<path d="M10.9627 9.44775L19.6586 18.3348L13.409 24.2978L4.80859 15.6018L10.9627 9.44775Z" fill="#98B1CB"/>
<path d="M69.58 19.5203V19.807H65.127V19.5203H65.5092C65.9297 19.5203 66.2546 19.4057 66.4457 19.1381C66.5604 18.9661 66.6368 18.5838 66.6368 17.9531V11.264C66.6559 10.9199 66.6177 10.5568 66.5412 10.2319C66.4839 10.0981 66.3692 9.98345 66.2354 9.907C66.0252 9.79233 65.7768 9.71588 65.5283 9.71588H65.1461V9.4292H69.5992V9.71588H69.2169C68.7965 9.71588 68.4907 9.83055 68.2995 10.0981C68.1658 10.251 68.1084 10.6524 68.1084 11.2831V17.9723C68.0893 18.3163 68.1275 18.6794 68.204 19.0043C68.2613 19.1572 68.3951 19.2719 68.5289 19.3483C68.7391 19.463 68.9876 19.5394 69.2169 19.5394L69.58 19.5203Z" fill="#DEDEDE"/>
<path d="M72.6178 14.0728C73.4396 13.0789 74.2232 12.582 74.9686 12.582C75.3126 12.582 75.6566 12.6776 75.9624 12.8687C76.2682 13.1172 76.4975 13.4421 76.6313 13.8243C76.7651 14.283 76.8224 14.7608 76.8033 15.2386V18.2201C76.7842 18.5259 76.8224 18.8317 76.918 19.1183C76.9753 19.233 77.0709 19.3477 77.1856 19.405C77.3958 19.5006 77.6442 19.5388 77.8736 19.5197V19.7873H74.3761V19.5197H74.529C74.7583 19.5388 75.0068 19.4815 75.217 19.3668C75.3508 19.2521 75.4464 19.0992 75.4846 18.9272C75.5228 18.6788 75.5228 18.4494 75.5228 18.201V15.3342C75.5228 14.7035 75.4464 14.2257 75.2744 13.939C75.1024 13.6523 74.7774 13.4803 74.4334 13.4994C73.8218 13.4994 73.2294 13.8243 72.6178 14.4932V18.1818C72.6178 18.6596 72.6369 18.9463 72.6942 19.061C72.7516 19.1948 72.8663 19.3095 72.9809 19.3859C73.2294 19.4815 73.4778 19.5006 73.7454 19.4815V19.749H70.267V19.4815H70.4199C70.783 19.4815 71.0124 19.3859 71.1462 19.2139C71.28 19.0419 71.3373 18.6788 71.3373 18.1818V15.6208C71.3564 15.1048 71.3373 14.5888 71.28 14.0728C71.2608 13.939 71.2035 13.7861 71.1079 13.6905C71.0124 13.6141 70.8977 13.5759 70.783 13.595C70.611 13.595 70.439 13.6332 70.267 13.7096L70.1523 13.4421L72.2547 12.582H72.5796L72.6178 14.0728Z" fill="#DEDEDE"/>
<path d="M80.5677 10.4976V12.8102H82.2113V13.3453H80.5677V17.894C80.5677 18.3527 80.625 18.6585 80.7588 18.8113C80.8735 18.9642 81.0646 19.0598 81.2557 19.0407C81.4278 19.0407 81.5998 18.9834 81.7527 18.8878C81.9247 18.7731 82.0393 18.6202 82.1158 18.4291H82.4216C82.2878 18.8687 82.0202 19.27 81.6571 19.5567C81.3704 19.7861 81.0073 19.939 80.6442 19.939C80.3957 19.939 80.1664 19.8625 79.9561 19.7478C79.7268 19.614 79.5548 19.4229 79.4592 19.1936C79.3254 18.8305 79.2681 18.4482 79.2872 18.066V13.3262H78.1787V13.0777C78.5036 12.944 78.7903 12.7528 79.0388 12.5044C79.3445 12.2177 79.6121 11.8928 79.8223 11.5488C80.0135 11.2048 80.1664 10.8416 80.3193 10.4785L80.5677 10.4976Z" fill="#DEDEDE"/>
<path d="M84.2002 15.4292C84.2002 16.4613 84.4486 17.2831 84.9646 17.8756C85.4042 18.4298 86.054 18.7547 86.7612 18.7547C87.2007 18.7547 87.6212 18.6209 87.9652 18.3725C88.3092 18.124 88.5959 17.6844 88.8253 17.0729L89.0546 17.2257C88.9399 17.9329 88.615 18.6018 88.1181 19.1369C87.6403 19.6912 86.9141 20.0161 86.1878 19.997C85.366 19.997 84.5633 19.653 84.0281 19.0223C83.4357 18.3725 83.1299 17.4933 83.1299 16.3848C83.1299 15.1808 83.4357 14.2443 84.0473 13.5754C84.6397 12.9255 85.4807 12.5624 86.3407 12.5624C87.067 12.5433 87.7741 12.83 88.271 13.346C88.787 13.862 89.0355 14.5501 89.0355 15.4292H84.2002ZM84.2002 14.9896H87.4492C87.4492 14.6647 87.3919 14.3398 87.2963 14.034C87.1816 13.7665 86.9714 13.518 86.7229 13.3651C86.4936 13.2122 86.2069 13.1167 85.9393 13.1167C85.5189 13.1167 85.0984 13.2887 84.8117 13.6136C84.4295 13.9767 84.2193 14.4736 84.2002 14.9896Z" fill="#DEDEDE"/>
<path d="M92.1518 12.582V14.1492C92.7443 13.0981 93.3368 12.582 93.9675 12.582C94.2159 12.582 94.4644 12.6585 94.6555 12.8305C94.8275 12.9834 94.9231 13.1936 94.9422 13.423C94.9422 13.6141 94.8657 13.7861 94.7511 13.9199C94.6364 14.0537 94.4644 14.1301 94.2733 14.1301C94.0439 14.111 93.8337 14.0154 93.6808 13.8625C93.547 13.7288 93.375 13.6332 93.1839 13.595C93.0692 13.6141 92.9545 13.6523 92.8781 13.7479C92.5914 14.0537 92.343 14.3977 92.1709 14.7799V18.1627C92.1518 18.4685 92.2092 18.7552 92.3238 19.0419C92.4003 19.1948 92.5341 19.3095 92.6679 19.3859C92.8972 19.4815 93.1457 19.5388 93.3941 19.5197V19.7873H89.8011V19.5197C90.0686 19.5388 90.3553 19.4815 90.6038 19.3477C90.7375 19.2521 90.8331 19.1183 90.8713 18.9654C90.9096 18.717 90.9287 18.4685 90.9096 18.2201V15.5062C90.9287 15.0284 90.9096 14.5315 90.8522 14.0537C90.8331 13.9199 90.7567 13.8052 90.6611 13.7096C90.5655 13.6332 90.4509 13.595 90.3362 13.595C90.1451 13.595 89.9731 13.6332 89.8011 13.7096L89.7246 13.4421L91.846 12.582H92.1518Z" fill="#DEDEDE"/>
<path d="M97.4834 14.0728C98.3053 13.0789 99.0889 12.582 99.8342 12.582C100.178 12.582 100.522 12.6776 100.828 12.8687C101.134 13.1172 101.363 13.4421 101.478 13.8243C101.612 14.283 101.669 14.7608 101.65 15.2386V18.2201C101.631 18.5259 101.669 18.8317 101.765 19.1183C101.822 19.2521 101.917 19.3477 102.032 19.4241C102.242 19.5197 102.491 19.5579 102.72 19.5388V19.8064H99.2609V19.5388H99.4138C99.6431 19.5579 99.8916 19.5006 100.102 19.3859C100.236 19.2712 100.331 19.1183 100.369 18.9463C100.408 18.6979 100.408 18.4685 100.408 18.2201V15.3533C100.408 14.7226 100.331 14.2448 100.159 13.9581C99.9871 13.6714 99.6622 13.4994 99.3182 13.5185C98.7066 13.5185 98.1141 13.8434 97.5026 14.5123V18.201C97.4834 18.5067 97.5026 18.7934 97.579 19.0801C97.6363 19.2139 97.751 19.3286 97.8657 19.405C98.1141 19.5006 98.3626 19.5197 98.6302 19.5006V19.7681H95.1518V19.5006H95.3047C95.6678 19.5006 95.8971 19.405 96.0309 19.233C96.1647 19.061 96.222 18.6979 96.222 18.201V15.6208C96.2412 15.1048 96.2221 14.5888 96.1647 14.0728C96.1456 13.939 96.0883 13.7861 95.9927 13.6905C95.8971 13.6141 95.7825 13.5759 95.6678 13.595C95.4958 13.595 95.3238 13.6332 95.1518 13.7096L95.0371 13.4421L97.1394 12.582H97.4643L97.4834 14.0728Z" fill="#DEDEDE"/>
<path d="M107.364 18.793C106.943 19.137 106.485 19.4619 106.007 19.7486C105.739 19.8824 105.433 19.9397 105.128 19.9397C104.669 19.9588 104.248 19.7677 103.924 19.4428C103.599 19.0797 103.427 18.621 103.446 18.1241C103.446 17.8183 103.522 17.5125 103.675 17.2449C103.962 16.8244 104.325 16.4995 104.765 16.2702C105.586 15.8306 106.465 15.4484 107.345 15.1617V14.8941C107.345 14.2061 107.23 13.7092 107.02 13.4607C106.771 13.1932 106.408 13.0594 106.045 13.0785C105.758 13.0594 105.491 13.1549 105.281 13.3461C105.109 13.499 104.994 13.7092 104.994 13.9385L105.013 14.3781C105.032 14.5692 104.956 14.7795 104.841 14.9132C104.726 15.047 104.554 15.1044 104.363 15.1044C104.191 15.1044 104.019 15.0279 103.904 14.8941C103.771 14.7412 103.713 14.5501 103.732 14.359C103.732 13.9194 103.962 13.5181 104.401 13.1549C104.841 12.7918 105.472 12.6007 106.293 12.6007C106.829 12.5816 107.345 12.6963 107.822 12.9065C108.128 13.0594 108.358 13.327 108.491 13.6519C108.587 13.8621 108.625 14.3208 108.625 15.0088V17.3787C108.606 17.78 108.625 18.2005 108.663 18.6019C108.663 18.7165 108.721 18.8121 108.797 18.9077C108.854 18.965 108.931 18.9841 109.007 18.9841C109.084 18.9841 109.16 18.965 109.218 18.9268C109.447 18.7548 109.638 18.5636 109.829 18.3725V18.793C109.256 19.5575 108.721 19.9397 108.186 19.9397C107.956 19.9588 107.746 19.8633 107.593 19.6721C107.459 19.5001 107.383 19.2134 107.364 18.793ZM107.364 18.2961V15.6204C106.848 15.8115 106.351 16.0217 105.873 16.2702C105.529 16.4422 105.242 16.6716 105.013 16.9773C104.841 17.2067 104.745 17.4934 104.745 17.78C104.726 18.1241 104.86 18.449 105.07 18.6974C105.261 18.9268 105.529 19.0606 105.835 19.0606C106.236 19.0606 106.733 18.8121 107.364 18.2961Z" fill="#DEDEDE"/>
<path d="M112.524 10.4976V12.8102H114.168V13.3453H112.524V17.894C112.524 18.3527 112.582 18.6585 112.715 18.8113C112.83 18.9642 113.021 19.0598 113.212 19.0407C113.384 19.0407 113.556 18.9834 113.709 18.8878C113.881 18.7731 113.996 18.6202 114.072 18.4291H114.378C114.244 18.8687 113.977 19.27 113.614 19.5567C113.327 19.7861 112.964 19.939 112.601 19.939C112.352 19.939 112.123 19.8625 111.913 19.7478C111.683 19.614 111.511 19.4229 111.416 19.1936C111.282 18.8305 111.225 18.4482 111.263 18.066V13.3262H110.154V13.0777C110.479 12.944 110.766 12.7528 111.014 12.5044C111.32 12.2177 111.588 11.8928 111.798 11.5488C111.989 11.2048 112.142 10.8416 112.295 10.4785L112.524 10.4976Z" fill="#DEDEDE"/>
<path d="M117.378 12.5826V18.2206C117.359 18.5073 117.397 18.8131 117.474 19.0998C117.531 19.2336 117.626 19.3482 117.76 19.4247C117.97 19.5202 118.219 19.5585 118.448 19.5394V19.8069H115.046V19.5394C115.276 19.5585 115.524 19.5202 115.734 19.4438C115.868 19.3673 115.964 19.2527 116.021 19.1189C116.117 18.8322 116.155 18.5264 116.117 18.2397V15.5258C116.136 15.0289 116.117 14.532 116.04 14.0542C116.021 13.9204 115.964 13.8058 115.868 13.7102C115.773 13.6337 115.658 13.6146 115.562 13.6146C115.39 13.6146 115.199 13.6529 115.046 13.7293L114.932 13.4617L117.034 12.6017L117.378 12.5826ZM116.747 8.91309C117.168 8.91309 117.512 9.2571 117.512 9.67757C117.512 9.8878 117.435 10.0789 117.282 10.2318C117.149 10.3847 116.938 10.4612 116.728 10.4612C116.289 10.4612 115.945 10.1171 115.945 9.67757C115.945 9.46733 116.021 9.27621 116.174 9.12332C116.327 8.98953 116.537 8.91309 116.747 8.91309Z" fill="#DEDEDE"/>
<path d="M122.863 12.5823C123.857 12.5441 124.813 13.0028 125.424 13.8055C125.959 14.4744 126.246 15.3153 126.246 16.1753C126.246 16.8443 126.093 17.4941 125.787 18.0865C125.271 19.2906 124.086 20.0551 122.787 20.036C121.793 20.0742 120.837 19.5964 120.264 18.7746C119.748 18.0865 119.461 17.2456 119.48 16.3856C119.48 15.7167 119.652 15.0669 119.958 14.4744C120.474 13.3277 121.621 12.6014 122.863 12.5823ZM122.634 13.0792C122.347 13.0792 122.061 13.1748 121.812 13.3277C121.506 13.5379 121.277 13.8246 121.143 14.1686C120.952 14.6655 120.876 15.2006 120.895 15.7167C120.876 16.634 121.086 17.5514 121.506 18.3541C121.908 19.0995 122.443 19.4626 123.112 19.4626C123.589 19.4626 124.048 19.2333 124.335 18.851C124.66 18.4497 124.813 17.7425 124.813 16.7487C124.813 15.5064 124.545 14.5317 124.01 13.8055C123.704 13.3659 123.188 13.0792 122.634 13.0792Z" fill="#DEDEDE"/>
<path d="M129.439 14.0728C130.261 13.0789 131.044 12.582 131.79 12.582C132.134 12.582 132.478 12.6776 132.784 12.8687C133.089 13.1172 133.319 13.4421 133.433 13.8243C133.567 14.283 133.624 14.7608 133.605 15.2386V18.2201C133.586 18.5259 133.624 18.8317 133.72 19.1183C133.777 19.2521 133.873 19.3477 133.988 19.4241C134.217 19.5197 134.446 19.5579 134.695 19.5388V19.8064H131.216V19.5388H131.369C131.599 19.5579 131.847 19.5006 132.057 19.3859C132.191 19.2712 132.287 19.1183 132.325 18.9463C132.363 18.6979 132.363 18.4685 132.363 18.2201V15.3533C132.363 14.7226 132.287 14.2448 132.115 13.9581C131.943 13.6714 131.618 13.4994 131.274 13.5185C130.662 13.5185 130.07 13.8434 129.458 14.5123V18.201C129.439 18.5067 129.458 18.7934 129.534 19.0801C129.592 19.2139 129.707 19.3286 129.821 19.405C130.07 19.5006 130.318 19.5197 130.586 19.5006V19.7681H127.126V19.5006H127.279C127.642 19.5006 127.872 19.405 128.006 19.233C128.139 19.061 128.197 18.6979 128.197 18.201V15.6208C128.216 15.1048 128.197 14.5888 128.139 14.0728C128.12 13.939 128.063 13.7861 127.967 13.6905C127.872 13.6141 127.757 13.5759 127.642 13.595C127.47 13.595 127.298 13.6332 127.126 13.7096L127.012 13.4421L129.114 12.582H129.439V14.0728Z" fill="#DEDEDE"/>
<path d="M139.337 18.793C138.917 19.137 138.458 19.4619 137.98 19.7486C137.713 19.8824 137.407 19.9397 137.101 19.9397C136.643 19.9588 136.222 19.7677 135.897 19.4428C135.572 19.0797 135.4 18.621 135.419 18.1241C135.419 17.8183 135.496 17.5125 135.649 17.2449C135.935 16.8244 136.299 16.4995 136.738 16.2702C137.56 15.8306 138.439 15.4484 139.318 15.1617V14.8941C139.318 14.2061 139.204 13.7092 138.993 13.4607C138.745 13.1932 138.382 13.0594 138.019 13.0785C137.732 13.0594 137.464 13.1549 137.254 13.3461C137.082 13.499 136.967 13.7092 136.967 13.9385L136.987 14.3781C137.006 14.5692 136.929 14.7795 136.815 14.9132C136.7 15.047 136.528 15.1044 136.337 15.1044C136.165 15.1044 135.993 15.0279 135.878 14.8941C135.744 14.7412 135.687 14.5501 135.706 14.359C135.706 13.9194 135.935 13.5181 136.375 13.1549C136.815 12.7918 137.445 12.6007 138.267 12.6007C138.802 12.5816 139.318 12.6963 139.796 12.9065C140.102 13.0594 140.331 13.327 140.465 13.6519C140.561 13.8621 140.599 14.3208 140.599 15.0088V17.3787C140.58 17.78 140.599 18.2005 140.637 18.6019C140.637 18.7165 140.694 18.8121 140.771 18.9077C140.828 18.965 140.905 18.9841 140.981 18.9841C141.057 18.9841 141.134 18.965 141.191 18.9268C141.421 18.7548 141.612 18.5636 141.803 18.3725V18.793C141.229 19.5575 140.694 19.9397 140.159 19.9397C139.93 19.9397 139.72 19.8441 139.567 19.6721C139.414 19.5001 139.337 19.2134 139.337 18.793ZM139.337 18.2961V15.6204C138.821 15.8115 138.324 16.0217 137.847 16.2702C137.503 16.4422 137.216 16.6715 136.987 16.9773C136.815 17.2067 136.719 17.4934 136.719 17.78C136.7 18.1241 136.834 18.449 137.044 18.6974C137.235 18.9268 137.503 19.0605 137.808 19.0605C138.191 19.0605 138.707 18.8121 139.337 18.2961Z" fill="#DEDEDE"/>
<path d="M144.862 8.93164V18.2392C144.843 18.5259 144.881 18.8317 144.958 19.1183C145.015 19.2521 145.13 19.3668 145.245 19.4432C145.474 19.5388 145.742 19.577 145.99 19.5579V19.8255H142.55V19.5579C142.779 19.577 142.989 19.5388 143.2 19.4623C143.333 19.3859 143.429 19.2712 143.486 19.1374C143.563 18.8508 143.601 18.545 143.582 18.2583V11.8558C143.601 11.378 143.582 10.8811 143.525 10.4033C143.505 10.2695 143.448 10.1357 143.353 10.0401C143.257 9.96369 143.161 9.94458 143.047 9.94458C142.875 9.94458 142.703 10.0019 142.55 10.0592L142.416 9.79168L144.499 8.93164H144.862Z" fill="#DEDEDE"/>
<path d="M73.8024 25.4829L73.9171 27.9101H73.6304C73.6113 27.5852 73.5157 27.2794 73.4011 26.9928C73.2673 26.7252 73.0379 26.4958 72.7704 26.3429C72.4455 26.1901 72.0823 26.1136 71.7383 26.1327H70.2858V34.0642C70.2858 34.6949 70.3622 35.0962 70.496 35.2491C70.7254 35.4785 71.0694 35.5932 71.3943 35.574H71.7574V35.8607H67.3617V35.574H67.7248C68.1644 35.574 68.4702 35.4403 68.6613 35.1727C68.776 35.0007 68.8333 34.6376 68.8333 34.0451V26.1136H67.591C67.247 26.0945 66.903 26.1327 66.559 26.2283C66.2723 26.3429 66.0429 26.5341 65.8709 26.7825C65.6607 27.1265 65.546 27.5088 65.5269 27.9101H65.2402L65.3549 25.4829H73.8024Z" fill="#DEDEDE"/>
<path d="M76.4215 28.6353V30.2025C77.014 29.1513 77.6064 28.6353 78.218 28.6353C78.4665 28.6353 78.7341 28.7118 78.9061 28.8838C79.0781 29.0367 79.1736 29.2469 79.1736 29.4763C79.1736 29.6674 79.1163 29.8394 78.9825 29.9732C78.8678 30.1069 78.6958 30.1834 78.5047 30.1834C78.2754 30.1643 78.0651 30.0687 77.9122 29.9158C77.7785 29.782 77.6064 29.6865 77.4153 29.6483C77.3007 29.6674 77.186 29.7056 77.1095 29.8012C76.8229 30.1069 76.5744 30.451 76.4024 30.8332V34.216C76.3833 34.5218 76.4406 34.8085 76.5553 35.0952C76.6317 35.2481 76.7464 35.3627 76.8993 35.4392C77.1286 35.5348 77.3771 35.5921 77.6256 35.573V35.8405H74.0325V35.573C74.3001 35.5921 74.5868 35.5348 74.8352 35.401C74.969 35.3054 75.0646 35.1716 75.1028 35.0187C75.141 34.7703 75.1601 34.5218 75.141 34.2734V31.5403C75.1601 31.0625 75.141 30.5656 75.0837 30.0878C75.0646 29.9541 74.9881 29.8394 74.8925 29.7438C74.797 29.6674 74.6823 29.6291 74.5676 29.6291C74.3765 29.6291 74.2045 29.6674 74.0325 29.7438L73.9561 29.4763L76.0775 28.6162H76.4215V28.6353Z" fill="#DEDEDE"/>
<path d="M83.6811 34.8473C83.2607 35.1913 82.802 35.5162 82.3242 35.8029C82.0566 35.9366 81.7508 35.994 81.445 35.994C80.9863 36.0131 80.5659 35.822 80.241 35.4971C79.9161 35.1339 79.744 34.6752 79.7632 34.1783C79.7632 33.8725 79.8396 33.5667 79.9925 33.2992C80.2601 32.8787 80.6423 32.5538 81.0819 32.3245C81.9037 31.8849 82.7829 31.5027 83.662 31.216V30.9293C83.662 30.2413 83.5473 29.7443 83.3371 29.4959C83.0886 29.2283 82.7255 29.0945 82.3624 29.1137C82.0757 29.0945 81.8081 29.1901 81.5979 29.3812C81.4259 29.5341 81.3112 29.7443 81.3112 29.9737L81.3303 30.4133C81.3494 30.6044 81.273 30.8146 81.1392 30.9484C81.0245 31.0822 80.8525 31.1395 80.6614 31.1395C80.4894 31.1395 80.3174 31.0822 80.2027 30.9484C80.0689 30.7955 80.0116 30.6044 80.0307 30.3942C80.0307 29.9546 80.2601 29.5532 80.6996 29.1901C81.1392 28.827 81.7699 28.6359 82.5917 28.6359C83.1269 28.6167 83.6429 28.7314 84.1207 28.9416C84.4265 29.0945 84.6558 29.3621 84.7896 29.687C84.8852 29.8972 84.9234 30.3559 84.9234 31.0249V33.4139C84.9043 33.8152 84.9234 34.2357 84.9616 34.637C84.9616 34.7517 85.019 34.8473 85.0954 34.9428C85.1527 35.0001 85.2292 35.0193 85.3056 35.0193C85.3821 35.0193 85.4585 35.0001 85.5159 34.9619C85.7452 34.7899 85.9363 34.5988 86.1274 34.4077V34.8281C85.5541 35.5926 84.9998 35.9749 84.4838 35.9749C84.2545 35.994 84.0442 35.8984 83.8913 35.7073C83.7767 35.5544 83.7002 35.2677 83.6811 34.8473ZM83.6811 34.3503V31.6747C83.1651 31.8658 82.6682 32.076 82.1904 32.3245C81.8464 32.4965 81.5597 32.7258 81.3303 33.0316C81.1583 33.261 81.0628 33.5476 81.0628 33.8343C81.0437 34.1783 81.1774 34.5032 81.3877 34.7517C81.5788 34.981 81.8655 35.1148 82.1522 35.1148C82.5535 35.1148 83.0504 34.8664 83.6811 34.3503Z" fill="#DEDEDE"/>
<path d="M91.7497 35.077C91.463 35.3828 91.119 35.6503 90.7559 35.8415C90.4309 35.9943 90.0678 36.0708 89.7047 36.0708C88.9211 36.0708 88.1948 35.7077 87.6979 35.1152C87.1246 34.4845 86.8379 33.6627 86.8379 32.6497C86.8379 31.6559 87.1819 30.6812 87.7935 29.8976C88.3477 29.0949 89.2651 28.6362 90.2398 28.6553C90.8132 28.6362 91.3674 28.8465 91.7688 29.2478V27.9482C91.7879 27.4513 91.7688 26.9544 91.7114 26.4766C91.6923 26.3237 91.635 26.1899 91.5394 26.0943C91.4439 26.0179 91.3483 25.9988 91.2336 25.9988C91.0616 26.0179 90.8705 26.0561 90.6985 26.1134L90.603 25.8459L92.6862 24.9858H93.0302V33.0702C93.0111 33.5671 93.0302 34.0831 93.0875 34.5801C93.1066 34.733 93.1831 34.8667 93.2786 34.9623C93.3551 35.0387 93.4697 35.077 93.5653 35.077C93.7564 35.0579 93.9475 35.0196 94.1196 34.9432L94.196 35.2108L92.1128 36.0708H91.7688L91.7497 35.077ZM91.7497 34.5418V30.9297C91.7306 30.6048 91.635 30.2799 91.4821 29.9741C91.3483 29.7065 91.1381 29.4772 90.8705 29.3243C90.6412 29.1905 90.3927 29.114 90.1252 29.114C89.6474 29.1331 89.2078 29.3434 88.9211 29.7256C88.4624 30.2607 88.2331 31.0252 88.2331 32.0573C88.2331 33.0893 88.4624 33.8729 88.902 34.4272C89.3607 34.9814 89.8576 35.249 90.4118 35.249C90.8705 35.2299 91.3101 35.0005 91.7497 34.5418Z" fill="#DEDEDE"/>
<path d="M95.9335 31.4829C95.9335 32.515 96.182 33.3368 96.698 33.9293C97.1376 34.4835 97.7874 34.8084 98.4946 34.8084C98.9341 34.8084 99.3546 34.6746 99.6986 34.4262C100.043 34.1777 100.329 33.7381 100.559 33.1266L100.788 33.2795C100.673 33.9866 100.348 34.6555 99.8515 35.1907C99.3737 35.7449 98.6475 36.0698 97.9212 36.0507C97.0994 36.0507 96.2967 35.6876 95.7615 35.076C95.1691 34.4262 94.8633 33.547 94.8633 32.4385C94.8633 31.2345 95.1691 30.298 95.7807 29.6291C96.3731 28.9793 97.2141 28.597 98.0932 28.6161C98.8195 28.597 99.5266 28.8837 100.024 29.3997C100.54 29.9157 100.788 30.6038 100.788 31.4829H95.9335ZM95.9335 31.0434H99.1826C99.1826 30.7185 99.1253 30.3935 99.0297 30.0878C98.915 29.8202 98.7048 29.5717 98.4563 29.4188C98.227 29.2659 97.9403 29.1704 97.6727 29.1704C97.2332 29.1704 96.8318 29.3424 96.526 29.6673C96.1629 30.0304 95.9718 30.5273 95.9335 31.0434Z" fill="#DEDEDE"/>
<path d="M74.1641 41.3062L74.3935 44.8419H74.1641C73.8392 43.7907 73.3996 43.0262 72.8072 42.5675C72.2147 42.1089 71.4693 41.8604 70.7048 41.8795C70.0359 41.8795 69.4052 42.0515 68.8319 42.3955C68.2394 42.7969 67.7616 43.3894 67.5131 44.0774C67.1691 44.9948 67.0162 45.9504 67.0353 46.9251C67.0162 47.766 67.1691 48.6069 67.4749 49.3714C67.7425 50.0212 68.2203 50.5755 68.8319 50.9577C69.4626 51.3399 70.1697 51.5311 70.896 51.512C71.5267 51.5311 72.1382 51.3782 72.6734 51.0724C73.1894 50.7857 73.7436 50.2123 74.3743 49.3523L74.6037 49.5052C74.0877 50.4226 73.4761 51.1106 72.788 51.5311C72.0427 51.9706 71.1826 52.2 70.3226 52.1809C68.6025 52.1809 67.2647 51.5502 66.3282 50.2697C65.621 49.295 65.2388 48.11 65.277 46.906C65.277 45.9121 65.5064 44.9374 65.9651 44.0583C66.4046 43.2174 67.0544 42.5293 67.8763 42.0515C68.679 41.5737 69.5963 41.3253 70.5519 41.3444C71.3164 41.3444 72.0809 41.5355 72.7689 41.8986C72.9027 41.9942 73.0556 42.0515 73.2276 42.0706C73.3614 42.0706 73.4952 42.0133 73.5907 41.9177C73.7436 41.7648 73.8392 41.5546 73.8774 41.3444L74.1641 41.3062Z" fill="#DEDEDE"/>
<path d="M76.9755 47.5381C76.9755 48.5702 77.224 49.392 77.74 49.9844C78.1796 50.5387 78.8294 50.8636 79.5366 50.8636C79.9761 50.8636 80.3966 50.7298 80.7406 50.4814C81.0846 50.2329 81.3713 49.7933 81.6006 49.1817L81.83 49.3346C81.7153 50.0418 81.3904 50.7107 80.8935 51.2458C80.4157 51.8001 79.6894 52.125 78.9632 52.1059C78.1414 52.1059 77.3387 51.7619 76.8035 51.1312C76.2111 50.4814 75.9053 49.6022 75.9053 48.4937C75.9053 47.2897 76.2111 46.3532 76.8226 45.6842C77.4151 45.0344 78.256 44.6522 79.1352 44.6713C79.8615 44.6522 80.5686 44.9389 81.0655 45.4549C81.5815 45.9709 81.83 46.659 81.83 47.5381H76.9755ZM76.9755 47.0985H80.2246C80.2246 46.7736 80.1672 46.4487 80.0717 46.1429C79.957 45.8754 79.7468 45.6269 79.4983 45.474C79.269 45.3211 78.9823 45.2256 78.7147 45.2256C78.2752 45.2256 77.8738 45.3976 77.568 45.7225C77.224 46.0856 77.0138 46.5825 76.9755 47.0985Z" fill="#DEDEDE"/>
<path d="M84.9278 46.1812C85.7496 45.1874 86.5332 44.6905 87.2786 44.6905C87.6226 44.6905 87.9666 44.7861 88.2724 44.9772C88.5782 45.2256 88.8075 45.5505 88.9222 45.9328C89.056 46.3915 89.1133 46.8693 89.0942 47.3471V50.3285C89.0751 50.6343 89.1133 50.9401 89.2089 51.2268C89.2662 51.3606 89.3618 51.4561 89.4764 51.5326C89.6867 51.6282 89.9351 51.6664 90.1645 51.6473V51.9148H86.7052V51.6473H86.8581C87.0874 51.6664 87.3359 51.609 87.5461 51.4944C87.6799 51.3797 87.7755 51.2268 87.8137 51.0548C87.8519 50.8063 87.8519 50.577 87.8519 50.3285V47.4617C87.8519 46.831 87.7755 46.3532 87.6035 46.0666C87.4315 45.7799 87.1065 45.6079 86.7625 45.627C86.1509 45.627 85.5585 45.9519 84.9469 46.6208V50.3094C84.9278 50.6152 84.9469 50.9019 85.0233 51.1886C85.0807 51.3224 85.1954 51.437 85.31 51.5135C85.5585 51.609 85.8069 51.6282 86.0745 51.609V51.8766H82.5961V51.5899H82.749C83.1121 51.5899 83.3415 51.4944 83.4753 51.3224C83.6091 51.1504 83.6664 50.7872 83.6664 50.2903V47.6911C83.6855 47.1751 83.6664 46.659 83.6091 46.1621C83.5899 46.0283 83.5326 45.8754 83.437 45.7799C83.3415 45.7034 83.2268 45.6652 83.1121 45.6843C82.9401 45.6843 82.7681 45.7225 82.5961 45.799L82.4814 45.5314L84.5838 44.6714H84.9087L84.9278 46.1812Z" fill="#DEDEDE"/>
<path d="M92.8767 42.607V44.9004H94.5204V45.4356H92.8767V49.9842C92.8767 50.4429 92.9341 50.7487 93.0678 50.9016C93.1825 51.0545 93.3736 51.1501 93.5648 51.131C93.7368 51.131 93.9088 51.0736 94.0617 50.9781C94.2337 50.8634 94.3483 50.7105 94.4248 50.5194H94.7306C94.5968 50.9589 94.3292 51.3603 93.9661 51.647C93.6794 51.8763 93.3163 52.0292 92.9532 52.0292C92.7047 52.0292 92.4754 51.9528 92.2651 51.8381C92.0358 51.7043 91.8638 51.5132 91.7682 51.2838C91.6344 50.9207 91.5962 50.5385 91.6153 50.1562V45.4356H90.5068V45.1871C90.8317 45.0533 91.1184 44.8622 91.3669 44.6138C91.6727 44.3271 91.9402 44.0022 92.1505 43.6582C92.3416 43.3141 92.4945 42.951 92.6474 42.5879L92.8767 42.607Z" fill="#DEDEDE"/>
<path d="M97.3877 44.6905V46.2577C97.9802 45.2065 98.5727 44.6905 99.2034 44.6905C99.4518 44.6905 99.7003 44.7669 99.8914 44.939C100.063 45.0919 100.159 45.3021 100.159 45.5314C100.159 45.7225 100.102 45.8946 99.9679 46.0283C99.8532 46.1621 99.6812 46.2386 99.4901 46.2386C99.2607 46.2195 99.0505 46.1239 98.8976 45.971C98.7638 45.8372 98.5918 45.7417 98.4007 45.7034C98.286 45.7225 98.1713 45.7608 98.0949 45.8563C97.8082 46.1621 97.5597 46.5061 97.3877 46.8884V50.2712C97.3686 50.577 97.426 50.8637 97.5406 51.1504C97.6171 51.3033 97.7509 51.4179 97.8847 51.4944C98.114 51.5899 98.3624 51.6473 98.6109 51.6282V51.8957H95.0179V51.6282C95.2854 51.6473 95.5721 51.5899 95.8206 51.4561C95.9543 51.3606 96.0499 51.2268 96.0881 51.0739C96.1263 50.8255 96.1455 50.577 96.1263 50.3285V47.5955C96.1455 47.1177 96.1263 46.6208 96.069 46.143C96.0499 46.0092 95.9735 45.8946 95.8779 45.799C95.7823 45.7225 95.6677 45.6843 95.553 45.6843C95.3619 45.6843 95.1899 45.7225 95.0179 45.799L94.9414 45.5314L97.0628 44.6714H97.3877V44.6905Z" fill="#DEDEDE"/>
<path d="M101.858 47.5381C101.858 48.5702 102.107 49.392 102.623 49.9844C103.062 50.5387 103.712 50.8636 104.419 50.8636C104.859 50.8636 105.279 50.7298 105.623 50.4814C105.967 50.2329 106.254 49.7933 106.483 49.1817L106.713 49.3346C106.598 50.0418 106.273 50.7107 105.776 51.2458C105.299 51.8001 104.572 52.125 103.846 52.1059C103.024 52.1059 102.221 51.7619 101.686 51.1312C101.094 50.4814 100.788 49.6022 100.788 48.4937C100.788 47.2897 101.094 46.3532 101.705 45.6842C102.298 45.0344 103.139 44.6522 104.018 44.6713C104.744 44.6522 105.451 44.9389 105.948 45.4549C106.464 45.9709 106.713 46.659 106.713 47.5381H101.858ZM101.858 47.0985H105.107C105.107 46.7736 105.05 46.4487 104.954 46.1429C104.84 45.8754 104.63 45.6269 104.381 45.474C104.152 45.3211 103.865 45.2256 103.598 45.2256C103.158 45.2256 102.757 45.3976 102.451 45.7225C102.069 46.0856 101.877 46.5825 101.858 47.0985Z" fill="#DEDEDE"/>
</svg>
