<svg width="400" height="200" viewBox="0 0 400 200" fill="none" xmlns="http://www.w3.org/2000/svg">
<path d="M0 0H400V200H0V0Z" fill="#00AFCA"/>
<path d="M216.338 111.181C231.207 111.181 243.261 99.1276 243.261 84.2584C243.261 69.3891 231.207 57.3353 216.338 57.3353C201.468 57.3353 189.415 69.3891 189.415 84.2584C189.415 99.1276 201.468 111.181 216.338 111.181Z" fill="#FEC50C"/>
<path d="M216.339 53.6946C217.94 53.653 218.543 52.6551 218.543 51.4492C218.543 49.8485 216.339 42.2185 216.339 42.2185C216.339 42.2185 214.136 49.8485 214.136 51.4492C214.157 52.6551 214.738 53.6946 216.339 53.6946Z" fill="#FEC50C"/>
<path d="M246.941 84.2576C246.941 85.8585 247.938 86.461 249.144 86.461C250.745 86.461 258.354 84.2576 258.354 84.2576C258.354 84.2576 250.745 82.0542 249.144 82.0542C247.938 82.0744 246.941 82.6567 246.941 84.2576Z" fill="#FEC50C"/>
<path d="M216.339 114.861C214.738 114.861 214.136 115.86 214.136 117.066C214.136 118.666 216.339 126.275 216.339 126.275C216.339 126.275 218.543 118.666 218.543 117.066C218.543 115.86 217.94 114.861 216.339 114.861Z" fill="#FEC50C"/>
<path d="M185.8 84.2576C185.8 82.6567 184.802 82.0542 183.596 82.0542C181.995 82.0542 174.386 84.2576 174.386 84.2576C174.386 84.2576 181.995 86.461 183.596 86.461C184.739 86.461 185.8 85.8585 185.8 84.2576Z" fill="#FEC50C"/>
<path d="M228.067 56.0232C229.542 56.6261 230.499 55.8984 230.956 54.8174C231.559 53.3413 232.432 45.4619 232.432 45.4619C232.432 45.4619 227.464 51.6573 226.882 53.1334C226.424 54.2144 226.591 55.3787 228.067 56.0232Z" fill="#FEC50C"/>
<path d="M244.639 95.982C244.037 97.4579 244.764 98.4144 245.845 98.8717C247.321 99.475 255.2 100.348 255.2 100.348C255.2 100.348 249.005 95.3795 247.529 94.7972C246.385 94.3399 245.242 94.5061 244.639 95.982Z" fill="#FEC50C"/>
<path d="M204.683 112.513C203.207 111.91 202.251 112.638 201.793 113.718C201.19 115.194 200.317 123.074 200.317 123.074C200.317 123.074 205.286 116.878 205.868 115.402C206.326 114.301 206.159 113.157 204.683 112.513Z" fill="#FEC50C"/>
<path d="M188.106 72.5542C188.709 71.0783 187.982 70.1218 186.9 69.6645C185.424 69.062 177.545 68.1886 177.545 68.1886C177.545 68.1886 183.74 73.1575 185.216 73.7398C186.318 74.1971 187.503 74.0309 188.106 72.5542Z" fill="#FEC50C"/>
<path d="M237.98 62.637C239.145 63.7594 240.267 63.4682 241.099 62.637C242.222 61.5144 246.068 54.5497 246.068 54.5497C246.068 54.5497 239.103 58.3958 237.98 59.5185C237.149 60.3501 236.858 61.5144 237.98 62.637Z" fill="#FEC50C"/>
<path d="M237.98 105.9C236.858 107.064 237.149 108.187 237.98 109.019C239.103 110.142 246.068 113.987 246.068 113.987C246.068 113.987 242.222 107.023 241.099 105.9C240.267 105.069 239.103 104.736 237.98 105.9Z" fill="#FEC50C"/>
<path d="M194.744 105.903C193.58 104.781 192.457 105.072 191.626 105.903C190.503 107.026 186.657 113.99 186.657 113.99C186.657 113.99 193.622 110.144 194.744 109.021C195.597 108.19 195.867 107.026 194.744 105.903Z" fill="#FEC50C"/>
<path d="M194.744 62.637C195.867 61.4728 195.576 60.3501 194.744 59.5185C193.622 58.3958 186.657 54.5497 186.657 54.5497C186.657 54.5497 190.503 61.5144 191.626 62.637C192.478 63.4682 193.601 63.7803 194.744 62.637Z" fill="#FEC50C"/>
<path d="M244.632 72.5528C245.278 74.0287 246.441 74.1948 247.523 73.7585C248.999 73.1553 255.194 68.2073 255.194 68.2073C255.194 68.2073 247.315 69.0807 245.839 69.6832C244.716 70.1405 243.988 71.0559 244.632 72.5528Z" fill="#FEC50C"/>
<path d="M228.063 112.513C226.588 113.157 226.421 114.322 226.858 115.402C227.46 116.878 232.408 123.074 232.408 123.074C232.408 123.074 231.535 115.194 230.932 113.718C230.475 112.638 229.539 111.91 228.063 112.513Z" fill="#FEC50C"/>
<path d="M188.106 95.9842C187.461 94.5083 186.298 94.3421 185.216 94.7785C183.74 95.3817 177.545 100.33 177.545 100.33C177.545 100.33 185.424 99.4562 186.9 98.853C188.023 98.3957 188.709 97.4601 188.106 95.9842Z" fill="#FEC50C"/>
<path d="M204.677 56.0232C206.154 55.3787 206.32 54.2144 205.883 53.1334C205.28 51.6573 200.332 45.4619 200.332 45.4619C200.332 45.4619 201.206 53.3413 201.808 54.8174C202.224 55.8984 203.18 56.6261 204.677 56.0232Z" fill="#FEC50C"/>
<path d="M222.353 54.258C223.912 54.5283 224.723 53.6966 224.952 52.4908C225.263 50.9316 224.598 43.0106 224.598 43.0106C224.598 43.0106 220.959 50.0584 220.648 51.6177C220.398 52.8235 220.752 53.9462 222.353 54.258Z" fill="#FEC50C"/>
<path d="M246.346 90.2234C246.075 91.7824 246.907 92.5937 248.113 92.822C249.672 93.1341 257.593 92.4688 257.593 92.4688C257.593 92.4688 250.545 88.8306 248.986 88.5185C247.801 88.2693 246.678 88.6644 246.346 90.2234Z" fill="#FEC50C"/>
<path d="M210.391 114.257C208.832 113.986 208.021 114.818 207.792 116.024C207.48 117.583 208.145 125.503 208.145 125.503C208.145 125.503 211.783 118.456 212.095 116.896C212.345 115.712 211.95 114.589 210.391 114.257Z" fill="#FEC50C"/>
<path d="M186.381 78.3113C186.651 76.7523 185.819 75.941 184.613 75.7127C183.054 75.4006 175.134 76.0659 175.134 76.0659C175.134 76.0659 182.181 79.7041 183.741 80.0162C184.947 80.2654 186.069 79.8703 186.381 78.3113Z" fill="#FEC50C"/>
<path d="M233.346 58.8314C234.697 59.7046 235.736 59.1849 236.423 58.1869C237.295 56.8772 239.708 49.3096 239.708 49.3096C239.708 49.3096 233.636 54.4239 232.743 55.7545C232.119 56.794 232.036 57.9375 233.346 58.8314Z" fill="#FEC50C"/>
<path d="M241.794 101.264C240.921 102.616 241.44 103.656 242.439 104.342C243.749 105.215 251.316 107.627 251.316 107.627C251.316 107.627 246.201 101.556 244.871 100.662C243.873 99.9966 242.667 99.9135 241.794 101.264Z" fill="#FEC50C"/>
<path d="M199.398 109.704C198.047 108.83 197.008 109.351 196.321 110.348C195.449 111.658 193.037 119.225 193.037 119.225C193.037 119.225 199.108 114.111 200.001 112.781C200.625 111.741 200.708 110.577 199.398 109.704Z" fill="#FEC50C"/>
<path d="M190.962 67.2733C191.834 65.9223 191.315 64.8828 190.317 64.1965C189.008 63.323 181.44 60.9117 181.44 60.9117C181.44 60.9117 186.554 66.9821 187.885 67.8765C188.883 68.5419 190.026 68.625 190.962 67.2733Z" fill="#FEC50C"/>
<path d="M241.794 67.2733C242.709 68.5831 243.873 68.5621 244.871 67.8765C246.181 67.0031 251.316 60.9117 251.316 60.9117C251.316 60.9117 243.749 63.3028 242.439 64.1965C241.44 64.8618 240.921 65.9426 241.794 67.2733Z" fill="#FEC50C"/>
<path d="M233.351 109.705C232.041 110.619 232.062 111.784 232.748 112.781C233.621 114.091 239.713 119.226 239.713 119.226C239.713 119.226 237.322 111.659 236.428 110.349C235.763 109.309 234.681 108.79 233.351 109.705Z" fill="#FEC50C"/>
<path d="M190.962 101.265C190.046 99.9554 188.883 99.9763 187.885 100.663C186.575 101.535 181.44 107.627 181.44 107.627C181.44 107.627 189.008 105.236 190.317 104.342C191.315 103.677 191.834 102.596 190.962 101.265Z" fill="#FEC50C"/>
<path d="M199.399 58.8314C200.709 57.9167 200.688 56.7524 200.001 55.7545C199.128 54.4447 193.037 49.3096 193.037 49.3096C193.037 49.3096 195.428 56.8772 196.321 58.1869C196.987 59.2264 198.026 59.7462 199.399 58.8314Z" fill="#FEC50C"/>
<path d="M246.342 78.3121C246.653 79.8711 247.776 80.2662 248.94 80.0372C250.499 79.7259 257.547 76.0877 257.547 76.0877C257.547 76.0877 249.626 75.4014 248.067 75.7337C246.903 75.9418 246.03 76.7531 246.342 78.3121Z" fill="#FEC50C"/>
<path d="M222.349 114.255C220.789 114.567 220.395 115.69 220.623 116.854C220.935 118.413 224.573 125.461 224.573 125.461C224.573 125.461 225.26 117.54 224.927 115.981C224.677 114.816 223.908 113.943 222.349 114.255Z" fill="#FEC50C"/>
<path d="M186.383 90.2249C186.071 88.6659 184.949 88.2707 183.784 88.4998C182.225 88.8111 175.177 92.4493 175.177 92.4493C175.177 92.4493 183.099 93.1356 184.658 92.8033C185.801 92.5952 186.674 91.7847 186.383 90.2249Z" fill="#FEC50C"/>
<path d="M210.398 54.2552C211.958 53.9434 212.352 52.8208 212.124 51.6565C211.812 50.0973 208.174 43.0495 208.174 43.0495C208.174 43.0495 207.487 50.9704 207.82 52.5297C208.028 53.6939 208.839 54.5879 210.398 54.2552Z" fill="#FEC50C"/>
<path d="M211.557 142.553C210.83 142.594 210.165 142.677 209.437 142.906C208.522 143.031 207.587 143.342 206.672 143.509L206.318 143.551L205.674 143.592C205.716 143.759 205.757 143.946 205.757 144.112C205.757 144.32 205.757 144.465 205.674 144.631C205.632 144.798 205.508 144.943 205.404 145.026C205.279 145.193 205.134 145.297 204.967 145.38C204.8 145.463 204.613 145.505 204.447 145.505C204.239 145.505 204.094 145.505 203.886 145.422C203.678 145.38 203.533 145.255 203.366 145.11C203.158 145.151 202.971 145.193 202.805 145.235C202.597 145.235 202.451 145.235 202.285 145.235C202.077 145.193 201.89 145.11 201.724 145.026C201.516 144.943 201.37 144.86 201.204 144.756C200.518 145.151 199.769 145.547 199.354 146.232C199.104 146.544 199.083 146.918 199.042 147.314C199 147.792 199.125 148.269 199.312 148.707C199.395 148.831 199.437 148.269 199.665 148.145C200.061 147.833 200.497 147.584 200.975 147.459C201.37 147.251 201.328 147.459 201.183 147.771C201.141 147.937 200.913 148.561 201.225 148.249C202.576 147.646 204.073 147.521 205.549 147.418C207.67 147.21 209.79 147.147 211.911 147.147C213.907 147.189 215.903 147.189 217.919 147.272C218.876 147.314 219.832 147.521 220.768 147.355C221.017 147.314 221.37 147.272 221.495 147.147C221.058 146.898 220.581 146.898 220.102 146.835H216.277C215.196 146.71 214.115 146.71 213.116 146.315C212.846 146.191 212.597 145.962 212.348 146.232C211.953 146.357 211.557 146.482 211.142 146.482C210.414 146.523 209.748 146.398 209.104 146.128C209.582 145.484 210.144 144.922 210.622 144.32C210.227 144.237 209.832 144.153 209.374 144.07C210.186 143.675 210.871 143.114 211.557 142.553Z" fill="#FEC50C"/>
<path d="M242.706 149.475C241.271 150.349 240.149 148.789 238.943 148.353C238.069 148.831 237.986 150.39 237.176 151.159C236.219 152.282 235.014 150.847 235.097 149.766C233.933 150.723 233.33 152.968 231.5 152.656C230.627 151.929 229.941 150.411 229.255 152.137C228.694 152.968 227.217 154.174 226.448 152.905C226.198 151.783 225.658 150.474 225.056 152.22C224.618 153.509 223.288 154.423 221.978 153.862C221.25 153.259 222.539 151.097 221.667 151.263C220.315 152.137 219.504 154.382 217.633 154.216C216.906 153.384 218.07 151.97 217.28 151.055C216.323 152.303 215.284 154.049 213.6 154.216C212.81 153.571 213.642 151.7 213.122 151.45C211.438 152.448 209.65 154.299 207.529 153.696C208.361 150.536 211.812 149.413 214.723 149.184C219.733 148.582 224.993 149.704 229.837 147.895C230.627 147.417 232.519 146.731 231.833 145.65C231.23 144.777 233.392 145.131 233.6 144.091C233.475 142.801 234.598 142.968 235.679 142.843C240.565 142.635 245.367 143.634 250.232 143.841C250.586 146.211 247.945 147.874 245.866 147.168C244.868 147.334 243.35 144.839 243.621 146.648C243.433 147.583 243.6 148.831 242.706 149.475ZM201.23 144.631C202.352 145.671 203.143 144.423 204.182 143.987C207.695 142.781 210.814 140.619 213.87 138.498C215.72 136.981 217.3 134.985 219.795 134.506C224.639 133.031 229.753 133.218 234.598 131.866C238.277 126.835 244.556 125.026 249.795 122.116C250.96 121.762 251.438 120.806 251.791 119.725C253.787 116.565 256.51 113.758 259.754 111.845C261.271 111.014 263.122 110.535 264.826 110.931C264.702 113.01 263.516 114.819 262.103 116.253C263.267 116.212 264.265 115.483 265.471 115.525C265.866 117.646 263.6 118.768 262.394 120.078C263.08 120.245 265.679 120.432 264.245 121.118C262.436 122.365 260.398 123.239 258.714 124.673C260.232 124.943 260.44 125.276 258.881 125.837C258.049 126.399 256.406 126.607 256.24 127.708C257.405 128.436 255.721 129.101 255.034 129.35C253.787 129.621 252.477 130.182 254.12 131.159C253.475 132.116 252.166 132.323 251.043 132.199C251.354 133.28 251.832 134.485 250.482 134.964C247.363 137.334 243.683 139.039 239.753 139.433C244.681 139.787 249.712 138.914 253.912 136.232C254.473 135.588 257.342 134.881 255.762 134.319C254.993 134.007 253.371 133.633 253.246 133.072C255.534 131.679 258.361 132.157 260.814 131.347C260.897 130.556 258.964 130.785 258.257 130.577C256.531 130.411 256.656 130.016 258.298 129.85C260.377 129.288 262.748 129.163 264.494 127.854C263.059 127.168 261.251 127.77 259.733 127.251C262.332 126.128 265.367 126.003 267.696 124.298C268.735 123.135 266.344 123.509 265.658 123.529C264.224 123.779 263.579 123.093 265.18 122.49C267.945 120.452 271.459 119.122 273.413 116.17C273.891 115.483 274.494 113.488 273.018 114.215C271.105 114.86 269.38 117.064 267.175 116.378C271.542 113.01 275.658 109.184 278.61 104.507C278.776 103.155 276.656 103.031 276.095 104.07C273.288 106.752 270.772 109.954 267.217 111.638C270.647 108.311 273.454 104.444 275.929 100.348C276.448 99.1427 277.883 97.7079 277.134 96.357C275.887 95.3174 274.328 96.2739 273.704 97.5208C271.542 100.369 269.899 103.675 267.113 105.962C269.546 101.284 272.082 96.3151 272.144 90.9719C272.144 89.8493 271.895 88.2491 270.419 88.4564C269.213 88.6645 269.504 90.4525 269.026 91.3671C267.945 95.0472 267.425 98.9975 265.221 102.24C265.7 99.2467 266.573 96.1279 265.949 93.114C265.637 91.7623 263.475 92.3446 263.745 93.6753C261.147 106.835 252.311 118.353 240.752 125.026C235.471 128.02 229.546 129.954 223.559 130.826C221.958 131.18 220.191 130.993 218.631 131.513C214.868 134.402 212.622 139.184 207.862 140.723C205.741 141.763 202.977 142.012 201.459 143.966C201.272 144.028 201.23 144.34 201.23 144.631Z" fill="#FEC50C"/>
<path d="M215.43 131.263C214.702 132.552 214.307 133.987 213.434 135.152C210.71 132.677 206.802 132.76 203.351 132.594C200.502 132.428 197.425 132.199 195.222 130.162C192.894 128.291 191.022 125.796 188.465 124.278C186.095 123.634 183.746 122.844 181.875 121.243C177.842 117.958 175.513 113.052 171.563 109.642C170.794 108.873 169.92 108.332 169.089 107.688C168.299 107.896 168.652 109.601 167.655 108.727C167.134 108.332 165.784 108.332 165.659 108.852C166.864 110.453 168.049 112.261 168.257 114.299C167.426 114.382 165.971 114.132 165.575 114.424C166.656 116.066 168.049 117.5 169.65 118.665C168.881 118.79 167.363 118.706 167.093 119.018C168.693 120.307 170.377 121.617 172.457 121.929C172.894 122.49 171.854 123.571 172.707 124.049C173.226 124.257 174.91 124.611 173.745 125.172C172.956 125.692 173.268 126.981 174.266 126.939C174.91 127.251 176.345 127.334 176.469 127.895C175.908 128.457 174.141 129.184 175.637 129.704C177.03 130.494 178.631 130.993 180.274 131.055C179.484 131.742 178.465 132.137 177.634 132.781C181.355 134.944 185.471 136.378 189.505 137.771C191.105 138.332 192.748 138.811 194.432 139.122C189.546 138.852 184.827 137.397 180.398 135.443C178.07 134.444 175.804 133.447 173.434 132.594C174.474 132.075 175.679 131.908 176.76 131.472C174.515 131.035 172.124 130.868 170.17 129.663C170.481 129.143 171.604 129.101 172.249 128.831C173.455 128.561 174.162 128.187 172.499 128.104C170.815 127.667 168.902 127.854 167.426 126.815C167.509 126.211 169.068 126.42 169.713 126.17C170.502 126.045 171.397 125.92 172.041 125.38C169.442 124.299 166.033 125.068 163.995 122.781C163.517 121.908 165.43 122.615 165.991 122.469C167.384 122.469 168.881 122.906 170.232 122.345C166.428 120.661 162.395 119.143 159.505 116.066C159.193 115.588 158.215 114.215 158.985 114.07C161.23 114.34 162.873 116.835 165.263 116.441C165.575 116.004 163.87 115.318 163.413 114.674C159.899 111.68 156.49 108.395 154.058 104.466C153.892 103.156 155.929 102.948 156.49 103.987C159.172 106.586 161.604 109.58 164.931 111.347C166.137 111.908 164.245 110.66 164.016 110.224C160.939 106.628 157.966 102.865 155.867 98.6232C155.472 97.8538 154.827 96.5029 155.991 96.0658C157.155 95.5045 158.319 96.2739 158.881 97.2723C161.168 100.162 162.81 103.55 165.638 105.921C163.247 101.243 160.669 96.3158 160.607 90.9517C160.648 89.9121 160.732 88.3531 162.124 88.3943C163.33 88.2282 163.122 89.7041 163.517 90.4735C164.681 94.4237 165.201 98.7063 167.551 102.199C167.03 99.2886 166.261 96.2327 166.781 93.2801C166.906 92.3236 167.987 91.9913 168.693 92.5946C169.297 94.0286 169.422 95.7545 169.941 97.2723C172.935 107.584 179.692 116.628 188.548 122.719C195.783 127.687 204.431 130.681 213.226 131.201C213.829 131.18 214.639 131.222 215.43 131.263Z" fill="#FEC50C"/>
<path d="M204.262 144.902C204.527 144.902 204.741 144.687 204.741 144.423C204.741 144.16 204.527 143.946 204.262 143.946C203.998 143.946 203.784 144.16 203.784 144.423C203.784 144.687 203.998 144.902 204.262 144.902Z" fill="#FEC50C"/>
<path d="M204.223 144.592C204.337 144.592 204.43 144.498 204.43 144.384C204.43 144.269 204.337 144.176 204.223 144.176C204.107 144.176 204.015 144.269 204.015 144.384C204.015 144.498 204.107 144.592 204.223 144.592Z" fill="#FEC50C" stroke="#00AFCA" stroke-width="0.1905" stroke-miterlimit="2"/>
<path d="M24.2652 14.86C24.2652 14.86 22.3526 13.2592 21.708 14.0701C20.6686 15.3798 24.9513 21.8663 24.9513 24.1532C24.9513 27.9161 22.4357 28.9141 19.3588 29.4754C17.2798 29.7873 13.8702 29.2675 13.8702 29.2675C14.5147 28.4359 14.9097 28.1449 15.9908 28.1032C14.7849 27.5004 13.5999 26.149 13.5999 24.07C13.5999 20.8268 14.9097 19.517 14.9097 15.8787C14.9097 13.883 13.2673 11.2841 13.2673 11.2841C16.1779 11.5544 17.6332 14.2779 16.8224 16.4401C17.3006 16.5232 17.6956 16.3985 18.0698 16.0451C18.2777 16.648 17.9451 17.3341 17.5084 17.9162C17.8619 18.1241 18.1529 17.9994 18.7143 17.8746C18.6727 18.4775 18.2777 19.1636 17.4045 19.7457C20.0448 19.0596 21.6457 20.9099 21.6457 22.8226C21.6457 24.2572 20.6478 25.2966 19.6498 25.2966C19.338 25.2966 18.8598 25.1719 18.6104 24.9848C18.4025 25.3798 18.5271 25.8995 18.7351 26.2946C18.0074 26.0866 17.5293 25.6501 17.8619 24.7769C17.3006 24.7353 16.864 24.5274 16.5522 24.174C16.864 23.779 17.3213 23.5711 17.8619 23.5711C17.4669 22.7395 17.9035 22.2613 18.5896 21.8871C18.5896 21.8871 18.1529 23.5711 19.234 23.5711C19.7122 23.5711 20.1488 23.4048 20.1488 22.6979C20.1488 22.095 19.5875 21.2218 18.34 21.2634C17.0927 21.3049 16.0532 22.1365 16.0532 24.1532C16.0532 26.0035 17.5293 26.9182 19.4835 26.9599C21.2506 27.0014 22.602 26.0451 22.602 24.2364C22.602 21.8039 19.0885 16.2738 19.0885 14.1116C19.0885 12.4692 20.523 11.596 21.9784 11.596C23.8286 11.596 25.3879 13.4463 25.3879 13.4463L24.2652 14.86Z" fill="#FEC50C"/>
<path d="M24.6826 58.7092C24.6826 62.7424 21.0444 64.8214 18.1962 64.8214C14.3501 64.8214 12.271 62.4929 12.271 59.4992C12.271 57.7736 12.5829 56.6925 13.3937 55.0917C13.3937 55.0917 19.7554 41.89 22.2294 36.7757C22.5413 36.1312 22.6244 35.4243 22.6244 34.3433C22.6244 32.7008 21.0236 31.3495 19.3396 31.3079C17.822 31.2663 16.138 32.7424 16.138 34.3849C16.138 36.3807 17.1774 37.2954 18.2586 37.2954C19.5683 37.2954 20.1089 36.7341 20.1089 35.8193C20.1089 35.1748 19.797 34.9046 19.3396 34.9046C18.217 34.9046 18.5496 36.4223 18.5496 36.4223C17.9883 36.2975 17.5101 35.7362 17.7804 35.0293C17.3438 34.9462 16.9903 34.7175 16.6577 34.3849C16.9696 34.1145 17.3022 33.8651 17.7804 33.7819C17.5101 32.8672 17.8635 32.4722 18.6536 32.2642C18.4872 32.5761 18.4873 32.9087 18.5288 33.2206C19.7346 32.8672 21.6057 33.4285 21.6057 35.5075C21.6057 37.5865 20.1712 39.3121 17.4893 38.917C18.1338 39.2289 18.4457 39.8318 18.5288 40.5595C18.0506 40.3516 17.4893 40.3516 17.4893 40.3516C17.8012 40.9129 18.2586 41.3911 18.2169 42.4721C17.6972 42.2227 17.2607 41.8277 16.6161 42.0771C17.6141 44.0314 16.3667 46.7965 13.2481 47.441C14.4124 46.0896 14.9737 44.6343 14.9737 43.1998C14.9737 38.522 13.664 37.7112 13.664 34.4472C13.664 33.0958 14.3916 31.5989 15.743 30.6011V30.6427C14.8282 30.3931 14.2253 29.9566 13.8927 29.3329C16.0132 28.73 19.0485 28.73 20.691 29.416C22.5621 29.6239 23.8927 31.1 24.2877 31.8069C24.6826 32.5345 25.4519 35.2165 24.2877 37.6073C23.0403 40.206 17.1359 52.7216 15.3271 56.651C14.9321 57.4825 14.6827 58.3765 14.6827 59.3329C14.6827 61.7237 16.8864 62.5761 18.1131 62.5761C19.5891 62.5761 21.1484 61.4119 21.1484 60.0189C21.1484 59.1041 20.6702 58.5844 19.9426 58.5844C18.2586 58.5844 18.3417 60.0189 18.6951 60.9545C17.6556 60.4763 17.0111 59.6447 17.2191 58.7507C16.6161 58.6676 16.0548 58.3973 15.5351 57.7943C15.9301 57.2746 16.4498 56.8796 17.2191 56.8796C16.9072 55.4867 17.822 54.9254 18.6951 54.5928C18.4249 55.5906 18.217 56.7965 19.9426 56.7965C21.2315 56.7965 22.1879 57.0044 22.7908 57.836C22.8324 56.7548 22.9155 52.4306 22.9155 52.4306C22.9987 50.8297 20.7533 50.8713 19.3189 51.3495C19.8386 49.4784 20.9613 48.4597 23.5185 48.7507C22.9155 48.5013 22.2294 47.9191 22.2294 46.7965C22.2294 45.2788 23.4768 43.5948 24.2669 43.1166L24.6826 58.7092Z" fill="#FEC50C"/>
<path d="M24.6826 70.871C24.6826 66.8377 21.0444 64.7585 18.1962 64.7585C14.3501 64.7585 12.271 67.0869 12.271 70.0807C12.271 71.8066 12.5829 72.8873 13.3937 74.4882C13.3937 74.4882 19.7554 87.69 22.2295 92.8041C22.5413 93.4485 22.6244 94.1557 22.6244 95.2365C22.6244 96.8793 21.0236 98.2302 19.3396 98.2722C17.822 98.3133 16.138 96.8374 16.138 95.1953C16.138 93.1992 17.1775 92.2846 18.2586 92.2846C19.5683 92.2846 20.1089 92.846 20.1089 93.7606C20.1089 94.405 19.7971 94.6752 19.3396 94.6752C18.217 94.6752 18.5496 93.1573 18.5496 93.1573C17.9883 93.2823 17.5101 93.8436 17.7804 94.5502C17.3438 94.634 16.9904 94.8623 16.6577 95.1953C16.9696 95.4655 17.3022 95.7147 17.7804 95.7978C17.5101 96.6712 17.8635 97.1076 18.612 97.2737C18.4457 96.9624 18.4457 96.6293 18.4873 96.318C19.6931 96.6712 21.5642 96.1099 21.5642 94.0307C21.5642 91.9516 20.1297 90.2264 17.4478 90.6209C18.0923 90.3095 18.4041 89.7063 18.4873 88.9788C18.0091 89.1868 17.4478 89.1868 17.4478 89.1868C17.7596 88.6255 18.217 88.1473 18.1754 87.0658C17.6556 87.3157 17.2191 87.7109 16.5746 87.4609C17.5725 85.5068 16.3251 82.742 13.2066 82.0976C14.3708 83.4486 14.9321 84.9043 14.9321 86.3383C14.9321 91.016 13.6224 91.8273 13.6224 95.0913C13.6224 96.4422 14.3501 97.9391 15.7014 98.9375V98.8956C14.7866 99.1448 14.1837 99.5819 13.8511 100.205C15.9716 100.809 19.007 100.809 20.6494 100.122C22.5205 99.9142 23.8511 98.4383 24.2461 97.731C24.6411 97.0036 25.4104 94.3219 24.2461 91.9306C22.9987 89.332 17.0943 76.8166 15.2856 72.8873C14.8906 72.0558 14.6411 71.1622 14.6411 70.2056C14.6411 67.8144 16.8448 66.9619 18.0715 66.9619C19.5475 66.9619 21.1068 68.1265 21.1068 69.5193C21.1068 70.4339 20.6286 70.9541 19.9009 70.9541C18.2169 70.9541 18.3002 69.5193 18.6536 68.5838C17.6141 69.062 16.9696 69.8936 17.1775 70.7879C16.5746 70.871 16.0132 71.1412 15.4935 71.7437C15.8885 72.2639 16.4083 72.659 17.1775 72.659C16.8656 74.0519 17.7804 74.6132 18.6536 74.9455C18.3833 73.9479 18.1754 72.7421 19.9009 72.7421C21.19 72.7421 22.1463 72.5341 22.7492 71.7025C22.7908 72.7833 22.874 77.1078 22.874 77.1078C22.9571 78.7087 20.7118 78.6668 19.2773 78.1885C19.7971 80.0596 20.9197 81.0782 23.4768 80.7878C22.874 81.0371 22.1879 81.6194 22.1879 82.742C22.1879 84.2591 23.4353 85.9431 24.2253 86.4214L24.6826 70.871Z" fill="#FEC50C"/>
<path d="M24.2598 14.8618C24.2598 14.8618 26.1725 13.261 26.817 14.0718C27.8565 15.3816 23.5737 21.8681 23.5737 24.155C23.5737 27.918 26.0894 28.9159 29.1663 29.4772C31.2452 29.8306 34.6132 29.3109 34.6132 29.3109C33.9687 28.4793 33.5738 28.1883 32.4927 28.1466C33.6985 27.5438 34.8836 26.1924 34.8836 24.1134C34.8836 20.8702 33.5738 19.5604 33.5738 15.9221C33.5738 13.9263 35.2162 11.3275 35.2162 11.3275C32.3056 11.5978 30.8503 14.3213 31.6611 16.4835C31.1829 16.5666 30.7879 16.4419 30.4137 16.0884C30.2474 16.6914 30.58 17.3774 31.0581 17.9595C30.7047 18.1675 30.4137 18.0427 29.8523 17.918C29.8939 18.5209 30.289 19.207 31.1621 19.7891C28.5218 19.103 26.921 20.9533 26.921 22.866C26.921 24.3005 27.9189 25.34 28.9168 25.34C29.2287 25.34 29.7068 25.2153 29.9563 25.0282C30.1642 25.4231 30.0394 25.9429 29.8316 26.338C30.5592 26.13 31.0374 25.6934 30.7047 24.8203C31.2661 24.7787 31.7027 24.5707 32.0145 24.2173C31.7027 23.8223 31.2452 23.6145 30.7047 23.6145C31.0998 22.7829 30.6632 22.3047 29.9771 21.9305C29.9771 21.9305 30.4137 23.6145 29.3326 23.6145C28.8544 23.6145 28.4179 23.4481 28.4179 22.7413C28.4179 22.1383 28.9792 21.2652 30.2265 21.3067C31.474 21.3483 32.5135 22.1799 32.5135 24.1965C32.5135 26.0469 31.0374 26.9616 29.0832 27.0032C27.3159 27.0448 25.9646 26.0884 25.9646 24.2798C25.9646 21.8473 29.4781 16.3172 29.4781 14.155C29.4781 12.5126 28.0436 11.6394 26.5883 11.6394C24.738 11.6394 23.1788 13.4897 23.1788 13.4897L24.2598 14.8618Z" fill="#FEC50C"/>
<path d="M23.8702 58.7055C23.8702 62.7388 27.5085 64.8176 30.3567 64.8176C34.2028 64.8176 36.2818 62.4892 36.2818 59.4955C36.2818 57.7699 35.97 56.6888 35.1592 55.0881C35.1592 55.0881 28.7974 41.8863 26.3235 36.772C26.0116 36.1275 25.9284 35.4206 25.9284 34.3396C25.9284 32.6972 27.5293 31.3458 29.2133 31.3042C30.731 31.2627 32.4149 32.7387 32.4149 34.3812C32.4149 36.377 31.3754 37.2918 30.2943 37.2918C28.9845 37.2918 28.444 36.7305 28.444 35.8157C28.444 35.1712 28.7559 34.9009 29.2133 34.9009C30.3359 34.9009 30.0032 36.4186 30.0032 36.4186C30.5646 36.2938 31.0427 35.7325 30.7725 35.0257C31.2091 34.9425 31.5625 34.7138 31.8951 34.3812C31.5833 34.1109 31.2507 33.8614 30.7725 33.7782C31.0427 32.905 30.6893 32.4685 29.9409 32.3022C30.1072 32.614 30.1072 32.9467 30.0657 33.2585C28.8598 32.905 26.9887 33.4664 26.9887 35.5454C26.9887 37.6244 28.4232 39.35 31.1052 38.955C30.4606 39.2668 30.1488 39.8697 30.0657 40.5974C30.5438 40.3894 31.1052 40.3894 31.1052 40.3894C30.7933 40.9508 30.3359 41.429 30.3775 42.5101C30.8973 42.2606 31.3338 41.8656 31.9783 42.115C30.9804 44.0693 32.2278 46.8344 35.3463 47.4789C34.1821 46.1275 33.6208 44.6722 33.6208 43.2377C33.6208 38.56 34.9305 37.7492 34.9305 34.4851C34.9305 33.1338 34.2028 31.6369 32.8515 30.639V30.6805C33.7662 30.4311 34.3692 29.9944 34.7018 29.3708C32.5812 28.7679 29.5459 28.7679 27.9035 29.4539C26.0324 29.6618 24.7018 31.1379 24.3068 31.8448C23.9118 32.5724 23.1426 35.2543 24.3068 37.6452C25.5542 40.2439 31.4586 52.7595 33.2673 56.6888C33.6623 57.5205 33.9118 58.4144 33.9118 59.3708C33.9118 61.7616 31.708 62.614 30.4814 62.614C29.0053 62.614 27.4461 61.4498 27.4461 60.0568C27.4461 59.1421 27.9243 58.6223 28.6519 58.6223C30.3359 58.6223 30.2528 60.0568 29.8993 60.9924C30.9388 60.5142 31.5833 59.6826 31.3754 58.7887C31.9783 58.7055 32.5396 58.4352 33.0594 57.8323C32.6644 57.3126 32.1446 56.9176 31.3754 56.9176C31.6872 55.5246 30.7725 54.9633 29.8993 54.6306C30.1696 55.6286 30.3775 56.8344 28.6519 56.8344C27.363 56.8344 26.4066 57.0423 25.8037 57.8739C25.7621 56.7928 25.679 52.4685 25.679 52.4685C25.5958 50.8677 27.8411 50.9092 29.2756 51.3874C28.7559 49.5163 27.6332 48.4976 25.076 48.7887C25.679 48.5391 26.365 47.9571 26.365 46.8344C26.365 45.3167 25.1176 43.6327 24.3276 43.1546L23.8702 58.7055Z" fill="#FEC50C"/>
<path d="M23.8702 70.871C23.8702 66.8377 27.5085 64.7585 30.3567 64.7585C34.2028 64.7585 36.2818 67.0869 36.2818 70.0807C36.2818 71.8066 35.97 72.8873 35.1592 74.4882C35.1592 74.4882 28.7974 87.69 26.3235 92.8041C26.0116 93.4485 25.9284 94.1557 25.9284 95.2365C25.9284 96.8793 27.5293 98.2302 29.2133 98.2722C30.731 98.3133 32.4149 96.8374 32.4149 95.1953C32.4149 93.1992 31.3754 92.2846 30.2943 92.2846C28.9845 92.2846 28.444 92.846 28.444 93.7606C28.444 94.405 28.7559 94.6752 29.2133 94.6752C30.3359 94.6752 30.0032 93.1573 30.0032 93.1573C30.5646 93.2823 31.0427 93.8436 30.7725 94.5502C31.2091 94.634 31.5625 94.8623 31.8951 95.1953C31.5833 95.4655 31.2507 95.7147 30.7725 95.7978C31.0427 96.6712 30.6893 97.1076 29.9409 97.2737C30.1072 96.9624 30.1072 96.6293 30.0657 96.318C28.8598 96.6712 26.9887 96.1099 26.9887 94.0307C26.9887 91.9516 28.4232 90.2264 31.1052 90.6209C30.4606 90.3095 30.1488 89.7063 30.0657 88.9788C30.5438 89.1868 31.1052 89.1868 31.1052 89.1868C30.7933 88.6255 30.3359 88.1473 30.3775 87.0658C30.8973 87.3157 31.3338 87.7109 31.9783 87.4609C30.9804 85.5068 32.2278 82.742 35.3463 82.0976C34.1821 83.4486 33.6208 84.9043 33.6208 86.3383C33.6208 91.016 34.9305 91.8273 34.9305 95.0913C34.9305 96.4422 34.2028 97.9391 32.8515 98.9375V98.8956C33.7662 99.1448 34.3692 99.5819 34.7018 100.205C32.5812 100.809 29.5459 100.809 27.9035 100.122C26.0324 99.9142 24.7018 98.4383 24.3068 97.731C23.9118 97.0036 23.1426 94.3219 24.3068 91.9306C25.5542 89.332 31.4586 76.8166 33.2673 72.8873C33.6623 72.0558 33.9118 71.1622 33.9118 70.2056C33.9118 67.8144 31.708 66.9619 30.4814 66.9619C29.0053 66.9619 27.4461 68.1265 27.4461 69.5193C27.4461 70.4339 27.9243 70.9541 28.6519 70.9541C30.3359 70.9541 30.2528 69.5193 29.8993 68.5838C30.9388 69.062 31.5833 69.8936 31.3754 70.7879C31.9783 70.871 32.5396 71.1412 33.0594 71.7437C32.6644 72.2639 32.1446 72.659 31.3754 72.659C31.6872 74.0519 30.7725 74.6132 29.8993 74.9455C30.1696 73.9479 30.3775 72.7421 28.6519 72.7421C27.363 72.7421 26.4066 72.5341 25.8037 71.7025C25.7621 72.7833 25.679 77.1078 25.679 77.1078C25.5958 78.7087 27.8411 78.6668 29.2756 78.1885C28.7559 80.0596 27.6332 81.0782 25.076 80.7878C25.679 81.0371 26.365 81.6194 26.365 82.742C26.365 84.2591 25.1176 85.9431 24.3276 86.4214L23.8702 70.871Z" fill="#FEC50C"/>
<path d="M24.262 185.671C24.262 185.671 22.3494 187.272 21.7049 186.461C20.6654 185.151 24.9481 178.665 24.9481 176.378C24.9481 172.615 22.4326 171.617 19.3556 171.056C17.2766 170.702 13.9087 171.222 13.9087 171.222C14.5531 172.053 14.9482 172.345 16.0292 172.386C14.8234 172.989 13.6384 174.341 13.6384 176.42C13.6384 179.663 14.9482 180.973 14.9482 184.611C14.9482 186.607 13.3057 189.205 13.3057 189.205C16.2163 188.935 17.6717 186.212 16.8608 184.049C17.339 183.966 17.734 184.091 18.1082 184.445C18.3161 183.841 17.9835 183.156 17.5469 182.573C17.9003 182.365 18.1914 182.49 18.7527 182.615C18.7112 182.012 18.3161 181.326 17.4429 180.744C20.0833 181.43 21.6841 179.58 21.6841 177.667C21.6841 176.233 20.6862 175.193 19.6883 175.193C19.3764 175.193 18.8983 175.317 18.6487 175.504C18.4408 175.11 18.5656 174.59 18.7735 174.195C18.0459 174.403 17.5677 174.839 17.9003 175.712C17.339 175.754 16.9024 175.962 16.5905 176.316C16.9024 176.71 17.3598 176.918 17.9003 176.918C17.5053 177.75 17.9419 178.228 18.6279 178.602C18.6279 178.602 18.1914 176.918 19.2725 176.918C19.7506 176.918 20.1872 177.084 20.1872 177.792C20.1872 178.394 19.6259 179.268 18.3785 179.226C17.1311 179.185 16.0916 178.353 16.0916 176.336C16.0916 174.486 17.5677 173.571 19.522 173.529C21.2891 173.488 22.6405 174.445 22.6405 176.253C22.6405 178.685 19.1269 184.216 19.1269 186.378C19.1269 188.021 20.5615 188.893 22.0167 188.893C23.867 188.893 25.4263 187.043 25.4263 187.043L24.262 185.671Z" fill="#FEC50C"/>
<path d="M24.6826 141.825C24.6826 137.791 21.0444 135.712 18.1962 135.712C14.3501 135.712 12.271 138.04 12.271 141.034C12.271 142.76 12.5829 143.841 13.3937 145.442C13.3937 145.442 19.7554 158.644 22.2295 163.758C22.5413 164.402 22.6244 165.109 22.6244 166.19C22.6244 167.833 21.0236 169.184 19.3396 169.226C17.822 169.267 16.138 167.791 16.138 166.149C16.138 164.153 17.1775 163.238 18.2586 163.238C19.5683 163.238 20.1089 163.8 20.1089 164.714C20.1089 165.359 19.7971 165.629 19.3396 165.629C18.217 165.629 18.5496 164.112 18.5496 164.112C17.9883 164.236 17.5101 164.797 17.7804 165.504C17.3438 165.588 16.9904 165.816 16.6577 166.149C16.9696 166.419 17.3022 166.668 17.7804 166.751C17.5101 167.625 17.8635 168.061 18.612 168.228C18.4457 167.916 18.4457 167.583 18.4873 167.272C19.6931 167.625 21.5642 167.063 21.5642 164.984C21.5642 162.905 20.1297 161.18 17.4478 161.575C18.0923 161.263 18.4041 160.66 18.4873 159.932C18.0091 160.14 17.4478 160.14 17.4478 160.14C17.7596 159.579 18.217 159.101 18.1754 158.02C17.6556 158.269 17.2191 158.664 16.5746 158.415C17.5725 156.46 16.3251 153.696 13.2066 153.051C14.3708 154.402 14.9321 155.858 14.9321 157.293C14.9321 161.97 13.6224 162.781 13.6224 166.045C13.6224 167.396 14.3501 168.893 15.7014 169.891V169.849C14.7866 170.099 14.1837 170.536 13.8511 171.159C15.9716 171.762 19.007 171.762 20.6494 171.076C22.5205 170.868 23.8511 169.392 24.2461 168.685C24.6411 167.957 25.4104 165.275 24.2461 162.885C22.9987 160.286 17.0943 147.77 15.2856 143.841C14.8906 143.009 14.6411 142.116 14.6411 141.159C14.6411 138.769 16.8448 137.916 18.0715 137.916C19.5475 137.916 21.1068 139.08 21.1068 140.473C21.1068 141.388 20.6286 141.908 19.9009 141.908C18.2169 141.908 18.3002 140.473 18.6536 139.537C17.6141 140.016 16.9696 140.847 17.1775 141.742C16.5746 141.825 16.0132 142.095 15.4935 142.698C15.8885 143.217 16.4083 143.613 17.1775 143.613C16.8656 145.005 17.7804 145.567 18.6536 145.899C18.3833 144.901 18.1754 143.696 19.9009 143.696C21.19 143.696 22.1463 143.488 22.7492 142.656C22.7908 143.737 22.874 148.061 22.874 148.061C22.9571 149.662 20.7118 149.621 19.2773 149.143C19.7971 151.014 20.9197 152.033 23.4768 151.741C22.874 151.991 22.1879 152.573 22.1879 153.696C22.1879 155.213 23.4353 156.897 24.2253 157.376L24.6826 141.825Z" fill="#FEC50C"/>
<path d="M24.6826 129.664C24.6826 133.697 21.0444 135.777 18.1962 135.777C14.3501 135.777 12.271 133.448 12.271 130.454C12.271 128.728 12.5829 127.648 13.3937 126.047C13.3937 126.047 19.7554 112.845 22.2295 107.731C22.5413 107.087 22.6244 106.379 22.6244 105.299C22.6244 103.656 21.0236 102.305 19.3396 102.263C17.822 102.222 16.138 103.698 16.138 105.34C16.138 107.336 17.1775 108.25 18.2586 108.25C19.5683 108.25 20.1089 107.689 20.1089 106.774C20.1089 106.13 19.7971 105.86 19.3396 105.86C18.217 105.86 18.5496 107.378 18.5496 107.378C17.9883 107.253 17.5101 106.691 17.7804 105.985C17.3438 105.901 16.9904 105.673 16.6577 105.34C16.9696 105.07 17.3022 104.82 17.7804 104.737C17.5101 103.864 17.8635 103.427 18.612 103.261C18.4457 103.573 18.4457 103.906 18.4873 104.217C19.6931 103.864 21.5642 104.425 21.5642 106.504C21.5642 108.583 20.1297 110.309 17.4478 109.914C18.0923 110.226 18.4041 110.829 18.4873 111.556C18.0091 111.348 17.4478 111.348 17.4478 111.348C17.7596 111.91 18.217 112.388 18.1754 113.469C17.6556 113.219 17.2191 112.824 16.5746 113.074C17.5725 115.028 16.3251 117.793 13.2066 118.437C14.3708 117.086 14.9321 115.631 14.9321 114.197C14.9321 109.519 13.6224 108.708 13.6224 105.444C13.6224 104.093 14.3501 102.596 15.7014 101.598V101.639C14.7866 101.39 14.1837 100.953 13.8511 100.33C15.9716 99.7264 19.007 99.7264 20.6494 100.413C22.5205 100.621 23.8511 102.097 24.2461 102.804C24.6411 103.531 25.4104 106.213 24.2461 108.604C22.9987 111.203 17.0943 123.718 15.2856 127.648C14.8906 128.479 14.6411 129.373 14.6411 130.329C14.6411 132.721 16.8448 133.573 18.0715 133.573C19.5475 133.573 21.1068 132.409 21.1068 131.016C21.1068 130.101 20.6286 129.581 19.9009 129.581C18.2169 129.581 18.3002 131.016 18.6536 131.951C17.6141 131.473 16.9696 130.641 17.1775 129.747C16.5746 129.664 16.0132 129.394 15.4935 128.791C15.8885 128.271 16.4083 127.876 17.1775 127.876C16.8656 126.483 17.7804 125.922 18.6536 125.589C18.3833 126.587 18.1754 127.793 19.9009 127.793C21.19 127.793 22.1463 128.001 22.7492 128.832C22.7908 127.752 22.874 123.427 22.874 123.427C22.9571 121.826 20.7118 121.868 19.2773 122.346C19.7971 120.475 20.9197 119.456 23.4768 119.747C22.874 119.498 22.1879 118.916 22.1879 117.793C22.1879 116.275 23.4353 114.591 24.2253 114.114L24.6826 129.664Z" fill="#FEC50C"/>
<path d="M24.2654 185.671C24.2654 185.671 26.178 187.272 26.8225 186.461C27.862 185.151 23.5793 178.665 23.5793 176.378C23.5793 172.615 26.0949 171.617 29.1718 171.056C31.2508 170.702 34.6188 171.222 34.6188 171.222C33.9743 172.053 33.5793 172.345 32.4982 172.386C33.704 172.989 34.8891 174.341 34.8891 176.42C34.8891 179.663 33.5793 180.973 33.5793 184.611C33.5793 186.607 35.2217 189.205 35.2217 189.205C32.3111 188.935 30.8558 186.212 31.6666 184.049C31.1885 183.966 30.7934 184.091 30.4192 184.445C30.2113 183.841 30.5439 183.156 30.9805 182.573C30.6271 182.365 30.3361 182.49 29.7747 182.615C29.8163 182.012 30.2113 181.326 31.0845 180.744C28.4442 181.43 26.8433 179.58 26.8433 177.667C26.8433 176.233 27.8412 175.193 28.8392 175.193C29.151 175.193 29.6292 175.317 29.8787 175.504C30.0865 175.11 29.9618 174.59 29.7539 174.195C30.4816 174.403 30.9597 174.839 30.6271 175.712C31.1885 175.754 31.625 175.962 31.9369 176.316C31.625 176.71 31.1677 176.918 30.6271 176.918C31.0221 177.75 30.5855 178.228 29.8994 178.602C29.8994 178.602 30.3361 176.918 29.2549 176.918C28.7768 176.918 28.3402 177.084 28.3402 177.792C28.3402 178.394 28.9015 179.268 30.149 179.226C31.3963 179.185 32.4358 178.353 32.4358 176.336C32.4358 174.486 30.9597 173.571 29.0055 173.529C27.2383 173.488 25.887 174.445 25.887 176.253C25.887 178.685 29.4005 184.216 29.4005 186.378C29.4005 188.021 27.966 188.893 26.5107 188.893C24.6603 188.893 23.1011 187.043 23.1011 187.043L24.2654 185.671Z" fill="#FEC50C"/>
<path d="M23.8702 141.825C23.8702 137.791 27.5085 135.712 30.3567 135.712C34.2028 135.712 36.2818 138.04 36.2818 141.034C36.2818 142.76 35.97 143.841 35.1592 145.442C35.1592 145.442 28.7974 158.644 26.3235 163.758C26.0116 164.402 25.9284 165.109 25.9284 166.19C25.9284 167.833 27.5293 169.184 29.2133 169.226C30.731 169.267 32.4149 167.791 32.4149 166.149C32.4149 164.153 31.3754 163.238 30.2943 163.238C28.9845 163.238 28.444 163.8 28.444 164.714C28.444 165.359 28.7559 165.629 29.2133 165.629C30.3359 165.629 30.0032 164.112 30.0032 164.112C30.5646 164.236 31.0427 164.797 30.7725 165.504C31.2091 165.588 31.5625 165.816 31.8951 166.149C31.5833 166.419 31.2507 166.668 30.7725 166.751C31.0427 167.625 30.6893 168.061 29.9409 168.228C30.1072 167.916 30.1072 167.583 30.0657 167.272C28.8598 167.625 26.9887 167.063 26.9887 164.984C26.9887 162.905 28.4232 161.18 31.1052 161.575C30.4606 161.263 30.1488 160.66 30.0657 159.932C30.5438 160.14 31.1052 160.14 31.1052 160.14C30.7933 159.579 30.3359 159.101 30.3775 158.02C30.8973 158.269 31.3338 158.664 31.9783 158.415C30.9804 156.46 32.2278 153.696 35.3463 153.051C34.1821 154.402 33.6208 155.858 33.6208 157.293C33.6208 161.97 34.9305 162.781 34.9305 166.045C34.9305 167.396 34.2028 168.893 32.8515 169.891V169.849C33.7662 170.099 34.3692 170.536 34.7018 171.159C32.5812 171.762 29.5459 171.762 27.9035 171.076C26.0324 170.868 24.7018 169.392 24.3068 168.685C23.9118 167.957 23.1426 165.275 24.3068 162.885C25.5542 160.286 31.4586 147.77 33.2673 143.841C33.6623 143.009 33.9118 142.116 33.9118 141.159C33.9118 138.769 31.708 137.916 30.4814 137.916C29.0053 137.916 27.4461 139.08 27.4461 140.473C27.4461 141.388 27.9243 141.908 28.6519 141.908C30.3359 141.908 30.2528 140.473 29.8993 139.537C30.9388 140.016 31.5833 140.847 31.3754 141.742C31.9783 141.825 32.5396 142.095 33.0594 142.698C32.6644 143.217 32.1446 143.613 31.3754 143.613C31.6872 145.005 30.7725 145.567 29.8993 145.899C30.1696 144.901 30.3775 143.696 28.6519 143.696C27.363 143.696 26.4066 143.488 25.8037 142.656C25.7621 143.737 25.679 148.061 25.679 148.061C25.5958 149.662 27.8411 149.621 29.2756 149.143C28.7559 151.014 27.6332 152.033 25.076 151.741C25.679 151.991 26.365 152.573 26.365 153.696C26.365 155.213 25.1176 156.897 24.3276 157.376L23.8702 141.825Z" fill="#FEC50C"/>
<path d="M23.8702 129.664C23.8702 133.697 27.5085 135.777 30.3567 135.777C34.2028 135.777 36.2818 133.448 36.2818 130.454C36.2818 128.728 35.97 127.648 35.1592 126.047C35.1592 126.047 28.7974 112.845 26.3235 107.731C26.0116 107.087 25.9284 106.379 25.9284 105.299C25.9284 103.656 27.5293 102.305 29.2133 102.263C30.731 102.222 32.4149 103.698 32.4149 105.34C32.4149 107.336 31.3754 108.25 30.2943 108.25C28.9845 108.25 28.444 107.689 28.444 106.774C28.444 106.13 28.7559 105.86 29.2133 105.86C30.3359 105.86 30.0032 107.378 30.0032 107.378C30.5646 107.253 31.0427 106.691 30.7725 105.985C31.2091 105.901 31.5625 105.673 31.8951 105.34C31.5833 105.07 31.2507 104.82 30.7725 104.737C31.0427 103.864 30.6893 103.427 29.9409 103.261C30.1072 103.573 30.1072 103.906 30.0657 104.217C28.8598 103.864 26.9887 104.425 26.9887 106.504C26.9887 108.583 28.4232 110.309 31.1052 109.914C30.4606 110.226 30.1488 110.829 30.0657 111.556C30.5438 111.348 31.1052 111.348 31.1052 111.348C30.7933 111.91 30.3359 112.388 30.3775 113.469C30.8973 113.219 31.3338 112.824 31.9783 113.074C30.9804 115.028 32.2278 117.793 35.3463 118.437C34.1821 117.086 33.6208 115.631 33.6208 114.197C33.6208 109.519 34.9305 108.708 34.9305 105.444C34.9305 104.093 34.2028 102.596 32.8515 101.598V101.639C33.7662 101.39 34.3692 100.953 34.7018 100.33C32.5812 99.7264 29.5459 99.7264 27.9035 100.413C26.0324 100.621 24.7018 102.097 24.3068 102.804C23.9118 103.531 23.1426 106.213 24.3068 108.604C25.5542 111.203 31.4586 123.718 33.2673 127.648C33.6623 128.479 33.9118 129.373 33.9118 130.329C33.9118 132.721 31.708 133.573 30.4814 133.573C29.0053 133.573 27.4461 132.409 27.4461 131.016C27.4461 130.101 27.9243 129.581 28.6519 129.581C30.3359 129.581 30.2528 131.016 29.8993 131.951C30.9388 131.473 31.5833 130.641 31.3754 129.747C31.9783 129.664 32.5396 129.394 33.0594 128.791C32.6644 128.271 32.1446 127.876 31.3754 127.876C31.6872 126.483 30.7725 125.922 29.8993 125.589C30.1696 126.587 30.3775 127.793 28.6519 127.793C27.363 127.793 26.4066 128.001 25.8037 128.832C25.7621 127.752 25.679 123.427 25.679 123.427C25.5958 121.826 27.8411 121.868 29.2756 122.346C28.7559 120.475 27.6332 119.456 25.076 119.747C25.679 119.498 26.365 118.916 26.365 117.793C26.365 116.275 25.1176 114.591 24.3276 114.114L23.8702 129.664Z" fill="#FEC50C"/>
</svg>
