<svg width="396" height="200" viewBox="0 0 396 200" fill="none" xmlns="http://www.w3.org/2000/svg">
<path d="M0 0H395.062V200H0V0Z" fill="#FF0000"/>
<path d="M180.979 84.6252C176.844 82.0533 172.441 79.9133 167.934 78.1644C164.045 83.9259 161.782 90.8393 161.782 98.2882C161.782 101.992 162.338 105.572 163.407 108.947C165.28 104.625 167.667 100.407 170.568 96.3948C173.634 92.0326 177.153 88.0822 180.979 84.6252ZM169.93 75.5311C174.827 77.2178 179.519 79.42 184.045 81.9919C185.053 81.1067 186.124 80.3659 187.111 79.6052C182.338 76.9711 177.256 74.8311 172.05 73.2059C171.309 73.9674 170.568 74.7081 169.93 75.5311ZM174.333 71.0659C179.971 72.5681 185.362 74.6459 190.444 77.3415C191.638 76.58 192.831 75.9015 193.963 75.2015C188.572 72.4444 182.852 70.4281 176.967 68.9874C176.021 69.6252 175.136 70.3252 174.333 71.0659ZM179.663 67.3207C185.876 68.5763 191.885 70.5926 197.543 73.3496C203.243 70.5926 209.272 68.5763 215.424 67.3207C210.218 64.2548 204.066 62.4856 197.543 62.4856C191 62.4856 184.93 64.2348 179.663 67.3207ZM218.099 69.0696C212.193 70.4489 206.494 72.5267 201.103 75.2222C202.296 75.9215 203.428 76.6007 204.621 77.3622C209.765 74.6667 215.156 72.5881 220.733 71.0867C219.93 70.3252 219.045 69.6252 218.099 69.0696ZM222.996 73.2674C217.79 74.8311 212.77 76.9711 207.934 79.6052C209.004 80.3659 210.074 81.1689 211.061 81.9919C215.506 79.42 220.219 77.2178 225.116 75.5311C224.498 74.7081 223.819 73.9674 222.996 73.2674ZM227.132 78.2267C222.626 79.9133 218.284 82.0533 214.148 84.6252C217.976 88.0822 221.432 92.0326 224.56 96.4156C227.378 100.428 229.765 104.625 231.72 108.967C232.728 105.51 233.284 102.013 233.284 98.3089C233.284 90.8393 231.021 83.9259 227.132 78.2267ZM224.066 102.815C220.301 96.7244 215.794 91.3333 210.774 86.7652C209.642 87.5881 208.449 88.3911 207.379 89.2141C215.856 97.1156 222.687 107.033 227.008 118.576C228.016 117.074 228.942 115.51 229.704 113.926C228.14 110.161 226.247 106.457 224.066 102.815ZM204.169 86.4978C205.301 85.6748 206.432 84.8726 207.626 84.1111C206.617 83.2267 205.547 82.4237 204.498 81.6007C203.304 82.3622 202.111 83.103 200.918 83.9259H200.979C202.05 84.7489 203.119 85.6341 204.169 86.4978ZM197.523 81.477C198.716 80.7163 199.971 79.9756 201.103 79.2756C199.91 78.5141 198.716 77.7733 197.523 77.0741C196.33 77.7733 195.198 78.5141 194.004 79.2756C195.219 79.9756 196.33 80.7363 197.523 81.477ZM194.148 83.9259C192.955 83.103 191.823 82.3622 190.63 81.6007C189.56 82.4237 188.49 83.2267 187.441 84.0496C188.634 84.8726 189.765 85.6133 190.897 86.4363C191.947 85.5719 193.016 84.7489 194.148 83.9259ZM197.523 86.4363C196.453 87.2593 195.383 88.1237 194.251 89.0696C195.383 89.9548 196.453 90.8807 197.523 91.8274C198.593 90.8807 199.663 89.9548 200.794 89.0696C199.724 88.2059 198.654 87.2593 197.523 86.4363ZM197.523 98.1644C192.749 103.309 188.552 109.193 185.156 115.799C182.831 120.181 181.021 124.77 179.642 129.338C184.91 132.28 191 134.05 197.523 134.05C204.045 134.05 210.136 132.301 215.404 129.338C214.024 124.749 212.214 120.181 209.889 115.799C206.494 109.214 202.358 103.309 197.523 98.1644ZM176.823 121.95C180.897 111.539 186.926 102.444 194.313 94.9133C193.243 93.9052 192.173 92.9793 191.041 91.9711C182.441 100.304 175.547 110.654 171.35 122.65C172.543 123.967 173.799 125.161 175.177 126.292C175.712 124.831 176.267 123.391 176.823 121.95ZM200.733 94.9133C208.14 102.444 214.148 111.539 218.304 121.95C218.86 123.391 219.375 124.831 219.868 126.272C221.247 125.14 222.564 123.947 223.757 122.63C219.498 110.654 212.584 100.304 204.004 91.9504C202.852 92.9585 201.802 93.9052 200.733 94.9133ZM168.058 118.556C172.379 107.013 179.23 97.177 187.749 89.2548C186.617 88.3704 185.486 87.5681 184.293 86.7452C179.272 91.3948 174.765 96.7859 171 102.856C168.799 106.436 166.926 110.14 165.362 113.884C166.103 115.551 167.05 117.053 168.058 118.556ZM197.728 59.605C219.807 59.605 237.811 77.6089 237.811 99.6874C237.811 121.765 219.807 139.77 197.728 139.77C175.65 139.77 157.646 121.765 157.646 99.6874C157.646 77.6089 175.65 59.605 197.728 59.605ZM215.404 50.819C214.272 52.1358 213.016 53.823 211.761 56.5185C211.453 55.819 211.453 55.0164 211.638 54.1317C211.947 51.251 212.77 49.4815 214.272 47.0535C214.765 46.1687 215.28 45.428 215.527 44.4815C216.473 41.6626 216.288 37.8971 214.21 34.9547C214.518 38.2881 213.51 41.0453 212.399 42.7325C212.214 43.0412 212.029 43.2264 211.782 43.4939C210.589 44.6873 209.272 45.8807 207.584 48.6379C206.638 50.1399 205.712 51.9712 204.827 54.8518C204.457 54.2346 204.333 53.4733 204.395 52.5885C204.272 49.6461 204.765 47.8148 205.836 45.1193C206.206 44.1729 206.597 43.3704 206.72 42.3621C207.153 39.4815 206.412 35.7778 203.901 33.2058C204.724 36.3951 204.21 39.2963 203.346 41.1687C203.161 41.4774 203.037 41.7243 202.852 41.9918C201.844 43.3704 200.774 44.749 199.457 47.6914C198.839 49.3786 198.14 51.3333 197.77 54.2757C197.276 53.7201 197.008 52.9589 196.947 52.0741C196.391 49.1934 196.576 47.3004 197.193 44.4815C197.441 43.535 197.687 42.6708 197.626 41.6626C197.626 38.7201 196.309 35.2016 193.428 33C194.745 36.0659 194.683 39.0288 194.127 41.0247C194.004 41.2716 193.881 41.5802 193.757 41.8478C192.996 43.4116 192.132 44.9136 191.309 48.0617C190.939 49.8107 190.547 51.8889 190.609 54.8313C190.116 54.3375 189.724 53.6379 189.478 52.8148C188.469 49.9959 188.346 48.1646 188.593 45.2222C188.654 44.214 188.716 43.3498 188.593 42.4033C188.099 39.4609 186.206 36.1893 183.079 34.5021C184.827 37.321 185.219 40.2634 184.95 42.2799C184.889 42.5885 184.827 42.8971 184.765 43.2264C184.272 44.8519 183.634 46.4979 183.325 49.749C183.201 51.4979 183.14 53.5761 183.696 56.5185C183.079 56.0864 182.626 55.4486 182.256 54.7079C180.815 52.0741 180.444 50.2634 180.177 47.3621C180.116 46.3539 180.053 45.4897 179.683 44.5432C178.799 41.7243 176.412 38.7819 173.037 37.6502C175.198 40.0987 176.082 42.9177 176.082 44.9753C176.082 45.2839 176.082 45.5926 176.021 45.9218C175.774 47.609 175.465 49.3786 175.65 52.5679C175.836 54.3169 176.082 56.3951 177.09 59.214C176.391 58.9053 175.836 58.3293 175.341 57.6502C173.531 55.3251 172.893 53.5762 172.214 50.7572C171.967 49.749 171.782 48.9465 171.267 48C169.95 45.428 167.132 42.856 163.613 42.2387C166.124 44.3786 167.441 47.0741 167.811 49.07C167.873 49.3786 167.873 49.6873 167.873 50.0164C167.934 51.7037 167.873 53.4733 168.572 56.6626C169.004 58.3498 169.58 60.3663 171.021 62.9385C170.321 62.7533 169.704 62.321 169.087 61.6831C166.885 59.6667 165.959 58.0412 164.889 55.3457C164.519 54.3992 164.127 53.5967 163.572 52.7737C161.823 50.4486 158.675 48.391 155.033 48.3293C157.913 50.0164 159.621 52.4033 160.301 54.3581C160.362 54.6667 160.424 54.9753 160.486 55.3045C160.794 56.9918 160.979 58.7613 162.173 61.7655C162.873 63.3911 163.799 65.2837 165.63 67.5881C164.868 67.5267 164.19 67.1563 163.49 66.6422C161.041 65.0163 159.848 63.5141 158.284 61.0658C157.79 60.1811 157.338 59.4404 156.597 58.7407C154.519 56.6626 151.082 55.0988 147.502 55.6132C150.568 56.8683 152.646 59.0082 153.654 60.819C153.778 61.0658 153.901 61.3745 154.024 61.7037C154.58 63.2674 155.033 64.9756 156.659 67.7941C157.605 69.2963 158.799 70.9837 160.979 73.0615C160.219 73.0615 159.478 72.8148 158.716 72.4444C156.021 71.1896 154.642 69.9341 152.749 67.7326C152.05 66.9711 151.494 66.2919 150.671 65.6541C148.284 63.9674 144.642 62.9585 141.206 64.0289C144.478 64.7904 146.844 66.5393 148.037 68.1644C148.284 68.4119 148.407 68.6585 148.531 68.9874C149.354 70.4896 150.095 72.1156 152.173 74.5637C153.304 75.9422 154.745 77.4444 157.193 79.1526C156.494 79.2756 155.753 79.1526 154.868 78.8437C152.05 78.0822 150.486 77.0326 148.284 75.14C147.523 74.523 146.844 73.9467 145.959 73.4526C143.325 72.1356 139.56 71.7652 136.309 73.3289C139.642 73.5141 142.276 74.9548 143.778 76.3333C143.963 76.58 144.148 76.7652 144.333 77.0948C145.404 78.4118 146.35 79.9133 148.778 82.0533C150.095 83.1852 151.782 84.44 154.478 85.757C153.778 86.0044 152.976 86.0044 152.153 85.8193C149.21 85.5104 147.502 84.6874 144.992 83.1852C144.107 82.6911 143.367 82.177 142.42 81.9304C139.601 80.9837 135.897 81.1689 132.955 83.2467C136.227 82.9385 139.045 83.9467 140.733 85.0578C140.979 85.243 141.227 85.4281 141.432 85.6748C142.687 86.8681 143.881 88.1852 146.576 89.8726C148.079 90.8193 149.971 91.8067 152.79 92.6296C152.173 93 151.412 93.1237 150.527 93.1237C147.584 93.1852 145.753 92.6911 143.058 91.6215C142.111 91.2511 141.309 90.86 140.301 90.7363C137.42 90.3044 133.716 91.0452 131.144 93.5556C134.333 92.7326 137.296 93.2467 139.107 94.1111C139.416 94.2963 139.663 94.42 139.93 94.6052C141.309 95.6133 142.687 96.683 145.691 98C147.317 98.617 149.272 99.317 152.214 99.6874C151.659 100.181 150.897 100.449 150.074 100.51C147.132 101.127 145.301 100.881 142.42 100.264C141.473 100.016 140.609 99.8311 139.601 99.8311C136.659 99.8311 133.14 101.148 131 104.029C134.004 102.712 136.967 102.773 138.963 103.329C139.272 103.453 139.519 103.576 139.848 103.699C141.35 104.461 142.913 105.325 146.061 106.148C147.749 106.519 149.827 106.91 152.77 106.847C152.276 107.341 151.576 107.733 150.753 107.979C147.996 108.987 146.103 109.111 143.222 108.864C142.214 108.802 141.35 108.741 140.341 108.864C137.461 109.358 134.19 111.251 132.502 114.44C135.259 112.63 138.201 112.239 140.28 112.506C140.589 112.568 140.836 112.63 141.164 112.691C142.79 113.247 144.436 113.823 147.687 114.132C149.436 114.255 151.515 114.317 154.457 113.761C154.024 114.379 153.387 114.831 152.646 115.201C150.074 116.642 148.201 117.013 145.301 117.28C144.293 117.403 143.428 117.465 142.481 117.773C139.663 118.659 136.782 121.045 135.589 124.42C138.099 122.218 140.918 121.416 142.996 121.354C143.304 121.354 143.613 121.354 143.942 121.416C145.568 121.662 147.338 121.971 150.589 121.786C152.338 121.662 154.416 121.354 157.173 120.346C156.926 121.045 156.35 121.601 155.609 122.095C153.284 123.905 151.535 124.543 148.716 125.222C147.77 125.469 146.905 125.654 146.021 126.169C143.387 127.486 140.877 130.304 140.259 133.823C142.338 131.313 145.033 129.996 147.029 129.625C147.338 129.564 147.646 129.564 147.976 129.564C149.663 129.502 151.494 129.564 154.621 128.864C156.309 128.432 158.325 127.856 160.959 126.416C160.774 127.116 160.259 127.794 159.642 128.35C157.626 130.551 156 131.477 153.304 132.547C152.42 132.979 151.617 133.309 150.794 133.864C148.407 135.613 146.35 138.761 146.288 142.403C147.976 139.523 150.424 137.815 152.379 137.136C152.687 137.074 152.934 137.013 153.264 136.95C154.95 136.642 156.72 136.457 159.724 135.264C161.35 134.564 163.243 133.638 165.63 131.868C165.506 132.568 165.198 133.247 164.621 133.947C162.996 136.395 161.556 137.588 159.045 139.153C158.222 139.646 157.481 140.099 156.72 140.839C154.642 142.918 153.14 146.354 153.654 149.934C154.848 146.868 156.987 144.79 158.799 143.782C159.107 143.659 159.354 143.535 159.683 143.412C161.309 142.918 163.016 142.403 165.774 140.778C167.276 139.831 168.963 138.638 171.041 136.457C171.103 137.218 170.856 137.959 170.424 138.72C169.169 141.416 167.913 142.794 165.712 144.687C164.95 145.387 164.272 145.942 163.696 146.765C162.008 149.153 161 152.794 162.07 156.23C162.77 152.959 164.519 150.593 166.206 149.399C166.453 149.214 166.7 149.029 166.967 148.905C168.469 148.082 170.095 147.341 172.605 145.264C173.922 144.132 175.424 142.691 177.111 140.243C177.235 140.942 177.111 141.745 176.864 142.568C176.041 145.387 175.053 146.95 173.099 149.153C172.481 149.913 171.905 150.593 171.473 151.539C170.156 154.173 169.724 157.876 171.288 161.127C171.535 157.794 172.913 155.161 174.354 153.72C174.539 153.473 174.786 153.288 175.053 153.103C176.432 152.033 177.873 151.087 180.013 148.659C181.144 147.341 182.399 145.654 183.716 142.959C183.963 143.659 183.963 144.461 183.839 145.284C183.469 148.227 182.708 149.934 181.206 152.444C180.65 153.329 180.198 154.07 179.889 155.016C179.004 157.836 179.19 161.601 181.267 164.543C180.959 161.21 181.885 158.391 183.079 156.704C183.264 156.457 183.449 156.21 183.634 156.004C184.827 154.749 186.144 153.556 187.893 150.86C188.778 149.358 189.765 147.465 190.589 144.646C190.959 145.264 191.082 146.024 191.082 146.91C191.206 149.852 190.712 151.683 189.58 154.379C189.21 155.325 188.881 156.127 188.696 157.136C188.264 160.016 189.004 163.72 191.515 166.292C190.691 163.103 191.206 160.14 192.132 158.329C192.256 158.021 192.379 157.773 192.564 157.506C193.572 156.127 194.704 154.749 195.959 151.745C196.659 150.119 197.338 148.164 197.708 145.222C198.14 145.778 198.407 146.539 198.531 147.362C199.087 150.304 198.901 152.136 198.222 155.016C197.976 155.963 197.79 156.827 197.79 157.836C197.79 160.778 199.169 164.296 202.05 166.436C200.733 163.432 200.733 160.469 201.35 158.473C201.412 158.164 201.535 157.918 201.659 157.588C202.42 156.087 203.284 154.523 204.107 151.375C204.478 149.687 204.868 147.609 204.807 144.667C205.362 145.161 205.691 145.86 205.938 146.683C207.008 149.44 207.07 151.333 206.885 154.276C206.761 155.222 206.7 156.087 206.885 157.095C207.317 160.037 209.21 163.309 212.399 164.996C210.65 162.177 210.198 159.235 210.527 157.218C210.527 156.91 210.589 156.601 210.712 156.272C211.206 154.646 211.844 153 212.153 149.749C212.214 148 212.276 145.921 211.782 142.979C212.338 143.412 212.852 144.05 213.222 144.79C214.663 147.362 215.033 149.235 215.301 152.136C215.362 153.144 215.424 154.008 215.733 154.955C216.679 157.773 219.004 160.654 222.441 161.847C220.238 159.338 219.375 156.519 219.313 154.44C219.313 154.132 219.313 153.823 219.375 153.494C219.621 151.868 219.992 150.099 219.745 146.847C219.621 145.099 219.313 143.021 218.367 140.264C218.984 140.572 219.56 141.087 220.053 141.827C221.864 144.153 222.564 145.901 223.243 148.72C223.428 149.667 223.675 150.531 224.127 151.416C225.506 154.05 228.264 156.56 231.844 157.177C229.272 155.099 227.955 152.403 227.584 150.407C227.523 150.099 227.523 149.79 227.523 149.461C227.523 147.773 227.584 146.004 226.905 142.815C226.473 141.127 225.836 139.111 224.395 136.477C225.156 136.662 225.774 137.177 226.33 137.794C228.531 139.81 229.457 141.436 230.589 144.132C230.959 145.016 231.288 145.819 231.905 146.642C233.654 149.029 236.802 151.087 240.383 151.148C237.564 149.461 235.876 147.013 235.177 145.058C235.053 144.749 234.992 144.502 234.93 144.173C234.683 142.486 234.436 140.716 233.243 137.712C232.543 136.087 231.679 134.193 229.848 131.889C230.609 131.95 231.288 132.259 231.987 132.836C234.436 134.461 235.63 135.901 237.132 138.412C237.626 139.235 238.14 140.037 238.819 140.736C240.897 142.815 244.333 144.317 247.913 143.802C244.848 142.609 242.77 140.469 241.823 138.659C241.638 138.35 241.515 138.103 241.453 137.773C240.897 136.148 240.383 134.44 238.757 131.683C237.811 130.181 236.617 128.494 234.498 126.416C235.198 126.416 235.938 126.601 236.761 127.033C239.395 128.288 240.836 129.543 242.728 131.745C243.346 132.506 243.922 133.185 244.745 133.761C247.132 135.51 250.774 136.457 254.21 135.449C251.021 134.687 248.634 132.939 247.378 131.251C247.193 131.004 247.008 130.757 246.885 130.49C246.061 128.987 245.383 127.362 243.304 124.852C242.111 123.535 240.671 122.033 238.222 120.346C238.984 120.222 239.724 120.346 240.547 120.593C243.367 121.416 244.93 122.465 247.193 124.358C247.955 124.976 248.634 125.551 249.519 125.984C252.153 127.301 255.856 127.733 259.107 126.169C255.774 125.921 253.201 124.543 251.7 123.103C251.453 122.918 251.267 122.671 251.082 122.403C250.074 121.024 249.066 119.584 246.7 117.444C245.321 116.313 243.634 115.058 241 113.741C241.7 113.494 242.441 113.494 243.325 113.617C246.206 113.987 247.976 114.749 250.404 116.313C251.288 116.807 252.029 117.259 252.976 117.568C255.794 118.453 259.56 118.267 262.502 116.19C259.169 116.498 256.412 115.572 254.724 114.379C254.478 114.193 254.23 114.008 253.963 113.823C252.77 112.63 251.576 111.313 248.819 109.564C247.317 108.679 245.486 107.691 242.605 106.868C243.222 106.498 244.045 106.375 244.868 106.375C247.873 106.251 249.704 106.745 252.338 107.876C253.284 108.247 254.087 108.576 255.095 108.761C257.976 109.193 261.679 108.453 264.251 105.942C261.061 106.765 258.161 106.251 256.288 105.325C256.041 105.201 255.733 105.079 255.465 104.893C254.087 103.884 252.708 102.815 249.765 101.498C248.14 100.881 246.124 100.181 243.181 99.7489C243.737 99.317 244.498 99.0496 245.383 98.9259C248.264 98.3704 250.156 98.5556 252.976 99.2348C253.922 99.4815 254.786 99.6667 255.794 99.6667C258.737 99.6667 262.256 98.2882 264.457 95.4689C261.391 96.7244 258.428 96.7244 256.494 96.0867C256.185 96.0244 255.876 95.9015 255.609 95.7778C254.045 95.0163 252.543 94.1526 249.395 93.3289C247.646 92.9585 245.63 92.5681 242.626 92.6296C243.119 92.0741 243.819 91.7452 244.642 91.4978C247.461 90.4282 249.354 90.3659 252.235 90.5511C253.243 90.6748 254.107 90.7363 255.116 90.5511C257.996 90.1193 261.267 88.2267 262.955 85.037C260.136 86.7859 257.256 87.2385 255.177 86.9711C254.868 86.9096 254.56 86.8474 254.23 86.7244C252.605 86.2304 250.959 85.5926 247.77 85.2837C246.021 85.2222 243.881 85.1607 241 85.7163C241.37 85.0985 242.008 84.5844 242.811 84.2141C245.383 82.7733 247.193 82.403 250.095 82.1356C251.103 82.0741 251.967 82.0126 252.913 81.7037C255.733 80.757 258.675 78.4319 259.807 74.9956C257.358 77.1978 254.539 78.0615 252.461 78.1237C252.153 78.1237 251.844 78.1237 251.515 78.0615C249.827 77.8148 248.058 77.4444 244.868 77.6911C243.119 77.8148 241.041 78.1237 238.222 79.1319C238.531 78.4319 239.107 77.8763 239.786 77.383C242.111 75.5719 243.86 74.8726 246.679 74.1933C247.687 74.0081 248.49 73.7615 249.436 73.3089C252.008 71.9304 254.58 69.1726 255.198 65.5926C253.058 68.1644 250.424 69.4815 248.367 69.8519C248.058 69.9133 247.749 69.9133 247.42 69.9133C245.733 69.9133 243.963 69.8518 240.836 70.5311C239.087 70.963 237.07 71.6007 234.498 73.0415C234.683 72.28 235.116 71.6622 235.753 71.1067C237.77 68.9052 239.395 67.9793 242.09 66.8474C243.037 66.477 243.839 66.1481 244.663 65.5311C246.987 63.7822 249.045 60.6338 249.107 57.0535C247.42 59.8724 245.033 61.5597 243.079 62.2593C242.77 62.3827 242.461 62.4444 242.132 62.5062C240.444 62.8148 238.675 63 235.671 64.1933C234.107 64.8933 232.214 65.757 229.848 67.5881C229.91 66.8889 230.28 66.1481 230.794 65.4489C232.42 63 233.922 61.8066 236.37 60.3045C237.256 59.8107 237.996 59.2963 238.696 58.6173C240.774 56.5391 242.338 53.1029 241.823 49.5227C240.568 52.5885 238.428 54.6667 236.617 55.6749C236.37 55.7984 236.061 55.9219 235.794 55.9836C234.169 56.5391 232.461 57.0535 229.642 58.679C228.14 59.6256 226.453 60.819 224.375 62.9385C224.375 62.2387 224.621 61.4979 224.992 60.7367C226.247 58.0412 227.502 56.6626 229.704 54.7079C230.465 54.0905 231.144 53.5144 231.782 52.6913C233.469 50.3045 234.478 46.6626 233.407 43.2264C232.646 46.4156 230.897 48.8025 229.272 50.0576C229.024 50.2428 228.778 50.428 228.449 50.5515C226.947 51.3745 225.321 52.0535 222.873 54.1317C221.494 55.3251 219.992 56.7655 218.367 59.214C218.181 58.5144 218.304 57.7119 218.613 56.8889C219.436 54.07 220.424 52.5062 222.317 50.2428C222.934 49.4815 223.572 48.8642 224.004 47.9177C225.321 45.2839 225.691 41.5802 224.127 38.3293C223.942 41.6626 222.564 44.2346 221.124 45.7367C220.876 45.9836 220.691 46.1687 220.424 46.3539C219.045 47.3621 217.543 48.3704 215.404 50.819Z" fill="#FFFF00"/>
</svg>
