<svg width="400" height="200" viewBox="0 0 400 200" fill="none" xmlns="http://www.w3.org/2000/svg">
<rect width="400" height="200" fill="#E5E5E5"/>
<path d="M400 0.199463H0V200.199H400V0.199463Z" fill="#00843D"/>
<path d="M148.933 22.3662C157.8 26.1662 164 34.9995 164 45.2329C164 58.9662 152.866 70.1328 139.1 70.1328C132.933 70.1328 127.333 67.8995 122.966 64.1995C125.666 65.3662 128.6 66.0329 131.7 66.1995C145.433 66.7995 157.033 56.1662 157.633 42.4329C158.033 34.4329 154.566 27.1995 148.933 22.3662Z" fill="white"/>
<path d="M125.2 40.6667L128.033 32L120.667 37.3667H129.8L122.433 32L125.2 40.6667Z" fill="white"/>
<path d="M125.2 27.8672L128.033 19.2005L120.667 24.5672H129.8L122.4 19.2005L125.2 27.8672Z" fill="white"/>
<path d="M137.867 34.4338L140.7 25.7671L133.333 31.1338H142.467L135.1 25.7671L137.867 34.4338Z" fill="white"/>
<path d="M112.567 46.9L115.4 38.2333L108 43.6H117.134L109.767 38.2333L112.567 46.9Z" fill="white"/>
<path d="M125.2 53.4661L128.033 44.7995L120.667 50.1661H129.8L122.433 44.7995L125.2 53.4661Z" fill="white"/>
<path d="M89.9991 0.199463H35.9994V200.199H89.9991V0.199463Z" fill="#D22630"/>
<path d="M35.9994 -13V-11.0333L39.0327 -8.2L37.9994 -7.23333L40.1661 -5.23333L39.1994 -4.36666V-5.63333H37.3327V-4.13333L41.5327 -0.199994H43.6661L43.8994 -1.56666H42.6661L43.9994 -2.79999L47.3327 0.200006L43.9994 3.23334L42.6661 2.00001H43.8994L43.6661 0.600007H41.5327L37.3661 4.53334V6.03334H39.2327V4.76667L40.1994 5.63334L38.0327 7.63333L39.0661 8.6L36.0327 11.4333V13.4L41.1661 8.6L40.1327 7.63333L42.2994 5.63334L40.4327 3.90001L41.6661 2.76667L44.0327 4.96668L49.1994 0.200006L43.9994 -4.56666L41.6327 -2.36666L40.3994 -3.49999L42.2661 -5.23333L40.0994 -7.23333L41.1327 -8.2L35.9994 -13ZM35.9994 -3.49999V3.86668L37.1994 2.63334V1.23334H38.4661L39.4994 0.200006L38.4661 -0.833326H37.1994V-2.26666L35.9994 -3.49999ZM44.7661 -0.866659L44.5994 0.13334L44.7661 1.16667L45.8661 0.13334L44.7661 -0.866659Z" fill="#383739"/>
<path d="M35.9994 -12.8006V-11.2339L39.2327 -8.20061L38.1994 -7.23395L40.3661 -5.23396L39.0661 -4.00063V-5.46729H37.4994V-4.16729L41.5994 -0.333964H43.4994L43.6994 -1.43397H42.3327L44.0327 -3.03396L47.5327 0.199369L43.9994 3.4327L42.3327 1.86604H43.7327L43.5327 0.766036H41.6327L37.5327 4.59936V5.89937H39.0994V4.43271L40.3994 5.66604L38.2327 7.66605L39.2661 8.63272L36.0327 11.6661V13.1994L40.9661 8.63272L39.9327 7.66605L42.0994 5.66604L40.2327 3.93271L41.6661 2.59937L44.0327 4.79937L48.9661 0.199369L43.9994 -4.36729L41.6327 -2.16729L40.1994 -3.50063L42.0661 -5.23396L39.8994 -7.23395L40.9327 -8.20061L35.9994 -12.8006ZM35.9994 -3.26729V3.69937L37.0661 2.6327V1.06603H38.4327L39.2994 0.199369L38.4327 -0.667294H37.0661V-2.20063C37.0661 -2.23396 35.9994 -3.26729 35.9994 -3.26729ZM44.8661 -0.600634L44.7327 0.132703L44.8661 0.866035L45.6327 0.132703L44.8661 -0.600634Z" fill="#FFC72C"/>
<path d="M35.9994 23.3989V25.3656L39.0327 28.1989L37.9994 29.1656L40.1661 31.1656L39.1994 32.0323V30.7656H37.3327V32.2656L41.5327 36.1989H43.6661L43.8994 34.8323H42.6661L43.9994 33.5989L47.3327 36.6323L43.9994 39.6656L42.6661 38.4323H43.8994L43.6661 37.0323H41.5327L37.3327 40.9656V42.4656H39.1994V41.1989L40.1661 42.0656L37.9994 44.0656L39.0327 45.0323L35.9994 47.8656V49.8323L41.1327 45.0323L40.0994 44.0656L42.2661 42.0656L40.3994 40.3323L41.6327 39.1989L43.9994 41.3989L49.1994 36.6323L43.9994 31.8323L41.6327 34.0323L40.3994 32.8989L42.2661 31.1656L40.0994 29.1656L41.1327 28.1989L35.9994 23.3989ZM35.9994 32.8989V40.2656L37.1994 39.0323V37.5989H38.4661L39.4994 36.5656L38.4661 35.5323H37.1994V34.0989L35.9994 32.8989ZM44.7661 35.5323L44.5994 36.5323L44.7661 37.5656L45.8661 36.5323L44.7661 35.5323Z" fill="#383739"/>
<path d="M35.9994 23.6016V25.1683L39.2327 28.2016L38.1994 29.1683L40.3661 31.1683L39.0661 32.4016V30.935H37.4994V32.235L41.5994 36.0683H43.4994L43.6994 34.9683H42.3327L44.0327 33.3683L47.5661 36.6016L44.0327 39.835L42.3327 38.2683H43.7327L43.5327 37.1683H41.6327L37.5327 41.0016V42.3016H39.0994V40.835L40.3994 42.0683L38.2327 44.0683L39.2661 45.035L36.0327 48.0683V49.635L40.9661 45.0683L39.9327 44.1016L42.0994 42.1016L40.2327 40.3683L41.6661 39.035L44.0327 41.235L48.9994 36.6683L43.9994 32.035L41.6327 34.235L40.1994 32.9016L42.0661 31.1683L39.8994 29.1683L40.9327 28.2016L35.9994 23.6016ZM35.9994 33.135V40.1016L37.0661 39.035V37.5016H38.4327L39.2994 36.635L38.4327 35.7683H37.0661V34.2016L35.9994 33.135ZM44.8661 35.8016L44.7327 36.535L44.8661 37.2683L45.6327 36.535L44.8661 35.8016Z" fill="#FFC72C"/>
<path d="M35.9994 60.9986V62.9653L39.0327 65.7986L37.9994 66.7653L40.1661 68.7655L39.1994 69.6321V68.3655H37.3327V69.8655L41.5327 73.7988H43.6661L43.8994 72.4321H42.6661L43.9994 71.1988L47.3327 74.2321L43.9994 77.2655L42.6661 76.0321H43.8994L43.6661 74.6321H41.5327L37.3661 78.5321V80.0321H39.2327V78.7655L40.1994 79.6321L38.0327 81.6321L39.0661 82.5988L36.0327 85.4321V87.3988L41.1661 82.5988L40.1327 81.6321L42.2994 79.6321L40.4327 77.8988L41.6661 76.7655L44.0327 78.9655L49.2327 74.1988L43.9994 69.4321L41.6327 71.6321L40.3994 70.4988L42.2661 68.7655L40.0994 66.7653L41.1327 65.7986L35.9994 60.9986ZM35.9994 70.4988V77.8655L37.1994 76.6321V75.1988H38.4661L39.4994 74.1655L38.4661 73.1321H37.1994V71.6988L35.9994 70.4988ZM44.7661 73.1321L44.5994 74.1321L44.7661 75.1655L45.8661 74.1321L44.7661 73.1321Z" fill="#383739"/>
<path d="M35.9994 61.1984V62.7651L39.2327 65.7984L38.1994 66.7651L40.3661 68.7648L39.0661 69.9981V68.5315H37.4994V69.8315L41.5994 73.6648H43.4994L43.6994 72.5648H42.3327L44.0327 70.9648L47.5661 74.1981L44.0327 77.4315L42.3327 75.8648H43.7327L43.5327 74.7648H41.6327L37.5327 78.5981V79.8981H39.0994V78.4315L40.3994 79.6648L38.2327 81.6648L39.2661 82.6315L36.0327 85.6648V87.2315L40.9661 82.6648L39.9327 81.6981L42.0994 79.6981L40.2327 77.9648L41.6661 76.6315L44.0327 78.8315L48.9994 74.2648L43.9994 69.6315L41.6327 71.8315L40.1994 70.4981L42.0661 68.7648L39.8994 66.7651L40.9327 65.7984L35.9994 61.1984ZM35.9994 70.7315V77.6981L37.0661 76.6315V75.0981H38.4327L39.2994 74.2315L38.4327 73.3648H37.0661V71.8315C37.0661 71.7648 35.9994 70.7315 35.9994 70.7315ZM44.8661 73.3981L44.7327 74.1315L44.8661 74.8648L45.6327 74.1315L44.8661 73.3981Z" fill="#FFC72C"/>
<path d="M35.9994 98.6015V100.568L39.0327 103.401L37.9994 104.368L40.1661 106.368L39.1994 107.235V105.968H37.3327V107.468L41.5327 111.401H43.6661L43.8994 110.035H42.6661L43.9994 108.801L47.3327 111.835L43.9994 114.868L42.6661 113.635H43.8994L43.6661 112.201H41.5327L37.3327 116.135V117.635H39.1994V116.368L40.1661 117.235L37.9994 119.235L39.0327 120.201L35.9994 123.035V125.001L41.1327 120.201L40.0994 119.235L42.2661 117.235L40.3994 115.501L41.6327 114.368L43.9994 116.568L49.1994 111.801L43.9994 107.035L41.6327 109.235L40.3994 108.101L42.2661 106.368L40.0994 104.368L41.1327 103.401L35.9994 98.6015ZM35.9994 108.101V115.468L37.1994 114.235V112.801H38.4661L39.4994 111.768L38.4661 110.735H37.1994V109.301L35.9994 108.101ZM44.7661 110.735L44.5994 111.735L44.7661 112.768L45.8661 111.735L44.7661 110.735Z" fill="#383739"/>
<path d="M35.9994 98.7981V100.365L39.2327 103.398L38.1994 104.365L40.3661 106.365L39.0661 107.598V106.131H37.4994V107.431L41.5994 111.265H43.4994L43.6994 110.165H42.3327L44.0327 108.565L47.5661 111.798L44.0327 115.031L42.3327 113.465H43.7327L43.5327 112.365H41.6327L37.5327 116.198V117.498H39.0994V116.031L40.3994 117.265L38.2327 119.265L39.2661 120.231L36.0327 123.265V124.831L40.9661 120.265L39.9327 119.298L42.0994 117.298L40.2327 115.565L41.6661 114.231L44.0327 116.431L48.9994 111.865L43.9994 107.231L41.6327 109.431L40.1994 108.098L42.0661 106.365L39.8994 104.365L40.9327 103.398L35.9994 98.7981ZM35.9994 108.331V115.298L37.0661 114.231V112.698H38.4327L39.2994 111.831L38.4327 110.965H37.0661V109.431C37.0661 109.365 35.9994 108.331 35.9994 108.331ZM44.8661 110.998L44.7327 111.731L44.8661 112.465L45.6327 111.731L44.8661 110.998Z" fill="#FFC72C"/>
<path d="M35.9994 136.198V138.165L39.0327 140.998L37.9994 141.965L40.1661 143.965L39.1994 144.831V143.565H37.3327V145.065L41.5327 148.998H43.6661L43.8994 147.631H42.6661L43.9994 146.398L47.3327 149.431L43.9994 152.465L42.6661 151.231H43.8994L43.6661 149.831H41.5327L37.3327 153.765V155.265H39.1994V153.998L40.1661 154.865L37.9994 156.865L39.0327 157.831L35.9994 160.665V162.631L41.1327 157.831L40.0994 156.865L42.2661 154.865L40.3994 153.131L41.6327 151.998L43.9994 154.198L49.1994 149.431L43.9994 144.631L41.6327 146.831L40.3994 145.698L42.2661 143.965L40.0994 141.965L41.1327 140.998L35.9994 136.198ZM35.9994 145.698V153.065L37.1994 151.831V150.398H38.4661L39.4994 149.365L38.4661 148.331H37.1994V146.898L35.9994 145.698ZM44.7661 148.331L44.5994 149.331L44.7661 150.365L45.8661 149.331L44.7661 148.331Z" fill="#383739"/>
<path d="M35.9994 136.401V137.967L39.2327 141.001L38.1994 141.967L40.3661 143.968L39.0661 145.201V143.734H37.4994V145.034L41.5994 148.867H43.4994L43.6994 147.767H42.3327L44.0327 146.168L47.5661 149.401L44.0327 152.634L42.3327 151.067H43.7327L43.5327 149.967H41.6327L37.5327 153.801V155.101H39.0994V153.634L40.3994 154.867L38.2327 156.867L39.2661 157.834L36.0327 160.867V162.434L40.9661 157.867L39.9327 156.901L42.0994 154.901L40.2327 153.167L41.6661 151.834L44.0327 154.034L48.9994 149.467L43.9994 144.834L41.6327 147.034L40.1994 145.701L42.0661 143.968L39.8994 141.967L40.9327 141.001L35.9994 136.401ZM35.9994 145.934V152.867L37.0661 151.801V150.267H38.4327L39.2994 149.401L38.4327 148.534H37.0661V147.001C37.0661 146.968 35.9994 145.934 35.9994 145.934ZM44.8661 148.601L44.7327 149.334L44.8661 150.067L45.6327 149.334L44.8661 148.601Z" fill="#FFC72C"/>
<path d="M89.9993 -13V-11.0333L86.966 -8.2L87.9993 -7.23333L85.8327 -5.23333L86.7993 -4.36666V-5.63333H88.666V-4.13333L84.4327 -0.199994H82.3326L82.0993 -1.56666H83.3327L81.9993 -2.79999L78.666 0.200006L81.9993 3.23334L83.3327 2.00001H82.0993L82.3326 0.600007H84.466L88.6327 4.53334V6.03334H86.766V4.76667L85.7993 5.63334L87.966 7.63333L86.9327 8.6L89.966 11.4333V13.4L84.8327 8.6L85.866 7.63333L83.6993 5.63334L85.566 3.90001L84.3327 2.76667L81.966 4.96668L76.7993 0.200006L81.9993 -4.56666L84.366 -2.36666L85.5993 -3.49999L83.7327 -5.23333L85.8993 -7.23333L84.866 -8.2L89.9993 -13ZM89.9993 -3.49999V3.86668L88.7993 2.63334V1.23334H87.5327L86.4993 0.200006L87.5327 -0.833326H88.7993V-2.26666L89.9993 -3.49999ZM81.2327 -0.866659L81.3993 0.13334L81.2327 1.16667L80.1327 0.13334L81.2327 -0.866659Z" fill="#383739"/>
<path d="M90.0011 -12.8006V-11.2339L86.7678 -8.20061L87.8011 -7.23395L85.6344 -5.23396L86.9344 -4.00063V-5.46729H88.5011V-4.16729L84.3678 -0.333964H82.4678L82.2678 -1.43397H83.6678L82.0011 -3.03396L78.4678 0.199369L82.0011 3.4327L83.6678 1.86604H82.2678L82.4678 0.766036H84.3678L88.4678 4.59936V5.89937H86.9011V4.43271L85.6011 5.66604L87.7678 7.66605L86.7344 8.63272L89.9678 11.6661V13.1994L85.0344 8.63272L86.0678 7.66605L83.9011 5.66604L85.7678 3.93271L84.3344 2.59937L81.9678 4.79937L77.0344 0.199369L82.0011 -4.36729L84.3678 -2.16729L85.8011 -3.50063L83.9344 -5.23396L86.1011 -7.23395L85.0678 -8.20061L90.0011 -12.8006ZM90.0011 -3.26729V3.69937L88.9344 2.6327V1.06603H87.5678L86.7011 0.199369L87.5678 -0.667294H88.9344V-2.20063C88.9344 -2.23396 90.0011 -3.26729 90.0011 -3.26729ZM81.1344 -0.600634L81.2678 0.132703L81.1344 0.866035L80.3678 0.132703L81.1344 -0.600634Z" fill="#FFC72C"/>
<path d="M89.9993 23.3989V25.3656L86.966 28.1989L87.9993 29.1656L85.8327 31.1656L86.7993 32.0323V30.7656H88.666V32.2656L84.4327 36.1989H82.3326L82.0993 34.8323H83.3327L81.9993 33.5989L78.666 36.6323L81.9993 39.6656L83.3327 38.4323H82.0993L82.3326 37.0323H84.466L88.666 40.9656V42.4656H86.7993V41.1989L85.8327 42.0656L87.9993 44.0656L86.966 45.0323L89.9993 47.8656V49.8323L84.866 45.0323L85.8993 44.0656L83.7327 42.0656L85.5993 40.3323L84.366 39.1989L81.9993 41.3989L76.7993 36.6323L81.9993 31.8323L84.366 34.0323L85.5993 32.8989L83.7327 31.1656L85.8993 29.1656L84.866 28.1989L89.9993 23.3989ZM89.9993 32.8989V40.2656L88.7993 39.0323V37.5989H87.5327L86.4993 36.5656L87.5327 35.5323H88.7993V34.0989L89.9993 32.8989ZM81.2327 35.5323L81.3993 36.5323L81.2327 37.5656L80.1327 36.5323L81.2327 35.5323Z" fill="#383739"/>
<path d="M90.0011 23.6016V25.1683L86.7678 28.2016L87.8011 29.1683L85.6344 31.1683L86.9344 32.4016V30.935H88.5011V32.235L84.4011 36.0683H82.5011L82.3011 34.9683H83.7011L82.0011 33.3683L78.4678 36.6016L82.0011 39.835L83.7011 38.2683H82.3011L82.5011 37.1683H84.4011L88.5011 41.0016V42.3016H86.9344V40.835L85.6344 42.0683L87.8011 44.0683L86.7678 45.035L90.0011 48.0683V49.635L85.0678 45.0683L86.1011 44.1016L83.9344 42.1016L85.8011 40.3683L84.3678 39.035L82.0011 41.235L77.0344 36.6683L82.0011 32.035L84.3678 34.235L85.8011 32.9016L83.9344 31.1683L86.1011 29.1683L85.0678 28.2016L90.0011 23.6016ZM90.0011 33.135V40.1016L88.9344 39.035V37.5016H87.5678L86.7011 36.635L87.5678 35.7683H88.9344V34.2016L90.0011 33.135ZM81.1344 35.8016L81.2678 36.535L81.1344 37.2683L80.3678 36.535L81.1344 35.8016Z" fill="#FFC72C"/>
<path d="M89.9993 60.9986V62.9653L86.966 65.7986L87.9993 66.7653L85.8327 68.7655L86.7993 69.6321V68.3655H88.666V69.8655L84.466 73.7988H82.3326L82.0993 72.4321H83.3327L81.9993 71.1988L78.666 74.2321L81.9993 77.2655L83.3327 76.0321H82.0993L82.3326 74.6321H84.466L88.666 78.5655V80.0655H86.7993V78.7988L85.8327 79.6655L87.9993 81.6655L86.966 82.6321L89.9993 85.4655V87.4321L84.866 82.6321L85.8993 81.6655L83.7327 79.6655L85.5993 77.9321L84.366 76.7988L81.9993 78.9988L76.7993 74.1988L81.9993 69.4321L84.366 71.6321L85.5993 70.4988L83.7327 68.7655L85.8993 66.7653L84.866 65.7986L89.9993 60.9986ZM89.9993 70.4988V77.8655L88.7993 76.6321V75.1988H87.5327L86.4993 74.1655L87.5327 73.1321H88.7993V71.6988L89.9993 70.4988ZM81.2327 73.1321L81.3993 74.1321L81.2327 75.1655L80.1327 74.1321L81.2327 73.1321Z" fill="#383739"/>
<path d="M90.0011 61.1984V62.7651L86.7678 65.7984L87.8011 66.7651L85.6344 68.7648L86.9344 69.9981V68.5315H88.5011V69.8315L84.4011 73.6648H82.5011L82.3011 72.5648H83.7011L82.0011 70.9648L78.4678 74.1981L82.0011 77.4315L83.7011 75.8648H82.3011L82.5011 74.7648H84.4011L88.5011 78.5981V79.8981H86.9344V78.4315L85.6344 79.6648L87.8011 81.6648L86.7678 82.6315L90.0011 85.6648V87.2315L85.0678 82.6648L86.1011 81.6981L83.9344 79.6981L85.8011 77.9648L84.3678 76.6315L82.0011 78.8315L77.0344 74.1981L82.0011 69.6315L84.3678 71.8315L85.8011 70.4981L83.9344 68.7648L86.1011 66.7651L85.0678 65.7984L90.0011 61.1984ZM90.0011 70.7315V77.6981L88.9344 76.6315V75.0981H87.5678L86.7011 74.2315L87.5678 73.3648H88.9344V71.8315C88.9344 71.7648 90.0011 70.7315 90.0011 70.7315ZM81.1344 73.3981L81.2678 74.1315L81.1344 74.8648L80.3678 74.1315L81.1344 73.3981Z" fill="#FFC72C"/>
<path d="M89.9993 98.6015V100.568L86.966 103.401L87.9993 104.368L85.8327 106.368L86.7993 107.235V105.968H88.666V107.468L84.466 111.401H82.3326L82.0993 110.035H83.3327L81.9993 108.801L78.666 111.835L81.9993 114.868L83.3327 113.635H82.0993L82.3326 112.235H84.466L88.666 116.168V117.668H86.7993V116.401L85.8327 117.268L87.9993 119.268L86.966 120.235L89.9993 123.068V125.035L84.866 120.235L85.8993 119.268L83.7327 117.268L85.5993 115.535L84.366 114.401L81.9993 116.601L76.7993 111.835L81.9993 107.068L84.366 109.268L85.5993 108.135L83.7327 106.401L85.8993 104.401L84.866 103.435L89.9993 98.6015ZM89.9993 108.101V115.468L88.7993 114.235V112.801H87.5327L86.4993 111.768L87.5327 110.735H88.7993V109.301L89.9993 108.101ZM81.2327 110.735L81.3993 111.735L81.2327 112.768L80.1327 111.735L81.2327 110.735Z" fill="#383739"/>
<path d="M90.0011 98.7981V100.365L86.7678 103.398L87.8011 104.365L85.6344 106.365L86.9344 107.598V106.131H88.5011V107.431L84.4011 111.265H82.5011L82.3011 110.165H83.7011L82.0011 108.565L78.4678 111.798L82.0011 115.031L83.7011 113.465H82.3011L82.5011 112.365H84.4011L88.5011 116.198V117.498H86.9344V116.031L85.6344 117.265L87.8011 119.265L86.7678 120.231L90.0011 123.265V124.831L85.0678 120.265L86.1011 119.298L83.9344 117.298L85.8011 115.565L84.3678 114.231L82.0011 116.431L77.0344 111.865L82.0011 107.298L84.3678 109.498L85.8011 108.165L83.9344 106.431L86.1011 104.431L85.0678 103.465L90.0011 98.7981ZM90.0011 108.331V115.298L88.9344 114.231V112.698H87.5678L86.7011 111.831L87.5678 110.965H88.9344V109.431C88.9344 109.365 90.0011 108.331 90.0011 108.331ZM81.1344 110.998L81.2678 111.731L81.1344 112.465L80.3678 111.731L81.1344 110.998Z" fill="#FFC72C"/>
<path d="M89.9993 136.198V138.165L86.966 140.998L87.9993 141.965L85.8327 143.965L86.7993 144.831V143.565H88.666V145.065L84.466 148.998H82.3326L82.0993 147.631H83.3327L81.9993 146.398L78.666 149.431L81.9993 152.465L83.3327 151.231H82.0993L82.3326 149.831H84.466L88.666 153.765V155.265H86.7993V153.998L85.8327 154.865L87.9993 156.865L86.966 157.831L89.9993 160.665V162.631L84.866 157.831L85.8993 156.865L83.7327 154.865L85.5993 153.131L84.366 151.998L81.9993 154.198L76.7993 149.431L81.9993 144.665L84.366 146.865L85.5993 145.731L83.7327 143.998L85.8993 141.998L84.866 141.031L89.9993 136.198ZM89.9993 145.698V153.065L88.7993 151.831V150.398H87.5327L86.4993 149.365L87.5327 148.331H88.7993V146.898L89.9993 145.698ZM81.2327 148.331L81.3993 149.331L81.2327 150.365L80.1327 149.331L81.2327 148.331Z" fill="#383739"/>
<path d="M89.9995 136.401V137.967L86.7662 141.001L87.7995 141.967L85.6328 143.968L86.9328 145.201V143.734H88.4995V145.034L84.3662 148.867H82.4662L82.2662 147.767H83.6662L81.9662 146.168L78.4328 149.401L81.9662 152.634L83.6662 151.067H82.2662L82.4662 149.967H84.3662L88.4662 153.801V155.101H86.8995V153.634L85.5995 154.867L87.7662 156.867L86.7328 157.834L89.9662 160.867V162.434L85.0328 157.867L86.0662 156.901L83.8995 154.901L85.7662 153.167L84.3328 151.834L81.9662 154.034L76.9995 149.467L81.9662 144.901L84.3328 147.101L85.7662 145.767L83.8995 144.034L86.0662 142.034L85.0328 141.067L89.9995 136.401ZM89.9995 145.934V152.867L88.9328 151.801V150.267H87.5662L86.6995 149.401L87.5662 148.534H88.9328V147.001C88.9328 146.968 89.9995 145.934 89.9995 145.934ZM81.1328 148.601L81.2662 149.334L81.1328 150.067L80.3662 149.334L81.1328 148.601Z" fill="#FFC72C"/>
<path d="M40.3666 177.133C40.6333 178.267 41.5333 179.133 41.7666 180.3C42.2 179.067 42.6 178.033 42.3 176.7C42.1 175.733 41.2666 175.067 41.2 174.067C40.3 174.867 40.1 176 40.3666 177.133ZM40.1666 181.9C40.9 182.933 41.9666 183.7 43.1 184.233C42.8666 183.333 43.3 182.667 43.7666 181.933C44.3333 181.067 44.6 180.233 44.1333 179.233C43.9333 179.733 43.6333 180.167 43.3 180.6C42.8 181.3 42.4666 181.9 42.4 182.767C41.8333 182.333 41.5666 181.7 41.2666 181.067C40.8 180.167 40.0333 179.433 39.1666 178.933C39.3666 180 39.5333 181.067 40.1666 181.9ZM44.3333 184.967C44.1666 185.533 44.0333 186.1 44.0666 186.7C43.5666 186.167 42.9333 185.767 42.3333 185.333C41.5333 184.7 40.6 184.233 39.9666 183.4C40.0666 184.6 40.5666 185.6 41.5666 186.333C42.6 187.1 43.8666 187.533 44.8666 188.333C44.7 187.233 45.1333 186.367 45.4666 185.333C45.7666 184.367 45.4666 183.4 44.8333 182.667C44.8333 183.5 44.5666 184.2 44.3333 184.967ZM46.6666 188.667C46.8666 189.5 47.4666 190.167 47.9 190.933C46.8 190.6 45.8333 190 44.8333 189.433C43.6333 188.8 42.3666 188.367 41.3 187.533C41.8333 189.5 43.1666 190.667 45.1 191.233C46.4333 191.633 47.5333 191.433 49.1333 192.067C48.9333 190.967 48.6333 189.8 48.1 188.833C47.7 188.133 47.2666 187.433 47 186.633C46.6666 187.3 46.5 187.933 46.6666 188.667ZM50.7333 191.7C51.1 192.333 51.6 192.9 52.2333 193.333C50.6666 193.433 49.4 192.433 47.9 192.4C46.9666 192.367 46.0666 192.667 45.1 192.567C46.2333 193.333 47.4333 194 48.8 194.2C50.6 194.433 52.2666 193.967 54.2333 194.167C53.3 193.5 52.8333 192.633 52.2666 191.7C51.5 190.533 50.8 189.7 49.3333 189.5C49.9333 190.1 50.2666 190.933 50.7333 191.7ZM56.2666 194.267C53.5 194.733 50.8666 195.333 48.0666 195.367C51.2 196.467 54.1666 196.667 57.3 195.533C59 194.933 60.2666 194.6 61.5333 194.7C63.4 194.833 65.6666 195.567 68.1668 198.2L69.1334 197.4C65.5666 194.233 60.8666 193.5 56.2666 194.267Z" fill="#FFC72C"/>
<path d="M42.7675 23.6307L38.4342 20.964V14.5974L42.7675 11.9307V8.5974L46.8675 6.1307H50.1342L56.3342 2.6307H69.6678L75.8678 6.1307H79.1345L83.2345 8.5974V11.964L87.5678 14.6307V20.9973L83.2345 23.6641V27.0307L79.1345 29.4973H75.8678L69.6678 32.964H56.3342L50.1342 29.464H46.8675L42.7675 26.9973V23.6307Z" fill="#383739"/>
<path d="M56.3669 2.76823L50.1669 6.26823H46.9336L42.9336 8.66826V12.0349L38.6002 14.6683V20.8683L42.9336 23.5016V26.9016L46.9002 29.3016H50.1669L56.3669 32.8016H69.6334L75.8334 29.3016H79.1001L83.1001 26.9016V23.5683L87.4334 20.9349V14.7016L83.1001 12.0682V8.66826L79.1001 6.26823H75.8334L69.6334 2.76823H56.3669ZM56.7336 4.06823H69.3001L75.5001 7.56826H78.7334L81.7668 9.4016V12.7683L86.1001 15.4016V20.2016L81.7668 22.8349V26.2016L78.7334 28.0349H75.5001L69.2668 31.5349H56.7002L50.5002 28.0349H47.2669L44.2336 26.2016V22.8683L39.9002 20.2349V15.4016L44.2336 12.7683V9.36826L47.2669 7.53493H50.5002L56.7336 4.06823Z" fill="#00843D"/>
<path d="M62.9326 17.8672V4.20052H56.7659L50.5659 7.70053H47.3326L44.3993 9.4672V12.8339L40.0659 15.5005V17.7339H63.0993V31.4005H69.2661L75.4661 27.9005H78.6994L81.6328 26.1339V22.7672L85.9661 20.1005V17.8672H62.9326Z" fill="#FFC72C"/>
<path d="M40.0333 17.8672V20.1005L44.3667 22.7672V26.1339L47.3 27.9005H50.5333L56.7333 31.4005H62.9V17.7339H85.9334V15.5005L81.6001 12.8339V9.4672L78.6667 7.70053H75.4334L69.2334 4.20052H63.0667V17.8672H40.0333Z" fill="white"/>
<path d="M49.4678 8.96518L48.4011 7.96518L47.3344 8.63184L48.4011 9.63184L47.0344 10.4652H50.0344L52.6011 12.8985L53.4344 12.0318L50.9344 9.66518V8.06518L49.4678 8.96518Z" fill="#383739"/>
<path d="M54.5329 8.53386L53.4663 7.53386L52.3996 8.20053L53.4663 9.20053L52.0996 10.0339H55.0996L57.6663 12.4672L58.4996 11.6005L55.9996 9.23386V7.63386L54.5329 8.53386Z" fill="#383739"/>
<path d="M49.1 11.7984L48.0333 10.7984L46.9666 11.4651L48.0333 12.4651L46.6666 13.2984H49.6666L52.2333 15.7317L53.0666 14.8651L50.5666 12.4984V10.8984L49.1 11.7984Z" fill="#383739"/>
<path d="M63.0007 4.06665H60.3007L58.9007 5.43332H56.134L54.1007 6.49998L54.5674 7.66666L56.3674 6.69998H57.1674L59.934 9.9L62.9674 8.06666L63.0007 4.06665Z" fill="#383739"/>
<path d="M48.3993 8.13281L49.3659 9.03281L48.5659 9.53281L47.5993 8.63281L48.3993 8.13281ZM50.7993 8.29948V9.69948L53.2326 11.9995L52.5993 12.6661L50.0993 10.2995H47.5659L50.7993 8.29948Z" fill="#D22630"/>
<path d="M53.4342 7.69946L54.4008 8.59946L53.6008 9.09946L52.6342 8.19946L53.4342 7.69946ZM55.8342 7.86613V9.26613L58.2675 11.5661L57.6342 12.2328L55.1342 9.86613H52.6008L55.8342 7.86613Z" fill="#D22630"/>
<path d="M48.0339 10.999L49.0006 11.899L48.2006 12.399L47.2339 11.499L48.0339 10.999ZM50.4339 11.1657V12.5657L52.8672 14.8657L52.2339 15.5324L49.7339 13.1657H47.2006L50.4339 11.1657Z" fill="#D22630"/>
<path d="M62.9334 4.20052H60.3667L58.9667 5.56719H56.2L54.3 6.53386L54.6667 7.43386L56.3667 6.53386H57.2667L60.0001 9.70053L62.9334 7.90053V4.20052Z" fill="#D22630"/>
<path d="M49.4678 26.6328L48.4011 27.6328L47.3344 26.9661L48.4011 25.9661L47.0344 25.1328H50.0344L52.6011 22.6995L53.4344 23.5661L50.9344 25.9328V27.5328L49.4678 26.6328Z" fill="#383739"/>
<path d="M54.5329 27.0979L53.4663 28.0979L52.3996 27.4312L53.4663 26.4312L52.0996 25.5979H55.0996L57.6663 23.1646L58.4996 24.0312L55.9996 26.3979V27.9979L54.5329 27.0979Z" fill="#383739"/>
<path d="M49.1 23.7995L48.0333 24.7995L46.9666 24.1329L48.0333 23.1329L46.6666 22.2995H49.6666L52.2333 19.8662L53.0666 20.7329L50.5666 23.0995V24.6995L49.1 23.7995Z" fill="#383739"/>
<path d="M63.0007 31.5329H60.3007L58.9007 30.1662H56.134L54.1007 29.0995L54.5674 27.9329L56.3674 28.8995H57.1674L59.934 25.6995L62.9674 27.5329L63.0007 31.5329Z" fill="#383739"/>
<path d="M48.3993 27.4672L49.3659 26.5672L48.5659 26.0672L47.5993 26.9672L48.3993 27.4672ZM50.7993 27.3005V25.9005L53.2326 23.6005L52.5993 22.9338L50.0993 25.3005H47.5659L50.7993 27.3005Z" fill="#D22630"/>
<path d="M53.4342 27.9005L54.4008 27.0005L53.6008 26.5005L52.6342 27.4005L53.4342 27.9005ZM55.8342 27.7339V26.3339L58.2675 24.0339L57.6342 23.3672L55.1342 25.7339H52.6008L55.8342 27.7339Z" fill="#D22630"/>
<path d="M48.0339 24.5989L49.0006 23.6989L48.2006 23.1989L47.2339 24.0989L48.0339 24.5989ZM50.4339 24.4323V23.0323L52.8672 20.7323L52.2339 20.0656L49.7339 22.4323H47.2006L50.4339 24.4323Z" fill="#D22630"/>
<path d="M62.9334 31.3989H60.3667L58.9667 30.0323H56.2L54.3 29.0656L54.6667 28.1656L56.3667 29.0656H57.2667L60.0001 25.8989L62.9334 27.6989V31.3989Z" fill="#D22630"/>
<path d="M47.7011 13.4318L46.4011 12.9652L46.3678 12.9985L44.7011 14.1652V14.4652L42.0344 17.8318L44.7011 21.1985V21.4985L46.4011 22.6652L47.7011 22.1985L46.9011 21.6652V20.6652L47.2011 20.2985H48.6011V15.3318H47.2011L46.9011 14.9652V13.9652L47.7011 13.4318Z" fill="#383739"/>
<path d="M44.8339 14.1994L46.4006 13.0994L47.3672 13.4661L46.7672 13.8661V14.9994L47.1672 15.4661H48.5006V20.1661H47.1672L46.7672 20.6328V21.7661L47.3672 22.1661L46.4006 22.5328L44.8339 21.4328V21.1328L42.2006 17.8328L44.8339 14.5328V14.1994Z" fill="#D22630"/>
<path d="M76.5 8.96518L77.5667 7.96518L78.6333 8.63184L77.5667 9.63184L78.9333 10.4652H75.9333L73.3667 12.8985L72.5333 12.0318L75.0333 9.66518V8.06518L76.5 8.96518Z" fill="#383739"/>
<path d="M71.4667 8.53386L72.5333 7.53386L73.6 8.20053L72.5333 9.20053L73.9 10.0339H70.9L68.3333 12.4672L67.5 11.6005L70 9.23386V7.63386L71.4667 8.53386Z" fill="#383739"/>
<path d="M76.9004 11.7984L77.967 10.7984L79.0337 11.4651L77.967 12.4651L79.3337 13.2984H76.3337L73.767 15.7317L72.9337 14.8651L75.4337 12.4984V10.8984L76.9004 11.7984Z" fill="#383739"/>
<path d="M63.0005 4.06665H65.7006L67.1008 5.43332H69.8675L71.9008 6.49998L71.4342 7.66666L69.6342 6.69998H68.8342L66.0675 9.9L63.0338 8.06666L63.0005 4.06665Z" fill="#383739"/>
<path d="M77.6002 8.13281L76.6335 9.03281L77.4335 9.53281L78.4002 8.63281L77.6002 8.13281ZM75.2002 8.29948V9.69948L72.7668 11.9995L73.4002 12.6661L75.9002 10.2995H78.4335L75.2002 8.29948Z" fill="#D22630"/>
<path d="M72.5668 7.69946L71.6002 8.59946L72.4002 9.09946L73.3668 8.19946L72.5668 7.69946ZM70.1668 7.86613V9.26613L67.7335 11.5661L68.3669 12.2328L70.8669 9.86613H73.4002L70.1668 7.86613Z" fill="#D22630"/>
<path d="M77.9657 10.999L76.999 11.899L77.799 12.399L78.7657 11.499L77.9657 10.999ZM75.5657 11.1657V12.5657L73.1323 14.8657L73.7657 15.5324L76.2657 13.1657H78.799L75.5657 11.1657Z" fill="#D22630"/>
<path d="M63.0664 4.20052H65.6331L67.0328 5.56719H69.7995L71.6995 6.53386L71.3328 7.43386L69.6328 6.53386H68.7328L65.9995 9.70053L63.0664 7.90053V4.20052Z" fill="#D22630"/>
<path d="M76.5 26.6328L77.5667 27.6328L78.6333 26.9661L77.5667 25.9661L78.9333 25.1328H75.9333L73.3667 22.6995L72.5333 23.5661L75.0333 25.9328V27.5328L76.5 26.6328Z" fill="#383739"/>
<path d="M71.4667 27.0979L72.5333 28.0979L73.6 27.4312L72.5333 26.4312L73.9 25.5979H70.9L68.3333 23.1646L67.5 24.0312L70 26.3979V27.9979L71.4667 27.0979Z" fill="#383739"/>
<path d="M76.9004 23.7995L77.967 24.7995L79.0337 24.1329L77.967 23.1329L79.3337 22.2995H76.3337L73.767 19.8662L72.9337 20.7329L75.4337 23.0995V24.6995L76.9004 23.7995Z" fill="#383739"/>
<path d="M63.0005 31.5329H65.7006L67.1008 30.1662H69.8675L71.9008 29.0995L71.4342 27.9329L69.6342 28.8995H68.8342L66.0675 25.6995L63.0338 27.5329L63.0005 31.5329Z" fill="#383739"/>
<path d="M77.6002 27.4672L76.6335 26.5672L77.4335 26.0672L78.4002 26.9672L77.6002 27.4672ZM75.2002 27.3005V25.9005L72.7668 23.6005L73.4002 22.9338L75.9002 25.3005H78.4335L75.2002 27.3005Z" fill="#D22630"/>
<path d="M72.5668 27.9005L71.6002 27.0005L72.4002 26.5005L73.3668 27.4005L72.5668 27.9005ZM70.1668 27.7339V26.3339L67.7335 24.0339L68.3669 23.3672L70.8669 25.7339H73.4002L70.1668 27.7339Z" fill="#D22630"/>
<path d="M77.9657 24.5989L76.999 23.6989L77.799 23.1989L78.7657 24.0989L77.9657 24.5989ZM75.5657 24.4323V23.0323L73.1323 20.7323L73.7657 20.0656L76.2657 22.4323H78.799L75.5657 24.4323Z" fill="#D22630"/>
<path d="M63.0664 31.3989H65.6331L67.0328 30.0323H69.7995L71.6995 29.0656L71.3328 28.1656L69.6328 29.0656H68.7328L65.9995 25.8989L63.0664 27.6989V31.3989Z" fill="#D22630"/>
<path d="M78.2992 13.4318L79.5992 12.9652L79.6325 12.9985L81.2992 14.1652V14.4652L83.9658 17.8318L81.2992 21.1985V21.4985L79.5992 22.6652L78.2992 22.1985L79.0992 21.6652V20.6652L78.7992 20.2985H77.3992V15.3318H78.7992L79.0992 14.9652V13.9652L78.2992 13.4318Z" fill="#383739"/>
<path d="M81.1333 14.1994L79.5667 13.0994L78.6 13.4661L79.2 13.8661V14.9994L78.8 15.4661H77.4667V20.1661H78.8L79.2 20.6328V21.7661L78.6 22.1661L79.5667 22.5328L81.1333 21.4328V21.1328L83.7667 17.8328L81.1333 14.5328V14.1994Z" fill="#D22630"/>
<path d="M45.3997 20.6329L44.6664 19.9995V19.6995L43.0997 17.7995L44.6664 15.8995V15.5995L45.3997 14.9662L46.6997 16.0329H45.9331L47.0331 17.1662H49.5664L51.5664 15.5995V11.4995H56.5664L62.3664 7.93287V6.99953L61.4664 6.39955H61.1997L60.2331 7.03287L60.0997 7.49953L59.3331 6.46621L60.7997 5.23288H61.0331L62.6997 4.03288H63.3331L64.9997 5.23288H65.2331L66.6994 6.46621L65.9327 7.49953L65.7997 7.03287L64.8331 6.39955H64.5664L63.6664 6.99953V7.93287L69.4661 11.4995H74.4661V15.5995L76.4661 17.1662H78.9994L80.0994 16.0329H79.3327L80.6327 14.9662L81.3661 15.5995V15.8995L82.9327 17.7995L81.3661 19.6995V19.9995L80.6327 20.6329L79.3327 19.5662H80.0994L78.9994 18.4329H76.4661L74.4661 19.9995V24.0995H69.4661L63.6664 27.6662V28.5995L64.5664 29.1995H64.8331L65.7997 28.5662L65.9327 28.0995L66.6994 29.1329L65.2331 30.3662H64.9997L63.3331 31.5662H62.6997L61.0331 30.3662H60.7997L59.3331 29.1329L60.0997 28.0995L60.2331 28.5662L61.1997 29.1995H61.4664L62.3664 28.5995V27.6662L56.5664 24.0995H51.5664V19.9995L49.5664 18.4329H47.0331L45.9331 19.5662H46.6997L45.3997 20.6329Z" fill="#383739"/>
<path d="M63.0667 29.2989L63.7 29.7989L63.0667 30.2989V29.2989ZM61.0667 30.1989L62.7334 31.3989H62.9334V30.4656L62.0667 29.7989L62.9334 29.1323V27.3656L56.7334 23.5323H52.1667V19.7323L49.8 17.8989H46.2334L45.3334 18.8989L44.4334 17.8989H43.3667L44.8334 19.6656V19.9656L45.4 20.4656L46.3334 19.7323H45.8V19.5323L47 18.2989H49.6667L51.7667 19.9323V23.9656H56.6667L62.5667 27.5656V28.6656L61.5667 29.3323H61.2L60.1667 28.6323L60.1 28.3656L59.6 29.0656L60.9334 30.1656H61.0667V30.1989ZM45.3334 16.9323L46.0334 17.7323H44.6334L45.3334 16.9323ZM62.9334 5.33226L62.3 5.83226L62.9334 6.33226V5.33226ZM79.9668 17.8656L80.6668 18.6656L81.3668 17.8656H79.9668ZM64.9334 5.43226L63.2667 4.23226H63.0667V5.16559L63.9334 5.83226L63.0667 6.49893V8.2656L69.2668 12.0656H73.8334V15.8656L76.2001 17.6989H79.7668L80.6668 16.6989L81.5668 17.6989H82.6334L81.1668 15.9323V15.6323L80.6001 15.1323L79.6668 15.8656H80.2001V16.0323L79.0001 17.2656H76.3334L74.2334 15.6323V11.6323H69.3334L63.4334 8.03227V6.93227L64.4334 6.2656H64.8L65.8334 6.9656L65.9 7.23227L66.4001 6.53226L65.0667 5.43226H64.9334Z" fill="#FFC72C"/>
<path d="M62.9334 30.2656L62.3 29.7656L62.9334 29.2656V30.2656ZM46.0334 17.8656L45.3334 18.6656L44.6334 17.8656H46.0334ZM64.9334 30.1989L63.2667 31.3989H63.0667V31.1656V30.4656L63.9334 29.7989L63.0667 29.1323V27.3656L69.2668 23.5323H73.8334V19.7323L76.2001 17.8989H79.7668L80.6668 18.8989L81.5668 17.8989H82.6334L81.1668 19.6656V19.9656L80.6001 20.4656L79.6668 19.7323H80.2001V19.5323L79.0001 18.2989H76.3334L74.2334 19.9323V23.9656H69.3334L63.4334 27.5656V28.6656L64.4334 29.3323H64.8L65.8334 28.6323L65.9 28.3656L66.4001 29.0656L65.0667 30.1656H64.9334V30.1989ZM80.6668 16.9323L79.9668 17.7323H81.3668L80.6668 16.9323ZM61.0667 5.43226L62.7334 4.23226H62.9334V5.16559L62.0667 5.83226L62.9334 6.49893V8.2656L56.7334 12.0656H52.1667V15.8656L49.8 17.6989H46.2334L45.3334 16.6989L44.4334 17.6989H43.3667L44.8334 15.9323V15.6323L45.4 15.1323L46.3334 15.8656H45.8V16.0323L47 17.2656H49.6667L51.7667 15.6323V11.6323H56.6667L62.5667 8.03227V6.93227L61.5667 6.2656H61.2L60.1667 6.9656L60.1 7.23227L59.6 6.53226L60.9334 5.43226C60.8667 5.43226 61.0667 5.43226 61.0667 5.43226ZM63.0667 6.29893L63.7 5.79893L63.0667 5.29893V6.29893Z" fill="white"/>
<path d="M62.9333 17.8673V8.43392L56.7667 12.2006H52.3V15.9339L50.0333 17.7006H63.1V27.1339L69.2667 23.3673H73.7334V19.6673L76.0001 17.9006L62.9333 17.8673Z" fill="#00843D"/>
<path d="M50.0333 17.8673L52.3 19.6339V23.3673H56.7667L62.9333 27.1339V17.7339H76.0001L73.7334 15.9673V12.2006H69.2667L63.1 8.43392V17.8673H50.0333Z" fill="#D22630"/>
<path d="M56.3664 13.2344L55.2998 12.2344L54.2331 12.901L55.2998 13.901L53.9331 14.7344H56.9331L59.4998 17.1677L60.3331 16.3011L57.8331 13.9344V12.3344L56.3664 13.2344Z" fill="#383739"/>
<path d="M69.6338 22.3974L70.7004 23.3974L71.7671 22.7307L70.7004 21.7307L72.0671 20.8974H69.0671L66.5004 18.464L65.6672 19.3307L68.1671 21.6974V23.2974L69.6338 22.3974Z" fill="#383739"/>
<path d="M56.3664 22.3974L55.2998 23.3974L54.2331 22.7307L55.2998 21.7307L53.9331 20.8974H56.9331L59.4998 18.464L60.3331 19.3307L57.8331 21.6974V23.2974L56.3664 22.3974Z" fill="#383739"/>
<path d="M69.6338 13.2344L70.7004 12.2344L71.7671 12.901L70.7004 13.901L72.0671 14.7344H69.0671L66.5004 17.1677L65.6672 16.3011L68.1671 13.9344V12.3344L69.6338 13.2344Z" fill="#383739"/>
<path d="M70.6995 23.2L69.7329 22.3L70.5329 21.8L71.4995 22.7L70.6995 23.2ZM68.2995 23.0333V21.6333L65.8662 19.3333L66.4995 18.6667L68.9995 21.0333H71.5329L68.2995 23.0333ZM55.2995 12.4L56.2662 13.3L55.4662 13.8L54.4995 12.9L55.2995 12.4ZM57.6995 12.5667V13.9667L60.1329 16.2667L59.4995 16.9333L56.9995 14.5667H54.4662L57.6995 12.5667Z" fill="#D22630"/>
<path d="M70.6995 12.4L69.7329 13.3L70.5329 13.8L71.4995 12.9L70.6995 12.4ZM68.2995 12.5667V13.9667L65.8662 16.2667L66.4995 16.9333L68.9995 14.5667H71.5329L68.2995 12.5667ZM55.2995 23.2L56.2662 22.3L55.4662 21.8L54.4995 22.7L55.2995 23.2ZM57.6995 23.0333V21.6333L60.1329 19.3333L59.4995 18.6667L56.9995 21.0333H54.4662L57.6995 23.0333Z" fill="#00843D"/>
<path d="M69.6341 17.7989L63.0005 22.1989L56.3672 17.7989L63.0005 13.3989L69.6341 17.7989Z" fill="#383739"/>
<path d="M62.9325 13.6016L56.7325 17.7349H69.2327L63.0325 13.6016V22.0016L69.2661 17.8682H56.7659L62.9659 22.0016V13.6016H62.9325Z" fill="white"/>
<path d="M64.7664 19.3339V20.5339H61.2331V19.3339H58.9331V16.3006H61.2331V15.1006H64.7664V16.3006H67.0661V19.3339H64.7664Z" fill="#383739"/>
<path d="M61.3665 15.1995V16.3995H59.0665V17.6995H62.8999V15.1995H61.3665ZM63.0665 17.7328H66.8998V16.4328H64.5999V15.1995H63.0332L63.0665 17.7328ZM59.0665 17.8661V19.1661H61.3665V20.3661H62.9332V17.8661H59.0665ZM63.0665 20.3995H64.6332V19.1995H66.9331V17.8661H63.0999V20.3995H63.0665Z" fill="#D22630"/>
<path d="M74.3008 68.0655V66.1322H79.6341V64.1989H84.9674V46.6322H79.6341V44.6989H74.3008V42.7655H68.9674V40.8322H57.0343V42.7655H51.701V44.6989H46.3676V46.6322H41.0343V64.1989H46.3676V66.1322H51.701V68.0655H57.0343V69.9988H68.9674V68.0655H74.3008Z" fill="#383739"/>
<path d="M57.2012 40.9335V42.8669H51.8678V44.8002H46.5345V46.7335H41.2012V64.0335H46.5345V65.9669H51.8678V67.9001H57.2012V69.8335H68.8345V67.9001H74.1678V65.9669H79.5012V64.0335H84.8345V46.7335H79.5012V44.8002H74.1678V42.8669H68.8345V40.9335H57.2012ZM58.6012 42.3335H67.4012V44.2669H72.7345V46.2002H78.0678V48.1335H83.4012V62.6002H78.0678V64.5335H72.7345V66.4669H67.4012V68.4001H58.6012V66.4669H53.2678V64.5335H47.9345V62.6002H42.6012V48.1335H47.9345V46.2002H53.2678V44.2669H58.6012V42.3335Z" fill="#FFC72C"/>
<path d="M53.4001 66.3672V64.4339H48.0668V62.5005H42.7335V48.3339H48.0668V46.4005H53.4001V44.4672H58.7335V42.5339H67.2667V44.4672H72.6V46.4005H77.9334V48.3339H83.2667V62.5005H77.9334V64.4339H72.6V66.3672H67.2667V68.3008H58.7335V66.3672H53.4001Z" fill="#D22630"/>
<path d="M54.6343 45.8655L53.2676 44.8322V46.8322L51.9343 47.6655V46.3989L50.6676 47.5322L49.401 46.3989V47.6655L47.9343 46.7322V48.5989L46.7343 49.4655V48.3322L45.3343 49.3655L43.9343 48.3322V49.4655L42.601 48.4989V54.1322H41.0343V56.6989H42.601V62.3322L43.9343 61.3655V62.4989L45.3343 61.4655L46.7343 62.4989V61.3655L47.9343 62.2322V64.0989L49.401 63.1655V64.4322L50.6676 63.2989L51.9343 64.4322V63.1655L53.2676 63.9989V65.9989L54.6343 64.9655V66.3655L56.001 65.1655L57.3676 66.3655V64.9655L58.601 65.8989V68.0321L60.4676 66.3322V68.2988L63.0343 66.6655L65.601 68.2988V66.3322L67.4674 68.0321V65.8655L68.7008 64.9322V66.3322L70.0674 65.1322L71.4341 66.3322V64.9322L72.8008 65.9655V63.9655L74.1341 63.1322V64.3989L75.4008 63.2655L76.6674 64.3989V63.1322L78.1341 64.0655V62.1989L79.3341 61.3322V62.4655L80.7341 61.4322L82.1341 62.4655V61.3322L83.4674 62.2989V56.6655H85.0341V54.0989H83.4674V48.4655L82.1341 49.4322V48.2989L80.7341 49.3322L79.3341 48.2989V49.4322L78.1341 48.5655V46.6989L76.6674 47.6322V46.3655L75.4008 47.4989L74.1341 46.3655V47.6322L72.8008 46.7989V44.7989L71.4341 45.8322V44.4322L70.0674 45.6322L68.7008 44.4322V45.8322L67.4674 44.8989V42.7655L65.601 44.4655V42.4989L63.0343 44.1322L60.4676 42.4989V44.4655L58.601 42.7655V44.8989L57.3676 45.8322V44.4322L56.001 45.6322L54.6343 44.4322V45.8655Z" fill="#383739"/>
<path d="M44.0661 49.7336V48.6003L45.3328 49.5003L45.3661 49.467L46.5995 48.567V49.7003L47.9328 48.7336V62.0003L46.5995 61.0336V62.167L45.3328 61.267L44.0661 62.167V61.0336L42.7328 62.0003V56.5336H41.1661V54.267H42.7328V48.767L44.0661 49.7336Z" fill="#00843D"/>
<path d="M54.8009 44.7995L56.0009 45.8661L57.2009 44.7995V46.1661L58.5675 45.1328V65.6995L57.2009 64.6661V66.0328L56.0009 64.9661L54.8009 66.0328V64.6661L53.4342 65.6995V45.1328L54.8009 46.1661V44.7995Z" fill="#00843D"/>
<path d="M71.2007 44.7995L70.0008 45.8661L68.8007 44.7995V46.1661L67.4341 45.1328V65.6995L68.8007 64.6661V66.0328L70.0008 64.9661L71.2007 66.0328V64.6661L72.5674 65.6995V45.1328L71.2007 46.1661V44.7995Z" fill="#00843D"/>
<path d="M81.9331 49.7336V48.6003L80.6664 49.5003L80.6331 49.467L79.3997 48.567V49.7003L78.0664 48.7336V62.0003L79.3997 61.0336V62.167L80.6664 61.267L81.9331 62.167V61.0336L83.2664 62.0003V56.5336H84.8331V54.267H83.2664V48.767L81.9331 49.7336Z" fill="#00843D"/>
<path d="M49.5331 46.7323L50.6664 47.7323L51.7997 46.7323V47.9323L53.2664 46.9989V63.7989L51.7997 62.8656V64.0656L50.6664 63.0656L49.5331 64.0656V62.8656L48.0664 63.7989V46.9989L49.5331 47.9323V46.7323Z" fill="#FFC72C"/>
<path d="M60.5678 44.8016L58.7012 43.1016V67.6682L60.5678 65.9682V68.0015L62.9678 66.4349L65.3678 68.0015V65.9682L67.2345 67.6682V43.1016L65.3678 44.8016V42.7682L62.9678 44.3349L60.5678 42.7682V44.8016Z" fill="#FFC72C"/>
<path d="M76.4668 46.7323L75.3335 47.7323L74.2002 46.7323V47.9323L72.7335 46.9989V63.7989L74.2002 62.8656V64.0656L75.3335 63.0656L76.4668 64.0656V62.8656L77.9335 63.7989V46.9989L76.4668 47.9323V46.7323Z" fill="#FFC72C"/>
<path d="M44.7659 52.9989C44.9325 53.1656 45.1325 53.2323 45.3325 53.2323C45.5659 53.2323 45.7325 53.1656 45.8992 52.9989C46.3992 52.4989 46.4325 51.5656 46.4325 50.8989C46.4325 50.8989 45.8325 51.5323 45.7325 51.6323C45.6659 51.4989 45.3325 50.9323 45.3325 50.9323C45.3325 50.9323 44.9992 51.4989 44.9325 51.6323C44.8325 51.5323 44.2325 50.8989 44.2325 50.8989C44.2325 51.5656 44.2659 52.4656 44.7659 52.9989Z" fill="#383739"/>
<path d="M50.3331 51.5653L49.8998 51.1319V50.2986L48.9331 51.1986L50.6998 52.9653L52.4664 51.1986L51.4998 50.2986V51.1319L51.0664 51.5653V50.0653L51.8331 49.432L50.7331 48.4986L49.6331 49.432L50.3998 50.0653L50.3331 51.5653Z" fill="#383739"/>
<path d="M55.6676 49.864L55.2342 49.4306V48.5973L54.2676 49.4973L56.0342 51.264L57.8009 49.4973L56.8342 48.5973V49.4306L56.3343 49.864V48.364L57.1009 47.7307L56.0009 46.7974L54.9009 47.7307L55.6676 48.364V49.864Z" fill="#383739"/>
<path d="M45.3336 51.1984C45.4336 51.3651 45.7003 51.8317 45.7003 51.8317C45.7003 51.8317 46.1003 51.3984 46.2669 51.2317C46.2336 51.9651 46.0669 52.5651 45.8003 52.8651C45.6669 52.9984 45.5003 53.0651 45.3336 53.0651C45.1669 53.0651 45.0003 52.9984 44.8669 52.8651C44.5669 52.5651 44.4003 51.9984 44.4003 51.2317C44.5669 51.3984 44.9669 51.8317 44.9669 51.8317C45.1003 51.6317 45.2003 51.4317 45.3336 51.1984Z" fill="white"/>
<path d="M56.1995 48.2987V50.1987L56.8995 49.4987V48.9321L57.5328 49.5321L55.9995 51.0654L54.4662 49.5321L55.0995 48.9321V49.4987L55.7995 50.1987V48.2987L55.1328 47.7321L55.9995 46.9654L56.8662 47.7321L56.1995 48.2987Z" fill="white"/>
<path d="M50.8666 50V51.9L51.5666 51.2V50.6333L52.2 51.2333L50.6666 52.7667L49.1333 51.2333L49.7666 50.6333V51.2L50.4666 51.9V50L49.8 49.4333L50.6666 48.6667L51.5333 49.4333L50.8666 50Z" fill="#D22630"/>
<path d="M81.2337 52.9989C81.067 53.1656 80.867 53.2323 80.667 53.2323C80.4337 53.2323 80.267 53.1656 80.1004 52.9989C79.6003 52.4989 79.567 51.5656 79.567 50.8989C79.567 50.8989 80.167 51.5323 80.267 51.6323C80.3337 51.4989 80.667 50.9323 80.667 50.9323C80.667 50.9323 81.0004 51.4989 81.067 51.6323C81.167 51.5323 81.767 50.8989 81.767 50.8989C81.767 51.5656 81.7337 52.4656 81.2337 52.9989Z" fill="#383739"/>
<path d="M75.6676 51.5653L76.101 51.1319V50.2986L77.0676 51.1986L75.301 52.9653L73.5343 51.1986L74.501 50.2986V51.1319L74.9343 51.5653V50.0653L74.1676 49.432L75.2676 48.4986L76.3676 49.432L75.601 50.0653L75.6676 51.5653Z" fill="#383739"/>
<path d="M70.3333 49.864L70.7666 49.4306V48.5973L71.7333 49.4973L69.9666 51.264L68.2 49.4973L69.1666 48.5973V49.4306L69.5999 49.864V48.364L68.8333 47.7307L69.9333 46.7974L71.0333 47.7307L70.2666 48.364V49.864H70.3333Z" fill="#383739"/>
<path d="M80.6664 51.1984C80.5664 51.3651 80.2997 51.8317 80.2997 51.8317C80.2997 51.8317 79.8997 51.3984 79.733 51.2317C79.7664 51.9651 79.933 52.5651 80.1997 52.8651C80.333 52.9984 80.4997 53.0651 80.6664 53.0651C80.833 53.0651 80.9997 52.9984 81.133 52.8651C81.433 52.5651 81.5997 51.9984 81.5997 51.2317C81.433 51.3984 81.033 51.8317 81.033 51.8317C80.8997 51.6317 80.7997 51.4317 80.6664 51.1984Z" fill="white"/>
<path d="M69.7993 48.2987V50.1987L69.0993 49.4987V48.9321L68.4659 49.5321L69.9993 51.0654L71.5326 49.5321L70.8993 48.9321V49.4987L70.1993 50.1987V48.2987L70.866 47.7321L69.9993 46.9654L69.1326 47.7321L69.7993 48.2987Z" fill="white"/>
<path d="M75.1329 50V51.9L74.4329 51.2V50.6333L73.7996 51.2333L75.3329 52.7667L76.8662 51.2333L76.2329 50.6333V51.2L75.5329 51.9V50L76.1996 49.4333L75.3329 48.6667L74.4662 49.4333L75.1329 50Z" fill="#D22630"/>
<path d="M65.0992 50.4995L64.5326 49.6995L65.9994 48.3328L64.6326 47.1995V47.9995L64.0659 48.4995V47.0661L65.3659 46.0995L63.0326 44.3661L60.6993 46.0995L61.9992 47.0661V48.4995L61.4326 47.9995V47.1995L60.0659 48.3328L61.5326 49.6995L60.9659 50.4995H65.0992Z" fill="#383739"/>
<path d="M61.2003 50.3671L61.7003 49.7004L60.267 48.3671L61.267 47.5338V48.1004L62.1336 48.8338V47.0004L60.9336 46.1338L63.0336 44.6005L65.1336 46.1338L63.9336 47.0004V48.8338L64.8003 48.1004V47.5338L65.8003 48.3671L64.367 49.7004L64.867 50.3671H61.2003Z" fill="#D22630"/>
<path d="M61.9336 46.1333L63.0003 46.9333L64.0669 46.1333L63.0003 45.3333L62.9669 45.3667L61.9336 46.1333Z" fill="#383739"/>
<path d="M63.0004 45.4989C63.0671 45.5656 63.7004 46.0323 63.8338 46.0989C63.7004 46.1989 63.0671 46.6656 63.0004 46.6989C62.9338 46.6323 62.3004 46.1656 62.1671 46.0989C62.3004 46.0323 62.9338 45.5656 63.0004 45.4989Z" fill="#00843D"/>
<path d="M44.7659 57.8335C44.9325 57.6668 45.1325 57.6002 45.3325 57.6002C45.5659 57.6002 45.7325 57.6668 45.8992 57.8335C46.3992 58.3335 46.4325 59.2668 46.4325 59.9335C46.4325 59.9335 45.8325 59.3002 45.7325 59.2002C45.6659 59.3335 45.3325 59.9002 45.3325 59.9002C45.3325 59.9002 44.9992 59.3335 44.9325 59.2002C44.8325 59.3002 44.2325 59.9335 44.2325 59.9335C44.2325 59.2335 44.2659 58.3335 44.7659 57.8335Z" fill="#383739"/>
<path d="M50.3331 59.2333L49.8998 59.6667V60.5L48.9331 59.6L50.6998 57.8333L52.4664 59.6L51.4998 60.5V59.6667L51.0664 59.2333V60.7333L51.8331 61.3667L50.7331 62.3001L49.6331 61.3667L50.3998 60.7333L50.3331 59.2333Z" fill="#383739"/>
<path d="M55.6676 60.9317L55.2342 61.3651V62.1984L54.2676 61.2984L56.0342 59.5317L57.8009 61.2984L56.8342 62.1984V61.3651L56.4009 60.9317V62.4317L57.1676 63.0651L56.0676 63.9984L54.9676 63.0651L55.7342 62.4317V60.9317H55.6676Z" fill="#383739"/>
<path d="M45.3336 59.6003C45.4336 59.4336 45.7003 58.967 45.7003 58.967C45.7003 58.967 46.1003 59.4003 46.2669 59.567C46.2336 58.8337 46.0669 58.2336 45.8003 57.9336C45.6669 57.8003 45.5003 57.7337 45.3336 57.7337C45.1669 57.7337 45.0003 57.8003 44.8669 57.9336C44.5669 58.2336 44.4003 58.8003 44.4003 59.567C44.5669 59.4003 44.9669 58.967 44.9669 58.967C45.1003 59.167 45.2003 59.367 45.3336 59.6003Z" fill="white"/>
<path d="M56.1995 62.501V60.601L56.8995 61.3011V61.8677L57.5328 61.2677L55.9995 59.7344L54.4662 61.2677L55.0995 61.8677V61.3011L55.7995 60.601V62.501L55.1328 63.0677L55.9995 63.8344L56.8662 63.0677L56.1995 62.501Z" fill="white"/>
<path d="M50.8666 60.7994V58.8994L51.5666 59.5994V60.1661L52.2 59.5661L50.6666 58.0327L49.1333 59.5661L49.7666 60.1661V59.5994L50.4666 58.8994V60.7994L49.8 61.3661L50.6666 62.1327L51.5333 61.3661L50.8666 60.7994Z" fill="#D22630"/>
<path d="M81.2337 57.8335C81.067 57.6668 80.867 57.6002 80.667 57.6002C80.4337 57.6002 80.267 57.6668 80.1004 57.8335C79.6003 58.3335 79.567 59.2668 79.567 59.9335C79.567 59.9335 80.167 59.3002 80.267 59.2002C80.3337 59.3335 80.667 59.9002 80.667 59.9002C80.667 59.9002 81.0004 59.3335 81.067 59.2002C81.167 59.3002 81.767 59.9335 81.767 59.9335C81.767 59.2335 81.7337 58.3335 81.2337 57.8335Z" fill="#383739"/>
<path d="M75.6669 59.2317L76.1002 59.6651V60.4984L77.0669 59.5984L75.3336 57.8651L73.5669 59.6317L74.5336 60.5317V59.6984L74.9669 59.2651V60.7651L74.2002 61.3984L75.3002 62.3317L76.4002 61.3984L75.6336 60.7651L75.6669 59.2317Z" fill="#383739"/>
<path d="M70.3324 60.9317L70.7658 61.3651V62.1984L71.7324 61.2984L69.9991 59.5317L68.2324 61.2984L69.1991 62.1984V61.3651L69.6324 60.9317V62.4317L68.8658 63.0651L69.9658 63.9984L71.0658 63.0651L70.2991 62.4317V60.9317H70.3324Z" fill="#383739"/>
<path d="M80.6664 59.6003C80.5664 59.4336 80.2997 58.967 80.2997 58.967C80.2997 58.967 79.8997 59.4003 79.733 59.567C79.7664 58.8337 79.933 58.2336 80.1997 57.9336C80.333 57.8003 80.4997 57.7337 80.6664 57.7337C80.833 57.7337 80.9997 57.8003 81.133 57.9336C81.433 58.2336 81.5997 58.8003 81.5997 59.567C81.433 59.4003 81.033 58.967 81.033 58.967C80.8997 59.167 80.7997 59.367 80.6664 59.6003Z" fill="white"/>
<path d="M69.7993 62.501V60.601L69.0993 61.3011V61.8677L68.4659 61.2677L69.9993 59.7344L71.5326 61.2677L70.8993 61.8677V61.3011L70.1993 60.601V62.501L70.866 63.0677L69.9993 63.8344L69.1326 63.0677L69.7993 62.501Z" fill="white"/>
<path d="M75.1329 60.7994V58.8994L74.4329 59.5994V60.1661L73.7996 59.5661L75.3329 58.0327L76.8662 59.5661L76.2329 60.1661V59.5994L75.5329 58.8994V60.7994L76.1996 61.3661L75.3329 62.1327L74.4662 61.3661L75.1329 60.7994Z" fill="#D22630"/>
<path d="M65.0992 60.2983L64.5326 61.0983L65.9994 62.465L64.6326 63.5983V62.7983L64.0659 62.2983V63.7317L65.3659 64.6983L63.0326 66.4317L60.6993 64.6983L61.9992 63.7317V62.2983L61.4326 62.7983V63.5983L60.0659 62.465L61.5326 61.0983L60.9659 60.2983H65.0992Z" fill="#383739"/>
<path d="M61.2003 60.4338L61.7003 61.1005L60.267 62.4338L61.267 63.2672V62.7005L62.1336 61.9672V63.8005L60.9336 64.6672L63.0336 66.2005L65.1336 64.6672L63.9336 63.8005V61.9672L64.8003 62.7005V63.2672L65.8003 62.4338L64.367 61.1005L64.867 60.4338H61.2003Z" fill="#D22630"/>
<path d="M61.9336 64.6661L63.0003 63.8661L64.0669 64.6661L63.0003 65.4661L62.9669 65.4327L61.9336 64.6661Z" fill="#383739"/>
<path d="M63.0004 65.3004C63.0671 65.2337 63.7004 64.7671 63.8338 64.7004C63.7004 64.6004 63.0671 64.1338 63.0004 64.1004C62.9338 64.1671 62.3004 64.6338 62.1671 64.7004C62.3004 64.7671 62.9338 65.2337 63.0004 65.3004Z" fill="#00843D"/>
<path d="M81.9664 54.5651H79.6331V53.6317H72.4664L67.4664 50.3651H67.4331H58.5332L53.5332 53.6317H46.3665V54.5651H44.0332V56.1984H46.3665V57.1317H53.5332L58.5332 60.3984H67.4664L72.4664 57.1317H79.6331V56.1984H81.9664V54.5651Z" fill="#383739"/>
<path d="M58.5666 50.5327L53.5666 53.7994H46.5V54.7327H44.1666V56.0994H46.5V57.0327H53.5666L58.5666 60.3327H67.4001L72.3668 57.0327H79.4334V56.0994H81.7668V54.7327H79.4334V53.7994H72.3668L67.4001 50.5327H58.5666ZM58.7 50.9994H67.3001L71.8668 53.9994V54.466H76.9668V56.366H71.8668V56.8327L67.3001 59.8327H58.7L54.1333 56.8327V56.366H49V54.466H54.1333V53.9994L58.7 50.9994Z" fill="#D22630"/>
<path d="M67.2668 51.135L71.7334 54.0683V54.6016H76.8334V56.235H71.7334V56.7683L67.2668 59.7016H58.7333L54.2666 56.7683V56.2016H49.1666V54.5683H54.2666V54.035L58.7333 51.1016H67.2668V51.135Z" fill="#D22630"/>
<path d="M56.5332 57.0667L58.4665 58.5L59.7332 57.5333L58.9999 56.9667L58.4665 57.3667L57.9999 57.0333L65.2665 51.5667H63.7999L56.5332 57.0667ZM60.7332 59.2H62.1999L69.4664 53.7333L67.5331 52.3L66.2664 53.2667L66.9997 53.8333L67.5331 53.4333L67.9997 53.7667L60.7332 59.2ZM63.7999 59.2H65.2665L57.9999 53.7333L58.4665 53.4L58.9999 53.8L59.7332 53.2333L58.4665 52.2667L56.5332 53.7L63.7999 59.2ZM67.9997 57.0667L67.5331 57.4L66.9997 57L66.2664 57.5667L67.5331 58.5333L69.4664 57.1L62.1999 51.6333H60.7332L67.9997 57.0667Z" fill="#383739"/>
<path d="M55.0659 55.3984L56.3659 56.2651L57.6659 55.3984L56.3659 54.5317L55.0659 55.3984Z" fill="#383739"/>
<path d="M61.7001 55.3984L63.0001 56.2651L64.3001 55.3984L63.0001 54.5317L61.7001 55.3984Z" fill="#383739"/>
<path d="M70.9334 55.3984L69.6334 56.2651L68.3334 55.3984L69.6334 54.5317L70.9334 55.3984Z" fill="#383739"/>
<path d="M69.2345 57.0656L67.5345 58.3323L66.5012 57.5656L67.0012 57.1989L67.5345 57.5989L68.2345 57.0656L61.1676 51.7656H62.1676L69.2345 57.0656ZM64.8342 59.0656H63.8342L56.7676 53.7656L58.4676 52.4989L59.5009 53.2656L59.0009 53.6323L58.4676 53.2323L57.7676 53.7656L64.8342 59.0656ZM62.1676 59.0656H61.1676L68.2345 53.7656L67.5345 53.2323L67.0012 53.6323L66.5012 53.2656L67.5345 52.4989L69.2345 53.7656L62.1676 59.0656ZM63.8342 51.7323H64.8342L57.7676 57.0323L58.4676 57.5656L59.0009 57.1656L59.5009 57.5323L58.4676 58.2989L56.7676 57.0323L63.8342 51.7323Z" fill="#FFC72C"/>
<path d="M56.3662 54.6994L57.3996 55.3994L56.3662 56.0993L55.3329 55.3994L56.3662 54.6994Z" fill="#00843D"/>
<path d="M62.9995 54.6994L64.0329 55.3994L62.9995 56.0993L61.9662 55.3994L62.9995 54.6994Z" fill="#00843D"/>
<path d="M69.6335 54.6994L68.6002 55.3994L69.6335 56.0993L70.6669 55.3994L69.6335 54.6994Z" fill="#00843D"/>
<path d="M40.1671 91.5995L39.6671 92.3328L40.5671 93.0328L39.6671 93.7328L40.1671 94.4662L41.2338 94.5995L42.2671 93.7995L44.8338 95.4328V94.0661L43.2338 93.0328L44.8338 91.9995V90.6328L42.2671 92.2662L41.2338 91.4661L40.1671 91.5995Z" fill="#383739"/>
<path d="M40.1671 86.9008L39.6671 87.6341L40.5671 88.3341L39.6671 89.0341L40.1671 89.7675L41.2338 89.9008L42.2671 89.1008L44.8338 90.7341V89.3675L43.2338 88.3341L44.8338 87.3008V85.9341L42.2671 87.5675L41.2338 86.7675L40.1671 86.9008Z" fill="#383739"/>
<path d="M40.1671 99.1015L39.6671 98.3681L40.5671 97.6681L39.6671 96.9681L40.1671 96.2348L41.2338 96.1015L42.2671 96.9015L44.8338 95.2681V96.6348L43.2338 97.6681L44.8338 98.7015V100.068L42.2671 98.4348L41.2338 99.2348L40.1671 99.1015Z" fill="#383739"/>
<path d="M85.8328 91.5995L86.3328 92.3328L85.4328 93.0328L86.3328 93.7328L85.8328 94.4662L84.7661 94.5995L83.7328 93.7995L81.1661 95.4328V94.0661L82.7661 93.0328L81.1661 91.9995V90.6328L83.7328 92.2662L84.7661 91.4661L85.8328 91.5995Z" fill="#383739"/>
<path d="M85.8328 86.9008L86.3328 87.6341L85.4328 88.3341L86.3328 89.0341L85.8328 89.7675L84.7661 89.9008L83.7328 89.1008L81.1661 90.7341V89.3675L82.7661 88.3341L81.1661 87.3008V85.9341L83.7328 87.5675L84.7661 86.7675L85.8328 86.9008Z" fill="#383739"/>
<path d="M85.8328 99.1015L86.3328 98.3681L85.4328 97.6681L86.3328 96.9681L85.8328 96.2348L84.7661 96.1015L83.7328 96.9015L81.1661 95.2681V96.6348L82.7661 97.6681L81.1661 98.7015V100.068L83.7328 98.4348L84.7661 99.2348L85.8328 99.1015Z" fill="#383739"/>
<path d="M75.5664 78.7675V80.7341H76.9997V81.6008H78.3997V80.0341H77.1664V78.8008H75.5664V78.7675Z" fill="#383739"/>
<path d="M79.7664 81.8661V83.8328H81.1997V84.6995H82.5997V83.1328H81.333V81.8661H79.7664Z" fill="#383739"/>
<path d="M50.4342 78.7675V80.7341H49.0008V81.6008H47.6008V80.0341H48.8342V78.8008H50.4342V78.7675Z" fill="#383739"/>
<path d="M75.5664 107.233V105.267H76.9997V104.4H78.3997V105.967H77.1664V107.2H75.5664V107.233Z" fill="#383739"/>
<path d="M50.4342 107.233V105.267H49.0008V104.4H47.6008V105.967H48.8342V107.2H50.4342V107.233Z" fill="#383739"/>
<path d="M79.7664 104.132V102.199H81.1997V101.332H82.5997V102.899H81.333V104.132H79.7664Z" fill="#383739"/>
<path d="M46.2326 81.8661V83.8328H44.7993V84.6995H43.3993V83.1328H44.6326V81.8661H46.2326Z" fill="#383739"/>
<path d="M46.2326 104.132V102.199H44.7993V101.332H43.3993V102.899H44.6326V104.132H46.2326Z" fill="#383739"/>
<path d="M68.2668 78.7322C68.1668 78.6322 67.1668 77.6655 67.1668 77.6655L66.1002 78.6655C66.1002 78.6655 66.9335 79.4655 67.0335 79.5655L65.8334 80.7321H67.6002L68.2335 80.0988L68.8668 80.7321H70.6335L69.4335 79.5655C69.5335 79.4655 70.3668 78.6655 70.3668 78.6655L69.3002 77.6655C68.9668 78.0322 68.6002 78.3655 68.2668 78.7322Z" fill="#383739"/>
<path d="M62.9997 78.7322C62.8997 78.6322 61.8997 77.6655 61.8997 77.6655L60.8331 78.6655C60.8331 78.6655 61.6664 79.4655 61.7664 79.5655L60.5664 80.7321H62.3331L62.9664 80.0988L63.5997 80.7321H65.3664L64.1664 79.5655C64.2664 79.4655 65.0997 78.6655 65.0997 78.6655L64.0331 77.6655C63.7331 78.0322 63.3664 78.3655 62.9997 78.7322Z" fill="#383739"/>
<path d="M57.7329 78.7322C57.8329 78.6322 58.8329 77.6655 58.8329 77.6655L59.8996 78.6655C59.8996 78.6655 59.0662 79.4655 58.9662 79.5655L60.1662 80.7321H58.3996L57.7662 80.0988L57.1329 80.7321H55.3329L56.5329 79.5655C56.4329 79.4655 55.5996 78.6655 55.5996 78.6655L56.6662 77.6655C57.0329 78.0322 57.3996 78.3655 57.7329 78.7322Z" fill="#383739"/>
<path d="M68.2668 107.268C68.1668 107.368 67.1668 108.335 67.1668 108.335L66.1002 107.335C66.1002 107.335 66.9335 106.535 67.0335 106.435L65.8334 105.268H67.6002L68.2335 105.901L68.8668 105.268H70.6335L69.4335 106.435C69.5335 106.535 70.3668 107.335 70.3668 107.335L69.3002 108.335C68.9668 107.968 68.6002 107.635 68.2668 107.268Z" fill="#383739"/>
<path d="M62.9997 107.268C62.8997 107.368 61.8997 108.335 61.8997 108.335L60.8331 107.335C60.8331 107.335 61.6664 106.535 61.7664 106.435L60.5664 105.268H62.3331L62.9664 105.901L63.5997 105.268H65.3664L64.1664 106.435C64.2664 106.535 65.0997 107.335 65.0997 107.335L64.0331 108.335C63.7331 107.968 63.3664 107.635 62.9997 107.268Z" fill="#383739"/>
<path d="M57.7329 107.268C57.8329 107.368 58.8329 108.335 58.8329 108.335L59.8996 107.335C59.8996 107.335 59.0662 106.535 58.9662 106.435L60.1662 105.268H58.3996L57.7662 105.901L57.1329 105.268H55.3329L56.5329 106.435C56.4329 106.535 55.5996 107.335 55.5996 107.335L56.6662 108.335C57.0329 107.968 57.3996 107.635 57.7329 107.268Z" fill="#383739"/>
<path d="M44.6673 94.0988V95.0988L42.234 93.5655L41.1673 94.3988L40.234 94.2988L39.834 93.7322L40.8007 92.9988L39.834 92.2655L40.234 91.6988L41.1673 91.5988L42.234 92.4322L44.6673 90.8988V91.8988L42.934 92.9988L44.6673 94.0988Z" fill="#00843D"/>
<path d="M44.6673 89.3981V90.3981L42.234 88.8648L41.1673 89.6981L40.234 89.5981L39.834 89.0314L40.8007 88.2981L39.834 87.5648L40.234 86.9981L41.1673 86.8981L42.234 87.7314L44.6673 86.1981V87.1981L42.934 88.2981L44.6673 89.3981Z" fill="#00843D"/>
<path d="M44.6673 96.5994V95.5994L42.234 97.1328L41.1673 96.2994L40.234 96.3994L39.834 96.9661L40.8007 97.6994L39.834 98.4328L40.234 98.9994L41.1673 99.0994L42.234 98.2661L44.6673 99.7994V98.7994L42.934 97.6994L44.6673 96.5994Z" fill="#00843D"/>
<path d="M81.3339 94.0988V95.0988L83.7672 93.5655L84.8339 94.3988L85.7665 94.2988L86.1672 93.7322L85.2005 92.9988L86.1672 92.2655L85.7665 91.6988L84.8339 91.5988L83.7672 92.4322L81.3339 90.8988V91.8988L83.0672 92.9988L81.3339 94.0988Z" fill="#00843D"/>
<path d="M81.3339 89.3981V90.3981L83.7672 88.8648L84.8339 89.6981L85.7665 89.5981L86.1672 89.0314L85.2005 88.2981L86.1672 87.5648L85.7665 86.9981L84.8339 86.8981L83.7672 87.7314L81.3339 86.1981V87.1981L83.0672 88.2981L81.3339 89.3981Z" fill="#00843D"/>
<path d="M81.3339 96.5994V95.5994L83.7672 97.1328L84.8339 96.2994L85.7665 96.3994L86.1672 96.9661L85.2005 97.6994L86.1672 98.4328L85.7665 98.9994L84.8339 99.0994L83.7672 98.2661L81.3339 99.7994V98.7994L83.0672 97.6994L81.3339 96.5994Z" fill="#00843D"/>
<path d="M77 78.9328V80.1661H78.2333V81.4661H77.1333V80.5994H75.7V78.9328H77Z" fill="#00843D"/>
<path d="M81.1992 82.0001V83.2334H82.4325V84.5334H81.3325V83.6668H79.8992V82.0001H81.1992Z" fill="#00843D"/>
<path d="M49.0003 78.9328V80.1661H47.767V81.4661H48.867V80.5994H50.3003V78.9328H49.0003Z" fill="#00843D"/>
<path d="M77 107.1V105.867H78.2333V104.567H77.1333V105.434H75.7V107.1H77Z" fill="#00843D"/>
<path d="M49.0003 107.1V105.867H47.767V104.567H48.867V105.434H50.3003V107.1H49.0003Z" fill="#00843D"/>
<path d="M81.1992 103.999V102.765H82.4325V101.465H81.3325V102.332H79.8992V103.999H81.1992Z" fill="#00843D"/>
<path d="M44.8002 82.0001V83.2334H43.5669V84.5334H44.6669V83.6668H46.1002V82.0001H44.8002Z" fill="#00843D"/>
<path d="M44.8002 103.999V102.765H43.5669V101.465H44.6669V102.332H46.1002V103.999H44.8002Z" fill="#00843D"/>
<path d="M67.167 77.8648C67.267 77.9648 68.267 78.9314 68.267 78.9314C68.267 78.9314 69.267 77.9648 69.367 77.8648C69.467 77.9314 70.1336 78.5648 70.2336 78.6648C70.1336 78.7648 69.3003 79.5648 69.3003 79.5648L70.367 80.5981H69.0003L68.3003 79.9314L67.6003 80.5981H66.2336L67.3003 79.5648C67.3003 79.5648 66.467 78.7648 66.367 78.6648C66.4003 78.5648 67.067 77.9648 67.167 77.8648Z" fill="#00843D"/>
<path d="M61.9001 77.8648C62.0001 77.9648 63.0001 78.9314 63.0001 78.9314C63.0001 78.9314 64.0001 77.9648 64.1001 77.8648C64.2001 77.9314 64.8668 78.5648 64.9668 78.6648C64.8668 78.7648 64.0335 79.5648 64.0335 79.5648L65.1001 80.5981H63.7335L63.0335 79.9314L62.3335 80.5981H60.9668L62.0335 79.5648C62.0335 79.5648 61.2001 78.7648 61.1001 78.6648C61.1668 78.5648 61.8335 77.9648 61.9001 77.8648Z" fill="#00843D"/>
<path d="M58.8323 77.8648C58.7323 77.9648 57.7323 78.9314 57.7323 78.9314C57.7323 78.9314 56.7323 77.9648 56.6323 77.8648C56.5323 77.9314 55.8657 78.5648 55.7657 78.6648C55.8657 78.7648 56.699 79.5648 56.699 79.5648L55.6323 80.5981H56.999L57.699 79.9314L58.399 80.5981H59.7657L58.699 79.5648C58.699 79.5648 59.5323 78.7648 59.6323 78.6648C59.599 78.5648 58.9323 77.9648 58.8323 77.8648Z" fill="#00843D"/>
<path d="M67.167 108.133C67.267 108.033 68.267 107.067 68.267 107.067C68.267 107.067 69.267 108.033 69.367 108.133C69.467 108.067 70.1336 107.433 70.2336 107.333C70.1336 107.233 69.3003 106.433 69.3003 106.433L70.367 105.4H69.0003L68.3003 106.067L67.6003 105.4H66.2336L67.3003 106.433C67.3003 106.433 66.467 107.233 66.367 107.333C66.4003 107.433 67.067 108.067 67.167 108.133Z" fill="#00843D"/>
<path d="M61.9001 108.133C62.0001 108.033 63.0001 107.067 63.0001 107.067C63.0001 107.067 64.0001 108.033 64.1001 108.133C64.2001 108.067 64.8668 107.433 64.9668 107.333C64.8668 107.233 64.0335 106.433 64.0335 106.433L65.1001 105.4H63.7335L63.0335 106.067L62.3335 105.4H60.9668L62.0335 106.433C62.0335 106.433 61.2001 107.233 61.1001 107.333C61.1668 107.433 61.8335 108.067 61.9001 108.133Z" fill="#00843D"/>
<path d="M58.8323 108.133C58.7323 108.033 57.7323 107.067 57.7323 107.067C57.7323 107.067 56.7323 108.033 56.6323 108.133C56.5323 108.067 55.8657 107.433 55.7657 107.333C55.8657 107.233 56.699 106.433 56.699 106.433L55.6323 105.4H56.999L57.699 106.067L58.399 105.4H59.7657L58.699 106.433C58.699 106.433 59.5323 107.233 59.6323 107.333C59.599 107.433 58.9323 108.067 58.8323 108.133Z" fill="#00843D"/>
<path d="M48.8672 102.333V105.399H77.1341V102.333H81.3341V83.6661H77.1341V80.5994H48.8672V83.6661H44.6671V102.333H48.8672Z" fill="#383739"/>
<path d="M48.9989 80.7335V83.8002H44.799V102.2H48.9989V105.267H76.9987V102.2H81.1987V83.8002H76.9987V80.7335H48.9989ZM50.7989 81.9002H75.1654V84.8668L76.1654 85.6002H79.9987V100.367H76.1987L75.1987 101.1V104.1H50.8323V101.134L49.8323 100.4H45.999V85.6335H49.7989L50.8323 84.9002L50.7989 81.9002Z" fill="#FFC72C"/>
<path d="M50.9661 82.0668V84.8002L54.6328 82.0668H50.9661ZM71.3661 82.0668L75.0327 84.8002V82.0668H71.3661ZM46.1661 85.7668V88.3002L49.6328 85.7668H46.1661ZM76.3661 85.7668L79.8327 88.3335V85.7668H76.3661ZM79.8661 97.6668L76.3994 100.233H79.8661V97.6668ZM46.1661 97.7002V100.267H49.6328L46.1661 97.7002ZM50.9661 101.233V103.933H54.6328L50.9661 101.233ZM75.0327 101.233L71.3661 103.933H75.0327V101.233Z" fill="#D22630"/>
<path d="M71.1328 82.0668C71.1662 82.1002 79.7995 88.4668 79.8661 88.5002V97.5002C79.7995 97.5335 71.1662 103.933 71.1328 103.933H54.8661C54.8328 103.9 46.1995 97.5335 46.1328 97.5002V88.5002C46.1995 88.4668 54.8328 82.0668 54.8661 82.0668H71.1328Z" fill="#00843D"/>
<path d="M48.233 98.5314L47.233 97.3648L48.1664 96.2648L47.233 95.1648L48.1664 94.0648L47.233 92.9648L48.1664 91.8648L47.233 90.7648L48.1664 89.6648L47.233 88.5648L48.233 87.3981H77.7994L78.7994 88.5648L77.8661 89.6648L78.7994 90.7648L77.8661 91.8648L78.7994 92.9648L77.8661 94.0648L78.7994 95.1648L77.8661 96.2648L78.7994 97.3648L77.7994 98.5314H48.233ZM68.5328 83.4648L67.3661 82.4648L66.2661 83.3981L65.1664 82.4648L64.0664 83.3981L62.9664 82.4648L61.8664 83.3981L60.7664 82.4648L59.6664 83.3981L58.5664 82.4648L57.3997 83.4648V102.531L58.5664 103.531L59.6664 102.598L60.7664 103.531L61.8664 102.598L62.9664 103.531L64.0664 102.598L65.1664 103.531L66.2661 102.598L67.3661 103.531L68.5328 102.531V83.4648Z" fill="#383739"/>
<path d="M66.2001 83.5322L65.1666 82.6655L64.1333 83.5322V102.465L65.1666 103.332L66.2001 102.465V83.5322Z" fill="#FFC72C"/>
<path d="M61.8331 83.5322L60.7998 82.6655L59.7665 83.5322V102.465L60.7998 103.332L61.8331 102.465V83.5322Z" fill="#FFC72C"/>
<path d="M48.3007 98.3988L47.4341 97.3655L48.3007 96.3322H77.7342L78.6008 97.3655L77.7342 98.3988H48.3007Z" fill="#FFC72C"/>
<path d="M77.6998 91.9648L78.5665 92.9981L77.6998 94.0315H48.2666L47.3999 92.9981L48.2666 91.9648H77.6998Z" fill="#FFC72C"/>
<path d="M77.6998 89.6675L78.5665 88.6341L77.6998 87.6008H48.2666L47.3999 88.6341L48.2666 89.6675H77.6998Z" fill="#FFC72C"/>
<path d="M68.4005 83.5322L67.3672 82.6655L66.3339 83.5322V102.465L67.3672 103.332L68.4005 102.465V83.5322Z" fill="#D22630"/>
<path d="M59.6326 83.5322L58.5992 82.6655L57.5659 83.5322V102.465L58.5992 103.332L59.6326 102.465V83.5322Z" fill="#D22630"/>
<path d="M48.3007 96.1981L47.4341 95.1648L48.3007 94.1314H77.7342L78.6008 95.1648L77.7342 96.1981H48.3007Z" fill="#D22630"/>
<path d="M48.3007 91.8328L47.4341 90.7994L48.3007 89.7661H77.7342L78.6008 90.7994L77.7342 91.8328H48.3007Z" fill="#D22630"/>
<path d="M64.0329 102.465L62.9995 103.332L61.9662 102.465V83.5322L62.9995 82.6655L64.0329 83.5322V102.465Z" fill="#D22630"/>
<path d="M72.8668 83.9008H53.0338V85.4675H50.5005V100.534H53.0338V102.101H72.9335V100.534H75.4668V85.4675H72.9335V83.9008H72.8668Z" fill="#383739"/>
<path d="M53.2006 84.0328V85.5994H50.6672V100.366H53.2006V101.933H55.3006L51.1672 98.4661V87.5328L55.3006 84.0661L53.2006 84.0328ZM70.7338 84.0328L74.8671 87.4994V98.4661L70.7338 101.933H72.8004V100.366H75.3338V85.5994H72.8004V84.0328H70.7338Z" fill="#D22630"/>
<path d="M55.4997 84.0328C55.4664 84.0661 51.2997 87.5328 51.2664 87.5661V98.3994C51.333 98.4328 55.4664 101.899 55.4997 101.933H70.4998C70.5332 101.899 74.6665 98.4328 74.7332 98.3994V87.5661C74.6665 87.5328 70.5665 84.0661 70.4998 84.0328H55.4997ZM55.733 84.6328H70.2665L74.0998 87.8661V98.1328L70.2665 101.333H55.733L51.8997 98.1328V87.8661L55.733 84.6328Z" fill="#00843D"/>
<path d="M59.5667 98.2981L60.2334 98.5648L60.3667 99.3315L59.5334 100.065L60.7334 101.231H59.6L58.7667 100.431L57.9334 101.231H56.8L58.0001 100.065L57.1667 99.3315L57.3 98.5648L57.9667 98.2981L58.8001 98.9648L58.8334 98.9315L59.5667 98.2981Z" fill="#00843D"/>
<path d="M63.8336 98.2981L64.5002 98.5648L64.6336 99.3315L63.8002 100.065L65.0002 101.231H63.8669L63.0336 100.431L62.2002 101.231H61.0669L62.2669 100.065L61.4336 99.3315L61.5669 98.5648L62.2336 98.2981L63.0669 98.9648L63.1002 98.9315L63.8336 98.2981Z" fill="#00843D"/>
<path d="M66.4335 98.2981L65.767 98.5648L65.6336 99.3315L66.4668 100.065L65.267 101.231H66.4002L67.2335 100.431L68.0668 101.231H69.2002L68.0002 100.065L68.8335 99.3315L68.7002 98.5648L68.0335 98.2981L67.2002 98.9648L67.1668 98.9315L66.4335 98.2981Z" fill="#00843D"/>
<path d="M59.5667 87.6994L60.2334 87.4328L60.3667 86.6661L59.5334 85.9328L60.7334 84.7661H59.6L58.7667 85.5661L57.9334 84.7661H56.8L58.0001 85.9328L57.1667 86.6661L57.3 87.4328L57.9667 87.6994L58.8001 87.0328L58.8334 87.0661L59.5667 87.6994Z" fill="#00843D"/>
<path d="M63.8336 87.6994L64.5002 87.4328L64.6336 86.6661L63.8002 85.9328L65.0002 84.7661H63.8669L63.0336 85.5661L62.2002 84.7661H61.0669L62.2669 85.9328L61.4336 86.6661L61.5669 87.4328L62.2336 87.6994L63.0669 87.0328L63.1002 87.0661L63.8336 87.6994Z" fill="#00843D"/>
<path d="M66.4335 87.6994L65.767 87.4328L65.6336 86.6661L66.4668 85.9328L65.267 84.7661H66.4002L67.2335 85.5661L68.0668 84.7661H69.2002L68.0002 85.9328L68.8335 86.6661L68.7002 87.4328L68.0335 87.6994L67.2002 87.0328L67.1668 87.0661L66.4335 87.6994Z" fill="#00843D"/>
<path d="M73.9678 88.9328L73.3345 89.4662L73.9678 89.9995V90.8995L72.9678 90.0661C72.9678 90.0661 72.3012 90.6662 72.2345 90.7328C72.1678 90.7328 71.5345 90.6328 71.4678 90.6328C71.4345 90.5661 71.2345 90.1995 71.2012 90.1328C71.2678 90.0661 71.8678 89.4662 71.8678 89.4662C71.8678 89.4662 71.2678 88.8661 71.2012 88.7995C71.2345 88.7328 71.4345 88.3661 71.4678 88.2995C71.5345 88.2995 72.1678 88.1995 72.2345 88.1995C72.2678 88.2328 72.9678 88.8661 72.9678 88.8661L73.9678 88.0328V88.9328Z" fill="#00843D"/>
<path d="M73.9678 92.4661L73.3345 92.9994L73.9678 93.5328V94.4328L72.9678 93.5994C72.9678 93.5994 72.3012 94.1994 72.2345 94.2328C72.1678 94.2328 71.5345 94.1328 71.4678 94.1328C71.4345 94.0661 71.2345 93.6994 71.2012 93.6328C71.2678 93.5661 71.8678 92.9661 71.8678 92.9661C71.8678 92.9661 71.2678 92.3661 71.2012 92.2994C71.2345 92.2328 71.4345 91.8661 71.4678 91.7994C71.5345 91.7994 72.1678 91.6994 72.2345 91.6994C72.2678 91.7328 72.9678 92.3661 72.9678 92.3661L73.9678 91.5328V92.4661Z" fill="#00843D"/>
<path d="M73.9678 97.0675L73.3345 96.5341L73.9678 96.0008V95.1008L72.9678 95.9341C72.9678 95.9341 72.3012 95.3341 72.2345 95.2675C72.1678 95.2675 71.5345 95.3675 71.4678 95.3675C71.4345 95.4341 71.2345 95.8008 71.2012 95.8675C71.2678 95.9341 71.8678 96.5341 71.8678 96.5341C71.8678 96.5341 71.2678 97.1341 71.2012 97.2008C71.2345 97.2675 71.4345 97.6341 71.4678 97.7008C71.5345 97.7008 72.1678 97.8008 72.2345 97.8008C72.2678 97.7675 72.9678 97.1675 72.9678 97.1675L73.9678 98.0008V97.0675Z" fill="#00843D"/>
<path d="M52.0344 88.9328L52.6678 89.4662L52.0344 89.9995V90.8995L53.0344 90.0661C53.0344 90.0661 53.7011 90.6662 53.7678 90.7328C53.8344 90.7328 54.4678 90.6328 54.5344 90.6328C54.5678 90.5661 54.7677 90.1995 54.801 90.1328C54.7344 90.0661 54.1344 89.4662 54.1344 89.4662C54.1344 89.4662 54.7344 88.8661 54.801 88.7995C54.7677 88.7328 54.5678 88.3661 54.5344 88.2995C54.4678 88.2995 53.8344 88.1995 53.7678 88.1995C53.7344 88.2328 53.0344 88.8661 53.0344 88.8661L52.0344 88.0328V88.9328Z" fill="#00843D"/>
<path d="M52.0344 92.4661L52.6678 92.9994L52.0344 93.5328V94.4328L53.0344 93.5994C53.0344 93.5994 53.7011 94.1994 53.7678 94.2328C53.8344 94.2328 54.4678 94.1328 54.5344 94.1328C54.5678 94.0661 54.7677 93.6994 54.801 93.6328C54.7344 93.5661 54.1344 92.9661 54.1344 92.9661C54.1344 92.9661 54.7344 92.3661 54.801 92.2994C54.7677 92.2328 54.5678 91.8661 54.5344 91.7994C54.4678 91.7994 53.8344 91.6994 53.7678 91.6994C53.7344 91.7328 53.0344 92.3661 53.0344 92.3661L52.0344 91.5328V92.4661Z" fill="#00843D"/>
<path d="M52.0344 97.0675L52.6678 96.5341L52.0344 96.0008V95.1008L53.0344 95.9341C53.0344 95.9341 53.7011 95.3341 53.7678 95.2675C53.8344 95.2675 54.4678 95.3675 54.5344 95.3675C54.5678 95.4341 54.7677 95.8008 54.801 95.8675C54.7344 95.9341 54.1344 96.5341 54.1344 96.5341C54.1344 96.5341 54.7344 97.1341 54.801 97.2008C54.7677 97.2675 54.5678 97.6341 54.5344 97.7008C54.4678 97.7008 53.8344 97.8008 53.7678 97.8008C53.7344 97.7675 53.0344 97.1675 53.0344 97.1675L52.0344 98.0008V97.0675Z" fill="#00843D"/>
<path d="M55.7662 84.7995C55.7328 84.8328 52.2328 87.7661 52.0662 87.8995C52.3662 88.1661 52.6995 88.4328 52.9995 88.6995C53.0662 88.6328 53.6995 88.0661 53.6995 88.0661L54.5995 88.1995L54.9662 88.8661C54.9662 88.8661 54.4328 89.3995 54.3328 89.4995C54.4328 89.5995 54.9662 90.1328 54.9662 90.1328L54.5995 90.7995L53.6995 90.8995C53.6995 90.8995 53.0995 90.3662 52.9995 90.2995L51.9995 91.1328V91.3995C52.3328 91.6662 52.6662 91.9662 52.9995 92.2328C53.0662 92.1662 53.6995 91.6328 53.6995 91.6328L54.5995 91.7328L54.9662 92.3995C54.9662 92.3995 54.4328 92.9328 54.3328 93.0328C54.4328 93.1328 54.9662 93.6662 54.9662 93.6662L54.5995 94.3328L53.6995 94.4328C53.6995 94.4328 53.0995 93.8995 52.9995 93.7995L51.9995 94.6328V94.9328L52.9995 95.7662C53.0662 95.6995 53.6995 95.1328 53.6995 95.1328L54.5995 95.2662L54.9662 95.9328C54.9662 95.9328 54.4328 96.4662 54.3328 96.5662C54.4328 96.6662 54.9662 97.1995 54.9662 97.1995L54.5995 97.8661L53.6995 97.9995C53.6995 97.9995 53.0995 97.4662 52.9995 97.3662C52.6995 97.6328 52.3662 97.8995 52.0662 98.1328C52.2328 98.2661 55.7328 101.199 55.7662 101.233H56.5662L57.7328 100.099L56.9662 99.4328L57.0995 98.4995L57.8995 98.1662L58.6995 98.7995L59.4995 98.1662L60.2995 98.4995L60.4662 99.4328L59.6995 100.099L60.8328 101.199L61.9662 100.099L61.1995 99.4328L61.3328 98.4995L62.1328 98.1662L62.9328 98.7995L63.7328 98.1662L64.5328 98.4995L64.6662 99.4328L63.8995 100.099L65.0328 101.199L66.1661 100.099L65.3995 99.4328L65.5328 98.4995L66.3328 98.1662L67.1328 98.7995L67.9328 98.1662L68.7328 98.4995L68.8661 99.4328L68.0994 100.099L69.2661 101.233H70.0661C70.0994 101.199 73.5994 98.2661 73.7661 98.1328C73.4661 97.8661 73.1328 97.5995 72.8328 97.3662C72.7661 97.4328 72.1661 97.9995 72.1661 97.9995L71.2661 97.8661L70.8994 97.1995C70.8994 97.1995 71.4328 96.6662 71.5328 96.5662C71.4328 96.4662 70.8994 95.9328 70.8994 95.9328L71.2661 95.2662L72.1661 95.1328C72.1661 95.1328 72.7661 95.6662 72.8328 95.7662L73.8328 94.9328V94.6328L72.8328 93.7995C72.7661 93.8662 72.1661 94.4328 72.1661 94.4328L71.2661 94.3328L70.8994 93.6662C70.8994 93.6662 71.4328 93.1328 71.5328 93.0328C71.4328 92.9328 70.8994 92.3995 70.8994 92.3995L71.2661 91.7328L72.1661 91.6328C72.1661 91.6328 72.7661 92.1662 72.8328 92.2328C73.1661 91.9662 73.4994 91.6995 73.8328 91.4328V91.0995L72.8328 90.2995C72.7661 90.3662 72.1661 90.8995 72.1661 90.8995L71.2661 90.7995L70.8994 90.1328C70.8994 90.1328 71.4328 89.5995 71.5328 89.4995C71.4328 89.3995 70.8994 88.8661 70.8994 88.8661L71.2661 88.1995L72.1661 88.0661C72.1661 88.0661 72.7661 88.5995 72.8328 88.6995C73.1328 88.4328 73.4661 88.1995 73.7994 87.9328C73.6661 87.8328 70.1328 84.8661 70.0994 84.8328H69.2994L68.1328 85.9661L68.8994 86.6328L68.7661 87.5661L67.9661 87.9328L67.1661 87.2995L66.3661 87.9328L65.5662 87.5661L65.4328 86.6328L66.1994 85.9661L65.0662 84.8661L63.9328 85.9661L64.6995 86.6328L64.5662 87.5661L63.7662 87.9328L62.9662 87.2995L62.1662 87.9328L61.3662 87.5661L61.2328 86.6328L61.9995 85.9661L60.8662 84.8661L59.7328 85.9661L60.4995 86.6328L60.3328 87.5328L59.5328 87.8995L58.7328 87.2662L57.9328 87.8995L57.1328 87.5328L56.9995 86.5995L57.7662 85.9328L56.5662 84.7995H55.7662ZM52.0328 92.6328V93.3662L52.4662 92.9995L52.0328 92.6328Z" fill="#D22630"/>
<path d="M58.7657 100.633L58.1323 101.199H59.3657L58.7657 100.633Z" fill="white"/>
<path d="M62.9999 100.633L62.3999 101.199H63.6332L62.9999 100.633Z" fill="white"/>
<path d="M67.234 100.633L66.6007 101.199H67.834L67.234 100.633Z" fill="white"/>
<path d="M58.1323 84.7995L58.7657 85.3995L59.399 84.7995H58.1323Z" fill="white"/>
<path d="M62.3666 84.7995L62.9999 85.3995L63.6333 84.7995H62.3666Z" fill="white"/>
<path d="M66.6333 84.7995L67.2666 85.3995L67.9 84.7995H66.6333Z" fill="white"/>
<path d="M73.9676 89.1008L73.5343 89.4675L73.9676 89.8008V89.1008Z" fill="white"/>
<path d="M73.9676 92.6308L73.5343 92.9975L73.9676 93.3641V92.6308Z" fill="white"/>
<path d="M73.9676 96.1981L73.5343 96.5648L73.9676 96.9314V96.1981Z" fill="white"/>
<path d="M52.0344 89.1008V89.8342L52.4678 89.4675L52.0344 89.1008Z" fill="white"/>
<path d="M52.0344 92.6308V93.3641L52.4678 92.9975L52.0344 92.6308Z" fill="white"/>
<path d="M52.0344 96.1668V96.9001L52.4678 96.5334L52.0344 96.1668Z" fill="white"/>
<path d="M66.6332 91.8321V90.5654H65.3668V89.1654H60.6668V90.5654H59.4001V91.8321H57.6334V94.1988H59.4001V95.4654H60.6668V96.8654H65.3668V95.4654H66.6332V94.1988H68.3998V91.8321H66.6332Z" fill="#383739"/>
<path d="M62.9335 89.2975V90.7308L60.9002 91.8975V92.9308H57.7335V91.9641H59.5002V90.6975H60.7669V89.2975H62.9335Z" fill="#FFC72C"/>
<path d="M63.0664 96.7008V95.2675L65.0997 94.1008V93.0675H68.2661V94.0342H66.4995V95.3008H65.2331V96.7008H63.0664Z" fill="#FFC72C"/>
<path d="M65.0997 92.9308V91.8975L63.0664 90.7308V89.2975H65.1997V90.6975H66.4661V91.9641H68.2328V92.9308H65.0997Z" fill="white"/>
<path d="M57.7335 93.0675H60.9002V94.1008L62.9335 95.2675V96.7008H60.8001V95.3008H59.5335V94.0342H57.7669L57.7335 93.0675Z" fill="white"/>
<path d="M61.0343 93.0675V94.0342L62.901 95.1008V93.0675H61.0343Z" fill="#D22630"/>
<path d="M62.9336 90.8988L61.0669 91.9655V92.9322H62.9336V90.8988Z" fill="#00843D"/>
<path d="M64.9664 92.9322V91.9655L63.0997 90.8988V92.9322H64.9664Z" fill="#D22630"/>
<path d="M63.0664 95.1008L64.9331 94.0342V93.0675H63.0664V95.1008Z" fill="#00843D"/>
<path d="M45.8667 118.099V121.999H42.1334V125.532H38.3667V135.632H42.1334V139.199H45.8667V143.099H59.4L61.7667 144.532L60.6667 145.199H55.8334L55.4334 144.732H59.8L58.5667 143.499H52.3L55.1334 146.465H61L63 145.265L65 146.465H70.8668L73.7001 143.499H67.4334L66.2001 144.732H70.5668L70.1668 145.199H65.3334L64.2 144.499L66.5668 143.065H80.1001V139.199H83.8334V135.665H87.6001V125.565H83.8334V122.032H80.1001V118.132H66.5668L64.2 116.699L65.3334 115.999H70.1668L70.5668 116.465H66.2001L67.4334 117.699H73.7001L70.8668 114.732H65L63 115.932L61 114.732H55.1334L52.3 117.699H58.5667L59.8 116.465H55.4334L55.8334 115.999H60.6667L61.8 116.699L59.4334 118.132H45.8667V118.099Z" fill="#D22630"/>
<path d="M66.5334 142.933H79.9668V139.033H83.6668V135.5H87.4334V125.7H83.6668V122.167H79.9668V118.267H66.5334L60.9668 114.9H55.2002L52.6335 117.567H58.5002L59.4668 116.6H55.1002L55.7668 115.833H60.7002L67.0334 119.633H78.5668V123.533H82.3001V127.067H86.0668V134.067H82.3001V137.6H78.5668V141.533H67.0334L60.7002 145.333H55.7668L55.1002 144.6H59.4668L58.5002 143.633H52.6335L55.2002 146.3H60.9668L66.5334 142.933ZM58.9668 141.533H47.4335V137.633H43.7335V134.1H39.9669V127.1H43.7335V123.567H47.4335V119.667H58.9668L65.3002 115.867H70.2334L70.9001 116.633H66.5668L67.5334 117.6H73.4001L70.8334 114.933H65.0668L59.5002 118.3H46.0668V122.2H42.3336V125.733H38.5669V135.533H42.3336V139.067H46.0668V142.967H59.5002L65.0668 146.333H70.8334L73.4001 143.667H67.5334L66.5668 144.633H70.9001L70.2334 145.367H65.3002L58.9668 141.533Z" fill="#FFC72C"/>
<path d="M77.4334 136.533V140.433H66.7001L63.0002 142.666L59.3002 140.433H48.5669V136.533H44.8336V132.999H41.0669V128.266H44.8336V124.733H48.5669V120.833H59.2668H59.3002L63.0002 118.533L66.7001 120.766H77.4334V124.666H81.1668V128.199H84.9334V132.933H81.1668V136.533H77.4334Z" fill="#00843D"/>
<path d="M49.9667 135.132V138.899H55.8667L49.9667 134.999V135.132Z" fill="#383739"/>
<path d="M49.9667 126.066V122.299H55.8667L49.9667 126.199V126.066Z" fill="#383739"/>
<path d="M76.0327 135.132V138.899H70.1327L76.0327 134.999V135.132Z" fill="#383739"/>
<path d="M76.0327 126.066V122.299H70.1327L76.0327 126.199V126.066Z" fill="#383739"/>
<path d="M50.1008 135.268L55.3675 138.768H50.1008V135.268Z" fill="#D22630"/>
<path d="M50.1008 125.934C50.3008 125.801 55.0342 122.667 55.3675 122.434H50.1008V125.934Z" fill="#D22630"/>
<path d="M75.899 135.268C75.699 135.401 70.9657 138.535 70.6323 138.768H75.899V135.268Z" fill="#D22630"/>
<path d="M75.899 125.934C75.699 125.801 70.9657 122.667 70.6323 122.434H75.899V125.934Z" fill="#D22630"/>
<path d="M57.4666 129.565V127.631H56.7999L53.6333 125.665L53.5999 125.698L50.4666 127.665H49.7999V129.598H48.2999V131.665H49.7999V133.598H50.4666L53.6333 135.565L56.7999 133.598H57.4666V131.665H59.7333V129.598L57.4666 129.565Z" fill="#383739"/>
<path d="M53.6675 125.832L56.5675 127.632H50.8008L53.6675 125.832ZM56.5675 133.565L53.6675 135.365L50.7675 133.565H56.5675Z" fill="#D22630"/>
<path d="M55.8665 129.699V131.499H52.2665V129.699H55.8665Z" fill="#D22630"/>
<path d="M57.3336 131.631V133.431H53.7336V131.631H57.3336Z" fill="#FFC72C"/>
<path d="M53.6 131.631V133.431H50V131.631H53.6Z" fill="#FFC72C"/>
<path d="M59.5995 129.699V131.499H55.9994V129.699H59.5995Z" fill="#FFC72C"/>
<path d="M52.0995 129.699V131.499H48.4994V129.699H52.0995Z" fill="#FFC72C"/>
<path d="M57.3336 127.768V129.568H53.7336V127.768H57.3336Z" fill="#FFC72C"/>
<path d="M53.6 127.768V129.568H50V127.768H53.6Z" fill="#FFC72C"/>
<path d="M51.0995 130.101V131.101H49.4662V130.101H51.0995Z" fill="#383739"/>
<path d="M52.6001 128.165V129.165H50.9668V128.165H52.6001Z" fill="#383739"/>
<path d="M56.3339 128.165V129.165H54.7006V128.165H56.3339Z" fill="#383739"/>
<path d="M54.8665 130.101V131.101H53.2332V130.101H54.8665Z" fill="#383739"/>
<path d="M58.5995 130.101V131.101H56.9995V130.101H58.5995Z" fill="#383739"/>
<path d="M56.3339 132.031V133.031H54.7006V132.031H56.3339Z" fill="#383739"/>
<path d="M52.6001 132.031V133.031H50.9668V132.031H52.6001Z" fill="#383739"/>
<path d="M50.9672 130.268H49.6671V130.968H50.9672V130.268Z" fill="white"/>
<path d="M52.4328 128.332H51.1328V129.032H52.4328V128.332Z" fill="white"/>
<path d="M56.1999 128.332H54.8999V129.032H56.1999V128.332Z" fill="white"/>
<path d="M54.6993 130.268H53.3993V130.968H54.6993V130.268Z" fill="white"/>
<path d="M58.4671 130.268H57.1671V130.968H58.4671V130.268Z" fill="white"/>
<path d="M56.1999 132.199H54.8999V132.899H56.1999V132.199Z" fill="white"/>
<path d="M52.4328 132.199H51.1328V132.899H52.4328V132.199Z" fill="white"/>
<path d="M68.5336 129.565V127.631H69.2003L72.367 125.665L72.4003 125.698L75.5336 127.665H76.2003V129.598H77.7003V131.665H76.2003V133.598H75.5336L72.3336 135.531L69.167 133.565H68.5003V131.631H66.2336V129.565H68.5336Z" fill="#383739"/>
<path d="M72.3336 125.832L69.4336 127.632H75.2003L72.3336 125.832ZM69.4336 133.565L72.3336 135.365L75.2336 133.565H69.4336Z" fill="#D22630"/>
<path d="M70.1327 129.699V131.499H73.7327V129.699H70.1327Z" fill="#D22630"/>
<path d="M68.6661 131.631V133.431H72.2661V131.631H68.6661Z" fill="#FFC72C"/>
<path d="M72.3992 131.631V133.431H75.9992V131.631H72.3992Z" fill="#FFC72C"/>
<path d="M66.3997 129.699V131.499H69.9997V129.699H66.3997Z" fill="#FFC72C"/>
<path d="M73.8997 129.699V131.499H77.4997V129.699H73.8997Z" fill="#FFC72C"/>
<path d="M68.6661 127.768V129.568H72.2661V127.768H68.6661Z" fill="#FFC72C"/>
<path d="M72.3992 127.768V129.568H75.9992V127.768H72.3992Z" fill="#FFC72C"/>
<path d="M74.8666 130.101V131.101H76.4999V130.101H74.8666Z" fill="#383739"/>
<path d="M73.3993 128.165V129.165H75.0326V128.165H73.3993Z" fill="#383739"/>
<path d="M69.6672 128.165V129.165H71.3006V128.165H69.6672Z" fill="#383739"/>
<path d="M71.1328 130.101V131.101H72.7662V130.101H71.1328Z" fill="#383739"/>
<path d="M67.3992 130.101V131.101H69.0325V130.101H67.3992Z" fill="#383739"/>
<path d="M69.6672 132.031V133.031H71.3006V132.031H69.6672Z" fill="#383739"/>
<path d="M73.3993 132.031V133.031H75.0326V132.031H73.3993Z" fill="#383739"/>
<path d="M75.0333 130.268H76.3333V130.968H75.0333V130.268Z" fill="white"/>
<path d="M73.5343 128.332H74.8343V129.032H73.5343V128.332Z" fill="white"/>
<path d="M69.799 128.332H71.0989V129.032H69.799V128.332Z" fill="white"/>
<path d="M71.2996 130.268H72.5996V130.968H71.2996V130.268Z" fill="white"/>
<path d="M67.5333 130.268H68.8333V130.968H67.5333V130.268Z" fill="white"/>
<path d="M69.799 132.199H71.0989V132.899H69.799V132.199Z" fill="white"/>
<path d="M73.5343 132.199H74.8343V132.899H73.5343V132.199Z" fill="white"/>
<path d="M66.7995 126.333V128.267H66.1328L62.9665 130.233L62.9331 130.2L59.7998 128.233H59.1331V126.3H57.2665V124.233H59.1331V122.3H59.7998L62.9665 120.333L66.1328 122.3H66.7995V124.233H68.6661V126.3H66.7995V126.333Z" fill="#383739"/>
<path d="M63.0008 130.066L65.9008 128.266H60.1342L63.0008 130.066ZM65.9008 122.333L63.0008 120.533L60.1008 122.333H65.9008Z" fill="#FFC72C"/>
<path d="M66.6661 124.265V122.465H63.0664V124.265H66.6661Z" fill="#D22630"/>
<path d="M62.9328 124.265V122.465H59.3328V124.265H62.9328Z" fill="#D22630"/>
<path d="M68.5342 126.2V124.4H64.9341V126.2H68.5342Z" fill="#D22630"/>
<path d="M64.8012 126.2V124.4H61.2012V126.2H64.8012Z" fill="#D22630"/>
<path d="M61.0667 126.2V124.4H57.4667V126.2H61.0667Z" fill="#D22630"/>
<path d="M66.6661 128.132V126.332H63.0664V128.132H66.6661Z" fill="#D22630"/>
<path d="M62.9328 128.132V126.332H59.3328V128.132H62.9328Z" fill="#D22630"/>
<path d="M61.9329 122.865V123.865H60.3329V122.865H61.9329Z" fill="#383739"/>
<path d="M65.6665 122.865V123.865H64.0332V122.865H65.6665Z" fill="#383739"/>
<path d="M60.0675 124.799V125.799H58.4342V124.799H60.0675Z" fill="#383739"/>
<path d="M63.8004 124.799V125.799H62.1671V124.799H63.8004Z" fill="#383739"/>
<path d="M67.5675 124.799V125.799H65.9342V124.799H67.5675Z" fill="#383739"/>
<path d="M61.9329 126.732V127.732H60.3329V126.732H61.9329Z" fill="#383739"/>
<path d="M65.6665 126.732V127.732H64.0332V126.732H65.6665Z" fill="#383739"/>
<path d="M61.8005 123.033H60.5005V123.733H61.8005V123.033Z" fill="white"/>
<path d="M65.5325 123.033H64.2325V123.733H65.5325V123.033Z" fill="white"/>
<path d="M59.9002 124.965H58.6002V125.665H59.9002V124.965Z" fill="white"/>
<path d="M63.6673 124.965H62.334V125.665H63.634V124.965H63.6673Z" fill="white"/>
<path d="M67.4002 124.965H66.1002V125.665H67.4002V124.965Z" fill="white"/>
<path d="M61.8005 126.9H60.5005V127.6H61.8005V126.9Z" fill="white"/>
<path d="M65.5325 126.9H64.2325V127.6H65.5325V126.9Z" fill="white"/>
<path d="M66.7995 136.931V138.864H66.1328L62.9665 140.831L62.9331 140.797L59.7998 138.831H59.1331V136.897H57.2665V134.864H59.1331V132.931H59.7998L62.9665 130.964L66.1328 132.931H66.7995V134.864H68.6661V136.931H66.7995Z" fill="#383739"/>
<path d="M63.0008 140.665L65.9008 138.865H60.1342L63.0008 140.665ZM65.9008 132.931L63.0008 131.131L60.1008 132.931H65.9008Z" fill="#FFC72C"/>
<path d="M66.6661 134.867V133.068H63.0664V134.867H66.6661Z" fill="#D22630"/>
<path d="M62.9328 134.867V133.068H59.3328V134.867H62.9328Z" fill="#D22630"/>
<path d="M68.5342 136.799V134.999H64.9341V136.799H68.5342Z" fill="#D22630"/>
<path d="M64.8012 136.799V134.999H61.2012V136.799H64.8012Z" fill="#D22630"/>
<path d="M61.0667 136.799V134.999H57.4667V136.799H61.0667Z" fill="#D22630"/>
<path d="M66.6661 138.733V136.933H63.0664V138.733H66.6661Z" fill="#D22630"/>
<path d="M62.9328 138.733V136.933H59.3328V138.733H62.9328Z" fill="#D22630"/>
<path d="M61.9329 133.464V134.464H60.3329V133.464H61.9329Z" fill="#383739"/>
<path d="M65.6665 133.464V134.464H64.0332V133.464H65.6665Z" fill="#383739"/>
<path d="M60.0675 135.4V136.4H58.4342V135.4H60.0675Z" fill="#383739"/>
<path d="M63.8004 135.4V136.4H62.1671V135.4H63.8004Z" fill="#383739"/>
<path d="M67.5675 135.4V136.4H65.9342V135.4H67.5675Z" fill="#383739"/>
<path d="M61.9329 137.331V138.331H60.3329V137.331H61.9329Z" fill="#383739"/>
<path d="M65.6665 137.331V138.331H64.0332V137.331H65.6665Z" fill="#383739"/>
<path d="M61.8005 133.631H60.5005V134.331H61.8005V133.631Z" fill="white"/>
<path d="M65.5325 133.631H64.2325V134.331H65.5325V133.631Z" fill="white"/>
<path d="M59.9002 135.568H58.6002V136.268H59.9002V135.568Z" fill="white"/>
<path d="M63.6673 135.568H62.334V136.268H63.634V135.568H63.6673Z" fill="white"/>
<path d="M67.4002 135.568H66.1002V136.268H67.4002V135.568Z" fill="white"/>
<path d="M61.8005 137.499H60.5005V138.199H61.8005V137.499Z" fill="white"/>
<path d="M65.5325 137.499H64.2325V138.199H65.5325V137.499Z" fill="white"/>
<path d="M42.5659 159.998L56.5993 152.465H56.6326H69.4661L83.4995 159.998V172.431L69.4661 179.965H56.6326L42.5993 172.431V159.998H42.5659Z" fill="#383739"/>
<path d="M56.6335 152.601L42.7335 160.101V172.367L56.6335 179.867H69.4001L83.3001 172.367V160.101L69.4001 152.601H56.6335ZM56.8669 153.601H69.1334L82.3001 160.667V171.734L69.1334 178.801H56.8669L43.7002 171.734V160.667L56.8669 153.601Z" fill="#00843D"/>
<path d="M63.0672 166.133V178.666H69.1009L82.1675 171.633V166.266H62.9339V153.733H56.9005L43.8339 160.766V166.133H63.0672Z" fill="#FFC72C"/>
<path d="M62.9339 166.133V178.666H56.9005L43.8339 171.633V166.266H63.0672V153.733H69.1009L82.1675 160.766V166.133H62.9339Z" fill="white"/>
<path d="M64.1676 177.965V174.331L63.0009 175.065L61.8342 174.331V177.965H58.2009L60.6676 176.165V173.598L56.9009 171.231H54.2676V161.198H56.9009L60.6676 158.831V156.265L58.2009 154.465H58.4342H61.8676V158.098L63.0343 157.365L64.2009 158.098V154.465H67.8345L65.3676 156.265V158.831L69.1345 161.198H71.7678V171.198H69.1345L65.3676 173.565V176.131L67.8345 177.931H64.1676V177.965Z" fill="#383739"/>
<path d="M64.3336 154.567V158.3L63.0669 157.5V158.567L68.8001 162.233H70.7001V166.134H71.6001V161.333H69.0668L65.2336 158.9V156.167L67.4001 154.567H64.3336ZM54.4003 166.267V171.067H56.9003L60.7669 173.533V176.267L58.6003 177.867H61.6669V174.133L62.9003 174.934V173.833L57.1669 170.2H55.3003V166.3L54.4003 166.267Z" fill="#FFC72C"/>
<path d="M58.6003 154.567L60.7669 156.167V158.9L56.9003 161.333H54.4003V166.134H55.3003V162.233H57.1669L62.9003 158.6V157.533L61.6669 158.334V154.6L58.6003 154.567ZM70.7001 166.267V170.167H68.8001L63.0669 173.8V174.9L64.3336 174.1V177.833H67.4001L65.2336 176.233V173.533L69.0668 171.067H71.6001V166.267H70.7001Z" fill="white"/>
<path d="M55.4663 170.033H57.233L62.9996 173.7L68.7664 170.033H70.5331V162.4H68.7664H68.7331L62.9663 158.734L57.1997 162.4H55.433L55.4663 170.033Z" fill="#D22630"/>
<path d="M66.9994 167.998H68.2327V167.431H67.2994V166.365H69.2661V169.065H67.3661V170.898H63.4659V168.265H65.1992V169.331H64.5325V169.865H66.3327V168.865L58.9992 164.398H57.7659V164.965H58.6992V166.031H56.7325V163.331H58.6325V161.498H58.6992H62.5325V164.131H60.7992V163.065H61.4659V162.531H59.6659V163.531L66.9994 167.998ZM66.3327 163.565V162.565H64.5325V163.098H65.1992V164.165H63.4659V161.531H67.3661V163.365H69.2661V166.065H67.2994V164.998H68.2327V164.431H66.9994L59.6659 168.898V169.898H61.4659V169.365H60.7992V168.298H62.5325V170.931H58.6325V169.098H56.7325V166.398H58.6992V167.465H57.7659V168.031H58.9992L66.3327 163.565Z" fill="#383739"/>
<path d="M66.4675 168.765V169.998H64.3677V169.198H65.0343V168.431H63.601V170.798H67.2341V168.965H69.1341V166.565H67.4341V167.331H68.3675V168.198H66.9675L59.5343 163.665V162.431H61.6343V163.231H60.9677V163.998H62.401V161.631H58.7677V163.465H56.8677V165.865H58.5677V165.098H57.6343V164.231H59.0343L66.4675 168.765ZM66.9675 164.231H68.3675V165.098H67.4341V165.865H69.1341V163.465H67.2341V161.631H63.601V163.998H65.0343V163.198H64.3677V162.398H66.4675V163.631L59.0343 168.165H57.6343V167.298H58.5677V166.531H56.8677V168.931H58.7677V170.765H62.401V168.398H60.9677V169.165H61.6343V169.965H59.5343V168.731L66.9675 164.231Z" fill="white"/>
<path d="M79.3326 166.832V170.765H77.666V169.365H75.9993V170.765H74.3326V166.832H75.9993V168.232H77.666V166.832H79.3326Z" fill="#383739"/>
<path d="M73.3667 172.031V175.965H71.7V174.565H70.0334V175.965H68.3667V172.031H70.0334V173.431H71.7V172.031H73.3667Z" fill="#383739"/>
<path d="M79.3326 165.565V161.631H77.666V163.031H75.9993V161.631H74.3326V165.565H75.9993V164.198H77.666V165.598H79.3326V165.565Z" fill="#383739"/>
<path d="M46.6666 166.832V170.765H48.3333V169.365H50V170.765H51.6666V166.832H50V168.232H48.3333V166.832H46.6666Z" fill="#383739"/>
<path d="M46.6666 165.565V161.631H48.3333V163.031H50V161.631H51.6666V165.565H50V164.198H48.3333V165.598H46.6666V165.565Z" fill="#383739"/>
<path d="M73.3667 160.366V156.433H71.7V157.833H70.0334V156.433H68.3667V160.366H70.0334V158.966H71.7V160.366H73.3667Z" fill="#383739"/>
<path d="M52.6334 172.031V175.965H54.3001V174.565H55.9668V175.965H57.6334V172.031H55.9668V173.431H54.3001V172.031H52.6334Z" fill="#383739"/>
<path d="M52.6334 160.366V156.433H54.3001V157.833H55.9668V156.433H57.6334V160.366H55.9668V158.966H54.3001V160.366H52.6334Z" fill="#383739"/>
<path d="M74.3677 157.631V160.597H79.901L74.3677 157.631Z" fill="#383739"/>
<path d="M51.6336 174.764V171.797H46.1002L51.6336 174.764Z" fill="#383739"/>
<path d="M51.6336 157.631V160.597H46.1002L51.6336 157.631Z" fill="#383739"/>
<path d="M74.3677 174.764V171.797H79.901L74.3677 174.764Z" fill="#383739"/>
<path d="M77.8328 169.233V170.633H79.1995V167H77.8328V168.4H75.8662V167H74.4995V170.633H75.8662V169.233H77.8328Z" fill="#D22630"/>
<path d="M71.8676 174.433V175.833H73.2343V172.199H71.8676V173.599H69.901V172.199H68.5343V175.833H69.901V174.433H71.8676Z" fill="#D22630"/>
<path d="M77.8328 163.167V161.767H79.1995V165.401H77.8328V164.001H75.8662V165.401H74.4995V161.767H75.8662V163.167H77.8328Z" fill="#D22630"/>
<path d="M48.1667 169.233V170.633H46.8V167H48.1667V168.4H50.1334V167H51.5V170.633H50.1334V169.233H48.1667Z" fill="#D22630"/>
<path d="M48.1667 163.167V161.767H46.8V165.401H48.1667V164.001H50.1334V165.401H51.5V161.767H50.1334V163.167H48.1667Z" fill="#D22630"/>
<path d="M71.8676 157.967V156.567H73.2343V160.2H71.8676V158.8H69.901V160.2H68.5343V156.567H69.901V157.967H71.8676Z" fill="#D22630"/>
<path d="M54.1336 174.433V175.833H52.767V172.199H54.1336V173.599H56.1003V172.199H57.467V175.833H56.1003V174.433H54.1336Z" fill="#D22630"/>
<path d="M54.1336 157.967V156.567H52.767V160.2H54.1336V158.8H56.1003V160.2H57.467V156.567H56.1003V157.967H54.1336Z" fill="#D22630"/>
<path d="M74.5334 157.865V160.465H79.3334L74.5334 157.865ZM46.6666 171.965L51.5 174.565V171.965H46.6666Z" fill="#FFC72C"/>
<path d="M51.4666 157.865L46.6333 160.465H51.4666V157.865ZM74.5334 171.965V174.565L79.3668 171.965H74.5334Z" fill="white"/>
<path d="M85.6341 177.133C85.3675 178.267 84.4675 179.133 84.2341 180.3C83.8008 179.067 83.4008 178.033 83.7008 176.7C83.9008 175.733 84.7341 175.067 84.8008 174.067C85.7008 174.867 85.9008 176 85.6341 177.133ZM85.8675 181.9C85.1341 182.933 84.0675 183.7 82.9341 184.233C83.1675 183.333 82.7341 182.667 82.2675 181.933C81.7008 181.067 81.4342 180.233 81.9008 179.233C82.1008 179.733 82.4008 180.167 82.7342 180.6C83.2342 181.3 83.5675 181.9 83.6341 182.767C84.2008 182.333 84.4675 181.7 84.7675 181.067C85.2341 180.167 86.0008 179.433 86.8675 178.933C86.6675 180 86.4675 181.067 85.8675 181.9ZM81.6675 184.967C81.8342 185.533 81.9675 186.1 81.9342 186.7C82.4342 186.167 83.0675 185.767 83.6675 185.333C84.4675 184.7 85.4008 184.233 86.0342 183.4C85.9342 184.6 85.4342 185.6 84.4342 186.333C83.4008 187.1 82.1341 187.533 81.1341 188.333C81.3008 187.233 80.8675 186.367 80.5342 185.333C80.2342 184.367 80.5341 183.4 81.1675 182.667C81.1675 183.5 81.4342 184.2 81.6675 184.967ZM79.3341 188.667C79.1341 189.5 78.5341 190.167 78.1008 190.933C79.2008 190.6 80.1675 190 81.1675 189.433C82.3675 188.8 83.6342 188.367 84.7008 187.533C84.1675 189.5 82.8341 190.667 80.9008 191.233C79.5675 191.633 78.4675 191.433 76.8675 192.067C77.0675 190.967 77.3675 189.8 77.9008 188.833C78.3008 188.133 78.7341 187.433 79.0008 186.633C79.3675 187.3 79.5341 187.933 79.3341 188.667ZM75.3008 191.7C74.9341 192.333 74.4341 192.9 73.8008 193.333C75.3675 193.433 76.6341 192.433 78.1341 192.4C79.0675 192.367 79.9675 192.667 80.9341 192.567C79.8008 193.333 78.6008 194 77.2341 194.2C75.4341 194.433 73.7675 193.967 71.8008 194.167C72.7341 193.5 73.2008 192.633 73.7675 191.7C74.5341 190.533 75.2341 189.7 76.7008 189.5C76.0675 190.1 75.7341 190.933 75.3008 191.7ZM69.7341 194.267C72.5008 194.733 75.1341 195.333 77.9341 195.367C74.8008 196.467 71.8341 196.667 68.7008 195.533C67.0008 194.933 65.7343 194.6 64.4677 194.7C62.601 194.833 60.3343 195.567 57.8343 198.2L56.8677 197.4C60.4343 194.233 65.1343 193.5 69.7341 194.267Z" fill="#FFC72C"/>
</svg>
