<svg width="401" height="200" viewBox="0 0 401 200" fill="none" xmlns="http://www.w3.org/2000/svg">
<path d="M400.122 0H0.121582V200H400.122V0Z" fill="#006600"/>
<path d="M400.122 0H0.121582V142.871H400.122V0Z" fill="white"/>
<path d="M400.122 0H0.121582V57.1296H400.122V0Z" fill="#CC0000"/>
<path d="M192.117 97.3334C193.117 95.6294 195.284 95.0367 196.987 96.0367C198.061 96.6667 198.728 97.7774 198.746 99V113.296H201.45V99C201.524 97.0367 203.154 95.4627 205.117 95.5367C206.358 95.574 207.487 96.2407 208.08 97.296C209.543 92.87 207.154 88.092 202.746 86.6294C198.339 85.1667 193.543 87.5554 192.08 91.9627C191.543 93.7587 191.543 95.6294 192.117 97.3334Z" fill="#F8C300"/>
<path d="M194.032 93.592C196.439 93.092 198.902 94.1846 200.124 96.3333C201.365 94.2033 203.791 93.092 206.217 93.592C205.754 90.222 202.643 87.8887 199.291 88.3513C196.55 88.7407 194.421 90.9073 194.032 93.592Z" fill="white"/>
<path d="M198.788 107.593C198.251 113.556 192.992 117.963 186.992 117.427C184.584 117.186 182.288 116.186 180.529 114.519C178.232 120.315 171.658 123.112 165.862 120.815C164.992 120.482 164.196 120.056 163.455 119.482C164.492 129.889 180.084 127.741 181.251 117.649C186.158 126.241 196.918 123.779 200.084 113.241L198.788 107.593Z" fill="#F8C300"/>
<path d="M201.454 107.593C201.991 113.556 207.25 117.963 213.25 117.427C215.658 117.186 217.954 116.186 219.713 114.519C222.009 120.315 228.584 123.112 234.38 120.815C235.251 120.482 236.047 120.056 236.787 119.482C235.751 129.889 220.158 127.741 218.991 117.649C214.083 126.241 203.324 123.779 200.157 113.241L201.454 107.593Z" fill="#F8C300"/>
<path d="M188.363 126.093C186.197 130.797 181.826 131.593 178.03 127.797C178.03 127.797 179.567 126.723 181.197 126.426C180.9 125.13 181.53 123.333 182.4 122.333C183.326 122.963 184.641 124.241 184.974 125.741C187.252 125.426 188.363 126.093 188.363 126.093Z" fill="#F8C300"/>
<path d="M205.377 125.573C202.47 129.832 198.044 129.943 194.914 125.573C194.914 125.573 196.618 124.739 198.247 124.739C198.155 123.406 199.081 121.703 200.118 120.906C200.914 121.665 202.025 123.147 202.081 124.665C204.414 124.739 205.377 125.573 205.377 125.573Z" fill="#F8C300"/>
<path d="M222.29 127.795C218.716 131.555 214.327 130.925 211.957 126.091C211.957 126.091 213.753 125.555 215.383 125.795C215.512 124.462 216.679 122.962 217.845 122.295C218.512 123.203 219.345 124.833 219.179 126.333C221.457 126.833 222.29 127.795 222.29 127.795Z" fill="#F8C300"/>
<path d="M227.192 138.759C209.488 133.5 190.766 133.5 173.062 138.759L171.766 134.389C190.34 128.852 209.933 128.852 228.507 134.389L227.192 138.759Z" fill="#F8C300"/>
<path d="M200.118 61.4254L204.322 74.37L193.322 66.3698H206.915L195.915 74.37L200.118 61.4254Z" fill="#F8C300"/>
<path d="M180.118 66.7967L184.322 79.704L173.322 71.7407H186.915L175.915 79.704L180.118 66.7967Z" fill="#F8C300"/>
<path d="M165.491 81.4254L169.695 94.37L158.695 86.37H172.288L161.288 94.37L165.491 81.4254Z" fill="#F8C300"/>
<path d="M160.118 101.425L164.322 114.37L153.322 106.37H166.915L155.915 114.37L160.118 101.425Z" fill="#F8C300"/>
<path d="M220.122 66.7967L215.918 79.704L226.918 71.7407H213.326L224.326 79.704L220.122 66.7967Z" fill="#F8C300"/>
<path d="M234.749 81.4254L230.545 94.37L241.545 86.37H227.953L238.953 94.37L234.749 81.4254Z" fill="#F8C300"/>
<path d="M240.122 101.425L235.918 114.37L246.918 106.37H233.326L244.326 114.37L240.122 101.425Z" fill="#F8C300"/>
</svg>
