<svg width="401" height="200" viewBox="0 0 401 200" fill="none" xmlns="http://www.w3.org/2000/svg">
<path d="M0.658203 0H400.658V200H0.658203V0Z" fill="#1EB53A"/>
<path d="M0.658203 0H400.658V100H0.658203V0Z" fill="#0099B5"/>
<path d="M0.658203 64.0003H400.658V136H0.658203V64.0003Z" fill="#CE1126"/>
<path d="M0.658203 67.9987H400.658V131.999H0.658203V67.9987Z" fill="white"/>
<path d="M56.6573 55.9989C69.9122 55.9989 80.6575 45.2537 80.6575 31.9989C80.6575 18.744 69.9122 7.99886 56.6573 7.99886C43.4025 7.99886 32.6573 18.744 32.6573 31.9989C32.6573 45.2537 43.4025 55.9989 56.6573 55.9989Z" fill="white"/>
<path d="M64.6582 55.9989C77.9129 55.9989 88.6582 45.2537 88.6582 31.9989C88.6582 18.744 77.9129 7.99886 64.6582 7.99886C51.4034 7.99886 40.6582 18.744 40.6582 31.9989C40.6582 45.2537 51.4034 55.9989 64.6582 55.9989Z" fill="#0099B5"/>
<path d="M109.457 46.4075L107.976 50.963L110.254 51.7223" fill="white"/>
<path d="M109.456 46.4075L110.937 50.963L108.659 51.7223" fill="white"/>
<path d="M114.013 49.7221H109.217V52.1295" fill="white"/>
<path d="M114.009 49.7221L110.12 52.5554L108.713 50.5925" fill="white"/>
<path d="M104.9 49.7221L108.788 52.5554L110.196 50.5925" fill="white"/>
<path d="M104.9 49.7221H109.696V52.1295" fill="white"/>
<path d="M112.303 55.0752L110.822 50.5196L108.544 51.2789" fill="white"/>
<path d="M112.303 55.0742L108.415 52.2409L109.822 50.2779" fill="white"/>
<path d="M106.62 55.0742L110.509 52.2409L109.102 50.2779" fill="white"/>
<path d="M106.62 55.0752L108.102 50.5196L110.379 51.2789" fill="white"/>
<path d="M109.457 27.2042L107.976 31.7597L110.254 32.519" fill="white"/>
<path d="M109.456 27.2042L110.937 31.7597L108.659 32.519" fill="white"/>
<path d="M114.013 30.5188H109.217V32.9262" fill="white"/>
<path d="M114.009 30.5188L110.12 33.3521L108.713 31.3891" fill="white"/>
<path d="M104.9 30.5188L108.788 33.3521L110.196 31.3891" fill="white"/>
<path d="M104.9 30.5188H109.696V32.9262" fill="white"/>
<path d="M112.303 35.8877L110.822 31.3322L108.544 32.0915" fill="white"/>
<path d="M112.303 35.8893L108.415 33.0559L109.822 31.0929" fill="white"/>
<path d="M106.62 35.8893L110.509 33.0559L109.102 31.0929" fill="white"/>
<path d="M109.457 7.99886L107.976 12.5544L110.254 13.3137" fill="white"/>
<path d="M109.456 7.99886L110.937 12.5544L108.659 13.3137" fill="white"/>
<path d="M114.013 11.3163H109.217V13.7237" fill="white"/>
<path d="M114.009 11.3163L110.12 14.1497L108.713 12.1867" fill="white"/>
<path d="M104.9 11.3163L108.788 14.1497L110.196 12.1867" fill="white"/>
<path d="M104.9 11.3163H109.696V13.7237" fill="white"/>
<path d="M112.303 16.6845L110.822 12.1289L108.544 12.8881" fill="white"/>
<path d="M112.303 16.6859L108.415 13.8526L109.822 11.8897" fill="white"/>
<path d="M106.62 16.6859L110.509 13.8526L109.102 11.8897" fill="white"/>
<path d="M128.655 46.4075L127.174 50.963L129.452 51.7223" fill="white"/>
<path d="M128.657 46.4075L130.138 50.963L127.86 51.7223" fill="white"/>
<path d="M133.211 49.7221H128.415V52.1295" fill="white"/>
<path d="M133.21 49.7221L129.322 52.5554L127.914 50.5925" fill="white"/>
<path d="M124.099 49.7221L127.988 52.5554L129.395 50.5925" fill="white"/>
<path d="M124.099 49.7221H128.895V52.1295" fill="white"/>
<path d="M131.492 55.0752L130.01 50.5196L127.732 51.2789" fill="white"/>
<path d="M131.492 55.0742L127.604 52.2409L129.011 50.2779" fill="white"/>
<path d="M125.821 55.0742L129.71 52.2409L128.302 50.2779" fill="white"/>
<path d="M128.655 27.2042L127.174 31.7597L129.452 32.519" fill="white"/>
<path d="M128.657 27.2042L130.138 31.7597L127.86 32.519" fill="white"/>
<path d="M133.211 30.5188H128.415V32.9262" fill="white"/>
<path d="M124.099 30.5188L127.988 33.3521L129.395 31.3891" fill="white"/>
<path d="M124.099 30.5188H128.895V32.9262" fill="white"/>
<path d="M131.492 35.8877L130.01 31.3322L127.732 32.0915" fill="white"/>
<path d="M125.821 35.8893L129.71 33.0559L128.302 31.0929" fill="white"/>
<path d="M128.655 7.99886L127.174 12.5544L129.452 13.3137" fill="white"/>
<path d="M128.657 7.99886L130.138 12.5544L127.86 13.3137" fill="white"/>
<path d="M133.211 11.3163H128.415V13.7237" fill="white"/>
<path d="M124.099 11.3163L127.988 14.1497L129.395 12.1867" fill="white"/>
<path d="M124.099 11.3163H128.895V13.7237" fill="white"/>
<path d="M131.492 16.6845L130.01 12.1289L127.732 12.8881" fill="white"/>
<path d="M125.821 16.6859L129.71 13.8526L128.302 11.8897" fill="white"/>
<path d="M147.865 46.4075L146.384 50.963L148.662 51.7223" fill="white"/>
<path d="M147.865 46.4075L149.346 50.963L147.069 51.7223" fill="white"/>
<path d="M152.419 49.7221H147.623V52.1295" fill="white"/>
<path d="M152.42 49.7221L148.532 52.5554L147.124 50.5925" fill="white"/>
<path d="M143.309 49.7221L147.197 52.5554L148.605 50.5925" fill="white"/>
<path d="M143.309 49.7221H148.105V52.1295" fill="white"/>
<path d="M150.698 55.0752L149.216 50.5196L146.939 51.2789" fill="white"/>
<path d="M150.7 55.0742L146.811 52.2409L148.218 50.2779" fill="white"/>
<path d="M145.007 55.0742L148.895 52.2409L147.488 50.2779" fill="white"/>
<path d="M147.865 27.2042L146.384 31.7597L148.662 32.519" fill="white"/>
<path d="M147.865 27.2042L149.346 31.7597L147.069 32.519" fill="white"/>
<path d="M152.419 30.5188H147.623V32.9262" fill="white"/>
<path d="M143.309 30.5188L147.197 33.3521L148.605 31.3891" fill="white"/>
<path d="M143.309 30.5188H148.105V32.9262" fill="white"/>
<path d="M150.698 35.8877L149.216 31.3322L146.939 32.0915" fill="white"/>
<path d="M145.007 35.8893L148.895 33.0559L147.488 31.0929" fill="white"/>
<path d="M147.865 7.99886L146.384 12.5544L148.662 13.3137" fill="white"/>
<path d="M147.865 7.99886L149.346 12.5544L147.069 13.3137" fill="white"/>
<path d="M152.419 11.3163H147.623V13.7237" fill="white"/>
<path d="M143.309 11.3163L147.197 14.1497L148.605 12.1867" fill="white"/>
<path d="M143.309 11.3163H148.105V13.7237" fill="white"/>
<path d="M150.698 16.6845L149.216 12.1289L146.939 12.8881" fill="white"/>
<path d="M145.007 16.6859L148.895 13.8526L147.488 11.8897" fill="white"/>
<path d="M71.0623 46.4075L69.5809 50.963L71.8583 51.7223" fill="white"/>
<path d="M71.0681 46.4075L72.5495 50.963L70.2715 51.7223" fill="white"/>
<path d="M75.6255 49.7221H70.8295V52.1295" fill="white"/>
<path d="M75.6222 49.7221L71.7329 52.5554L70.3256 50.5925" fill="white"/>
<path d="M66.4915 49.7221L70.3802 52.5554L71.7875 50.5925" fill="white"/>
<path d="M66.4915 49.7221H71.2875V52.1295" fill="white"/>
<path d="M73.903 55.0752L72.4216 50.5196L70.1443 51.2789" fill="white"/>
<path d="M73.8954 55.0742L70.0068 52.2409L71.4141 50.2779" fill="white"/>
<path d="M68.2121 55.0742L72.1008 52.2409L70.6935 50.2779" fill="white"/>
<path d="M68.2121 55.0752L69.6935 50.5196L71.9708 51.2789" fill="white"/>
<path d="M90.2483 46.4075L88.7669 50.963L91.0443 51.7223" fill="white"/>
<path d="M90.2481 46.4075L91.7302 50.963L89.4521 51.7223" fill="white"/>
<path d="M94.8223 49.7221H90.0263V52.1295" fill="white"/>
<path d="M94.8228 49.7221L90.9342 52.5554L89.5268 50.5925" fill="white"/>
<path d="M85.6928 49.7221L89.5815 52.5554L90.9888 50.5925" fill="white"/>
<path d="M85.6928 49.7221H90.4888V52.1295" fill="white"/>
<path d="M93.1043 55.0752L91.6223 50.5196L89.3449 51.2789" fill="white"/>
<path d="M93.1054 55.0742L89.2168 52.2409L90.6241 50.2779" fill="white"/>
<path d="M87.4215 55.0742L91.3108 52.2409L89.9028 50.2779" fill="white"/>
<path d="M87.4215 55.0752L88.9035 50.5196L91.1808 51.2789" fill="white"/>
<path d="M90.2483 27.2042L88.7669 31.7597L91.0443 32.519" fill="white"/>
<path d="M90.2481 27.2042L91.7302 31.7597L89.4521 32.519" fill="white"/>
<path d="M94.8223 30.5188H90.0263V32.9262" fill="white"/>
<path d="M94.8228 30.5188L90.9342 33.3521L89.5268 31.3891" fill="white"/>
<path d="M85.6928 30.5188L89.5815 33.3521L90.9888 31.3891" fill="white"/>
<path d="M85.6928 30.5188H90.4888V32.9262" fill="white"/>
<path d="M93.1043 35.8877L91.6223 31.3322L89.3449 32.0915" fill="white"/>
<path d="M93.1054 35.8893L89.2168 33.0559L90.6241 31.0929" fill="white"/>
<path d="M87.4215 35.8893L91.3108 33.0559L89.9028 31.0929" fill="white"/>
<path d="M87.4215 35.8877L88.9035 31.3322L91.1808 32.0915" fill="white"/>
</svg>
