<svg width="137" height="92" viewBox="0 0 137 92" fill="none" xmlns="http://www.w3.org/2000/svg">
<path d="M136.819 0.483398H0.0839844V91.6564H136.819V0.483398Z" fill="#164194"/>
<path d="M65.5147 20.3516L68.4076 18.2302L71.3004 20.3516L70.1915 16.9284L73.1326 14.8552H69.5165L68.4076 11.3838L67.2987 14.8552H63.6826L66.6237 16.9284L65.5147 20.3516Z" fill="#FFED00"/>
<path d="M50.6124 24.3506L53.4571 22.2292L56.3499 24.3506L55.2892 20.9274L58.182 18.8542H54.566L53.4571 15.3828L52.3481 18.8542H48.7803L51.6731 20.9274L50.6124 24.3506Z" fill="#FFED00"/>
<path d="M42.5609 26.3267L41.452 29.7981H37.8359L40.777 31.9195L39.6681 35.2945L42.5609 33.2213L45.4538 35.2945L44.3448 31.9195L47.2859 29.7981H43.6699L42.5609 26.3267Z" fill="#FFED00"/>
<path d="M38.5619 48.1203L41.4548 50.1935L40.3458 46.8186L43.2869 44.6971H39.6708L38.5619 41.2739L37.453 44.6971H33.8369L36.778 46.8186L35.6691 50.1935L38.5619 48.1203Z" fill="#FFED00"/>
<path d="M43.6699 59.6424L42.5609 56.2192L41.452 59.6907L37.8359 59.6424L40.777 61.7639L39.6681 65.1871L42.5609 63.0657L45.4538 65.1871L44.3448 61.7639L47.2859 59.6424H43.6699Z" fill="#FFED00"/>
<path d="M54.6142 70.5882L53.5053 67.165L52.3963 70.6365L48.7803 70.5882L51.7213 72.7097L50.6124 76.1329L53.5053 74.0114L56.3981 76.1329L55.2892 72.7097L58.2303 70.5882H54.6142Z" fill="#FFED00"/>
<path d="M69.5165 74.5959L68.4076 71.1245L67.2987 74.5959H63.6826L66.6237 76.6691L65.5147 80.0924L68.4076 77.9709L71.3004 80.0924L70.1915 76.6691L73.1326 74.5959H69.5165Z" fill="#FFED00"/>
<path d="M84.4146 70.5882L83.3539 67.165L82.245 70.6365L78.6289 70.5882L81.5218 72.7097L80.461 76.1329L83.3539 74.0114L86.1985 76.1329L85.1378 72.7097L88.0307 70.5882H84.4146Z" fill="#FFED00"/>
<path d="M95.4052 59.6424L94.2963 56.2192L93.1874 59.6907L89.5713 59.6424L92.5123 61.7639L91.4034 65.1871L94.2963 63.0657L97.1409 65.1871L96.0802 61.7639L98.9731 59.6424H95.4052Z" fill="#FFED00"/>
<path d="M102.976 44.6527H99.3603L98.2514 41.2295L97.1424 44.6527H93.5264L96.4674 46.7741L95.3585 50.1973L98.2514 48.0759L101.144 50.1973L100.035 46.7741L102.976 44.6527Z" fill="#FFED00"/>
<path d="M91.4034 35.2462L94.2963 33.1729L97.1409 35.2462L96.0802 31.8712L98.9731 29.7497H95.4052L94.2963 26.2783L93.1874 29.7497H89.5713L92.5123 31.8712L91.4034 35.2462Z" fill="#FFED00"/>
<path d="M83.3496 15.3828L82.2407 18.8542H78.6729L81.5657 20.9757L80.505 24.3506L83.3496 22.2292L86.2425 24.3506L85.1336 20.9757L88.0746 18.8542H84.4586L83.3496 15.3828Z" fill="#FFED00"/>
</svg>
