<svg width="179" height="74" viewBox="0 0 179 74" fill="none" xmlns="http://www.w3.org/2000/svg">
<path d="M8.45933 59.3234L0.844727 51.6621L27.0287 25.6416L34.4798 33.2796L8.45933 59.3234Z" fill="#132E50"/>
<path d="M36.5107 37.1571L43.9151 29.5425L70.029 55.5629L62.4845 63.1308C53.7954 54.4418 45.1297 45.7527 36.5107 37.1571Z" fill="#98B1CB"/>
<path d="M33.3599 40.5444L40.7175 47.9021L19.3453 69.251L11.4971 61.9167L33.3599 40.5444Z" fill="#DD0957"/>
<path d="M36.2783 58.8794L44.0097 50.8911L59.4024 65.7933L51.5075 73.9218L36.2783 58.8794Z" fill="#3E9AD5"/>
<path d="M53.912 4.31543L61.5733 12.0001L47.4186 26.0147L39.874 18.4468C44.5222 13.7753 49.1937 9.05704 53.912 4.31543Z" fill="#DD0957"/>
<path d="M37.7726 15.084L30.2281 22.6286L16.0967 8.63731L23.7113 0.952637L37.7726 15.084Z" fill="#3E9AD5"/>
<path d="M57.4396 36.1755L49.7549 28.8645L60.4293 17.9331L67.9972 25.501C64.5169 29.028 60.9899 32.5784 57.4396 36.1755Z" fill="#132E50"/>
<path d="M13.0378 11.791L23.6655 22.6523L16.0276 29.9399L5.5166 19.3122L13.0378 11.791Z" fill="#98B1CB"/>
<path d="M84.6757 24.1004V24.4508H79.2334V24.1004H79.7006C80.2144 24.1004 80.6115 23.9603 80.8451 23.6333C80.9852 23.4231 81.0787 22.9559 81.0787 22.1851V14.0099C81.102 13.5895 81.0553 13.1457 80.9619 12.7486C80.8918 12.5851 80.7516 12.445 80.5881 12.3515C80.3312 12.2114 80.0276 12.1179 79.7239 12.1179H79.2568V11.7676H84.6991V12.1179H84.2319C83.7181 12.1179 83.3444 12.2581 83.1108 12.5851C82.9473 12.772 82.8772 13.2625 82.8772 14.0333V22.2085C82.8538 22.6289 82.9006 23.0727 82.994 23.4698C83.0641 23.6566 83.2276 23.7968 83.3911 23.8902C83.648 24.0304 83.9516 24.1238 84.2319 24.1238L84.6757 24.1004Z" fill="#6D6E71"/>
<path d="M88.3891 17.443C89.3935 16.2284 90.3512 15.6211 91.2621 15.6211C91.6826 15.6211 92.103 15.7379 92.4767 15.9715C92.8504 16.2751 93.1307 16.6722 93.2942 17.1393C93.4577 17.6999 93.5278 18.2839 93.5045 18.8678V22.5116C93.4811 22.8853 93.5278 23.2591 93.6446 23.6094C93.7147 23.7496 93.8315 23.8897 93.9716 23.9598C94.2285 24.0766 94.5322 24.1233 94.8125 24.0999V24.4269H90.538V24.0999H90.7249C91.0052 24.1233 91.3088 24.0532 91.5658 23.9131C91.7293 23.7729 91.8461 23.5861 91.8928 23.3758C91.9395 23.0722 91.9395 22.7919 91.9395 22.4882V18.9846C91.9395 18.2138 91.8461 17.6299 91.6358 17.2795C91.4256 16.9291 91.0285 16.7189 90.6081 16.7423C89.8607 16.7423 89.1366 17.1393 88.3891 17.9569V22.4649C88.3891 23.0488 88.4125 23.3992 88.4826 23.5393C88.5526 23.7028 88.6928 23.843 88.8329 23.9364C89.1366 24.0532 89.4402 24.0766 89.7672 24.0532V24.3802H85.5161V24.0532H85.703C86.1468 24.0532 86.4271 23.9364 86.5906 23.7262C86.7541 23.516 86.8242 23.0722 86.8242 22.4649V19.335C86.8475 18.7043 86.8242 18.0736 86.7541 17.443C86.7307 17.2795 86.6606 17.0926 86.5439 16.9758C86.4271 16.8824 86.2869 16.8357 86.1468 16.8591C85.9366 16.8591 85.7263 16.9058 85.5161 16.9992L85.376 16.6722L87.9453 15.6211H88.3424L88.3891 17.443Z" fill="#6D6E71"/>
<path d="M98.1053 13.0741V15.9004H100.114V16.5544H98.1053V22.1136C98.1053 22.6741 98.1753 23.0479 98.3388 23.2347C98.479 23.4216 98.7126 23.5384 98.9461 23.515C99.1564 23.515 99.3666 23.445 99.5534 23.3282C99.7637 23.188 99.9038 23.0012 99.9972 22.7676H100.371C100.207 23.3048 99.8804 23.7953 99.4366 24.1457C99.0863 24.426 98.6425 24.6128 98.1987 24.6128C97.895 24.6128 97.6147 24.5194 97.3578 24.3793C97.0775 24.2158 96.8673 23.9822 96.7505 23.7019C96.587 23.2581 96.5169 22.7909 96.5403 22.3238V16.5311H95.1855V16.2274C95.5826 16.0639 95.933 15.8303 96.2366 15.5267C96.6104 15.1763 96.9374 14.7793 97.1943 14.3588C97.4279 13.9384 97.6147 13.4946 97.8016 13.0508L98.1053 13.0741Z" fill="#6D6E71"/>
<path d="M102.544 19.1009C102.544 20.3623 102.848 21.3666 103.479 22.0907C104.016 22.7681 104.81 23.1652 105.674 23.1652C106.212 23.1652 106.725 23.0017 107.146 22.698C107.566 22.3944 107.917 21.8571 108.197 21.1097L108.477 21.2966C108.337 22.1608 107.94 22.9783 107.333 23.6323C106.749 24.3097 105.861 24.7068 104.974 24.6834C103.969 24.6834 102.988 24.263 102.334 23.4922C101.61 22.698 101.236 21.6236 101.236 20.2688C101.236 18.7973 101.61 17.6528 102.358 16.8352C103.082 16.0411 104.109 15.5973 105.16 15.5973C106.048 15.5739 106.912 15.9243 107.52 16.555C108.15 17.1856 108.454 18.0265 108.454 19.1009H102.544ZM102.544 18.5637H106.515C106.515 18.1666 106.445 17.7696 106.328 17.3958C106.188 17.0688 105.931 16.7652 105.628 16.5783C105.347 16.3915 104.997 16.2747 104.67 16.2747C104.156 16.2747 103.642 16.4849 103.292 16.882C102.825 17.3258 102.568 17.9331 102.544 18.5637Z" fill="#6D6E71"/>
<path d="M112.262 15.6211V17.5364C112.986 16.2518 113.711 15.6211 114.481 15.6211C114.785 15.6211 115.089 15.7145 115.322 15.9247C115.532 16.1116 115.649 16.3685 115.673 16.6488C115.673 16.8824 115.579 17.0926 115.439 17.2561C115.299 17.4196 115.089 17.5131 114.855 17.5131C114.575 17.4897 114.318 17.3729 114.131 17.1861C113.967 17.0226 113.757 16.9058 113.524 16.8591C113.383 16.8824 113.243 16.9291 113.15 17.0459C112.8 17.4196 112.496 17.8401 112.286 18.3072V22.4415C112.262 22.8153 112.332 23.1656 112.473 23.516C112.566 23.7028 112.729 23.843 112.893 23.9364C113.173 24.0532 113.477 24.1233 113.781 24.0999V24.4269H109.389V24.0999C109.716 24.1233 110.067 24.0532 110.37 23.8897C110.534 23.7729 110.651 23.6094 110.697 23.4226C110.744 23.1189 110.767 22.8153 110.744 22.5116V19.1948C110.767 18.6109 110.744 18.0036 110.674 17.4196C110.651 17.2561 110.557 17.116 110.44 16.9992C110.324 16.9058 110.183 16.8591 110.043 16.8591C109.81 16.8591 109.6 16.9058 109.389 16.9992L109.296 16.6722L111.889 15.6211H112.262Z" fill="#6D6E71"/>
<path d="M118.779 17.443C119.783 16.2284 120.741 15.6211 121.652 15.6211C122.072 15.6211 122.493 15.7379 122.866 15.9715C123.24 16.2751 123.52 16.6722 123.661 17.1393C123.824 17.6999 123.894 18.2839 123.871 18.8678V22.5116C123.847 22.8853 123.894 23.2591 124.011 23.6094C124.081 23.7729 124.198 23.8897 124.338 23.9831C124.595 24.0999 124.899 24.1466 125.179 24.1233V24.4503H120.951V24.1233H121.138C121.418 24.1466 121.722 24.0766 121.979 23.9364C122.142 23.7963 122.259 23.6094 122.306 23.3992C122.353 23.0956 122.353 22.8153 122.353 22.5116V19.008C122.353 18.2372 122.259 17.6532 122.049 17.3028C121.839 16.9525 121.442 16.7423 121.021 16.7656C120.274 16.7656 119.55 17.1627 118.802 17.9802V22.4883C118.779 22.862 118.802 23.2123 118.896 23.5627C118.966 23.7262 119.106 23.8664 119.246 23.9598C119.55 24.0766 119.853 24.0999 120.18 24.0766V24.4036H115.929V24.0766H116.116C116.56 24.0766 116.84 23.9598 117.004 23.7496C117.167 23.5393 117.237 23.0956 117.237 22.4883V19.335C117.261 18.7043 117.237 18.0737 117.167 17.443C117.144 17.2795 117.074 17.0926 116.957 16.9758C116.84 16.8824 116.7 16.8357 116.56 16.8591C116.35 16.8591 116.139 16.9058 115.929 16.9992L115.789 16.6722L118.358 15.6211H118.755L118.779 17.443Z" fill="#6D6E71"/>
<path d="M130.854 23.2125C130.34 23.6329 129.779 24.03 129.195 24.3804C128.868 24.5439 128.494 24.614 128.121 24.614C127.56 24.6373 127.046 24.4037 126.649 24.0067C126.252 23.5629 126.042 23.0023 126.065 22.395C126.065 22.0213 126.159 21.6475 126.346 21.3205C126.696 20.8067 127.14 20.4096 127.677 20.1293C128.681 19.5921 129.756 19.1249 130.83 18.7745V18.4475C130.83 17.6067 130.69 16.9994 130.433 16.6957C130.129 16.3687 129.686 16.2052 129.242 16.2286C128.892 16.2052 128.565 16.322 128.308 16.5556C128.097 16.7424 127.957 16.9994 127.957 17.2796L127.981 17.8169C128.004 18.0505 127.911 18.3074 127.77 18.4709C127.63 18.6344 127.42 18.7045 127.186 18.7045C126.976 18.7045 126.766 18.611 126.626 18.4475C126.462 18.2607 126.392 18.0271 126.416 17.7935C126.416 17.2563 126.696 16.7658 127.233 16.322C127.77 15.8782 128.541 15.6446 129.546 15.6446C130.2 15.6213 130.83 15.7614 131.414 16.0183C131.788 16.2052 132.068 16.5322 132.232 16.9293C132.348 17.1862 132.395 17.7468 132.395 18.5877V21.484C132.372 21.9745 132.395 22.4884 132.442 22.9789C132.442 23.1191 132.512 23.2359 132.605 23.3526C132.675 23.4227 132.769 23.4461 132.862 23.4461C132.956 23.4461 133.049 23.4227 133.119 23.376C133.4 23.1658 133.633 22.9322 133.867 22.6986V23.2125C133.166 24.1468 132.512 24.614 131.858 24.614C131.578 24.6373 131.321 24.5205 131.134 24.287C130.97 24.0767 130.877 23.7264 130.854 23.2125ZM130.854 22.6052V19.3351C130.223 19.5687 129.616 19.8256 129.032 20.1293C128.611 20.3395 128.261 20.6198 127.981 20.9935C127.77 21.2738 127.654 21.6242 127.654 21.9745C127.63 22.395 127.794 22.7921 128.051 23.0957C128.284 23.376 128.611 23.5395 128.985 23.5395C129.475 23.5395 130.083 23.2359 130.854 22.6052Z" fill="#6D6E71"/>
<path d="M137.16 13.0741V15.9004H139.169V16.5544H137.16V22.1136C137.16 22.6741 137.23 23.0479 137.394 23.2347C137.534 23.4216 137.767 23.5384 138.001 23.515C138.211 23.515 138.421 23.445 138.608 23.3282C138.818 23.188 138.959 23.0012 139.052 22.7676H139.426C139.262 23.3048 138.935 23.7953 138.491 24.1457C138.141 24.426 137.697 24.6128 137.253 24.6128C136.95 24.6128 136.67 24.5194 136.413 24.3793C136.132 24.2158 135.922 23.9822 135.805 23.7019C135.642 23.2581 135.572 22.7909 135.618 22.3238V16.5311H134.264V16.2274C134.661 16.0639 135.011 15.8303 135.315 15.5267C135.688 15.1763 136.015 14.7793 136.272 14.3588C136.506 13.9384 136.693 13.4946 136.88 13.0508L137.16 13.0741Z" fill="#6D6E71"/>
<path d="M143.093 15.6224V22.5129C143.07 22.8633 143.117 23.237 143.21 23.5873C143.28 23.7508 143.397 23.891 143.56 23.9844C143.817 24.1012 144.121 24.1479 144.401 24.1246V24.4516H140.244V24.1246C140.524 24.1479 140.828 24.1012 141.085 24.0078C141.248 23.9143 141.365 23.7742 141.435 23.6107C141.552 23.2603 141.598 22.8866 141.552 22.5362V19.2195C141.575 18.6122 141.552 18.0049 141.458 17.4209C141.435 17.2574 141.365 17.1173 141.248 17.0005C141.131 16.907 140.991 16.8837 140.874 16.8837C140.664 16.8837 140.431 16.9304 140.244 17.0238L140.104 16.6968L142.673 15.6457L143.093 15.6224ZM142.322 11.1377C142.836 11.1377 143.257 11.5581 143.257 12.072C143.257 12.3289 143.163 12.5625 142.977 12.7494C142.813 12.9362 142.556 13.0297 142.299 13.0297C141.762 13.0297 141.341 12.6092 141.341 12.072C141.341 11.8151 141.435 11.5815 141.622 11.3946C141.809 11.2311 142.066 11.1377 142.322 11.1377Z" fill="#6D6E71"/>
<path d="M149.797 15.6214C151.011 15.5746 152.179 16.1352 152.926 17.1162C153.58 17.9338 153.931 18.9615 153.931 20.0126C153.931 20.8301 153.744 21.6243 153.37 22.3484C152.74 23.8199 151.291 24.7542 149.703 24.7309C148.489 24.7776 147.321 24.1936 146.62 23.1892C145.989 22.3484 145.639 21.3206 145.662 20.2695C145.662 19.452 145.872 18.6579 146.246 17.9338C146.877 16.5323 148.278 15.6447 149.797 15.6214ZM149.516 16.2287C149.166 16.2287 148.816 16.3454 148.512 16.5323C148.138 16.7892 147.858 17.1396 147.694 17.56C147.461 18.1673 147.367 18.8214 147.391 19.452C147.367 20.5732 147.624 21.6944 148.138 22.6754C148.629 23.5863 149.283 24.0301 150.1 24.0301C150.684 24.0301 151.245 23.7498 151.595 23.2827C151.992 22.7922 152.179 21.9279 152.179 20.7133C152.179 19.1951 151.852 18.0038 151.198 17.1162C150.824 16.579 150.194 16.2287 149.516 16.2287Z" fill="#6D6E71"/>
<path d="M157.833 17.443C158.837 16.2284 159.795 15.6211 160.706 15.6211C161.126 15.6211 161.546 15.7379 161.92 15.9715C162.294 16.2751 162.574 16.6722 162.714 17.1393C162.878 17.6999 162.948 18.2839 162.925 18.8678V22.5116C162.901 22.8853 162.948 23.2591 163.065 23.6094C163.135 23.7729 163.252 23.8897 163.392 23.9831C163.672 24.0999 163.952 24.1466 164.256 24.1233V24.4503H160.005V24.1233H160.192C160.472 24.1466 160.776 24.0766 161.033 23.9364C161.196 23.7963 161.313 23.6094 161.36 23.3992C161.406 23.0956 161.406 22.8153 161.406 22.5116V19.008C161.406 18.2372 161.313 17.6532 161.103 17.3028C160.892 16.9525 160.495 16.7423 160.075 16.7656C159.328 16.7656 158.603 17.1627 157.856 17.9802V22.4883C157.833 22.862 157.856 23.2123 157.949 23.5627C158.019 23.7262 158.16 23.8664 158.3 23.9598C158.603 24.0766 158.907 24.0999 159.234 24.0766V24.4036H155.006V24.0766H155.193C155.637 24.0766 155.917 23.9598 156.081 23.7496C156.244 23.5393 156.314 23.0956 156.314 22.4883V19.335C156.338 18.7043 156.314 18.0737 156.244 17.443C156.221 17.2795 156.151 17.0926 156.034 16.9758C155.917 16.8824 155.777 16.8357 155.637 16.8591C155.427 16.8591 155.217 16.9058 155.006 16.9992L154.866 16.6722L157.436 15.6211H157.833V17.443Z" fill="#6D6E71"/>
<path d="M169.93 23.2125C169.416 23.6329 168.855 24.03 168.271 24.3804C167.944 24.5439 167.571 24.614 167.197 24.614C166.636 24.6373 166.122 24.4037 165.725 24.0067C165.328 23.5629 165.118 23.0023 165.141 22.395C165.141 22.0213 165.235 21.6475 165.422 21.3205C165.772 20.8067 166.216 20.4096 166.753 20.1293C167.757 19.5921 168.832 19.1249 169.906 18.7745V18.4475C169.906 17.6067 169.766 16.9994 169.509 16.6957C169.206 16.3687 168.762 16.2052 168.318 16.2286C167.968 16.2052 167.641 16.322 167.384 16.5556C167.174 16.7424 167.033 16.9994 167.033 17.2796L167.057 17.8169C167.08 18.0504 166.987 18.3074 166.847 18.4709C166.706 18.6344 166.496 18.7045 166.263 18.7045C166.052 18.7045 165.842 18.611 165.702 18.4475C165.538 18.2607 165.468 18.0271 165.492 17.7935C165.492 17.2563 165.772 16.7658 166.309 16.322C166.847 15.8782 167.617 15.6446 168.622 15.6446C169.276 15.6213 169.906 15.7614 170.49 16.0183C170.864 16.2052 171.144 16.5322 171.308 16.9293C171.425 17.1862 171.471 17.7468 171.471 18.5877V21.484C171.448 21.9745 171.471 22.4884 171.518 22.9789C171.518 23.1191 171.588 23.2359 171.682 23.3526C171.752 23.4227 171.845 23.4461 171.938 23.4461C172.032 23.4461 172.125 23.4227 172.195 23.376C172.476 23.1658 172.709 22.9322 172.943 22.6986V23.2125C172.242 24.1468 171.588 24.614 170.934 24.614C170.654 24.614 170.397 24.4972 170.21 24.287C170.023 24.0767 169.93 23.7264 169.93 23.2125ZM169.93 22.6052V19.3351C169.299 19.5687 168.692 19.8256 168.108 20.1293C167.687 20.3395 167.337 20.6198 167.057 20.9935C166.847 21.2738 166.73 21.6242 166.73 21.9745C166.706 22.395 166.87 22.7921 167.127 23.0957C167.36 23.376 167.687 23.5395 168.061 23.5395C168.528 23.5395 169.159 23.2359 169.93 22.6052Z" fill="#6D6E71"/>
<path d="M176.682 11.1602V22.5353C176.659 22.8857 176.706 23.2594 176.799 23.6098C176.869 23.7733 177.009 23.9134 177.149 24.0069C177.43 24.1237 177.757 24.1704 178.06 24.147V24.474H173.856V24.147C174.136 24.1704 174.393 24.1237 174.65 24.0302C174.814 23.9368 174.93 23.7967 175 23.6332C175.094 23.2828 175.141 22.9091 175.117 22.5587V14.7339C175.141 14.1499 175.117 13.5426 175.047 12.9587C175.024 12.7952 174.954 12.6317 174.837 12.5149C174.72 12.4215 174.603 12.3981 174.463 12.3981C174.253 12.3981 174.043 12.4682 173.856 12.5383L173.692 12.2113L176.238 11.1602H176.682Z" fill="#6D6E71"/>
<path d="M89.8373 31.3882L89.9774 34.3546H89.6271C89.6037 33.9575 89.4869 33.5838 89.3468 33.2334C89.1833 32.9064 88.903 32.6261 88.576 32.4393C88.1789 32.2524 87.7351 32.159 87.3147 32.1823H85.5395V41.8758C85.5395 42.6466 85.6329 43.1371 85.7964 43.324C86.0767 43.6042 86.4971 43.7444 86.8942 43.721H87.338V44.0714H81.9657V43.721H82.4095C82.9468 43.721 83.3205 43.5575 83.5541 43.2305C83.6942 43.0203 83.7643 42.5765 83.7643 41.8524V32.159H82.246C81.8256 32.1356 81.4052 32.1823 80.9847 32.2991C80.6344 32.4393 80.3541 32.6729 80.1438 32.9765C79.8869 33.3969 79.7468 33.8641 79.7234 34.3546H79.373L79.5132 31.3882H89.8373Z" fill="#6D6E71"/>
<path d="M93.0385 35.2411V37.1565C93.7626 35.8718 94.4867 35.2411 95.2342 35.2411C95.5378 35.2411 95.8648 35.3346 96.075 35.5448C96.2853 35.7316 96.402 35.9886 96.402 36.2689C96.402 36.5024 96.332 36.7127 96.1685 36.8762C96.0283 37.0397 95.8181 37.1331 95.5845 37.1331C95.3042 37.1097 95.0473 36.993 94.8604 36.8061C94.6969 36.6426 94.4867 36.5258 94.2531 36.4791C94.113 36.5024 93.9728 36.5492 93.8794 36.6659C93.529 37.0397 93.2254 37.4601 93.0152 37.9273V42.0616C92.9918 42.4353 93.0619 42.7857 93.202 43.136C93.2955 43.3229 93.4356 43.463 93.6225 43.5565C93.9028 43.6733 94.2064 43.7433 94.5101 43.72V44.047H90.1188V43.72C90.4458 43.7433 90.7962 43.6733 91.0998 43.5098C91.2633 43.393 91.3801 43.2295 91.4269 43.0426C91.4736 42.7389 91.4969 42.4353 91.4736 42.1316V38.7915C91.4969 38.2076 91.4736 37.6003 91.4035 37.0163C91.3801 36.8528 91.2867 36.7127 91.1699 36.5959C91.0531 36.5024 90.913 36.4557 90.7728 36.4557C90.5393 36.4557 90.329 36.5024 90.1188 36.5959L90.0254 36.2689L92.6181 35.2178H93.0385V35.2411Z" fill="#6D6E71"/>
<path d="M101.91 42.833C101.396 43.2535 100.836 43.6505 100.252 44.0009C99.9248 44.1644 99.5511 44.2345 99.1773 44.2345C98.6168 44.2578 98.1029 44.0243 97.7058 43.6272C97.3087 43.1834 97.0985 42.6228 97.1219 42.0155C97.1219 41.6418 97.2153 41.2681 97.4022 40.9411C97.7292 40.4272 98.1963 40.0301 98.7336 39.7498C99.7379 39.2126 100.812 38.7454 101.887 38.3951V38.0447C101.887 37.2038 101.747 36.5965 101.49 36.2929C101.186 35.9659 100.742 35.8024 100.299 35.8257C99.9481 35.8024 99.6211 35.9191 99.3642 36.1527C99.154 36.3396 99.0138 36.5965 99.0138 36.8768L99.0372 37.414C99.0606 37.6476 98.9671 37.9046 98.8036 38.0681C98.6635 38.2316 98.4533 38.3016 98.2197 38.3016C98.0095 38.3016 97.7992 38.2316 97.6591 38.0681C97.4956 37.8812 97.4255 37.6476 97.4489 37.3907C97.4489 36.8535 97.7292 36.3629 98.2664 35.9191C98.8036 35.4754 99.5744 35.2418 100.579 35.2418C101.233 35.2184 101.863 35.3586 102.447 35.6155C102.821 35.8024 103.101 36.1294 103.265 36.5265C103.382 36.7834 103.428 37.344 103.428 38.1615V41.0812C103.405 41.5717 103.428 42.0856 103.475 42.5761C103.475 42.7162 103.545 42.833 103.639 42.9498C103.709 43.0199 103.802 43.0432 103.896 43.0432C103.989 43.0432 104.082 43.0199 104.153 42.9732C104.433 42.7629 104.666 42.5294 104.9 42.2958V42.8097C104.199 43.744 103.522 44.2111 102.891 44.2111C102.611 44.2345 102.354 44.1177 102.167 43.8841C102.027 43.6973 101.934 43.3469 101.91 42.833ZM101.91 42.2257V38.9556C101.28 39.1892 100.672 39.4462 100.088 39.7498C99.6679 39.96 99.3175 40.2403 99.0372 40.614C98.827 40.8943 98.7102 41.2447 98.7102 41.5951C98.6868 42.0155 98.8503 42.4126 99.1073 42.7162C99.3409 42.9965 99.6912 43.16 100.042 43.16C100.532 43.16 101.139 42.8564 101.91 42.2257Z" fill="#6D6E71"/>
<path d="M111.77 43.1131C111.42 43.4868 111 43.8139 110.556 44.0474C110.159 44.2343 109.715 44.3277 109.271 44.3277C108.314 44.3277 107.426 43.8839 106.819 43.1598C106.118 42.389 105.768 41.3847 105.768 40.1467C105.768 38.9321 106.188 37.7409 106.935 36.7832C107.613 35.8022 108.734 35.2416 109.925 35.2649C110.626 35.2416 111.303 35.4985 111.794 35.989V34.4007C111.817 33.7934 111.794 33.1861 111.724 32.6022C111.7 32.4153 111.63 32.2518 111.514 32.135C111.397 32.0416 111.28 32.0182 111.14 32.0182C110.93 32.0416 110.696 32.0883 110.486 32.1584L110.369 31.8314L112.915 30.7803H113.335V40.6606C113.312 41.2679 113.335 41.8985 113.406 42.5058C113.429 42.6927 113.522 42.8562 113.639 42.973C113.733 43.0664 113.873 43.1131 113.989 43.1131C114.223 43.0898 114.457 43.0431 114.667 42.9496L114.76 43.2766L112.214 44.3277H111.794L111.77 43.1131ZM111.77 42.4591V38.0445C111.747 37.6474 111.63 37.2504 111.443 36.8766C111.28 36.5496 111.023 36.2693 110.696 36.0825C110.416 35.919 110.112 35.8255 109.785 35.8255C109.201 35.8489 108.664 36.1058 108.314 36.573C107.753 37.227 107.473 38.1613 107.473 39.4226C107.473 40.6839 107.753 41.6416 108.29 42.319C108.851 42.9963 109.458 43.3233 110.135 43.3233C110.696 43.3 111.233 43.0197 111.77 42.4591Z" fill="#6D6E71"/>
<path d="M116.885 38.7215C116.885 39.9829 117.189 40.9872 117.819 41.7113C118.357 42.3887 119.151 42.7858 120.015 42.7858C120.552 42.7858 121.066 42.6223 121.487 42.3186C121.907 42.015 122.257 41.4778 122.538 40.7303L122.818 40.9172C122.678 41.7814 122.281 42.5989 121.673 43.2529C121.09 43.9303 120.202 44.3274 119.314 44.304C118.31 44.304 117.329 43.8602 116.675 43.1128C115.951 42.3186 115.577 41.2442 115.577 39.8894C115.577 38.4179 115.951 37.2734 116.698 36.4559C117.422 35.6617 118.45 35.1945 119.525 35.2179C120.412 35.1945 121.276 35.5449 121.884 36.1756C122.514 36.8062 122.818 37.6471 122.818 38.7215H116.885ZM116.885 38.1843H120.856C120.856 37.7872 120.786 37.3902 120.669 37.0164C120.529 36.6894 120.272 36.3858 119.968 36.1989C119.688 36.0121 119.338 35.8953 119.011 35.8953C118.473 35.8953 117.983 36.1055 117.609 36.5026C117.165 36.9464 116.932 37.5537 116.885 38.1843Z" fill="#6D6E71"/>
<path d="M90.2786 50.7261L90.5589 55.0472H90.2786C89.8815 53.7626 89.3443 52.8283 88.6202 52.2677C87.8961 51.7071 86.9851 51.4034 86.0508 51.4268C85.2333 51.4268 84.4625 51.637 83.7618 52.0575C83.0377 52.548 82.4538 53.2721 82.1501 54.1129C81.7297 55.2341 81.5428 56.402 81.5662 57.5932C81.5428 58.621 81.7297 59.6487 82.1034 60.583C82.4304 61.3772 83.0143 62.0545 83.7618 62.5217C84.5326 62.9889 85.3968 63.2224 86.2844 63.1991C87.0552 63.2224 87.8027 63.0356 88.4567 62.6618C89.0873 62.3115 89.7647 61.6108 90.5355 60.5597L90.8158 60.7465C90.1852 61.8677 89.4377 62.7086 88.5968 63.2224C87.6859 63.7597 86.6348 64.0399 85.5837 64.0166C83.4815 64.0166 81.8465 63.2458 80.7019 61.6808C79.8377 60.4896 79.3705 59.0414 79.4173 57.5699C79.4173 56.3553 79.6976 55.164 80.2581 54.0896C80.7954 53.0618 81.5895 52.221 82.5939 51.637C83.5749 51.0531 84.6961 50.7494 85.864 50.7728C86.7983 50.7728 87.7326 51.0064 88.5735 51.4502C88.737 51.5669 88.9238 51.637 89.1341 51.6604C89.2976 51.6604 89.4611 51.5903 89.5779 51.4735C89.7647 51.2867 89.8815 51.0297 89.9282 50.7728L90.2786 50.7261Z" fill="#6D6E71"/>
<path d="M93.7143 58.3426C93.7143 59.604 94.0179 60.6083 94.6486 61.3324C95.1858 62.0098 95.98 62.4069 96.8442 62.4069C97.3814 62.4069 97.8953 62.2434 98.3157 61.9397C98.7362 61.6361 99.0865 61.0988 99.3668 60.3514L99.6471 60.5383C99.507 61.4025 99.1099 62.22 98.5026 62.874C97.9187 63.5514 97.0311 63.9485 96.1435 63.9251C95.1391 63.9251 94.1581 63.5047 93.5041 62.7339C92.78 61.9397 92.4062 60.8653 92.4062 59.5105C92.4062 58.039 92.78 56.8945 93.5274 56.0769C94.2515 55.2828 95.2792 54.8156 96.3537 54.839C97.2413 54.8156 98.1055 55.166 98.7128 55.7967C99.3435 56.4273 99.6471 57.2682 99.6471 58.3426H93.7143ZM93.7143 57.8054H97.6851C97.6851 57.4083 97.615 57.0113 97.4982 56.6375C97.3581 56.3105 97.1011 56.0069 96.7975 55.82C96.5172 55.6331 96.1668 55.5164 95.8398 55.5164C95.3026 55.5164 94.8121 55.7266 94.4384 56.1237C94.0179 56.5675 93.761 57.1748 93.7143 57.8054Z" fill="#6D6E71"/>
<path d="M103.433 56.6841C104.438 55.4695 105.395 54.8622 106.306 54.8622C106.727 54.8622 107.147 54.979 107.521 55.2126C107.894 55.5162 108.175 55.9133 108.315 56.3805C108.478 56.9411 108.548 57.525 108.525 58.1089V61.7527C108.502 62.1265 108.548 62.5002 108.665 62.8506C108.735 63.0141 108.852 63.1308 108.992 63.2243C109.249 63.3411 109.553 63.3878 109.833 63.3644V63.6914H105.605V63.3644H105.792C106.073 63.3878 106.376 63.3177 106.633 63.1776C106.797 63.0374 106.913 62.8506 106.96 62.6403C107.007 62.3367 107.007 62.0564 107.007 61.7527V58.2491C107.007 57.4783 106.913 56.8943 106.703 56.544C106.493 56.1936 106.096 55.9834 105.675 56.0068C104.928 56.0068 104.204 56.4038 103.456 57.2213V61.7294C103.433 62.1031 103.457 62.4535 103.55 62.8038C103.62 62.9673 103.76 63.1075 103.9 63.2009C104.204 63.3177 104.508 63.3411 104.835 63.3177V63.6447H100.584V63.2943H100.77C101.214 63.2943 101.494 63.1776 101.658 62.9673C101.821 62.7571 101.892 62.3133 101.892 61.706V58.5294C101.915 57.8987 101.892 57.2681 101.821 56.6608C101.798 56.4973 101.728 56.3104 101.611 56.1936C101.494 56.1002 101.354 56.0535 101.214 56.0768C101.004 56.0768 100.794 56.1235 100.584 56.217L100.443 55.89L103.013 54.8389H103.41L103.433 56.6841Z" fill="#6D6E71"/>
<path d="M113.148 52.3163V55.1192H115.157V55.7733H113.148V61.3324C113.148 61.893 113.218 62.2667 113.382 62.4536C113.522 62.6404 113.756 62.7572 113.989 62.7338C114.199 62.7338 114.41 62.6638 114.596 62.547C114.807 62.4068 114.947 62.22 115.04 61.9864H115.414C115.25 62.5236 114.923 63.0141 114.48 63.3645C114.129 63.6448 113.686 63.8317 113.242 63.8317C112.938 63.8317 112.658 63.7382 112.401 63.5981C112.121 63.4346 111.91 63.201 111.794 62.9207C111.63 62.4769 111.583 62.0098 111.607 61.5426V55.7733H110.252V55.4696C110.649 55.3061 110.999 55.0725 111.303 54.7689C111.677 54.4185 112.004 54.0214 112.261 53.601C112.494 53.1806 112.681 52.7368 112.868 52.293L113.148 52.3163Z" fill="#6D6E71"/>
<path d="M118.662 54.8622V56.7776C119.386 55.4929 120.11 54.8622 120.881 54.8622C121.184 54.8622 121.488 54.9557 121.722 55.1659C121.932 55.3527 122.049 55.6097 122.049 55.89C122.049 56.1235 121.978 56.3338 121.815 56.4973C121.675 56.6608 121.465 56.7542 121.231 56.7542C120.951 56.7308 120.694 56.6141 120.507 56.4272C120.343 56.2637 120.133 56.1469 119.9 56.1002C119.759 56.1235 119.619 56.1703 119.526 56.287C119.176 56.6608 118.872 57.0812 118.662 57.5484V61.6827C118.638 62.0564 118.708 62.4068 118.849 62.7571C118.942 62.944 119.105 63.0841 119.269 63.1776C119.549 63.2943 119.853 63.3644 120.157 63.3411V63.6681H115.765V63.3411C116.092 63.3644 116.443 63.2944 116.746 63.1308C116.91 63.0141 117.027 62.8506 117.073 62.6637C117.12 62.36 117.143 62.0564 117.12 61.7527V58.4126C117.143 57.8287 117.12 57.2213 117.05 56.6374C117.027 56.4739 116.933 56.3338 116.816 56.217C116.7 56.1235 116.559 56.0768 116.419 56.0768C116.186 56.0768 115.976 56.1235 115.765 56.217L115.672 55.89L118.265 54.8389H118.662V54.8622Z" fill="#6D6E71"/>
<path d="M124.125 58.3426C124.125 59.604 124.429 60.6083 125.06 61.3324C125.597 62.0098 126.391 62.4069 127.255 62.4069C127.793 62.4069 128.306 62.2434 128.727 61.9397C129.147 61.6361 129.498 61.0988 129.778 60.3514L130.058 60.5383C129.918 61.4025 129.521 62.22 128.914 62.874C128.33 63.5514 127.442 63.9485 126.555 63.9251C125.55 63.9251 124.569 63.5047 123.915 62.7339C123.191 61.9397 122.817 60.8653 122.817 59.5105C122.817 58.039 123.191 56.8945 123.939 56.0769C124.663 55.2828 125.69 54.8156 126.765 54.839C127.652 54.8156 128.517 55.166 129.124 55.7967C129.755 56.4273 130.058 57.2682 130.058 58.3426H124.125ZM124.125 57.8054H128.096C128.096 57.4083 128.026 57.0113 127.909 56.6375C127.769 56.3105 127.512 56.0069 127.209 55.82C126.928 55.6331 126.578 55.5164 126.251 55.5164C125.714 55.5164 125.223 55.7266 124.85 56.1237C124.382 56.5675 124.149 57.1748 124.125 57.8054Z" fill="#6D6E71"/>
</svg>
