<svg width="179" height="179" viewBox="0 0 179 179" fill="none" xmlns="http://www.w3.org/2000/svg">
<path d="M178.995 0.58252H0.995117V178.583H178.995V0.58252Z" fill="#1A3062"/>
<path d="M135.241 108.542C135.241 96.0374 125.307 85.8247 112.92 85.3824C109.743 76.3758 101.137 69.9023 91.0421 69.9023C80.9477 69.9023 72.3815 76.3758 69.1641 85.3824C56.7773 85.8247 46.8438 96.0374 46.8438 108.542C46.8438 115.94 50.3426 122.575 55.7719 126.796C55.1687 128.847 54.8469 131.018 54.8469 133.23C54.8469 146.016 65.2631 156.389 78.0521 156.389C82.9183 156.389 87.4226 154.902 91.1226 152.328C94.8225 154.781 99.2464 156.229 103.992 156.229C116.781 156.229 127.157 145.815 127.157 133.069C127.157 130.898 126.835 128.767 126.272 126.756C131.742 122.534 135.241 115.94 135.241 108.542ZM109.582 93.062C109.582 102.35 102.705 110.03 93.7769 111.357C93.616 110.432 93.5356 109.467 93.5356 108.502C93.5356 99.2139 100.413 91.5341 109.341 90.2072C109.461 91.1722 109.582 92.097 109.582 93.062ZM91.1226 146.337C87.6639 142.96 85.4922 138.256 85.4922 133.069C85.4922 127.962 87.5835 123.298 90.9617 119.961C94.4203 123.338 96.5921 128.043 96.5921 133.23C96.5921 138.336 94.5008 143 91.1226 146.337ZM72.7836 90.2475C81.7118 91.5743 88.5889 99.254 88.5889 108.542C88.5889 109.507 88.4682 110.472 88.3476 111.397C79.4194 110.07 72.5423 102.39 72.5423 93.1022C72.5423 92.097 72.6228 91.1723 72.7836 90.2475ZM86.578 116.825C83.5215 122.896 77.288 127.038 70.0489 127.038C66.9924 127.038 64.0968 126.274 61.5631 124.947C64.6196 118.875 70.8533 114.734 78.0923 114.734C81.1488 114.734 84.0444 115.498 86.578 116.825ZM95.466 116.664C98.0399 115.337 100.935 114.533 104.032 114.533C111.311 114.533 117.625 118.755 120.642 124.907C118.068 126.233 115.172 127.038 112.076 127.038C104.756 127.038 98.4823 122.816 95.466 116.664ZM91.0421 74.5665C98.6431 74.5665 105.158 79.1501 108.014 85.704C100.493 87.0308 94.179 92.0166 91.0421 98.7313C87.9052 92.0166 81.5912 87.0308 74.0706 85.704C76.926 79.1501 83.4411 74.5665 91.0421 74.5665ZM51.5089 108.542C51.5089 99.0127 58.748 91.1321 68.0381 90.1269C67.9174 91.0919 67.837 92.097 67.837 93.1022C67.837 99.8973 70.7728 105.969 75.3977 110.231C67.7163 111.115 61.161 115.739 57.6219 122.293C53.8817 118.875 51.5089 113.97 51.5089 108.542ZM59.5523 133.23C59.5523 131.903 59.7132 130.616 59.9545 129.41C63.011 130.898 66.4294 131.702 70.0489 131.702C74.1108 131.702 77.9314 130.656 81.2292 128.807C80.9879 130.174 80.827 131.621 80.827 133.069C80.827 139.341 83.3205 145.011 87.3824 149.192C84.6476 150.8 81.4705 151.725 78.0521 151.725C67.8772 151.765 59.5523 143.442 59.5523 133.23ZM122.532 133.069C122.532 143.282 114.247 151.564 104.032 151.564C100.694 151.564 97.5975 150.68 94.9029 149.152C98.8442 145.01 101.257 139.381 101.257 133.23C101.257 131.702 101.096 130.214 100.815 128.807C104.153 130.656 107.973 131.702 112.035 131.702C115.655 131.702 119.073 130.857 122.13 129.37C122.411 130.576 122.532 131.822 122.532 133.069ZM106.807 110.07C111.392 105.848 114.247 99.7767 114.247 93.062C114.247 92.0568 114.167 91.0918 114.046 90.0866C123.336 91.0918 130.575 98.9324 130.575 108.502C130.575 113.93 128.203 118.795 124.503 122.172C121.004 115.659 114.489 110.995 106.807 110.07Z" fill="white"/>
<path d="M27.6152 15.499V51.4046H21.5827V23.9025H21.5425L17.2795 28.3254H17.2393V22.0127L22.7892 15.499H27.6152Z" fill="white"/>
<path d="M30.3926 15.499H45.5141V21.0478L37.6316 51.4046H31.6393L39.6827 20.4044H30.3926V15.499Z" fill="white"/>
<path d="M58.8262 15.3403H62.5663C65.1 15.3403 66.0652 16.5868 66.0652 18.7178V21.8942C66.0652 23.985 65.1402 25.2717 62.5663 25.2717H61.3598V30.378H58.8262V15.3403ZM61.3598 17.4312V23.3416H62.2848C63.1294 23.3416 63.5315 22.9396 63.5315 22.0952V18.6374C63.5315 17.8332 63.1696 17.4312 62.2848 17.4312H61.3598Z" fill="white"/>
<path d="M66.0645 30.3379L68.8797 15.3403H71.7351L74.5904 30.3379H72.0166L71.534 27.6037H68.8394L68.397 30.3379H66.0645ZM69.2416 25.5933H71.2524L70.247 19.5621H70.2068L69.2416 25.5933Z" fill="white"/>
<path d="M78.1694 23.4623V30.3379H75.6357V15.3403H79.2955C81.8291 15.3403 82.7541 16.5868 82.7541 18.7178V20.6478C82.7541 22.2561 82.1911 23.2211 80.7433 23.5428L83.1563 30.3379H80.502L78.1694 23.4623ZM78.1694 17.4312V22.0952H79.0139C79.8585 22.0952 80.2607 21.6529 80.2607 20.8488V18.6374C80.2607 17.8332 79.8987 17.4312 79.0139 17.4312H78.1694Z" fill="white"/>
<path d="M83.6797 15.3403H90.3557V17.4312H88.3046V30.3379H85.7307V17.4312H83.6797V15.3403Z" fill="white"/>
<path d="M93.6528 20.9292V30.378H91.5615V15.3403H94.0148L96.7495 23.9447V15.3403H98.8408V30.378H96.6288L93.6528 20.9292Z" fill="white"/>
<path d="M100.289 15.3403H106.322V17.4312H102.823V21.6931H105.316V23.7437H102.823V28.2873H106.322V30.3379H100.289V15.3403Z" fill="white"/>
<path d="M110.182 23.4623V30.3379H107.648V15.3403H111.308C113.842 15.3403 114.767 16.5868 114.767 18.7178V20.6478C114.767 22.2561 114.204 23.2211 112.756 23.5428L115.169 30.3379H112.515L110.182 23.4623ZM110.182 17.4312V22.0952H111.027C111.871 22.0952 112.273 21.6529 112.273 20.8488V18.6374C112.273 17.8332 111.911 17.4312 111.027 17.4312H110.182Z" fill="white"/>
<path d="M115.936 27.1201V25.1097H118.268V27.1603C118.268 28.0047 118.63 28.4871 119.515 28.4871C120.319 28.4871 120.681 27.9645 120.681 27.1603V26.5974C120.681 25.753 120.319 25.1901 119.555 24.4664L118.067 22.9787C116.619 21.5714 115.976 20.6868 115.976 18.9579V18.4352C115.976 16.5856 117.062 15.1382 119.515 15.1382C122.049 15.1382 123.054 16.3846 123.054 18.5558V19.7621H120.762V18.4352C120.762 17.5908 120.359 17.1486 119.555 17.1486C118.831 17.1486 118.349 17.5507 118.349 18.3951V18.7167C118.349 19.561 118.831 20.0436 119.555 20.7673L121.164 22.3756C122.531 23.7829 123.215 24.6272 123.215 26.2758V26.9995C123.215 29.0501 122.089 30.4975 119.555 30.4975C116.941 30.5377 115.936 29.0903 115.936 27.1201Z" fill="white"/>
<path d="M129.448 23.7437H126.994V30.3379H124.501V15.3403H126.994V21.6931H129.448V15.3403H131.981V30.3379H129.448V23.7437Z" fill="white"/>
<path d="M135.962 15.3403H133.429V30.3379H135.962V15.3403Z" fill="white"/>
<path d="M137.411 15.3403H141.151C143.685 15.3403 144.61 16.5868 144.61 18.7178V21.8942C144.61 23.985 143.685 25.2717 141.151 25.2717H139.945V30.378H137.411V15.3403ZM139.945 17.4312V23.3416H140.87C141.714 23.3416 142.117 22.9396 142.117 22.0952V18.6374C142.117 17.8332 141.755 17.4312 140.87 17.4312H139.945Z" fill="white"/>
<path d="M145.814 27.1201V25.1097H148.147V27.1603C148.147 28.0047 148.509 28.4871 149.394 28.4871C150.198 28.4871 150.52 27.9645 150.52 27.1603V26.5974C150.52 25.753 150.158 25.1901 149.394 24.4664L147.906 22.9787C146.458 21.5714 145.814 20.6868 145.814 18.9579V18.4352C145.814 16.5856 146.9 15.1382 149.354 15.1382C151.887 15.1382 152.893 16.3846 152.893 18.5558V19.7621H150.6V18.4352C150.6 17.5908 150.198 17.1486 149.394 17.1486C148.67 17.1486 148.187 17.5507 148.187 18.3951V18.7167C148.187 19.561 148.67 20.0436 149.394 20.7673L151.002 22.3756C152.37 23.7829 153.054 24.6272 153.054 26.2758V26.9995C153.054 29.0501 151.927 30.4975 149.354 30.4975C146.78 30.5377 145.814 29.0903 145.814 27.1201Z" fill="white"/>
<path d="M58.8262 36.3691H64.738V38.4197H61.3598V42.7219H63.8533V44.7726H61.3598V51.3666H58.8262V36.3691Z" fill="white"/>
<path d="M65.625 47.5064V40.269C65.625 37.937 66.7913 36.208 69.4456 36.208C72.1402 36.208 73.2662 37.8968 73.2662 40.269V47.5064C73.2662 49.8384 72.0999 51.5674 69.4456 51.5674C66.7511 51.5674 65.625 49.8384 65.625 47.5064ZM70.7326 47.9085V39.8669C70.7326 38.9422 70.3304 38.339 69.4054 38.339C68.5206 38.339 68.1185 38.9824 68.1185 39.8669V47.9085C68.1185 48.8333 68.5206 49.4765 69.4054 49.4765C70.3304 49.4363 70.7326 48.7931 70.7326 47.9085Z" fill="white"/>
<path d="M77.2075 44.4911V51.3666H74.6738V36.3691H78.3336C80.8672 36.3691 81.7922 37.6156 81.7922 39.7466V41.6765C81.7922 43.2848 81.2292 44.2498 79.7814 44.5714L82.1944 51.3666H79.5401L77.2075 44.4911ZM77.2075 38.4197V43.0838H78.0521C78.8966 43.0838 79.2988 42.6415 79.2988 41.8373V39.626C79.2988 38.8218 78.9368 38.4197 78.0521 38.4197H77.2075Z" fill="white"/>
<path d="M85.2461 36.3691H91.9623V38.4197H89.871V51.3666H87.3374V38.4197H85.2461V36.3691Z" fill="white"/>
<path d="M98.0795 44.7726H95.6262V51.3666H93.1328V36.3691H95.6262V42.7219H98.0795V36.3691H100.613V51.3666H98.0795V44.7726Z" fill="white"/>
<path d="M102.061 36.3691H108.093V38.4197H104.594V42.7219H107.088V44.7726H104.594V49.3161H108.093V51.3666H102.061V36.3691Z" fill="white"/>
<path d="M115.569 43.3647H119.148V51.366H117.338V49.7175C117.016 50.8433 116.293 51.5269 114.925 51.5269C112.753 51.5269 111.748 49.7979 111.748 47.4659V40.2285C111.748 37.8965 112.874 36.1675 115.528 36.1675C118.303 36.1675 119.148 37.7356 119.148 39.9068V41.2337H116.856V39.7058C116.856 38.781 116.494 38.2584 115.609 38.2584C114.684 38.2584 114.282 38.9016 114.282 39.7862V47.8277C114.282 48.7525 114.644 49.3556 115.528 49.3556C116.333 49.3556 116.775 48.8732 116.775 47.9082V45.2545H115.569V43.3647Z" fill="white"/>
<path d="M120.562 47.5064V40.269C120.562 37.937 121.729 36.208 124.383 36.208C127.078 36.208 128.204 37.8968 128.204 40.269V47.5064C128.204 49.8384 127.037 51.5674 124.383 51.5674C121.729 51.5674 120.562 49.8384 120.562 47.5064ZM125.67 47.9085V39.8669C125.67 38.9422 125.268 38.339 124.383 38.339C123.498 38.339 123.096 38.9824 123.096 39.8669V47.9085C123.096 48.8333 123.498 49.4765 124.383 49.4765C125.308 49.4363 125.67 48.7931 125.67 47.9085Z" fill="white"/>
<path d="M128.923 51.3666L131.738 36.3691H134.634L137.489 51.3666H134.915L134.433 48.6325H131.738L131.296 51.3666H128.923ZM132.06 46.6221H134.071L133.065 40.5909H133.025L132.06 46.6221Z" fill="white"/>
<path d="M138.494 36.3691H141.028V49.3161H144.044V51.3666H138.494V36.3691Z" fill="white"/>
<path d="M144.971 48.1497V46.1393H147.303V48.19C147.303 49.0343 147.665 49.5168 148.55 49.5168C149.354 49.5168 149.716 48.9941 149.716 48.19V47.627C149.716 46.7826 149.354 46.2197 148.59 45.496L147.102 44.0083C145.654 42.6011 145.011 41.7164 145.011 40.0277V39.5051C145.011 37.6555 146.097 36.208 148.55 36.208C151.084 36.208 152.089 37.4545 152.089 39.6257V40.8319H149.797V39.5452C149.797 38.7008 149.395 38.2586 148.59 38.2586C147.866 38.2586 147.384 38.6607 147.384 39.5051V39.8267C147.384 40.6711 147.866 41.1536 148.59 41.8773L150.199 43.4856C151.566 44.8929 152.25 45.7373 152.25 47.3858V48.1095C152.25 50.1601 151.124 51.6478 148.59 51.6478C145.936 51.5674 144.971 50.1199 144.971 48.1497Z" fill="white"/>
</svg>
