<svg width="179" height="179" viewBox="0 0 179 179" fill="none" xmlns="http://www.w3.org/2000/svg">
<path d="M178.995 0.58252H0.995117V178.583H178.995V0.58252Z" fill="#E63018"/>
<path d="M130.653 67.9302H108.534C108.373 67.9302 108.252 68.0508 108.252 68.2116V75.5697C108.252 75.7305 108.373 75.8511 108.534 75.8511H117.341L107.569 85.6216C102.622 81.7617 96.4285 79.4296 89.7122 79.4296C73.7461 79.4296 60.7158 92.4167 60.7158 108.419C60.7158 123.136 71.7353 135.318 85.9721 137.128V145.612H77.245C77.0841 145.612 76.9635 145.732 76.9635 145.893V153.774C76.9635 153.935 77.0841 154.055 77.245 154.055H85.9721V162.378C85.9721 162.539 86.0927 162.66 86.2536 162.66H94.1361C94.297 162.66 94.4176 162.539 94.4176 162.378V154.055H103.145C103.306 154.055 103.426 153.935 103.426 153.774V145.893C103.426 145.732 103.306 145.612 103.145 145.612H94.4176V137.007C108.172 134.756 118.709 122.814 118.709 108.419C118.709 102.227 116.738 96.4777 113.4 91.7734L123.052 82.1235V90.3661C123.052 90.527 123.173 90.6476 123.334 90.6476H130.693C130.854 90.6476 130.975 90.527 130.975 90.3661V68.2518C130.935 68.0508 130.814 67.9302 130.653 67.9302ZM89.672 129.73C77.9287 129.73 68.357 120.16 68.357 108.419C68.357 96.6788 77.9287 87.1093 89.672 87.1093C101.415 87.1093 110.987 96.6788 110.987 108.419C111.027 120.16 101.456 129.73 89.672 129.73Z" fill="white"/>
<path d="M102.703 99.6533H76.843C76.6822 99.6533 76.5615 99.7739 76.5615 99.8946V106.167C76.5615 106.328 76.6822 106.408 76.843 106.408H102.703C102.863 106.408 102.984 106.288 102.984 106.167V99.8946C103.024 99.7739 102.863 99.6533 102.703 99.6533Z" fill="white"/>
<path d="M102.703 110.833H76.843C76.6822 110.833 76.5615 110.953 76.5615 111.114V117.386C76.5615 117.547 76.6822 117.628 76.843 117.628H102.703C102.863 117.628 102.984 117.507 102.984 117.386V111.114C103.024 110.953 102.863 110.833 102.703 110.833Z" fill="white"/>
<path d="M30.5551 26.8782C28.1823 26.8782 26.4128 27.7225 25.4878 29.371H25.4476V20.4449H35.8235V15.5396H19.9379V35.7641H25.4476V34.9599C25.4476 32.8289 26.4128 31.6629 28.1019 31.6629C29.9519 31.6629 30.716 32.9495 30.716 34.8795V43.5644C30.716 45.4542 30.0323 46.781 28.1823 46.781C26.1313 46.781 25.3671 45.414 25.3671 43.2829V38.7797H19.8574V42.8406C19.8574 48.3089 22.0291 51.7668 28.1823 51.7668C34.2551 51.7668 36.7485 48.5502 36.7485 43.5644V34.7991C36.6681 29.1298 33.7725 26.8782 30.5551 26.8782Z" fill="white"/>
<path d="M57.6194 23.1371H61.1987V31.1385H59.389V29.49C59.0673 30.6158 58.3434 31.2993 56.976 31.2993C54.8043 31.2993 53.7988 29.5704 53.7988 27.2383V20.0009C53.7988 17.6689 54.9249 15.9399 57.5792 15.9399C60.3542 15.9399 61.1987 17.508 61.1987 19.7195V21.0463H58.9064V19.5184C58.9064 18.5937 58.5444 18.071 57.6597 18.071C56.7347 18.071 56.3325 18.7143 56.3325 19.5989V27.6404C56.3325 28.5652 56.6944 29.1683 57.5792 29.1683C58.3835 29.1683 58.826 28.726 58.826 27.7208V25.0671H57.6194V23.1371Z" fill="white"/>
<path d="M62.6455 16.1436H68.678V18.1942H65.1792V22.4964H67.6726V24.547H65.1792V29.0905H68.678V31.1411H62.6455V16.1436Z" fill="white"/>
<path d="M72.1381 21.7324V31.1411H70.0469V16.1436H72.5001L75.2348 24.748V16.1436H77.3261V31.1411H75.1142L72.1381 21.7324Z" fill="white"/>
<path d="M86.2942 20.1643V27.1203C86.2942 29.4121 85.329 31.1411 82.6344 31.1411H78.7334V16.1436H82.6344C85.3692 16.1436 86.2942 17.8725 86.2942 20.1643ZM82.3529 29.0905C83.3986 29.0905 83.8007 28.4874 83.8007 27.5626V19.722C83.8007 18.8375 83.3986 18.2344 82.3529 18.2344H81.3073V29.1307H82.3529V29.0905Z" fill="white"/>
<path d="M87.7422 16.1436H93.7747V18.1942H90.2759V22.4964H92.7693V24.547H90.2759V29.0905H93.7747V31.1411H87.7422V16.1436Z" fill="white"/>
<path d="M97.6362 24.2655V31.1411H95.1025V16.1436H98.7623C101.296 16.1436 102.221 17.39 102.221 19.521V21.451C102.221 23.0593 101.658 24.0243 100.21 24.346L102.623 31.1813H99.9688L97.6362 24.2655ZM97.6362 18.1942V22.8583H98.4808C99.3253 22.8583 99.7275 22.416 99.7275 21.6118V19.4004C99.7275 18.5962 99.3655 18.1942 98.4808 18.1942H97.6362Z" fill="white"/>
<path d="M53.8379 37.1689H59.8704V39.2196H56.3716V43.5218H58.865V45.5322H56.3716V50.1159H59.8704V52.1665H53.8379V37.1689Z" fill="white"/>
<path d="M63.8527 53.1728V52.1676C61.8418 51.8058 60.957 50.3181 60.957 48.3077V41.0703C60.957 38.7382 62.1233 37.0093 64.7776 37.0093C67.4722 37.0093 68.5982 38.698 68.5982 41.0703V48.3077C68.5982 49.9562 68.0352 51.2429 66.7482 51.846L68.5982 52.2078V54.0976L63.8527 53.1728ZM66.1048 48.8304V40.628C66.1048 39.7032 65.7026 39.0599 64.7776 39.0599C63.8929 39.0599 63.4907 39.7032 63.4907 40.628V48.8304C63.4907 49.715 63.8929 50.3985 64.7776 50.3985C65.7026 50.3583 66.1048 49.715 66.1048 48.8304Z" fill="white"/>
<path d="M77.3663 37.1689V48.5075C77.3663 50.8396 76.3609 52.3273 73.787 52.3273C71.1327 52.3273 70.0469 50.8396 70.0469 48.5075V37.1689H72.5805V48.7488C72.5805 49.6334 72.9425 50.2365 73.8272 50.2365C74.712 50.2365 75.074 49.6334 75.074 48.7488V37.1689H77.3663Z" fill="white"/>
<path d="M78.0908 52.1665L80.906 37.1689H83.8016L86.657 52.1665H84.0831L83.6005 49.4323H80.906L80.4636 52.1665H78.0908ZM81.2277 47.4219H83.2386L82.2332 41.3908H82.1929L81.2277 47.4219Z" fill="white"/>
<path d="M87.6621 37.1689H90.1958V50.1159H93.212V52.1665H87.6621V37.1689Z" fill="white"/>
<path d="M96.9106 37.1689H94.377V52.1665H96.9106V37.1689Z" fill="white"/>
<path d="M98.0771 37.1689H104.753V39.2196H102.702V52.1665H100.128V39.2196H98.0771V37.1689Z" fill="white"/>
<path d="M110.866 46.457V52.1665H108.333V46.457L105.518 37.1689H108.132L109.66 42.8382H109.7L111.228 37.1689H113.641L110.866 46.457Z" fill="white"/>
</svg>
