<svg width="179" height="179" viewBox="0 0 179 179" fill="none" xmlns="http://www.w3.org/2000/svg">
<path d="M178.995 0.58252H0.995117V178.583H178.995V0.58252Z" fill="#93122E"/>
<path d="M123.618 88.1583L105.52 105.367C104.837 106.051 104.475 106.533 104.475 107.941V156.15C104.475 156.713 104.917 157.195 105.52 157.195H124.221C124.784 157.195 125.267 156.713 125.267 156.15V88.5603C125.267 87.9974 124.824 86.9922 123.618 88.1583Z" fill="white"/>
<path d="M71.4928 110.552L53.3953 127.761C52.7116 128.445 52.3496 128.927 52.3496 130.334V156.148C52.3496 156.711 52.792 157.193 53.3953 157.193H72.0961C72.6591 157.193 73.1418 156.751 73.1418 156.148V110.994C73.1418 110.431 72.6994 109.386 71.4928 110.552Z" fill="white"/>
<path d="M131.86 67.287C131.86 67.1664 131.82 67.0056 131.699 66.885C131.619 66.8045 131.498 66.7643 131.377 66.7241H131.297H131.136L117.301 69.8603L117.06 69.9005C116.98 69.9407 116.859 69.981 116.779 70.0614C116.577 70.2624 116.577 70.6243 116.779 70.8253L116.939 70.9862L120.117 74.1626L88.7072 105.565L74.1889 91.0901C74.028 90.9292 73.7867 90.9292 73.5856 91.0901L69.6443 95.0304L46.399 118.271C46.2381 118.431 46.2381 118.713 46.399 118.874L50.3402 122.814C50.5011 122.975 50.7424 122.975 50.9435 122.814L73.9074 99.8554L84.4442 110.39C84.4442 110.39 84.4442 110.43 84.4844 110.43L88.4257 114.37C88.5865 114.531 88.868 114.531 89.0289 114.37L124.661 78.7463L127.999 82.0835C128.2 82.2845 128.522 82.2845 128.763 82.0835C128.844 82.0031 128.884 81.8825 128.924 81.7216V81.6814L131.981 67.5283L131.86 67.287Z" fill="white"/>
<path d="M97.6759 113.607L88.9086 122.413C88.7477 122.533 88.5064 122.533 88.3456 122.372L80.4228 114.291C78.975 112.843 78.6533 114.009 78.6533 114.572V156.147C78.6533 156.71 79.0957 157.192 79.6989 157.192H98.3998C98.9628 157.192 99.4455 156.71 99.4455 156.147V113.889C99.4052 113.366 98.9628 112.32 97.6759 113.607Z" fill="white"/>
<path d="M35.4203 42.6008V38.6604C35.4203 35.2427 34.2138 32.7499 31.3986 31.4632C33.7714 30.2972 34.8975 28.1662 34.8975 25.231V23.7433C34.8975 18.1142 32.0019 15.0986 26.4117 15.0986C20.902 15.0986 18.0466 18.1142 18.0466 23.7433V25.231C18.0466 28.1259 19.0922 30.2972 21.4248 31.4632C18.6096 32.7499 17.4434 35.2025 17.4434 38.6604V42.6008C17.4434 48.0288 20.0574 51.8486 26.3715 51.8486C32.8464 51.8486 35.4203 48.069 35.4203 42.6008ZM23.7172 23.3814C23.7172 21.2102 24.4411 19.9236 26.4117 19.9236C28.4226 19.9236 29.1867 21.2102 29.1867 23.3814V25.7939C29.1867 27.9651 28.4226 29.2518 26.4117 29.2518C24.4411 29.2518 23.7172 27.9651 23.7172 25.7939V23.3814ZM29.3878 43.2441C29.3878 45.4153 28.5834 46.9432 26.4117 46.9432C24.2802 46.9432 23.5161 45.4153 23.5161 43.2441V37.4139C23.5161 35.2427 24.3204 33.7148 26.4117 33.7148C28.5834 33.7148 29.3878 35.2427 29.3878 37.4139V43.2441Z" fill="white"/>
<path d="M55.9299 19.5637V26.5197C55.9299 28.8115 54.9647 30.5405 52.2702 30.5405H48.3691V15.543H52.2702C54.9647 15.543 55.9299 17.2317 55.9299 19.5637ZM51.9484 28.4899C52.9941 28.4899 53.3963 27.8868 53.3963 26.962V19.1215C53.3963 18.2369 52.9941 17.5935 51.9484 17.5935H50.9028V28.4899H51.9484Z" fill="white"/>
<path d="M57.3379 15.543H63.3704V17.5935H59.8715V21.8958H62.365V23.9062H59.8715V28.4899H63.3704V30.5405H57.3379V15.543Z" fill="white"/>
<path d="M64.4951 26.6792V19.4419C64.4951 17.1098 65.581 15.3809 68.2353 15.3809C71.0103 15.3809 71.8146 16.9088 71.8146 19.1202V20.8893H69.5222V18.9191C69.5222 17.9944 69.2005 17.4717 68.3157 17.4717C67.431 17.4717 67.0288 18.115 67.0288 18.9996V27.0411C67.0288 27.9659 67.3908 28.569 68.3157 28.569C69.2407 28.569 69.5222 28.0061 69.5222 27.1215V24.3472H71.8146V26.9205C71.8146 29.0515 70.9298 30.6598 68.2353 30.6598C65.581 30.7 64.4951 28.9711 64.4951 26.6792Z" fill="white"/>
<path d="M73.1816 15.543H79.2142V17.5935H75.7153V21.8958H78.2088V23.9062H75.7153V28.4899H79.2142V30.5405H73.1816V15.543Z" fill="white"/>
<path d="M82.6735 21.1319V30.5405H80.542V15.543H83.0355L85.7702 24.1474V15.543H87.8615V30.5405H85.6496L82.6735 21.1319Z" fill="white"/>
<path d="M88.9883 15.543H95.7045V17.5935H93.6132V30.5405H91.0795V17.5935H88.9883V15.543Z" fill="white"/>
<path d="M104.635 21.2525L103.227 30.5405H100.855L98.8438 15.543H101.297L102.463 25.0722H102.504L103.75 15.543H105.801L107.209 25.0722L108.375 15.543H110.507L108.536 30.5405H106.163L104.675 21.2525H104.635Z" fill="white"/>
<path d="M111.348 26.6792V19.4419C111.348 17.1098 112.514 15.3809 115.168 15.3809C117.863 15.3809 118.989 17.0696 118.989 19.4419V26.6792C118.989 29.0113 117.823 30.7402 115.168 30.7402C112.514 30.7 111.348 28.9711 111.348 26.6792ZM116.455 27.0813V19.0398C116.455 18.115 116.053 17.5119 115.128 17.5119C114.243 17.5119 113.841 18.1552 113.841 19.0398V27.0813C113.841 28.0061 114.243 28.6494 115.128 28.6494C116.053 28.6092 116.455 27.9659 116.455 27.0813Z" fill="white"/>
<path d="M122.931 23.6649V30.5405H120.397V15.543H124.057C126.591 15.543 127.516 16.7894 127.516 18.9204V20.8504C127.516 22.4587 126.953 23.4237 125.505 23.7454L127.918 30.5807H125.264L122.931 23.6649ZM122.931 17.5935V22.2577H123.776C124.62 22.2577 125.022 21.8154 125.022 21.0112V18.7998C125.022 17.9956 124.66 17.5935 123.776 17.5935H122.931Z" fill="white"/>
<path d="M131.457 23.2226V30.5405H128.923V15.543H131.457V22.137L134.191 15.543H136.685L133.749 22.2979L136.765 30.5405H134.111L131.457 23.2226Z" fill="white"/>
<path d="M139.621 30.5405L142.436 15.543H145.292L148.147 30.5405H145.613L145.131 27.8063H142.436L141.994 30.5405H139.621ZM142.798 25.7959H144.809L143.804 19.7648H143.763L142.798 25.7959Z" fill="white"/>
<path d="M151.363 21.1319V30.5405H149.231V15.543H151.725L154.419 24.1474V15.543H156.511V30.5405H154.299L151.363 21.1319Z" fill="white"/>
<path d="M165.52 19.5637V26.5197C165.52 28.8115 164.555 30.5405 161.86 30.5405H157.959V15.543H161.86C164.555 15.543 165.52 17.2317 165.52 19.5637ZM161.538 28.4899C162.584 28.4899 162.986 27.8868 162.986 26.962V19.1215C162.986 18.2369 162.584 17.5935 161.538 17.5935H160.493V28.4899H161.538Z" fill="white"/>
<path d="M48.3691 36.5298H54.4017V38.6206H50.9028V42.8826H53.3963V44.9332H50.9028V49.4767H54.4017V51.5675H48.3691V36.5298Z" fill="white"/>
<path d="M55.5273 47.668V40.4306C55.5273 38.0985 56.6534 36.3696 59.3077 36.3696C62.0827 36.3696 62.887 37.9377 62.887 40.1491V41.9183H60.5947V39.9481C60.5947 39.0233 60.2729 38.5006 59.3882 38.5006C58.5034 38.5006 58.1012 39.144 58.1012 40.0285V48.0701C58.1012 48.9949 58.4632 49.598 59.3882 49.598C60.3132 49.598 60.5947 49.0351 60.5947 48.1505V45.3762H62.887V47.9495C62.887 50.0805 62.0022 51.6888 59.3077 51.6888C56.6132 51.729 55.5273 50.0001 55.5273 47.668Z" fill="white"/>
<path d="M64.2148 47.668V40.4306C64.2148 38.0985 65.3812 36.3696 68.0355 36.3696C70.73 36.3696 71.8561 38.0583 71.8561 40.4306V47.668C71.8561 50.0001 70.6898 51.729 68.0355 51.729C65.3409 51.729 64.2148 50.0001 64.2148 47.668ZM69.3224 48.0701V40.0285C69.3224 39.1037 68.9202 38.4604 67.9952 38.4604C67.1105 38.4604 66.7083 39.1037 66.7083 40.0285V48.0701C66.7083 48.9949 67.1105 49.6382 67.9952 49.6382C68.9202 49.6382 69.3224 48.9949 69.3224 48.0701Z" fill="white"/>
<path d="M75.3961 42.1187V51.5675H73.2646V36.5298H75.7581L78.4929 45.1343V36.5298H80.5841V51.5675H78.3722L75.3961 42.1187Z" fill="white"/>
<path d="M82.0352 47.668V40.4306C82.0352 38.0985 83.2014 36.3696 85.8557 36.3696C88.5503 36.3696 89.6764 38.0583 89.6764 40.4306V47.668C89.6764 50.0001 88.5101 51.729 85.8557 51.729C83.1612 51.729 82.0352 50.0001 82.0352 47.668ZM87.1427 48.0701V40.0285C87.1427 39.1037 86.7405 38.4604 85.8156 38.4604C84.9308 38.4604 84.5286 39.1037 84.5286 40.0285V48.0701C84.5286 48.9949 84.9308 49.6382 85.8156 49.6382C86.7405 49.6382 87.1427 48.9949 87.1427 48.0701Z" fill="white"/>
<path d="M98.0405 41.7959H97.9601L96.271 51.5664H95.1047L93.2145 41.7959H93.1743V51.5664H91.083V36.5688H94.0189L95.6677 45.0125H95.708L97.1558 36.5688H100.333V51.5664H98.0405V41.7959Z" fill="white"/>
<path d="M104.31 36.5298H101.776V51.5273H104.31V36.5298Z" fill="white"/>
<path d="M105.76 47.668V40.4306C105.76 38.0985 106.886 36.3696 109.5 36.3696C112.275 36.3696 113.079 37.9377 113.079 40.1491V41.9183H110.787V39.9481C110.787 39.0233 110.465 38.5006 109.58 38.5006C108.696 38.5006 108.293 39.144 108.293 40.0285V48.0701C108.293 48.9949 108.655 49.598 109.58 49.598C110.505 49.598 110.787 49.0351 110.787 48.1505V45.3762H113.079V47.9495C113.079 50.0805 112.194 51.6888 109.5 51.6888C106.886 51.729 105.76 50.0001 105.76 47.668Z" fill="white"/>
<path d="M120.596 43.5278H124.175V51.5291H122.366V49.8806C122.044 51.0064 121.32 51.6899 119.953 51.6899C117.781 51.6899 116.775 49.961 116.775 47.629V40.3916C116.775 38.0595 117.901 36.3306 120.556 36.3306C123.331 36.3306 124.175 37.8987 124.175 40.1101V41.4369H121.883V39.9091C121.883 38.9843 121.521 38.4616 120.636 38.4616C119.711 38.4616 119.309 39.1049 119.309 39.9895V48.031C119.309 48.9558 119.671 49.5589 120.556 49.5589C121.36 49.5589 121.803 49.1167 121.803 48.1115V45.4577H120.596V43.5278Z" fill="white"/>
<path d="M128.123 44.6517V51.5273H125.589V36.5298H129.249C131.782 36.5298 132.707 37.7762 132.707 39.9072V41.8372C132.707 43.4455 132.144 44.4105 130.696 44.7322L133.109 51.5675H130.455L128.123 44.6517ZM128.123 38.6206V43.2847H128.967C129.812 43.2847 130.214 42.8424 130.214 42.0382V39.8268C130.214 39.0227 129.852 38.6206 128.967 38.6206H128.123Z" fill="white"/>
<path d="M134.111 47.668V40.4306C134.111 38.0985 135.278 36.3696 137.932 36.3696C140.626 36.3696 141.753 38.0583 141.753 40.4306V47.668C141.753 50.0001 140.586 51.729 137.932 51.729C135.278 51.729 134.111 50.0001 134.111 47.668ZM139.219 48.0701V40.0285C139.219 39.1037 138.817 38.4604 137.932 38.4604C137.047 38.4604 136.645 39.1037 136.645 40.0285V48.0701C136.645 48.9949 137.047 49.6382 137.932 49.6382C138.817 49.6382 139.219 48.9949 139.219 48.0701Z" fill="white"/>
<path d="M148.431 42.2783L146.983 51.5664H144.651L142.6 36.5688H145.053L146.219 46.0579H146.259L147.506 36.5688H149.557L150.965 46.0579L152.131 36.5688H154.263L152.292 51.5664H149.919L148.431 42.2783Z" fill="white"/>
<path d="M155.063 36.5298H161.739V38.6206H159.688V51.5675H157.115V38.6206H155.063V36.5298Z" fill="white"/>
<path d="M167.895 44.9332H165.442V51.5675H162.908V36.5298H165.442V42.8826H167.895V36.5298H170.429V51.5675H167.895V44.9332Z" fill="white"/>
</svg>
